<svg xmlns="http://www.w3.org/2000/svg" viewBox="0 0 167.28 220.51"><defs><style>.cls-1,.cls-2{fill:#ff6602;}.cls-1{fill-rule:evenodd;}</style></defs><title>Ebene 1</title><g id="Ebene_2" data-name="Ebene 2"><g id="Ebene_1-2" data-name="Ebene 1"><path class="cls-1" d="M98.85,205.3H15.21A15.22,15.22,0,0,1,0,190.05V15.25A15.23,15.23,0,0,1,15.25,0h83.6l45.62,53.23v78.61a26.67,26.67,0,0,1,15.21,24.08v11.36a7.62,7.62,0,0,1,7.6,7.64v37.94a7.57,7.57,0,0,1-7.6,7.65H106.45a7.61,7.61,0,0,1-7.6-7.65Zm0-7.6H15.21a7.63,7.63,0,0,1-7.61-7.57v-175A7.62,7.62,0,0,1,15.17,7.6H91.24v38a15.17,15.17,0,0,0,15.21,15.25h30.42v68.71a23.73,23.73,0,0,0-3.81-.28,26.63,26.63,0,0,0-26.61,26.66v11.36a7.56,7.56,0,0,0-7.6,7.64Zm15.2-30.42V156a19,19,0,1,1,38,0v11.32ZM98.85,11.41V45.54a7.67,7.67,0,0,0,7.56,7.69h28.15Zm11.44,163.47a3.77,3.77,0,0,0-3.84,3.81V209.1a3.86,3.86,0,0,0,3.84,3.8h45.54a3.77,3.77,0,0,0,3.85-3.8V178.69a3.88,3.88,0,0,0-3.85-3.81Z"/><path id="Fill-68" class="cls-2" d="M141.46,187a6.9,6.9,0,1,1-6.9-6.9,7,7,0,0,1,6.9,6.9"/><polyline id="Fill-69" class="cls-2" points="136.29 187 132.84 187 129.39 207.68 139.74 207.68 136.29 187"/></g></g></svg>