<svg xmlns="http://www.w3.org/2000/svg" viewBox="0 0 264.54 375.93"><defs><style>.cls-1,.cls-2{fill:#f26622;}.cls-1{fill-rule:evenodd;}</style></defs><title>Ebene 1</title><g id="Ebene_2" data-name="Ebene 2"><g id="Ebene_1-2" data-name="Ebene 1"><path class="cls-1" d="M174,0H27.92A27.89,27.89,0,0,0,0,27.92V348a27.87,27.87,0,0,0,27.85,27.92H236.7a27.82,27.82,0,0,0,27.84-27.7V97.46L181,0Zm-7,13.92H27.77A14,14,0,0,0,13.92,27.77V348.16A14,14,0,0,0,27.85,362H236.7a13.87,13.87,0,0,0,13.92-13.85V111.39H194.93a27.78,27.78,0,0,1-27.85-27.92Zm13.92,7v62.5a14,14,0,0,0,13.85,14.07h51.56Z"/><g id="layer1"><g id="g2997"><path id="path2995" class="cls-2" d="M129.48,163.4a82.62,82.62,0,0,0-59.81,27.68,89.19,89.19,0,0,0-20.21,38l11.31,3.2c10.38-40.76,50-64.84,88.74-53.92,22.66,6.39,40.84,23.86,49,46.73h-9.72l15.79,37.16,15.81-37.16h-9.48c-8.69-28.68-30.67-50.82-58.39-58.64A80,80,0,0,0,129.48,163.4Z"/><path id="path3036" class="cls-2" d="M52,254.86l-6.13,40.21,9.92-2.8A85.71,85.71,0,0,0,101.28,335c43.47,17.11,92.06-6.2,108.32-51.95l-11-4.31c-14,39.52-55.7,59.51-93.25,44.73a73.62,73.62,0,0,1-38-34.42l9-2.54Z"/></g></g></g></g></svg>