<?xml version="1.0" encoding="UTF-8" standalone="no"?>
<svg
   xmlns:dc="http://purl.org/dc/elements/1.1/"
   xmlns:cc="http://creativecommons.org/ns#"
   xmlns:rdf="http://www.w3.org/1999/02/22-rdf-syntax-ns#"
   xmlns:svg="http://www.w3.org/2000/svg"
   xmlns="http://www.w3.org/2000/svg"
   xmlns:sodipodi="http://sodipodi.sourceforge.net/DTD/sodipodi-0.dtd"
   xmlns:inkscape="http://www.inkscape.org/namespaces/inkscape"
   height="512"
   version="1.1"
   viewBox="0 0 32 32"
   width="512"
   id="svg34"
   sodipodi:docname="Formatierung.svg"
   inkscape:version="0.92.3 (2405546, 2018-03-11)"
   inkscape:export-filename="D:\Knowlance\Icons\Done\SVG\512w\Formatierung.png"
   inkscape:export-xdpi="2586.9473"
   inkscape:export-ydpi="2586.9473">
  <metadata
     id="metadata38">
    <rdf:RDF>
      <cc:Work
         rdf:about="">
        <dc:format>image/svg+xml</dc:format>
        <dc:type
           rdf:resource="http://purl.org/dc/dcmitype/StillImage" />
        <dc:title />
      </cc:Work>
    </rdf:RDF>
  </metadata>
  <sodipodi:namedview
     pagecolor="#ffffff"
     bordercolor="#666666"
     borderopacity="1"
     objecttolerance="10"
     gridtolerance="10"
     guidetolerance="10"
     inkscape:pageopacity="0"
     inkscape:pageshadow="2"
     inkscape:window-width="2560"
     inkscape:window-height="1377"
     id="namedview36"
     showgrid="false"
     inkscape:zoom="1.6683301"
     inkscape:cx="206.2128"
     inkscape:cy="177.41812"
     inkscape:window-x="-8"
     inkscape:window-y="-8"
     inkscape:window-maximized="1"
     inkscape:current-layer="svg34" />
  <desc
     id="desc27" />
  <defs
     id="defs29" />
  <g
     id="Page-1"
     style="fill:#ff6602;fill-opacity:1;fill-rule:evenodd;stroke:none;stroke-width:1">
    <g
       id="icon-137-document-certificate"
       style="fill:#ff6602;fill-opacity:1">
      <path
         d="M 22,24.949491 V 26 h 2.00004 C 24.552303,26 25,25.555054 25,25.006602 V 8 H 20.997913 C 19.894496,8 19,7.1134452 19,5.9940809 V 1 H 8.9955775 C 8.4457352,1 8,1.4552629 8,1.995457 V 25.004543 C 8,25.554319 8.4547089,26 8.9999602,26 H 17 v 0 -1.050509 C 16.381406,24.318223 16,23.453653 16,22.5 16,20.567003 17.567003,19 19.5,19 c 1.932997,0 3.5,1.567003 3.5,3.5 0,0.953653 -0.381407,1.818223 -1,2.449491 z m -4,0.713693 v 3.936792 l 1.5,-1.49997 1.5,1.49997 V 25.663184 C 20.545372,25.879154 20.036799,26 19.5,26 18.963201,26 18.454628,25.879154 18,25.663184 Z M 22,27 h 2.002578 C 25.105724,27 26,26.101788 26,25.009205 V 7 7 L 20,0 H 9.0027601 C 7.8966662,0 7,0.89833832 7,2.0073299 V 24.99267 C 7,26.101288 7.8909254,27 8.9974219,27 H 17 v 5 L 19.5,29.5 22,32 V 27 Z M 20,1.5 V 5.9912152 C 20,6.5483517 20.450651,7 20.996739,7 h 3.703212 z M 10,7 v 1 h 7 V 7 Z m 0,-3 v 1 h 7 V 4 Z m 0,6 v 1 h 13 v -1 z m 0,3 v 1 h 13 v -1 z m 0,3 v 1 h 13 v -1 z m 9.5,9 C 20.880712,25 22,23.880712 22,22.5 22,21.119288 20.880712,20 19.5,20 18.119288,20 17,21.119288 17,22.5 c 0,1.380712 1.119288,2.5 2.5,2.5 z"
         id="document-certificate"
         style="fill:#ff6602;fill-opacity:1"
         inkscape:connector-curvature="0" />
    </g>
  </g>
</svg>
