<?xml version="1.0" encoding="utf-8"?>
<!-- Generator: Adobe Illustrator 22.0.1, SVG Export Plug-In . SVG Version: 6.00 Build 0)  -->
<svg version="1.1" id="Layer_1" xmlns="http://www.w3.org/2000/svg" xmlns:xlink="http://www.w3.org/1999/xlink" x="0px" y="0px"
	 viewBox="0 0 77.5 56" style="enable-background:new 0 0 77.5 56;" xml:space="preserve">
<style type="text/css">
	.st0{fill:#FFFFFF;}
	.st1{fill:#ACDDF4;}
	.st2{fill:#3971B7;}
	.st3{fill:#EC671F;}
</style>
<rect class="st0" width="77.5" height="56"/>
<path id="path286" class="st1" d="M59.3,13.8v3.6h-1.6c0,0,0,0,0,0H19.8c0,0,0,0,0,0h-1.6v-3.6h11.6h0h17.8h0H59.3"/>
<path id="path296" class="st2" d="M52,40.9v0.9H25.5v-0.9H52"/>
<path id="path298" class="st2" d="M52,37.5v0.9H25.5v-0.9H52"/>
<path id="path300" class="st2" d="M42.8,44.3v0.9h-1.7v-0.9H42.8"/>
<path id="path302" class="st2" d="M39.7,44.3v0.9H38v-0.9H39.7"/>
<path id="path304" class="st2" d="M36.5,44.3v0.9h-11v-0.9H36.5"/>
<path id="path308" class="st3" d="M17.4,13.3c0-0.2,0.2-0.4,0.4-0.4h11.9l7.2-4.4c0-0.2-0.1-0.3-0.1-0.5c0-1,0.9-1.9,1.9-1.9
	c1,0,1.9,0.8,1.9,1.9c0,0.2,0,0.3-0.1,0.5l7.2,4.4h11.9c0.2,0,0.4,0.2,0.4,0.4v4.4c0,0.2-0.2,0.4-0.4,0.4h-1.6v30.1h1.6
	c0.2,0,0.4,0.2,0.4,0.4c0,0.2-0.2,0.4-0.4,0.4h-2H19.8h-2c-0.2,0-0.4-0.2-0.4-0.4c0-0.2,0.2-0.4,0.4-0.4h1.6V18.2h-1.6
	c-0.2,0-0.4-0.2-0.4-0.4L17.4,13.3z M18.2,17.3h1.6c0,0,0,0,0,0h37.8c0,0,0,0,0,0h1.6v-3.6H47.7h0H29.8h0H18.2L18.2,17.3z
	 M20.3,18.2v30.1h36.9V18.2H20.3z M40.2,9.3c-0.3,0.4-0.8,0.6-1.4,0.6c-0.6,0-1.1-0.2-1.4-0.6l-6,3.6h14.8L40.2,9.3"/>
<path id="path296_1_" class="st2" d="M52,28.7v0.9H25.5v-0.9H52"/>
<path id="path298_1_" class="st2" d="M52,25.3v0.9H25.5v-0.9H52"/>
<path id="path300_1_" class="st2" d="M42.8,32.1v0.9h-1.7v-0.9H42.8"/>
<path id="path302_1_" class="st2" d="M39.7,32.1v0.9H38v-0.9H39.7"/>
<path id="path304_1_" class="st2" d="M36.5,32.1v0.9h-11v-0.9H36.5"/>
</svg>
