<?xml version="1.0" encoding="utf-8"?>
<!-- Generator: Adobe Illustrator 22.0.1, SVG Export Plug-In . SVG Version: 6.00 Build 0)  -->
<svg version="1.1" id="Layer_1" xmlns="http://www.w3.org/2000/svg" xmlns:xlink="http://www.w3.org/1999/xlink" x="0px" y="0px"
	 viewBox="0 0 77.5 56" style="enable-background:new 0 0 77.5 56;" xml:space="preserve">
<style type="text/css">
	.st0{fill:#FFFFFF;}
	.st1{fill:#ACDDF4;}
	.st2{fill:#3971B7;}
	.st3{fill:#EC671F;}
</style>
<rect class="st0" width="77.5" height="56"/>
<path id="path118" class="st1" d="M61.5,40.9v5c0,0.5-0.6,1.4-1.3,1.4H16.7c-0.7,0-1.3-0.8-1.3-1.4v-5h18.1l1.5,1.3
	c0.1,0.1,0.3,0.2,0.5,0.2h5.8c0.2,0,0.3,0,0.4-0.1l1.9-1.3H61.5"/>
<path id="path120" class="st1" d="M27.9,26.7c0.8,0,1.4,0.6,1.4,1.4c0,0.8-0.6,1.4-1.4,1.4c-0.8,0-1.4-0.6-1.4-1.4
	C26.4,27.4,27.1,26.7,27.9,26.7"/>
<path id="path122" class="st1" d="M36.4,18c0.8,0,1.4,0.6,1.4,1.4c0,0.8-0.6,1.4-1.4,1.4c-0.8,0-1.4-0.6-1.4-1.4
	C35,18.7,35.6,18,36.4,18"/>
<path id="path124" class="st1" d="M42.2,24.4c0.8,0,1.4,0.6,1.4,1.4c0,0.8-0.6,1.4-1.4,1.4c-0.8,0-1.4-0.6-1.4-1.4
	C40.8,25.1,41.5,24.4,42.2,24.4"/>
<path id="path126" class="st1" d="M49,19.3c0.8,0,1.4,0.6,1.4,1.4c0,0.8-0.6,1.4-1.4,1.4c-0.8,0-1.4-0.6-1.4-1.4
	C47.5,19.9,48.2,19.3,49,19.3"/>
<path id="path128" class="st2" d="M37.9,22c-0.4,0.2-0.9,0.4-1.4,0.4c-0.6,0-1.2-0.2-1.6-0.5l-4.4,4.7c0.3,0.5,0.4,1,0.4,1.5
	c0,1.6-1.3,3-3,3c-1.6,0-3-1.3-3-3s1.3-3,3-3c0.5,0,1,0.1,1.4,0.4l4.5-4.8c-0.2-0.4-0.3-0.8-0.3-1.3c0-1.6,1.3-3,3-3
	c1.6,0,3,1.3,3,3c0,0.5-0.2,1.1-0.4,1.5l1.9,2.3c0.4-0.2,0.9-0.4,1.4-0.4c0.7,0,1.4,0.3,1.9,0.7l2.1-1.8c-0.1-0.3-0.2-0.7-0.2-1.1
	c0-1.6,1.3-3,3-3c1.6,0,3,1.3,3,3c0,1.6-1.3,3-3,3c-0.7,0-1.3-0.3-1.8-0.7L45,24.8c0.1,0.3,0.2,0.7,0.2,1c0,1.6-1.3,3-3,3
	c-1.6,0-3-1.3-3-3c0-0.6,0.2-1.1,0.4-1.6L37.9,22z M36.4,20.9c0.8,0,1.4-0.6,1.4-1.4c0-0.8-0.6-1.4-1.4-1.4c-0.8,0-1.4,0.6-1.4,1.4
	C35,20.3,35.6,20.9,36.4,20.9z M27.9,29.6c0.8,0,1.4-0.6,1.4-1.4c0-0.8-0.6-1.4-1.4-1.4c-0.8,0-1.4,0.6-1.4,1.4
	C26.4,29,27.1,29.6,27.9,29.6z M49,22.2c0.8,0,1.4-0.6,1.4-1.4c0-0.8-0.6-1.4-1.4-1.4c-0.8,0-1.4,0.6-1.4,1.4
	C47.5,21.5,48.2,22.2,49,22.2z M43.7,25.8c0-0.8-0.6-1.4-1.4-1.4c-0.8,0-1.4,0.6-1.4,1.4c0,0.8,0.6,1.4,1.4,1.4
	C43,27.3,43.7,26.6,43.7,25.8"/>
<path id="path130" class="st3" d="M15.4,40.9v5c0,0.5,0.6,1.4,1.3,1.4h43.5c0.7,0,1.3-0.8,1.3-1.4v-5H43.6l-1.9,1.3
	c-0.1,0.1-0.3,0.1-0.4,0.1h-5.8c-0.2,0-0.3-0.1-0.5-0.2l-1.5-1.3H15.4z M14.6,39.3h3.5V9.8c0-1.7,1.3-3.1,2.8-3.1h34.9
	c1.6,0,2.8,1.4,2.8,3.1v29.5h3.5c0.4,0,0.8,0.3,0.8,0.8v5.7c0,1.3-1.2,2.9-2.8,2.9H16.7c-1.6,0-2.8-1.6-2.8-2.9v-5.7
	C13.9,39.7,14.2,39.3,14.6,39.3z M35.7,40.8H41l1.9-1.3c0.1-0.1,0.3-0.1,0.4-0.1h13.8V9.8c0-0.9-0.6-1.6-1.3-1.6H21
	c-0.7,0-1.3,0.7-1.3,1.6v29.5h14c0.2,0,0.3,0.1,0.5,0.2L35.7,40.8"/>
<path id="path210" class="st2" d="M48.8,30.9v1.5H33.9v-1.5H48.8"/>
<path id="path212" class="st2" d="M48.8,34v1.5H33.9V34H48.8"/>
</svg>
