<?xml version="1.0" encoding="utf-8"?>
<!-- Generator: Adobe Illustrator 22.0.1, SVG Export Plug-In . SVG Version: 6.00 Build 0)  -->
<svg version="1.1" id="Layer_1" xmlns="http://www.w3.org/2000/svg" xmlns:xlink="http://www.w3.org/1999/xlink" x="0px" y="0px"
	 viewBox="0 0 77.5 56" style="enable-background:new 0 0 77.5 56;" xml:space="preserve">
<style type="text/css">
	.st0{fill:#FFFFFF;}
	.st1{fill:#ACDDF4;}
	.st2{fill:#3971B7;}
	.st3{fill:#EC671F;}
</style>
<rect class="st0" width="77.5" height="56"/>
<path id="path156" class="st1" d="M44.3,26.6v4.1h-4.3v-4.1H44.3"/>
<path id="path158" class="st1" d="M54.6,13.4v4.1h-4.3v-4.1H54.6"/>
<path id="path160" class="st1" d="M64.8,26.6v4.1h-4.3v-4.1H64.8"/>
<path id="path162" class="st1" d="M54.6,26.6v4.1h-4.3v-4.1H54.6"/>
<path id="path164" class="st2" d="M41.5,25.5v-3.4c0-0.3,0.3-0.6,0.6-0.6h9.7v-2.9h-2.2c-0.3,0-0.6-0.3-0.6-0.6v-5.2
	c0-0.3,0.3-0.6,0.6-0.6h5.5c0.3,0,0.6,0.3,0.6,0.6v5.2c0,0.3-0.3,0.6-0.6,0.6H53v2.9h9.7c0.3,0,0.6,0.3,0.6,0.6v3.4h2.2
	c0.3,0,0.6,0.3,0.6,0.6v5.2c0,0.3-0.3,0.6-0.6,0.6h-5.5c-0.3,0-0.6-0.3-0.6-0.6V26c0-0.3,0.3-0.6,0.6-0.6h2.2v-2.8H53v2.8h2.2
	c0.3,0,0.6,0.3,0.6,0.6v5.2c0,0.3-0.3,0.6-0.6,0.6h-5.5c-0.3,0-0.6-0.3-0.6-0.6V26c0-0.3,0.3-0.6,0.6-0.6h2.2v-2.8h-9.1v2.8h2.2
	c0.3,0,0.6,0.3,0.6,0.6v5.2c0,0.3-0.3,0.6-0.6,0.6h-5.5c-0.3,0-0.6-0.3-0.6-0.6V26c0-0.3,0.3-0.6,0.6-0.6H41.5z M39.9,30.7h4.3v-4.1
	h-4.3V30.7z M54.6,13.4h-4.3v4.1h4.3V13.4z M54.6,26.6h-4.3v4.1h4.3V26.6z M64.8,30.7v-4.1h-4.3v4.1H64.8"/>
<path id="path166" class="st3" d="M12.2,38.9l2.6,5.1c0,0,0,0.1,0.1,0.1l4.6,9l7.3-14.3l-5,1.6c-0.2,0.1-0.4,0-0.5-0.1
	c-0.2-0.1-0.2-0.3-0.2-0.5v-7.1l-2.9,0v7.1c0,0.2-0.1,0.4-0.2,0.5c-0.2,0.1-0.3,0.1-0.5,0.1L12.2,38.9z M9.1,44.9
	c-4.1,0-7.4-3.3-7.4-7.4c0-4.1,3.3-7.4,7.4-7.4c0.1,0,0.2,0,0.4,0c0.6-4.7,4.6-8.3,9.4-8.3c4,0,7.6,2.6,8.9,6.3
	c0.5-0.1,1.1-0.2,1.6-0.2c1,0,1.9,0.2,2.8,0.5V7.9c0-1.5,1.3-2.8,2.8-2.8h14.7V4.6c0-1.5,1.2-2.7,2.7-2.7c0.7,0,1.4,0.3,1.9,0.8
	c0.5,0.5,0.8,1.2,0.8,1.9v0.6h14.7c1.5,0,2.8,1.2,2.8,2.8v27.9c0,1.5-1.3,2.8-2.8,2.8H53v5.8l9.3,3.9c0.3,0.1,0.4,0.5,0.3,0.8
	c-0.1,0.2-0.3,0.4-0.5,0.4c-0.1,0-0.2,0-0.2,0l-9.5-4l-9.5,4c-0.1,0-0.2,0-0.2,0c-0.2,0-0.4-0.1-0.5-0.4c-0.1-0.3,0-0.6,0.3-0.8
	l9.3-3.9v-5.8H37.6c-1,3.6-4.2,6.3-8.1,6.3H25l-4.6,9c-0.1,0.3-0.5,0.6-0.9,0.6s-0.8-0.2-0.9-0.6l-4.6-9H9.1z M26.9,29
	c-1.1-3.5-4.3-6-8-6c-4.4,0-8,3.4-8.3,7.8c0,0.2-0.1,0.3-0.2,0.4s-0.3,0.1-0.4,0.1c-0.3,0-0.5-0.1-0.8-0.1c-3.4,0-6.2,2.8-6.2,6.2
	s2.8,6.2,6.2,6.2h4.3l-2.3-4.5c-0.2-0.4-0.1-0.9,0.2-1.2c0.3-0.3,0.8-0.5,1.2-0.3l4.5,1.4v-6.9c0-0.3,0.3-0.6,0.6-0.6l4.1,0
	c0,0,0,0,0,0c0.2,0,0.3,0.1,0.4,0.2c0.1,0.1,0.2,0.3,0.2,0.4v6.9l4.4-1.5c0.4-0.2,0.9-0.1,1.2,0.3c0.3,0.3,0.3,0.8,0.2,1.2l-2.4,4.6
	h3.9c4,0,7.3-3.3,7.3-7.3c0-4-3.3-7.3-7.3-7.3c-0.6,0-1.2,0.1-1.8,0.2C27.3,29.5,27,29.3,26.9,29L26.9,29z M33.4,29
	c2.7,1.4,4.5,4.2,4.5,7.5c0,0.3,0,0.7-0.1,1h31.9c0.9,0,1.6-0.7,1.6-1.6V7.9c0-0.9-0.7-1.6-1.6-1.6H35c-0.9,0-1.6,0.7-1.6,1.6
	L33.4,29z M53.9,5.2V4.6c0-0.4-0.2-0.8-0.4-1.1c-0.3-0.3-0.7-0.4-1.1-0.4c-0.8,0-1.5,0.7-1.5,1.5v0.6H53.9"/>
</svg>
