<svg xmlns="http://www.w3.org/2000/svg" xmlns:xlink="http://www.w3.org/1999/xlink" version="1.1" id="Ebene_1" x="0px" y="0px" viewBox="0 0 75 75" style="enable-background:new 0 0 75 75;" xml:space="preserve">
<style type="text/css">
	.st0{fill:#ff6606;}
</style>
<g>
	<path class="st0" d="M28.2,21.7l8.3-8.3V41c0,0.6,0.4,1,1,1s1-0.4,1-1V13.4l8.3,8.3c0.2,0.2,0.5,0.3,0.7,0.3s0.5-0.1,0.7-0.3   c0.4-0.4,0.4-1,0-1.4l-10-10c-0.1-0.1-0.2-0.2-0.3-0.2c-0.2-0.1-0.5-0.1-0.8,0c-0.1,0.1-0.2,0.1-0.3,0.2l-10,10   c-0.4,0.4-0.4,1,0,1.4C27.2,22.1,27.8,22.1,28.2,21.7z" fill="#ff6606"/>
	<path class="st0" d="M53.5,33h-9c-0.6,0-1,0.4-1,1s0.4,1,1,1h9c0.7,0,3,0.1,3,2v16h-38V37.5c0-1.6,1.5-2.5,3-2.5h9c0.6,0,1-0.4,1-1   s-0.4-1-1-1h-9c-2.8,0-5,2-5,4.5V56c0,2.7,2.3,5,5,5h15v2h-6.4c-0.6,0-1,0.4-1,1c0,0.6,0.4,1,1,1h15.1c0.6,0,1-0.4,1-1   c0-0.6-0.4-1-1-1h-6.7v-2h15c2.6,0,5-2.4,5-5V37C58.5,34.6,56.5,33,53.5,33z M53.5,59h-32c-1.5,0-3-1.5-3-3v-1h38v1   C56.5,57.5,55,59,53.5,59z" fill="#ff6606"/>
</g>
</svg>