<svg xmlns="http://www.w3.org/2000/svg" xmlns:xlink="http://www.w3.org/1999/xlink" version="1.1" id="Ebene_1" x="0px" y="0px" viewBox="0 0 75 75" style="enable-background:new 0 0 75 75;" xml:space="preserve">
<style type="text/css">
	.st0{fill:#ff6606;}
</style>
<g>
	<path class="st0" d="M-52,7.7l8.3-8.3V27c0,0.6,0.4,1,1,1s1-0.4,1-1V-0.6l8.3,8.3c0.2,0.2,0.5,0.3,0.7,0.3c0.3,0,0.5-0.1,0.7-0.3   c0.4-0.4,0.4-1,0-1.4l-10-10c-0.1-0.1-0.2-0.2-0.3-0.2C-42.5-4-42.8-4-43-3.9c-0.1,0.1-0.2,0.1-0.3,0.2l-10,10   c-0.4,0.4-0.4,1,0,1.4C-53,8.1-52.4,8.1-52,7.7z" fill="#ff6606"/>
	<path class="st0" d="M-26.7,19h-9c-0.6,0-1,0.4-1,1s0.4,1,1,1h9c0.7,0,3,0.1,3,2v16h-38V23.5c0-1.6,1.5-2.5,3-2.5h9   c0.6,0,1-0.4,1-1s-0.4-1-1-1h-9c-2.8,0-5,2-5,4.5V42c0,2.7,2.3,5,5,5h15v2h-6.4c-0.6,0-1,0.4-1,1s0.4,1,1,1h15.1c0.6,0,1-0.4,1-1   s-0.4-1-1-1h-6.7v-2h15c2.6,0,5-2.4,5-5V23C-21.7,20.6-23.7,19-26.7,19z M-26.7,45h-32c-1.5,0-3-1.5-3-3v-1h38v1   C-23.7,43.5-25.1,45-26.7,45z" fill="#ff6606"/>
</g>
<g>
	<path class="st0" d="M66.5,7.5h-58c-0.6,0-1,0.4-1,1v58c0,0.6,0.4,1,1,1h58c0.6,0,1-0.4,1-1v-58C67.5,7.9,67.1,7.5,66.5,7.5z    M65.5,65.5h-56v-56h56V65.5z" fill="#ff6606"/>
	<path class="st0" d="M22.5,21.5h12c0.6,0,1-0.4,1-1s-0.4-1-1-1h-12c-0.6,0-1,0.4-1,1S21.9,21.5,22.5,21.5z" fill="#ff6606"/>
	<path class="st0" d="M14.5,27.5h20c0.6,0,1-0.4,1-1s-0.4-1-1-1h-20c-0.6,0-1,0.4-1,1S13.9,27.5,14.5,27.5z" fill="#ff6606"/>
	<path class="st0" d="M14.5,33.5h20c0.6,0,1-0.4,1-1s-0.4-1-1-1h-20c-0.6,0-1,0.4-1,1S13.9,33.5,14.5,33.5z" fill="#ff6606"/>
	<path class="st0" d="M14.5,45.5h20c0.6,0,1-0.4,1-1s-0.4-1-1-1h-20c-0.6,0-1,0.4-1,1S13.9,45.5,14.5,45.5z" fill="#ff6606"/>
	<path class="st0" d="M14.5,51.5h20c0.6,0,1-0.4,1-1s-0.4-1-1-1h-20c-0.6,0-1,0.4-1,1S13.9,51.5,14.5,51.5z" fill="#ff6606"/>
	<path class="st0" d="M40.5,45.5h20c0.6,0,1-0.4,1-1s-0.4-1-1-1h-20c-0.6,0-1,0.4-1,1S39.9,45.5,40.5,45.5z" fill="#ff6606"/>
	<path class="st0" d="M40.5,33.5h20c0.6,0,1-0.4,1-1s-0.4-1-1-1h-20c-0.6,0-1,0.4-1,1S39.9,33.5,40.5,33.5z" fill="#ff6606"/>
	<path class="st0" d="M14.5,39.5h20c0.6,0,1-0.4,1-1s-0.4-1-1-1h-20c-0.6,0-1,0.4-1,1S13.9,39.5,14.5,39.5z" fill="#ff6606"/>
	<path class="st0" d="M40.5,39.5h20c0.6,0,1-0.4,1-1s-0.4-1-1-1h-20c-0.6,0-1,0.4-1,1S39.9,39.5,40.5,39.5z" fill="#ff6606"/>
	<path class="st0" d="M40.5,27.5h20c0.6,0,1-0.4,1-1s-0.4-1-1-1h-20c-0.6,0-1,0.4-1,1S39.9,27.5,40.5,27.5z" fill="#ff6606"/>
	<path class="st0" d="M40.5,21.5h20c0.6,0,1-0.4,1-1s-0.4-1-1-1h-20c-0.6,0-1,0.4-1,1S39.9,21.5,40.5,21.5z" fill="#ff6606"/>
	<path class="st0" d="M40.5,51.5h12c0.6,0,1-0.4,1-1s-0.4-1-1-1h-12c-0.6,0-1,0.4-1,1S39.9,51.5,40.5,51.5z" fill="#ff6606"/>
</g>
</svg>