<svg xmlns="http://www.w3.org/2000/svg" xmlns:xlink="http://www.w3.org/1999/xlink" version="1.1" id="Ebene_1" x="0px" y="0px" viewBox="0 0 75 75" style="enable-background:new 0 0 75 75;" xml:space="preserve">
<style type="text/css">
	.st0{fill:#ff6606;}
</style>
<g>
	<path class="st0" d="M-52,7.7l8.3-8.3V27c0,0.6,0.4,1,1,1s1-0.4,1-1V-0.6l8.3,8.3c0.2,0.2,0.5,0.3,0.7,0.3c0.3,0,0.5-0.1,0.7-0.3   c0.4-0.4,0.4-1,0-1.4l-10-10c-0.1-0.1-0.2-0.2-0.3-0.2C-42.5-4-42.8-4-43-3.9c-0.1,0.1-0.2,0.1-0.3,0.2l-10,10   c-0.4,0.4-0.4,1,0,1.4C-53,8.1-52.4,8.1-52,7.7z" fill="#ff6606"/>
	<path class="st0" d="M-26.7,19h-9c-0.6,0-1,0.4-1,1s0.4,1,1,1h9c0.7,0,3,0.1,3,2v16h-38V23.5c0-1.6,1.5-2.5,3-2.5h9   c0.6,0,1-0.4,1-1s-0.4-1-1-1h-9c-2.8,0-5,2-5,4.5V42c0,2.7,2.3,5,5,5h15v2h-6.4c-0.6,0-1,0.4-1,1s0.4,1,1,1h15.1c0.6,0,1-0.4,1-1   s-0.4-1-1-1h-6.7v-2h15c2.6,0,5-2.4,5-5V23C-21.7,20.6-23.7,19-26.7,19z M-26.7,45h-32c-1.5,0-3-1.5-3-3v-1h38v1   C-23.7,43.5-25.1,45-26.7,45z" fill="#ff6606"/>
</g>
<g>
	<path class="st0" d="M182.5-81.8h-58c-0.6,0-1,0.4-1,1v58c0,0.6,0.4,1,1,1h58c0.6,0,1-0.4,1-1v-58   C183.5-81.4,183.1-81.8,182.5-81.8z M181.5-23.8h-56v-56h56V-23.8z" fill="#ff6606"/>
	<path class="st0" d="M138.5-67.8h12c0.6,0,1-0.4,1-1c0-0.6-0.4-1-1-1h-12c-0.6,0-1,0.4-1,1C137.5-68.3,137.9-67.8,138.5-67.8z" fill="#ff6606"/>
	<path class="st0" d="M130.5-61.8h20c0.6,0,1-0.4,1-1s-0.4-1-1-1h-20c-0.6,0-1,0.4-1,1S129.9-61.8,130.5-61.8z" fill="#ff6606"/>
	<path class="st0" d="M130.5-55.8h20c0.6,0,1-0.4,1-1s-0.4-1-1-1h-20c-0.6,0-1,0.4-1,1S129.9-55.8,130.5-55.8z" fill="#ff6606"/>
	<path class="st0" d="M130.5-43.8h20c0.6,0,1-0.4,1-1s-0.4-1-1-1h-20c-0.6,0-1,0.4-1,1S129.9-43.8,130.5-43.8z" fill="#ff6606"/>
	<path class="st0" d="M130.5-37.8h20c0.6,0,1-0.4,1-1s-0.4-1-1-1h-20c-0.6,0-1,0.4-1,1S129.9-37.8,130.5-37.8z" fill="#ff6606"/>
	<path class="st0" d="M156.5-43.8h20c0.6,0,1-0.4,1-1s-0.4-1-1-1h-20c-0.6,0-1,0.4-1,1S155.9-43.8,156.5-43.8z" fill="#ff6606"/>
	<path class="st0" d="M156.5-55.8h20c0.6,0,1-0.4,1-1s-0.4-1-1-1h-20c-0.6,0-1,0.4-1,1S155.9-55.8,156.5-55.8z" fill="#ff6606"/>
	<path class="st0" d="M130.5-49.8h20c0.6,0,1-0.4,1-1s-0.4-1-1-1h-20c-0.6,0-1,0.4-1,1S129.9-49.8,130.5-49.8z" fill="#ff6606"/>
	<path class="st0" d="M156.5-49.8h20c0.6,0,1-0.4,1-1s-0.4-1-1-1h-20c-0.6,0-1,0.4-1,1S155.9-49.8,156.5-49.8z" fill="#ff6606"/>
	<path class="st0" d="M156.5-61.8h20c0.6,0,1-0.4,1-1s-0.4-1-1-1h-20c-0.6,0-1,0.4-1,1S155.9-61.8,156.5-61.8z" fill="#ff6606"/>
	<path class="st0" d="M156.5-67.8h20c0.6,0,1-0.4,1-1c0-0.6-0.4-1-1-1h-20c-0.6,0-1,0.4-1,1C155.5-68.3,155.9-67.8,156.5-67.8z" fill="#ff6606"/>
	<path class="st0" d="M156.5-37.8h12c0.6,0,1-0.4,1-1s-0.4-1-1-1h-12c-0.6,0-1,0.4-1,1S155.9-37.8,156.5-37.8z" fill="#ff6606"/>
</g>
<g>
	<path class="st0" d="M211.5,50.7h2V40c0-0.1,0-0.3-0.1-0.4c-0.1-0.1-0.1-0.2-0.2-0.3l-12-12c-0.1-0.1-0.2-0.2-0.3-0.2   c-0.1-0.1-0.3-0.1-0.4-0.1h-28c-0.6,0-1,0.4-1,1v52c0,0.6,0.4,1,1,1h25.2v-2h-24.2V29h26v11c0,0.6,0.4,1,1,1h11V50.7z M201.5,30.4   l8.6,8.6h-8.6V30.4z" fill="#ff6606"/>
	<path class="st0" d="M231.4,67.6c-0.1-0.4-0.5-0.6-0.9-0.6h-8.4l-4.7-9.4c-0.3-0.7-1.5-0.7-1.8,0l-4.7,9.4h-8.4   c-0.4,0-0.8,0.3-0.9,0.7c-0.1,0.4,0,0.8,0.3,1.1l7.3,6.2l-3.6,10.7c-0.1,0.4,0,0.9,0.3,1.1c0.3,0.3,0.8,0.3,1.2,0l9.4-6.6l9.4,6.6   c0.2,0.1,0.4,0.2,0.6,0.2c0.2,0,0.4-0.1,0.6-0.2c0.3-0.3,0.5-0.7,0.4-1.1L224.1,75l7.1-6.2C231.5,68.5,231.6,68,231.4,67.6z    M222.3,73.9c-0.3,0.3-0.4,0.7-0.3,1.1l2.7,8.5l-7.6-5.3c-0.2-0.1-0.4-0.2-0.6-0.2s-0.4,0.1-0.6,0.2l-7.5,5.3l2.9-8.5   c0.1-0.4,0-0.8-0.3-1.1l-5.8-4.9h6.3c0.4,0,0.7-0.2,0.9-0.6l4.1-8.2l4.1,8.2c0.2,0.3,0.5,0.6,0.9,0.6h6.3L222.3,73.9z" fill="#ff6606"/>
</g>
<g>
	<path class="st0" d="M67.2,17.8l-10-10c-0.2-0.2-0.4-0.3-0.7-0.3h-18c-0.6,0-1,0.4-1,1v38c0,0.6,0.4,1,1,1h28c0.6,0,1-0.4,1-1v-28   C67.5,18.2,67.4,18,67.2,17.8z M57.5,10.9l6.6,6.6h-6.6V10.9z M39.5,45.5v-36h16v9c0,0.6,0.4,1,1,1h9v26H39.5z" fill="#ff6606"/>
	<path class="st0" d="M42.9,55.5c-0.1,0-0.2,0-0.3,0H38c-0.1-0.1-0.2-0.2-0.3-0.3c-1.5-1.6-4.6-4.9-10.2-5.7c0,0-0.1,0-0.1,0h-7.8   v-1c0-0.6-0.4-1-1-1H8.5c-0.6,0-1,0.4-1,1v18c0,0.6,0.4,1,1,1h10.1c0.6,0,1-0.4,1-1v-1h41.9c0.6,0,1-0.4,1-1c0-1.3-0.6-2.6-1.8-3.7   C57.5,57.6,50.4,55.5,42.9,55.5z M17.6,65.5H9.5v-16h8.1V65.5z M19.6,63.5v-12h7.8c3.9,0.6,6.3,2.5,7.9,4H24.9c-0.6,0-1,0.4-1,1   s0.4,1,1,1h17.7c7-0.1,13.9,1.9,16.7,4.7c0.4,0.4,0.8,0.9,1,1.3H19.6z" fill="#ff6606"/>
	<circle class="st0" cx="13.5" cy="61.5" r="1.3" fill="#ff6606"/>
</g>
</svg>