<?xml version="1.0" encoding="utf-8"?>
<!-- Generator: Adobe Illustrator 25.2.2, SVG Export Plug-In . SVG Version: 6.00 Build 0)  -->
<svg version="1.1" id="Ebene_1" xmlns="http://www.w3.org/2000/svg" xmlns:xlink="http://www.w3.org/1999/xlink" x="0px" y="0px"
	 viewBox="0 0 150 150" style="enable-background:new 0 0 150 150;" xml:space="preserve">
<style type="text/css">
	.st0{fill-rule:evenodd;clip-rule:evenodd;fill:#FF6602;}
</style>
<g id="Ebene_2_1_">
	<g id="certificate">
		<g id="Page-1">
			<g id="icon-137-document-certificate">
				<path id="document-certificate" class="st0" d="M94.8,107.1v3.8h7.2c2,0,3.6-1.6,3.6-3.6c0,0,0,0,0,0v-61H91.2
					c-4,0-7.2-3.2-7.2-7.1c0,0,0,0,0-0.1v-18H48.1c-2,0-3.6,1.6-3.6,3.6v82.6c0,2,1.6,3.6,3.6,3.6h28.7v-3.8
					c-4.8-5-4.7-12.9,0.2-17.8c5-4.8,12.9-4.7,17.8,0.2C99.6,94.5,99.6,102.2,94.8,107.1L94.8,107.1z M80.4,109.7v14.1l5.4-5.4
					l5.4,5.4v-14.1C87.8,111.3,83.8,111.3,80.4,109.7z M94.8,114.5h7.1c4,0,7.2-3.2,7.2-7.2V42.7l0,0L87.6,17.6H48.1
					c-4,0-7.2,3.2-7.2,7.2c0,0,0,0,0,0v82.5c0,4,3.2,7.2,7.1,7.2c0,0,0,0,0,0h28.7v18l9-9l9,9L94.8,114.5z M87.6,22.9v16.1
					c0,2,1.6,3.6,3.6,3.6h13.3L87.6,22.9z M51.7,42.7v3.6h25.1v-3.6H51.7z M51.7,31.9v3.6h25.1v-3.6L51.7,31.9z M51.7,53.5V57h46.7
					v-3.6H51.7z M51.7,64.2v3.6h46.7v-3.6L51.7,64.2z M51.7,75v3.6h46.7V75H51.7z M85.8,107.3c5,0,9-4,9-9s-4-9-9-9c-5,0-9,4-9,9
					S80.8,107.3,85.8,107.3z"/>
			</g>
		</g>
	</g>
</g>
</svg>
