<?xml version="1.0" encoding="utf-8"?>
<!-- Generator: Adobe Illustrator 25.2.2, SVG Export Plug-In . SVG Version: 6.00 Build 0)  -->
<svg version="1.1" id="Ebene_1" xmlns="http://www.w3.org/2000/svg" xmlns:xlink="http://www.w3.org/1999/xlink" x="0px" y="0px"
	 viewBox="0 0 150 150" style="enable-background:new 0 0 150 150;" xml:space="preserve">
<style type="text/css">
	.st0{fill:#FF6602;}
</style>
<g id="Ebene_2_2_">
	<g id="eraser">
		<path class="st0" d="M44.5,109.1c3.3,3,7.5,4.8,12,5H66c4.4-0.2,8.7-2,12-5l20.8-20.9l0,0l20.9-20.9c3-3.1,3-8.1,0-11.2L97,33.3
			c-3.1-3-8.1-3-11.2,0L32.9,86.2c-3,3.1-3,8.1,0,11.2L44.5,109.1z M88,35.6c0.9-0.9,2.1-1.4,3.3-1.4c1.2,0,2.4,0.5,3.3,1.4
			l22.8,22.8c0.9,0.9,1.4,2.1,1.4,3.3c0,1.2-0.5,2.4-1.4,3.3L97.6,84.8L68.2,55.4L88,35.6z M35.1,88.5l30.9-30.9l29.5,29.5
			l-19.7,19.7c-2.7,2.4-6.1,3.8-9.7,4.1h-9.6c-3.6-0.2-7-1.6-9.7-4.1L35.1,95.3c-0.9-0.9-1.4-2.1-1.4-3.3
			C33.7,90.7,34.2,89.4,35.1,88.5z"/>
		<path class="st0" d="M121.5,117.2H29.5c-0.9,0-1.6,0.7-1.6,1.6c0,0.9,0.7,1.6,1.6,1.6h92c0.9,0,1.5-0.7,1.6-1.6
			c0.1-0.8-0.5-1.5-1.3-1.6C121.6,117.2,121.6,117.2,121.5,117.2z"/>
	</g>
</g>
</svg>
