<?xml version="1.0" encoding="utf-8"?>
<!-- Generator: Adobe Illustrator 25.2.2, SVG Export Plug-In . SVG Version: 6.00 Build 0)  -->
<svg version="1.1" id="Ebene_1" xmlns="http://www.w3.org/2000/svg" xmlns:xlink="http://www.w3.org/1999/xlink" x="0px" y="0px"
	 viewBox="0 0 150 150" style="enable-background:new 0 0 150 150;" xml:space="preserve">
<style type="text/css">
	.st0{fill:#FF6602;}
</style>
<g id="Ebene_2_1_">
	<g id="glasses">
		<path class="st0" d="M103.9,110.4c-11.9,0-21.5-9.6-21.5-21.5s9.6-21.5,21.5-21.5s21.5,9.6,21.5,21.5l0,0
			C125.4,100.8,115.8,110.4,103.9,110.4z M103.9,71.4c-9.7,0-17.5,7.8-17.5,17.5c0,9.7,7.8,17.5,17.5,17.5s17.5-7.8,17.5-17.5l0,0
			C121.3,79.3,113.5,71.5,103.9,71.4L103.9,71.4z"/>
		<path class="st0" d="M29.6,82c-0.2,0-0.4,0-0.6-0.1c-1-0.4-1.6-1.5-1.3-2.5c0,0,0,0,0,0l0,0l11-32.2c1.2-4.9,7.3-7.7,13.5-6.2
			c1.1,0.3,1.7,1.3,1.5,2.4c-0.2,1-1.2,1.7-2.3,1.5h-0.1c-4.1-1-8.1,0.6-8.7,3.4l0,0.2l-11,32.3C31.2,81.5,30.4,82,29.6,82z"/>
		<path class="st0" d="M121.3,82c-0.9,0-1.6-0.5-1.9-1.4l-11-32.5c-0.4-1.4-1.5-2.5-2.8-3c-1.9-0.8-4-0.9-6-0.4
			c-1.1,0.2-2.1-0.4-2.4-1.5c-0.2-1.1,0.4-2.1,1.5-2.4c2.8-0.7,5.8-0.5,8.4,0.6c2.5,1,4.4,3.1,5.1,5.6l11,32.2
			c0.4,1-0.2,2.2-1.2,2.5c0,0,0,0,0,0l0,0C121.7,82,121.5,82,121.3,82z"/>
		<path class="st0" d="M84.4,90.9c-0.3,0-0.6-0.1-0.9-0.2c-2.6-1.1-5.4-1.7-8.2-1.7c-2.7-0.1-5.3,0.5-7.7,1.6
			c-1,0.6-2.2,0.2-2.7-0.7s-0.2-2.2,0.7-2.7c3-1.5,6.4-2.2,9.7-2.1c3.5,0,6.9,0.7,10,2.1c1,0.5,1.4,1.7,0.9,2.7
			C85.9,90.5,85.2,90.9,84.4,90.9L84.4,90.9z"/>
		<path class="st0" d="M47.1,110.4c-11.9,0-21.5-9.6-21.5-21.5s9.6-21.5,21.5-21.5S68.6,77,68.6,88.9l0,0
			C68.6,100.8,58.9,110.4,47.1,110.4z M47.1,71.4c-9.7,0-17.5,7.8-17.5,17.5c0,9.7,7.8,17.5,17.5,17.5s17.5-7.8,17.5-17.5l0,0
			C64.5,79.3,56.7,71.5,47.1,71.4L47.1,71.4z"/>
	</g>
</g>
<path class="st0" d="M47.3,111.1c-11.9,0-21.5-9.6-21.5-21.5s9.6-21.5,21.5-21.5s21.5,9.6,21.5,21.5l0,0
	C68.8,101.5,59.2,111.1,47.3,111.1z M47.3,72.1c-9.7,0-17.5,7.8-17.5,17.5c0,9.7,7.8,17.5,17.5,17.5s17.5-7.8,17.5-17.5l0,0
	C64.7,80,56.9,72.2,47.3,72.1L47.3,72.1z"/>
</svg>
