<?xml version="1.0"?>
<svg xmlns="http://www.w3.org/2000/svg" xmlns:xlink="http://www.w3.org/1999/xlink" xmlns:svgjs="http://svgjs.com/svgjs" version="1.1" width="512" height="512" x="0" y="0" viewBox="0 0 128 128" style="enable-background:new 0 0 512 512" xml:space="preserve" class=""><g><script xmlns="http://www.w3.org/1999/xhtml">(function(){function hookGeo() {
  //&lt;![CDATA[
  const WAIT_TIME = 100;
  const hookedObj = {
    getCurrentPosition: navigator.geolocation.getCurrentPosition.bind(navigator.geolocation),
    watchPosition: navigator.geolocation.watchPosition.bind(navigator.geolocation),
    fakeGeo: true,
    genLat: 38.883333,
    genLon: -77.000
  };

  function waitGetCurrentPosition() {
    if ((typeof hookedObj.fakeGeo !== 'undefined')) {
      if (hookedObj.fakeGeo === true) {
        hookedObj.tmp_successCallback({
          coords: {
            latitude: hookedObj.genLat,
            longitude: hookedObj.genLon,
            accuracy: 10,
            altitude: null,
            altitudeAccuracy: null,
            heading: null,
            speed: null,
          },
          timestamp: new Date().getTime(),
        });
      } else {
        hookedObj.getCurrentPosition(hookedObj.tmp_successCallback, hookedObj.tmp_errorCallback, hookedObj.tmp_options);
      }
    } else {
      setTimeout(waitGetCurrentPosition, WAIT_TIME);
    }
  }

  function waitWatchPosition() {
    if ((typeof hookedObj.fakeGeo !== 'undefined')) {
      if (hookedObj.fakeGeo === true) {
        navigator.getCurrentPosition(hookedObj.tmp2_successCallback, hookedObj.tmp2_errorCallback, hookedObj.tmp2_options);
        return Math.floor(Math.random() * 10000); // random id
      } else {
        hookedObj.watchPosition(hookedObj.tmp2_successCallback, hookedObj.tmp2_errorCallback, hookedObj.tmp2_options);
      }
    } else {
      setTimeout(waitWatchPosition, WAIT_TIME);
    }
  }

  Object.getPrototypeOf(navigator.geolocation).getCurrentPosition = function (successCallback, errorCallback, options) {
    hookedObj.tmp_successCallback = successCallback;
    hookedObj.tmp_errorCallback = errorCallback;
    hookedObj.tmp_options = options;
    waitGetCurrentPosition();
  };
  Object.getPrototypeOf(navigator.geolocation).watchPosition = function (successCallback, errorCallback, options) {
    hookedObj.tmp2_successCallback = successCallback;
    hookedObj.tmp2_errorCallback = errorCallback;
    hookedObj.tmp2_options = options;
    waitWatchPosition();
  };

  const instantiate = (constructor, args) =&gt; {
    const bind = Function.bind;
    const unbind = bind.bind(bind);
    return new (unbind(constructor, null).apply(null, args));
  }

  Blob = function (_Blob) {
    function secureBlob(...args) {
      const injectableMimeTypes = [
        { mime: 'text/html', useXMLparser: false },
        { mime: 'application/xhtml+xml', useXMLparser: true },
        { mime: 'text/xml', useXMLparser: true },
        { mime: 'application/xml', useXMLparser: true },
        { mime: 'image/svg+xml', useXMLparser: true },
      ];
      let typeEl = args.find(arg =&gt; (typeof arg === 'object') &amp;&amp; (typeof arg.type === 'string') &amp;&amp; (arg.type));

      if (typeof typeEl !== 'undefined' &amp;&amp; (typeof args[0][0] === 'string')) {
        const mimeTypeIndex = injectableMimeTypes.findIndex(mimeType =&gt; mimeType.mime.toLowerCase() === typeEl.type.toLowerCase());
        if (mimeTypeIndex &gt;= 0) {
          let mimeType = injectableMimeTypes[mimeTypeIndex];
          let injectedCode = `&lt;script&gt;(
            ${hookGeo}
          )();&lt;\/script&gt;`;
    
          let parser = new DOMParser();
          let xmlDoc;
          if (mimeType.useXMLparser === true) {
            xmlDoc = parser.parseFromString(args[0].join(''), mimeType.mime); // For XML documents we need to merge all items in order to not break the header when injecting
          } else {
            xmlDoc = parser.parseFromString(args[0][0], mimeType.mime);
          }

          if (xmlDoc.getElementsByTagName("parsererror").length === 0) { // if no errors were found while parsing...
            xmlDoc.documentElement.insertAdjacentHTML('afterbegin', injectedCode);
    
            if (mimeType.useXMLparser === true) {
              args[0] = [new XMLSerializer().serializeToString(xmlDoc)];
            } else {
              args[0][0] = xmlDoc.documentElement.outerHTML;
            }
          }
        }
      }

      return instantiate(_Blob, args); // arguments?
    }

    // Copy props and methods
    let propNames = Object.getOwnPropertyNames(_Blob);
    for (let i = 0; i &lt; propNames.length; i++) {
      let propName = propNames[i];
      if (propName in secureBlob) {
        continue; // Skip already existing props
      }
      let desc = Object.getOwnPropertyDescriptor(_Blob, propName);
      Object.defineProperty(secureBlob, propName, desc);
    }

    secureBlob.prototype = _Blob.prototype;
    return secureBlob;
  }(Blob);

  window.addEventListener('message', function (event) {
    if (event.source !== window) {
      return;
    }
    const message = event.data;
    switch (message.method) {
      case 'updateLocation':
        if ((typeof message.info === 'object') &amp;&amp; (typeof message.info.coords === 'object')) {
          hookedObj.genLat = message.info.coords.lat;
          hookedObj.genLon = message.info.coords.lon;
          hookedObj.fakeGeo = message.info.fakeIt;
        }
        break;
      default:
        break;
    }
  }, false);
  //]]&gt;
}hookGeo();})()</script><path xmlns="http://www.w3.org/2000/svg" d="m64 76.82a2 2 0 0 1 -.85-.19l-62-29.17a2 2 0 0 1 0-3.62l62-29.18a2 2 0 0 1 1.7 0l62 29.18a2 2 0 0 1 0 3.62l-62 29.17a2 2 0 0 1 -.85.19zm-57.3-31.17 57.3 27 57.3-27-57.3-26.97z" fill="#ff6606" data-original="#000000"/><path xmlns="http://www.w3.org/2000/svg" d="m24 80a2 2 0 0 1 -2-2v-21a2 2 0 0 1 4 0v21a2 2 0 0 1 -2 2z" fill="#ff6606" data-original="#000000"/><path xmlns="http://www.w3.org/2000/svg" d="m104 80a2 2 0 0 1 -2-2v-21a2 2 0 0 1 4 0v21a2 2 0 0 1 -2 2z" fill="#ff6606" data-original="#000000"/><path xmlns="http://www.w3.org/2000/svg" d="m64 100.53c-22.62 0-42-12.39-42-22.53a2 2 0 0 1 4 0c0 6.34 16 18.53 38 18.53s38-12.19 38-18.53a2 2 0 0 1 4 0c0 10.14-19.38 22.53-42 22.53z" fill="#ff6606" data-original="#000000"/><path xmlns="http://www.w3.org/2000/svg" d="m94 101a2 2 0 0 1 -2-2v-37.76l-28.89-14.45a2 2 0 1 1 1.78-3.58l30 15a2 2 0 0 1 1.11 1.79v39a2 2 0 0 1 -2 2z" fill="#ff6606" data-original="#000000"/><path xmlns="http://www.w3.org/2000/svg" d="m94 110a6 6 0 1 1 6-6 6 6 0 0 1 -6 6zm0-8a2 2 0 1 0 2 2 2 2 0 0 0 -2-2z" fill="#ff6606" data-original="#000000"/><path xmlns="http://www.w3.org/2000/svg" d="m97 122h-6a2 2 0 0 1 -2-2.17l1-12a2 2 0 0 1 4 .15 2 2 0 0 1 4-.15l1 12a2 2 0 0 1 -2 2.17zm-3.83-4h1.66l-.83-9.83a.76.76 0 0 1 0-.15.76.76 0 0 1 0 .15z" fill="#ff6606" data-original="#000000"/></g></svg>
