<?xml version="1.0" encoding="utf-8"?>
<!-- Generator: Adobe Illustrator 25.2.2, SVG Export Plug-In . SVG Version: 6.00 Build 0)  -->
<svg version="1.1" id="Ebene_1" xmlns="http://www.w3.org/2000/svg" xmlns:xlink="http://www.w3.org/1999/xlink" x="0px" y="0px"
	 viewBox="0 0 150 150" style="enable-background:new 0 0 150 150;" xml:space="preserve">
<style type="text/css">
	.st0{fill:#FF6602;}
</style>
<g id="Ebene_2_1_">
	<g id="pencil">
		<path class="st0" d="M120.1,40.6l-10.3-10.3c-1.5-1.5-3.6-2.4-5.7-2.4c-2.2,0-4.2,0.8-5.7,2.4L85,43.6L36.4,92.3
			c-0.2,0.2-0.3,0.4-0.4,0.7l-8.1,27.6c-0.2,0.6,0,1.2,0.4,1.6c0.3,0.3,0.7,0.5,1.1,0.5c0.2,0,0.3,0,0.5-0.1l27.6-8.1
			c0.3-0.1,0.5-0.2,0.7-0.4l48.7-48.7l13.2-13.3C123.2,48.9,123.2,43.8,120.1,40.6z M86.2,47l7.4,7.4L51.4,96.7h-9.8l-2-3L86.2,47z
			 M31.8,118.6l2.4-8.3l5.9,5.9L31.8,118.6z M43.6,115.1l-8.4-8.4l2.8-9.5l1.3,2c0.3,0.5,0.8,0.7,1.4,0.7h9.7v9.7
			c0,0.5,0.3,1,0.7,1.4l2,1.3L43.6,115.1z M56.8,110.8l-3-2V99L96,56.8l7.4,7.4L56.8,110.8z M105.7,61.9L88.5,44.7l4.2-4.2
			l17.2,17.2L105.7,61.9z M117.8,49.8l-5.7,5.6L95,38.3l5.6-5.6c1.9-1.8,5-1.8,6.9,0L117.8,43C119.7,44.9,119.7,47.9,117.8,49.8
			C117.9,49.8,117.9,49.8,117.8,49.8z"/>
	</g>
</g>
</svg>
