<?xml version="1.0" encoding="utf-8"?>
<!-- Generator: Adobe Illustrator 25.2.2, SVG Export Plug-In . SVG Version: 6.00 Build 0)  -->
<svg version="1.1" id="Ebene_1" xmlns="http://www.w3.org/2000/svg" xmlns:xlink="http://www.w3.org/1999/xlink" x="0px" y="0px"
	 viewBox="0 0 150 150" style="enable-background:new 0 0 150 150;" xml:space="preserve">
<style type="text/css">
	.st0{fill-rule:evenodd;clip-rule:evenodd;fill:#F26622;}
	.st1{fill:#F26622;}
</style>
<g id="Ebene_2_2_">
	<g id="reload">
		<g id="Ebene_2-2">
			<g id="Ebene_1-2">
				<path class="st0" d="M86.6,25.4H47.8c-4.1,0-7.4,3.3-7.4,7.4c0,0,0,0,0,0l0,0v85c0,4.1,3.3,7.4,7.4,7.4c0,0,0,0,0,0h55.4
					c4.1,0,7.4-3.3,7.4-7.3V51.3L88.4,25.4H86.6z M84.7,29.1h-37c-2,0-3.6,1.7-3.6,3.7v85.1c0,2,1.7,3.7,3.7,3.7h55.4
					c2,0,3.7-1.6,3.7-3.7c0,0,0,0,0,0l0,0V55H92.1c-4.1,0-7.4-3.3-7.4-7.3c0,0,0,0,0,0v0L84.7,29.1z M88.4,30.9v16.6
					c0,2,1.6,3.7,3.7,3.7h13.7L88.4,30.9z"/>
				<g id="layer1">
					<g id="g2997">
						<path id="path2995" class="st1" d="M74.7,68.8c-6.1,0.1-11.8,2.8-15.9,7.3c-2.6,2.9-4.4,6.3-5.4,10.1l3,0.8
							c2.8-10.8,13.3-17.2,23.6-14.3c6.1,1.8,10.9,6.4,13,12.4h-2.6l4.2,9.9l4.2-9.9h-2.5c-2.2-7.5-8-13.4-15.5-15.6
							C78.9,69,76.8,68.7,74.7,68.8z"/>
						<path id="path3036" class="st1" d="M54.2,93.1l-1.6,10.7l2.6-0.7c2.5,5.2,6.8,9.2,12.1,11.3c11.5,4.5,24.4-1.7,28.8-13.8
							l-2.9-1.1c-3.7,10.5-14.8,15.8-24.7,11.9c-4.4-1.7-7.9-5-10.1-9.1l2.4-0.7L54.2,93.1z"/>
					</g>
				</g>
			</g>
		</g>
	</g>
</g>
</svg>
