<?xml version="1.0" encoding="utf-8"?>
<!-- Generator: Adobe Illustrator 25.2.2, SVG Export Plug-In . SVG Version: 6.00 Build 0)  -->
<svg version="1.1" id="Ebene_1" xmlns="http://www.w3.org/2000/svg" xmlns:xlink="http://www.w3.org/1999/xlink" x="0px" y="0px"
	 viewBox="0 0 150 150" style="enable-background:new 0 0 150 150;" xml:space="preserve">
<style type="text/css">
	.st0{fill-rule:evenodd;clip-rule:evenodd;fill:#FF6602;}
	.st1{fill:#FF6602;}
</style>
<g id="Ebene_2_1_">
	<g id="secure">
		<g id="Ebene_2-2_1_">
			<g id="Ebene_1-2_1_">
				<path class="st0" d="M82.9,121.4H42.3c-4.1,0-7.4-3.3-7.4-7.4l0,0V29.3c0-4.1,3.3-7.4,7.4-7.4c0,0,0,0,0,0h40.6L105,47.7v38.1
					c4.5,2.1,7.4,6.7,7.4,11.7v5.5c2,0,3.7,1.7,3.7,3.7c0,0,0,0,0,0l0,0V125c0,2-1.6,3.7-3.6,3.7c0,0,0,0,0,0H86.5
					c-2-0.1-3.6-1.7-3.6-3.7l0,0V121.4z M82.9,117.7H42.3c-2,0-3.7-1.6-3.7-3.7V29.2c0-2,1.7-3.6,3.7-3.7h36.9v18.4
					c0,4.1,3.2,7.4,7.3,7.4c0,0,0,0,0,0h14.8v33.3c-0.6-0.1-1.2-0.1-1.9-0.1c-7.1,0-12.9,5.8-12.9,12.9l0,0v5.5
					c-2,0-3.6,1.6-3.6,3.6V117.7z M90.3,102.9v-5.5c0.2-5.1,4.4-9.1,9.5-8.9c4.9,0.2,8.8,4.1,8.9,8.9l0,0v5.5L90.3,102.9z
					 M82.9,27.4v16.5c0,2,1.6,3.7,3.7,3.7h13.6L82.9,27.4z M88.4,106.6c-1,0-1.8,0.8-1.9,1.8v14.8c0,1,0.9,1.8,1.9,1.8h22.1
					c1,0,1.8-0.8,1.9-1.8c0,0,0,0,0,0v-14.8c0-1-0.8-1.8-1.9-1.9L88.4,106.6z"/>
				<path id="Fill-68" class="st1" d="M103.5,112.5c0,1.8-1.5,3.3-3.4,3.3c-1.8,0-3.3-1.5-3.3-3.4c0-1.8,1.5-3.3,3.3-3.3l0,0
					C102,109.2,103.5,110.7,103.5,112.5"/>
				<polyline id="Fill-69" class="st1" points="101,112.5 99.3,112.5 97.7,122.5 102.7,122.5 101,112.5 				"/>
			</g>
		</g>
	</g>
</g>
</svg>
