<?xml version="1.0" encoding="utf-8"?>
<!-- Generator: Adobe Illustrator 21.0.0, SVG Export Plug-In . SVG Version: 6.00 Build 0)  -->
<svg version="1.1" id="Ebene_1" xmlns="http://www.w3.org/2000/svg" xmlns:xlink="http://www.w3.org/1999/xlink" x="0px" y="0px"
	 viewBox="0 0 120 120" style="enable-background:new 0 0 120 120;" xml:space="preserve">
<style type="text/css">
	.st0{fill:#FF6602;}
</style>
<path class="st0" d="M-9.7-118.3L-20-128.6c-1.5-1.5-3.6-2.4-5.7-2.4c-2.2,0-4.2,0.8-5.7,2.4l-13.3,13.3l-48.7,48.7
	c-0.2,0.2-0.3,0.4-0.4,0.7l-8.1,27.6c-0.2,0.6,0,1.2,0.4,1.6c0.3,0.3,0.7,0.5,1.1,0.5c0.2,0,0.3,0,0.5-0.1l27.6-8.1
	c0.3-0.1,0.5-0.2,0.7-0.4L-23-93.6l13.3-13.3C-6.5-110-6.5-115.2-9.7-118.3z M-43.6-111.9l7.4,7.4l-42.2,42.2h-9.8l-2-3L-43.6-111.9
	z M-98-40.4l2.4-8.3l5.9,5.9L-98-40.4z M-86.1-43.8l-8.4-8.4l2.8-9.5l1.3,2c0.3,0.5,0.8,0.7,1.4,0.7h9.7v9.7c0,0.5,0.3,1,0.7,1.4
	l2,1.3L-86.1-43.8z M-73-48.2l-3-2V-60l42.2-42.2l7.4,7.4L-73-48.2z M-24.1-97l-17.2-17.2l4.2-4.2l17.2,17.2L-24.1-97z M-12-109.2
	l-5.6,5.6l-17.2-17.2l5.6-5.6c1.8-1.8,5.1-1.8,6.9,0L-12-116C-10.1-114.1-10.1-111.1-12-109.2z"/>
<g>
	<path class="st0" d="M103.6,75.1l-8.8-8.8c-0.3-0.3-0.6-0.4-1-0.4H61.5c-0.8,0-1.5,0.7-1.5,1.5v35.2c0,0.8,0.7,1.5,1.5,1.5h41.1
		c0.8,0,1.5-0.7,1.5-1.5V76.1C104,75.7,103.8,75.4,103.6,75.1z M101.1,101.1H62.9V68.8h30.2l7.9,7.9V101.1z"/>
	<path class="st0" d="M23.3,33.6c-0.8,0-1.5,0.7-1.5,1.5v58.7c0,0.8,0.7,1.5,1.5,1.5h26.4c0.8,0,1.5-0.7,1.5-1.5
		c0-0.8-0.7-1.5-1.5-1.5H24.8V36.5h5.9V38c0,0.8,0.7,1.5,1.5,1.5h29.3c0.8,0,1.5-0.7,1.5-1.5v-1.5h5.9v19.1c0,0.8,0.7,1.5,1.5,1.5
		c0.8,0,1.5-0.7,1.5-1.5V35.1c0-0.8-0.7-1.5-1.5-1.5h-7.3v-2.9h11.7v24.9c0,0.8,0.7,1.5,1.5,1.5c0.8,0,1.5-0.7,1.5-1.5V29.2
		c0-0.8-0.7-1.5-1.5-1.5H62.9v-1.5c0-0.8-0.7-1.5-1.5-1.5H57C56.3,19,51.5,16,46.8,16s-9.5,3-10.2,8.8h-4.5c-0.8,0-1.5,0.7-1.5,1.5
		v1.5H17.5c-0.8,0-1.5,0.7-1.5,1.5v73.3c0,0.8,0.7,1.5,1.5,1.5h32.3c0.8,0,1.5-0.7,1.5-1.5c0-0.8-0.7-1.5-1.5-1.5H18.9V30.7h11.7
		v2.9H23.3z M33.6,27.7H38c0.8,0,1.5-0.7,1.5-1.5c0-5,3.8-7.3,7.3-7.3c3.5,0,7.3,2.3,7.3,7.3c0,0.8,0.7,1.5,1.5,1.5H60v8.8H33.6
		V27.7z"/>
	<path class="st0" d="M93.7,92.3H70.3c-0.8,0-1.5,0.7-1.5,1.5c0,0.8,0.7,1.5,1.5,1.5h23.5c0.8,0,1.5-0.7,1.5-1.5
		C95.2,92.9,94.5,92.3,93.7,92.3z"/>
	<path class="st0" d="M93.7,86.4H70.3c-0.8,0-1.5,0.7-1.5,1.5c0,0.8,0.7,1.5,1.5,1.5h23.5c0.8,0,1.5-0.7,1.5-1.5
		C95.2,87.1,94.5,86.4,93.7,86.4z"/>
	<path class="st0" d="M68.8,82c0,0.8,0.7,1.5,1.5,1.5h23.5c0.8,0,1.5-0.7,1.5-1.5c0-0.8-0.7-1.5-1.5-1.5H70.3
		C69.5,80.5,68.8,81.2,68.8,82z"/>
	<path class="st0" d="M70.3,77.6h17.6c0.8,0,1.5-0.7,1.5-1.5c0-0.8-0.7-1.5-1.5-1.5H70.3c-0.8,0-1.5,0.7-1.5,1.5
		C68.8,76.9,69.5,77.6,70.3,77.6z"/>
</g>
<g>
	<path class="st0" d="M224.5-37.9c2.7,2.7,7.7,4.8,11.5,4.8h9.2c3.8,0,8.8-2.1,11.5-4.8L276.8-58c0,0,0,0,0,0c0,0,0,0,0,0l20.1-20.1
		c1.4-1.4,2.2-3.4,2.2-5.4c0-2-0.8-4-2.2-5.4L275-110.8c-1.4-1.4-3.4-2.2-5.4-2.2c-2,0-4,0.8-5.4,2.2l-50.9,50.9
		c-1.4,1.4-2.2,3.4-2.2,5.4c0,2,0.8,4,2.2,5.4L224.5-37.9z M266.4-108.6c0.9-0.9,2-1.3,3.2-1.3c1.2,0,2.4,0.5,3.2,1.3l21.9,21.9
		c0.9,0.9,1.3,2,1.3,3.2c0,1.2-0.5,2.4-1.3,3.2l-19,19l-28.4-28.4L266.4-108.6z M215.5-57.7l29.7-29.7l28.4,28.4l-19,19
		c-2.1,2.1-6.4,3.9-9.3,3.9H236c-3,0-7.2-1.8-9.3-3.9l-11.2-11.2c-0.9-0.9-1.3-2-1.3-3.2C214.1-55.7,214.6-56.9,215.5-57.7z"/>
	<path class="st0" d="M298.6-30.1h-88.5c-0.8,0-1.5,0.7-1.5,1.5s0.7,1.5,1.5,1.5h88.5c0.8,0,1.5-0.7,1.5-1.5S299.4-30.1,298.6-30.1z
		"/>
</g>
<g>
	<path d="M524.8-55h-36c-0.6,0-1,0.4-1,1s0.4,1,1,1h36c0.6,0,1-0.4,1-1S525.3-55,524.8-55z"/>
	<path d="M488.8-109h36c0.6,0,1-0.4,1-1c0-0.6-0.4-1-1-1h-36c-0.6,0-1,0.4-1,1C487.8-109.4,488.2-109,488.8-109z"/>
	<path d="M488.8-101h36c0.6,0,1-0.4,1-1c0-0.6-0.4-1-1-1h-36c-0.6,0-1,0.4-1,1C487.8-101.4,488.2-101,488.8-101z"/>
	<path d="M488.8-93h20c0.6,0,1-0.4,1-1c0-0.6-0.4-1-1-1h-20c-0.6,0-1,0.4-1,1C487.8-93.4,488.2-93,488.8-93z"/>
	<path d="M488.8-85h20c0.6,0,1-0.4,1-1c0-0.6-0.4-1-1-1h-20c-0.6,0-1,0.4-1,1C487.8-85.4,488.2-85,488.8-85z"/>
	<path d="M488.8-77h20c0.6,0,1-0.4,1-1c0-0.6-0.4-1-1-1h-20c-0.6,0-1,0.4-1,1C487.8-77.4,488.2-77,488.8-77z"/>
	<path d="M488.8-69h20c0.6,0,1-0.4,1-1c0-0.6-0.4-1-1-1h-20c-0.6,0-1,0.4-1,1C487.8-69.4,488.2-69,488.8-69z"/>
	<path d="M524.8-63h-36c-0.6,0-1,0.4-1,1s0.4,1,1,1h36c0.6,0,1-0.4,1-1S525.3-63,524.8-63z"/>
	<path d="M547.5-82.7l-14-14c-0.3-0.3-0.7-0.4-1.1-0.2c-0.4,0.2-0.6,0.5-0.6,0.9v7h-13c-0.6,0-1,0.4-1,1v12c0,0.6,0.4,1,1,1h13v7
		c0,0.4,0.2,0.8,0.6,0.9c0.1,0.1,0.3,0.1,0.4,0.1c0.3,0,0.5-0.1,0.7-0.3l14-14C547.9-81.7,547.9-82.3,547.5-82.7z M533.8-70.4V-76
		c0-0.6-0.4-1-1-1h-13v-10h13c0.6,0,1-0.4,1-1v-5.6L545.4-82L533.8-70.4z"/>
</g>
</svg>
