<svg xmlns="http://www.w3.org/2000/svg" viewBox="0 0 60 60.02"><defs><style>.cls-1{fill:#fff;}</style></defs><g id="Ebene_2" data-name="Ebene 2"><g id="Ebene_1-2" data-name="Ebene 1"><path class="cls-1" d="M40,23.7h2V13a.6.6,0,0,0-.1-.4c-.1-.1-.1-.2-.2-.3L29.7.3c-.1-.1-.2-.2-.3-.2A.6.6,0,0,0,29,0H1A.94.94,0,0,0,0,1V53a.94.94,0,0,0,1,1H26.2V52H2V2H28V13a.94.94,0,0,0,1,1H40ZM30,3.4,38.6,12H30Z"/><path class="cls-1" d="M59.9,40.6A.87.87,0,0,0,59,40H50.6l-4.7-9.4a1,1,0,0,0-1.8,0L39.4,40H31a1,1,0,0,0-.9.7,1.13,1.13,0,0,0,.3,1.1L37.7,48,34.1,58.7a1.07,1.07,0,0,0,.3,1.1.91.91,0,0,0,1.2,0L45,53.2l9.4,6.6a1,1,0,0,0,1.2,0,1.19,1.19,0,0,0,.4-1.1L52.6,48l7.1-6.2A1.06,1.06,0,0,0,59.9,40.6Zm-9.1,6.3a1.13,1.13,0,0,0-.3,1.1l2.7,8.5-7.6-5.3a1,1,0,0,0-1.2,0l-7.5,5.3L39.8,48a1.13,1.13,0,0,0-.3-1.1L33.7,42H40a1,1,0,0,0,.9-.6L45,33.2l4.1,8.2a1.15,1.15,0,0,0,.9.6h6.3Z"/></g></g></svg>