<?xml version="1.0" encoding="utf-8"?>
<!-- Generator: Adobe Illustrator 22.0.1, SVG Export Plug-In . SVG Version: 6.00 Build 0)  -->
<svg version="1.1" id="Layer_1" xmlns="http://www.w3.org/2000/svg" xmlns:xlink="http://www.w3.org/1999/xlink" x="0px" y="0px"
	 viewBox="0 0 100 100" style="enable-background:new 0 0 100 100;" xml:space="preserve">
<style type="text/css">
	.st0{fill:#F7B195;}
	.st1{fill:#72A5C5;}
</style>
<g>
	<path class="st0" d="M89.9,51.9c0,21.7-17.6,39.2-39.2,39.2c-21.7,0-39.2-17.6-39.2-39.2c0-21.7,17.6-39.2,39.2-39.2
		C72.3,12.6,89.9,30.2,89.9,51.9z"/>
</g>
<g>
	<g>
		<path class="st1" d="M80.6,49.9l-2.7,0c-0.4-3.5-1.4-6.7-3-9.7l2.2-1.6c0.5-0.4,0.6-1.1,0.3-1.6l-2.6-3.7c-0.4-0.5-1-0.6-1.6-0.3
			l-2.2,1.6c-0.8-0.9-1.7-1.8-2.7-2.6c-1.7-1.4-3.5-2.6-5.4-3.5l0.9-2.6c0.2-0.6-0.1-1.2-0.7-1.4L58.9,23c-0.6-0.2-1.2,0.1-1.4,0.7
			l-0.9,2.5c-1.9-0.4-3.9-0.7-5.8-0.7c-1.5,0-3,0.1-4.4,0.4l-0.7-2.4c-0.2-0.6-0.8-0.9-1.4-0.7L40,24c-0.6,0.2-0.9,0.8-0.7,1.4
			l0.7,2.4c-3.2,1.4-6.1,3.3-8.5,5.8l-1.9-1.4c-0.5-0.4-1.2-0.3-1.6,0.2L25.3,36c-0.4,0.5-0.3,1.2,0.2,1.6l1.8,1.4
			c-1.8,3.1-3,6.4-3.5,9.9l-2.2,0c-0.6,0-1.1,0.5-1.1,1.1l-0.1,4.5c0,0.6,0.5,1.1,1.1,1.1l2.2,0c0.3,3.5,1.4,6.9,3,10.1L25,66.8
			c-0.5,0.4-0.6,1.1-0.3,1.6l2.6,3.7c0.4,0.5,1,0.6,1.6,0.3l1.7-1.2c0.8,0.9,1.7,1.8,2.7,2.6c1.8,1.5,3.7,2.7,5.7,3.7l-0.7,2
			c-0.2,0.6,0.1,1.2,0.7,1.4l4.2,1.5c0.6,0.2,1.2-0.1,1.4-0.7l0.7-2.1c1.8,0.4,3.6,0.6,5.5,0.6c1.7,0,3.3-0.2,5-0.5l0.7,2.2
			c0.2,0.6,0.8,0.9,1.4,0.7l4.3-1.3c0.6-0.2,0.9-0.8,0.7-1.4l-0.7-2.3c3.1-1.4,6-3.5,8.4-6l2,1.5c0.5,0.4,1.2,0.3,1.6-0.2l2.7-3.6
			c0.4-0.5,0.3-1.2-0.2-1.6l-2-1.5c1.7-3,2.8-6.3,3.3-9.7l2.6,0.1c0.6,0,1.1-0.5,1.1-1.1l0.1-4.5C81.7,50.4,81.2,49.9,80.6,49.9z
			 M64.9,64.7c-3.5,4.2-8.6,6.6-14.1,6.6c-4.3,0-8.5-1.5-11.8-4.3c-7.8-6.5-8.8-18.2-2.2-25.9c3.5-4.2,8.6-6.6,14.1-6.6
			c4.3,0,8.5,1.5,11.8,4.3c3.8,3.2,6.1,7.6,6.5,12.5C69.6,56.2,68.1,60.9,64.9,64.7z"/>
	</g>
	<g>
		<path class="st1" d="M51.1,40.4c-6.8,0-12.3,5.5-12.3,12.3c0,6.8,5.5,12.3,12.3,12.3c6.8,0,12.3-5.5,12.3-12.3
			C63.3,45.9,57.8,40.4,51.1,40.4z"/>
	</g>
</g>
<path class="st0" d="M60.1,19.5"/>
</svg>
