<?xml version="1.0" encoding="utf-8"?>
<!-- Generator: Adobe Illustrator 25.2.2, SVG Export Plug-In . SVG Version: 6.00 Build 0)  -->
<svg version="1.1" id="Ebene_1" xmlns="http://www.w3.org/2000/svg" xmlns:xlink="http://www.w3.org/1999/xlink" x="0px" y="0px"
	 viewBox="0 0 150 150" style="enable-background:new 0 0 150 150;" xml:space="preserve">
<style type="text/css">
	.st0{fill:none;}
	.st1{fill:#FF6606;}
</style>
<rect id="backgroundrect" x="38.7" y="-2.5" class="st0" width="85.4" height="85.4"/>
<g>
	<g id="svg_1_1_">
		<g id="svg_2_1_">
			<path id="svg_3_1_" class="st1" d="M98.3,101.7c-17.3,6.7-36.7-2-43.3-19.3c-0.1-0.3-0.2-0.6-0.4-1h34.6c1.3,0,2.3-1.1,2.3-2.3
				c0-1.3-1.1-2.3-2.3-2.3H53.4c-0.7-3.7-0.8-7.5-0.2-11.2H93c1.3,0,2.3-1.1,2.3-2.3s-1.1-2.3-2.3-2.3H54.3
				c5.3-17.7,24-27.8,41.7-22.4c0.8,0.2,1.6,0.5,2.4,0.8c1.2,0.5,2.6-0.1,3-1.3c0.5-1.2-0.1-2.6-1.3-3h0
				c-19.7-7.6-41.8,2.2-49.3,21.9c-0.5,1.3-1,2.7-1.3,4.1h-9.3c-1.3,0-2.3,1.1-2.3,2.3c0,1.3,1.1,2.3,2.3,2.3h8.4
				c-0.5,3.7-0.4,7.5,0.2,11.2h-8.6c-1.3,0-2.3,1.1-2.3,2.3s1.1,2.3,2.3,2.3h9.7c6.1,20.2,27.4,31.6,47.6,25.5
				c0.9-0.3,1.8-0.6,2.6-0.9c1.2-0.5,1.8-1.8,1.3-3C100.9,101.8,99.5,101.2,98.3,101.7z"/>
		</g>
	</g>
	<g id="svg_4_1_">
	</g>
	<g id="svg_5_1_">
	</g>
	<g id="svg_6_1_">
	</g>
	<g id="svg_7_1_">
	</g>
	<g id="svg_8_1_">
	</g>
	<g id="svg_9_1_">
	</g>
	<g id="svg_10_1_">
	</g>
	<g id="svg_11_1_">
	</g>
	<g id="svg_12_1_">
	</g>
	<g id="svg_13_1_">
	</g>
	<g id="svg_14_1_">
	</g>
	<g id="svg_15_1_">
	</g>
	<g id="svg_16_1_">
	</g>
	<g id="svg_17_1_">
	</g>
	<g id="svg_18_1_">
	</g>
</g>
</svg>
