<?xml version="1.0" encoding="utf-8"?>
<!-- Generator: Adobe Illustrator 25.2.2, SVG Export Plug-In . SVG Version: 6.00 Build 0)  -->
<svg version="1.1" id="Ebene_1" xmlns="http://www.w3.org/2000/svg" xmlns:xlink="http://www.w3.org/1999/xlink" x="0px" y="0px"
	 viewBox="0 0 150 150" style="enable-background:new 0 0 150 150;" xml:space="preserve">
<style type="text/css">
	.st0{fill:none;}
	.st1{fill:#FF6606;}
</style>
<rect id="backgroundrect" x="29.2" y="32.8" class="st0" width="90.9" height="90.9"/>
<g>
	<path id="svg_1_1_" class="st1" d="M74.4,36c7.4,0,14.8,2.1,21.4,6.1c4.6,2.8,8.7,6.4,12.1,10.6l-12.4-0.4l-0.1,3.2L111,56
		c0.9,0,1.6-0.7,1.7-1.6c0,0,0-0.1,0-0.1l-0.5-15.7l-3.2,0.1l0.3,10.6c-3.4-3.9-7.4-7.3-11.9-10c-7.1-4.3-15.1-6.5-23-6.5
		c-12.7,0-24.5,5.2-33,14.8C33.8,56,29.2,67.4,29.2,78h3.2c0-9.8,4.2-20.4,11.3-28.2C51.7,40.9,62.6,36,74.4,36z"/>
	<path id="svg_2_1_" class="st1" d="M105.6,106.2c-8,8.8-18.8,13.7-30.6,13.7c-7.4,0-14.8-2.1-21.4-6.1c-4.6-2.8-8.7-6.4-12.1-10.6
		l12.4,0.4l0.1-3.2l-15.7-0.5c-0.4,0-0.9,0.2-1.2,0.5c-0.3,0.3-0.5,0.7-0.5,1.2l0.5,15.7l3.2-0.1L40,106.6c3.4,3.9,7.4,7.3,11.9,10
		c7.1,4.3,15.1,6.5,23,6.5c12.7,0,24.5-5.2,33-14.8c7.6-8.4,12.1-19.8,12.1-30.4h-3.2C116.9,87.8,112.7,98.3,105.6,106.2z"/>
</g>
</svg>
