<?xml version="1.0" encoding="utf-8"?>
<!-- Generator: Adobe Illustrator 25.2.2, SVG Export Plug-In . SVG Version: 6.00 Build 0)  -->
<svg version="1.1" id="Ebene_1" xmlns="http://www.w3.org/2000/svg" xmlns:xlink="http://www.w3.org/1999/xlink" x="0px" y="0px"
	 viewBox="0 0 150 150" style="enable-background:new 0 0 150 150;" xml:space="preserve">
<style type="text/css">
	.st0{fill:none;}
	.st1{fill:#FF6606;}
</style>
<rect id="backgroundrect_1_" x="22.9" y="18.1" class="st0" width="104.2" height="104.2"/>
<g>
	<path id="svg_1" class="st1" d="M53.6,104.4c-10.3,0-18.7-8-18.7-17.8s8.4-17.8,18.7-17.8s18.7,8,18.7,17.8S63.9,104.4,53.6,104.4z
		 M53.6,71.5c-8.8,0-15.9,6.7-15.9,15s7.1,15,15.9,15s15.9-6.7,15.9-15S62.3,71.5,53.6,71.5z"/>
	<path id="svg_2" class="st1" d="M96.4,104.4c-10.3,0-18.7-8-18.7-17.8s8.4-17.8,18.7-17.8s18.7,8,18.7,17.8S106.7,104.4,96.4,104.4
		z M96.4,71.5c-8.8,0-15.9,6.7-15.9,15s7.1,15,15.9,15s15.9-6.7,15.9-15S105.2,71.5,96.4,71.5z"/>
	<path id="svg_3" class="st1" d="M82.5,78.2c-0.2,0-0.4,0-0.6-0.1c-4.4-2-9.4-2-13.8,0c-0.7,0.3-1.5,0.1-1.9-0.6
		c-0.3-0.7-0.1-1.5,0.6-1.9c0,0,0,0,0,0c5.1-2.4,11-2.4,16.2,0c0.7,0.3,1,1.2,0.7,1.9C83.5,77.9,83,78.2,82.5,78.2z"/>
	<path id="svg_4" class="st1" d="M36.3,83.9c-0.2,0-0.4,0-0.6-0.1l-3.1-1.5c-2.2-1.1-3.2-3.5-2.4-5.8l11-36.8
		c0.9-2.7,3.8-4.2,6.6-3.3c2.1,0.7,3.6,2.7,3.6,4.9v1.5c0,0.8-0.6,1.4-1.4,1.4s-1.4-0.6-1.4-1.4v-1.5c0-1.3-1.1-2.4-2.4-2.4
		c-1,0-2,0.7-2.3,1.6l-11,36.8c-0.3,0.9,0.1,2,1,2.4l3.1,1.5c0.7,0.3,1,1.2,0.7,1.9C37.3,83.6,36.8,83.9,36.3,83.9L36.3,83.9z"/>
	<path id="svg_5" class="st1" d="M113.7,83.9c-0.8,0-1.4-0.6-1.4-1.4c0-0.5,0.3-1,0.8-1.3l3.1-1.5c0.9-0.4,1.3-1.5,1-2.4l-11-36.9
		c-0.5-1.2-1.8-1.9-3.1-1.4c-0.9,0.3-1.6,1.2-1.6,2.2v1.5c0,0.8-0.6,1.4-1.4,1.4c-0.8,0-1.4-0.6-1.4-1.4v-1.5c0-2.9,2.3-5.2,5.2-5.2
		c2.2,0,4.2,1.4,4.9,3.5l11,36.9c0.7,2.3-0.3,4.7-2.5,5.8l-3.1,1.5C114.1,83.9,113.9,83.9,113.7,83.9z"/>
</g>
</svg>
