<?xml version="1.0" encoding="utf-8"?>
<!-- Generator: Adobe Illustrator 25.2.2, SVG Export Plug-In . SVG Version: 6.00 Build 0)  -->
<svg version="1.1" id="Ebene_1" xmlns="http://www.w3.org/2000/svg" xmlns:xlink="http://www.w3.org/1999/xlink" x="0px" y="0px"
	 viewBox="0 0 150 150" style="enable-background:new 0 0 150 150;" xml:space="preserve">
<style type="text/css">
	.st0{fill:none;}
	.st1{fill:#FF6606;}
</style>
<rect id="backgroundrect" x="24.3" y="21.4" class="st0" width="111.2" height="111.2"/>
<g>
	<g id="svg_1_1_">
		<g id="svg_2_1_">
			<g id="svg_3_1_">
				<path id="svg_4_1_" class="st1" d="M116.9,100.1v-2.3c0-8.1-6.1-14.8-13.9-16V42.2c0-0.6-0.2-1.2-0.7-1.6L83.8,22.1
					c-0.4-0.4-1-0.7-1.6-0.7H47.4c-5.1,0-9.3,4.2-9.3,9.3v69.5c0,5.1,4.2,9.3,9.3,9.3h32.4v18.5c0,2.6,2.1,4.6,4.6,4.6h32.4
					c2.6,0,4.6-2.1,4.6-4.6v-23.2C121.5,102.2,119.4,100.1,116.9,100.1z M112.3,97.8v2.3H89.1v-2.3c0-6.4,5.2-11.6,11.6-11.6
					C107.1,86.2,112.3,91.4,112.3,97.8z M84.5,29.3l10.6,10.6h-6c-2.6,0-4.6-2.1-4.6-4.6L84.5,29.3L84.5,29.3z M79.8,104.7H47.4
					c-2.6,0-4.6-2.1-4.6-4.6V30.6c0-2.6,2.1-4.6,4.6-4.6h32.4v9.3c0,5.1,4.2,9.3,9.3,9.3h9.3v37.3c-7.8,1.1-13.9,7.8-13.9,16v2.3
					C81.9,100.1,79.8,102.2,79.8,104.7z M116.9,127.9H84.5v-23.2h0l0-2.3v2.3h32.4L116.9,127.9L116.9,127.9z"/>
				<path id="svg_5_1_" class="st1" d="M98.4,117.9v3c0,1.3,1,2.3,2.3,2.3s2.3-1,2.3-2.3v-3c1.4-0.8,2.3-2.2,2.3-3.9
					c0-2.6-2.1-4.6-4.6-4.6c-2.6,0-4.6,2.1-4.6,4.6C96,115.7,97,117.1,98.4,117.9z"/>
			</g>
		</g>
	</g>
	<g id="svg_6_1_">
	</g>
	<g id="svg_7_1_">
	</g>
	<g id="svg_8_1_">
	</g>
	<g id="svg_9_1_">
	</g>
	<g id="svg_10_1_">
	</g>
	<g id="svg_11_1_">
	</g>
	<g id="svg_12_1_">
	</g>
	<g id="svg_13_1_">
	</g>
	<g id="svg_14_1_">
	</g>
	<g id="svg_15_1_">
	</g>
	<g id="svg_16_1_">
	</g>
	<g id="svg_17_1_">
	</g>
	<g id="svg_18_1_">
	</g>
	<g id="svg_19_1_">
	</g>
	<g id="svg_20">
	</g>
</g>
</svg>
