<?xml version="1.0" encoding="utf-8"?>
<!-- Generator: Adobe Illustrator 25.2.2, SVG Export Plug-In . SVG Version: 6.00 Build 0)  -->
<svg version="1.1" id="Ebene_1" xmlns="http://www.w3.org/2000/svg" xmlns:xlink="http://www.w3.org/1999/xlink" x="0px" y="0px"
	 viewBox="0 0 150 150" style="enable-background:new 0 0 150 150;" xml:space="preserve">
<style type="text/css">
	.st0{fill:none;}
	.st1{fill:#FF6606;}
</style>
<rect id="backgroundrect_1_" x="27.6" y="26.5" class="st0" width="96.6" height="96.6"/>
<g>
	<g id="svg_1">
		<g id="svg_2">
			<path id="svg_3" class="st1" d="M75.5,78.5c0.1,0,0.2,0,0.3,0c0,0,0.1,0,0.1,0c0.1,0,0.1,0,0.2,0c5.9-0.1,10.6-2.2,14.1-6.1
				c7.7-8.7,6.4-23.6,6.3-25C96,36.8,91,31.7,86.8,29.3c-3.1-1.8-6.7-2.7-10.8-2.8h-0.1c0,0-0.1,0-0.1,0h-0.1
				c-2.2,0-6.6,0.4-10.8,2.7c-4.2,2.4-9.3,7.5-9.8,18.2c-0.1,1.4-1.4,16.3,6.3,25C64.9,76.4,69.6,78.4,75.5,78.5z M60.5,48
				c0-0.1,0-0.1,0-0.2c0.7-14.3,10.8-15.9,15.2-15.9h0.1c0,0,0.1,0,0.2,0c5.4,0.1,14.6,2.3,15.2,15.9c0,0.1,0,0.1,0,0.2
				c0,0.1,1.4,13.7-4.9,20.9c-2.5,2.8-5.9,4.2-10.3,4.3c0,0-0.1,0-0.1,0l0,0c0,0-0.1,0-0.1,0c-4.4,0-7.8-1.4-10.3-4.3
				C59.1,61.7,60.5,48.1,60.5,48z"/>
			<path id="svg_4" class="st1" d="M116.9,103.2C116.9,103.2,116.9,103.2,116.9,103.2c0-0.2,0-0.4,0-0.6c-0.1-4-0.4-13.2-9.1-16.2
				c-0.1,0-0.1,0-0.2-0.1c-9-2.3-16.5-7.5-16.6-7.6c-1.2-0.9-2.9-0.6-3.8,0.7c-0.9,1.2-0.6,2.9,0.7,3.8c0.3,0.2,8.3,5.8,18.3,8.3
				c4.7,1.7,5.2,6.6,5.3,11.2c0,0.2,0,0.3,0,0.5c0,1.8-0.1,4.6-0.4,6.2c-3.2,1.8-15.9,8.2-35.3,8.2c-19.2,0-32-6.4-35.3-8.2
				c-0.3-1.6-0.5-4.4-0.4-6.2c0-0.2,0-0.3,0-0.5c0.1-4.6,0.7-9.5,5.3-11.2c10-2.6,17.9-8.1,18.3-8.3c1.2-0.9,1.5-2.5,0.7-3.8
				c-0.9-1.2-2.5-1.5-3.8-0.7c-0.1,0.1-7.5,5.3-16.6,7.6c-0.1,0-0.1,0-0.2,0.1c-8.7,3-8.9,12.2-9.1,16.2c0,0.2,0,0.3,0,0.5
				c0,0,0,0,0,0.1c0,1,0,6.4,1,9.1c0.2,0.5,0.6,1,1,1.3c0.6,0.4,15,9.6,39.1,9.6s38.5-9.2,39.1-9.6c0.5-0.3,0.8-0.7,1-1.3
				C117,109.6,117,104.3,116.9,103.2z"/>
		</g>
	</g>
	<g id="svg_5">
	</g>
	<g id="svg_6">
	</g>
	<g id="svg_7">
	</g>
	<g id="svg_8">
	</g>
	<g id="svg_9">
	</g>
	<g id="svg_10">
	</g>
	<g id="svg_11">
	</g>
	<g id="svg_12">
	</g>
	<g id="svg_13">
	</g>
	<g id="svg_14">
	</g>
	<g id="svg_15">
	</g>
	<g id="svg_16">
	</g>
	<g id="svg_17">
	</g>
	<g id="svg_18">
	</g>
	<g id="svg_19">
	</g>
</g>
</svg>
