<?xml version="1.0" encoding="utf-8"?>
<!-- Generator: Adobe Illustrator 25.2.2, SVG Export Plug-In . SVG Version: 6.00 Build 0)  -->
<svg version="1.1" id="Ebene_1" xmlns="http://www.w3.org/2000/svg" xmlns:xlink="http://www.w3.org/1999/xlink" x="0px" y="0px"
	 viewBox="0 0 150 150" style="enable-background:new 0 0 150 150;" xml:space="preserve">
<style type="text/css">
	.st0{display:none;}
	.st1{display:inline;}
	.st2{fill:#FF6602;}
	.st3{fill:none;}
	.st4{fill:#FF6606;}
</style>
<g id="Ebene_2_1_" class="st0">
	<g id="pencil" class="st1">
		<path class="st2" d="M120.1,40.6l-10.3-10.3c-1.5-1.5-3.6-2.4-5.7-2.4c-2.2,0-4.2,0.8-5.7,2.4L85,43.6L36.4,92.3
			c-0.2,0.2-0.3,0.4-0.4,0.7l-8.1,27.6c-0.2,0.6,0,1.2,0.4,1.6c0.3,0.3,0.7,0.5,1.1,0.5c0.2,0,0.3,0,0.5-0.1l27.6-8.1
			c0.3-0.1,0.5-0.2,0.7-0.4l48.7-48.7l13.2-13.3C123.2,48.9,123.2,43.8,120.1,40.6z M86.2,47l7.4,7.4L51.4,96.7h-9.8l-2-3L86.2,47z
			 M31.8,118.6l2.4-8.3l5.9,5.9L31.8,118.6z M43.6,115.1l-8.4-8.4l2.8-9.5l1.3,2c0.3,0.5,0.8,0.7,1.4,0.7h9.7v9.7
			c0,0.5,0.3,1,0.7,1.4l2,1.3L43.6,115.1z M56.8,110.8l-3-2V99L96,56.8l7.4,7.4L56.8,110.8z M105.7,61.9L88.5,44.7l4.2-4.2
			l17.2,17.2L105.7,61.9z M117.8,49.8l-5.7,5.6L95,38.3l5.6-5.6c1.9-1.8,5-1.8,6.9,0L117.8,43C119.7,44.9,119.7,47.9,117.8,49.8
			C117.9,49.8,117.9,49.8,117.8,49.8z"/>
	</g>
</g>
<rect id="backgroundrect" x="38.7" y="-2.5" class="st3" width="85.4" height="85.4"/>
<g>
	<g id="svg_1">
		<g id="svg_2">
			<g id="svg_3">
				<path id="svg_4" class="st4" d="M115.5,95L98.2,83.5c-2.2-1.5-5.1-1-6.8,1.1l-5,6.5c-0.6,0.9-1.8,1.1-2.8,0.6l-1-0.5
					c-3.2-1.7-7.1-3.9-15.1-11.9S57.5,67.4,55.7,64.2l-0.5-1c-0.5-0.9-0.3-2.1,0.6-2.8l6.5-5c2.1-1.6,2.5-4.6,1.1-6.8L51.8,31.4
					c-1.5-2.2-4.5-2.9-6.8-1.5l-7.2,4.3c-2.3,1.3-3.9,3.5-4.7,6c-2.6,9.5-0.6,25.9,23.5,50c19.2,19.2,33.5,24.3,43.3,24.3
					c2.3,0,4.5-0.3,6.7-0.9c2.5-0.7,4.7-2.4,6-4.7l4.3-7.2C118.4,99.5,117.7,96.5,115.5,95z M114.5,100.3l-4.3,7.2
					c-1,1.6-2.5,2.8-4.3,3.4c-8.8,2.4-24.1,0.4-47.2-22.7S33.5,49.7,35.9,41c0.5-1.8,1.7-3.4,3.4-4.3l7.2-4.3c1-0.6,2.3-0.3,2.9,0.7
					l6.3,9.4l5.3,7.9c0.6,1,0.4,2.2-0.5,2.9l-6.5,5c-2,1.5-2.5,4.2-1.3,6.4l0.5,0.9c1.8,3.3,4.1,7.5,12.3,15.7
					c8.3,8.3,12.4,10.5,15.7,12.3l0.9,0.5c2.2,1.2,4.9,0.7,6.4-1.3l5-6.5c0.7-0.9,2-1.1,2.9-0.5l17.3,11.5
					C114.9,98.1,115.1,99.4,114.5,100.3z"/>
				<path id="svg_5" class="st4" d="M80.7,43.4c13.4,0,24.2,10.8,24.2,24.2c0,0.8,0.6,1.4,1.4,1.4s1.4-0.6,1.4-1.4
					c0-14.9-12.1-27-27-27c-0.8,0-1.4,0.6-1.4,1.4S79.9,43.4,80.7,43.4z"/>
				<path id="svg_6" class="st4" d="M80.7,51.9c8.6,0,15.6,7,15.7,15.7c0,0.8,0.6,1.4,1.4,1.4c0.8,0,1.4-0.6,1.4-1.4
					c0-10.2-8.3-18.5-18.5-18.5c-0.8,0-1.4,0.6-1.4,1.4S79.9,51.9,80.7,51.9z"/>
				<path id="svg_7" class="st4" d="M80.7,60.5c3.9,0,7.1,3.2,7.1,7.1c0,0.8,0.6,1.4,1.4,1.4s1.4-0.6,1.4-1.4c0-5.5-4.5-10-10-10
					c-0.8,0-1.4,0.6-1.4,1.4C79.3,59.8,79.9,60.5,80.7,60.5z"/>
			</g>
		</g>
	</g>
	<g id="svg_8">
	</g>
	<g id="svg_9">
	</g>
	<g id="svg_10">
	</g>
	<g id="svg_11">
	</g>
	<g id="svg_12">
	</g>
	<g id="svg_13">
	</g>
	<g id="svg_14">
	</g>
	<g id="svg_15">
	</g>
	<g id="svg_16">
	</g>
	<g id="svg_17">
	</g>
	<g id="svg_18">
	</g>
	<g id="svg_19">
	</g>
	<g id="svg_20">
	</g>
	<g id="svg_21">
	</g>
	<g id="svg_22">
	</g>
</g>
</svg>
