<?xml version="1.0" encoding="UTF-8"?>
<svg xmlns="http://www.w3.org/2000/svg" xmlns:xlink="http://www.w3.org/1999/xlink" xmlns:svgjs="http://svgjs.com/svgjs" version="1.1" width="512" height="512" x="0" y="0" viewBox="0 0 64 64" style="enable-background:new 0 0 512 512" xml:space="preserve" class="">
  <g>
    <g xmlns="http://www.w3.org/2000/svg" id="Diploma">
      <path d="M34.931,43.621a6.144,6.144,0,1,0-1.8-4.345A6.105,6.105,0,0,0,34.931,43.621Zm1.414-7.276a4.145,4.145,0,1,1-1.214,2.931A4.133,4.133,0,0,1,36.345,36.345Z" fill="#ff6602" data-original="#000000" class=""/>
      <path d="M62.73,15.06a34.761,34.761,0,0,0-6.01-7.78C52.3,2.86,47.67,0,44.92,0a2.729,2.729,0,0,0-1.99.73c-.03.04-.06.07-.09.11-.15.2-.36.56-.82,1.33A108.656,108.656,0,0,1,24.71,24.71,110.034,110.034,0,0,1,1.19,42.59a3.182,3.182,0,0,0-.46.34c-.78.79-1.33,2.47.54,6.01a34.761,34.761,0,0,0,6.01,7.78,34.761,34.761,0,0,0,7.78,6.01A9.054,9.054,0,0,0,19.09,64a2.71,2.71,0,0,0,1.98-.73,3.038,3.038,0,0,0,.34-.46,112.081,112.081,0,0,1,8.82-13.25,1,1,0,1,0-1.58-1.22,112.445,112.445,0,0,0-7.33,10.7,14.252,14.252,0,0,0-.79-1.78,34.761,34.761,0,0,0-6.01-7.78,34.761,34.761,0,0,0-7.78-6.01,13.219,13.219,0,0,0-1.77-.78A113.008,113.008,0,0,0,23.18,28.96l6.41,6.41a3.308,3.308,0,0,0-1.65,2.37,3.142,3.142,0,0,0,.85,2.68,1.186,1.186,0,0,1,.17,1.37,3.17,3.17,0,0,0,0,2.92,3.046,3.046,0,0,0,2.3,1.65,1.093,1.093,0,0,1,.93.94,3.112,3.112,0,0,0,1.65,2.3,3.005,3.005,0,0,0,.32.11V60.28a1,1,0,0,0,.55.9,1.019,1.019,0,0,0,1.05-.1l3.52-2.63,3.51,2.63a1.029,1.029,0,0,0,.6.2,1.018,1.018,0,0,0,.45-.1,1,1,0,0,0,.55-.9V48.21a.653.653,0,0,1,.14,0,3.319,3.319,0,0,0,3.68-3.68.655.655,0,0,1,0-.14H60.28a1,1,0,0,0,.8-1.6l-2.63-3.51,2.63-3.52a1,1,0,0,0-.8-1.6H49.71a3.005,3.005,0,0,0-.11-.32,3.112,3.112,0,0,0-2.3-1.65,1.093,1.093,0,0,1-.94-.94,3.047,3.047,0,0,0-1.65-2.29,3.2,3.2,0,0,0-2.92,0,1.186,1.186,0,0,1-1.37-.17,3.142,3.142,0,0,0-2.68-.85,3.308,3.308,0,0,0-2.37,1.65l-6.41-6.41A111.085,111.085,0,0,0,43.75,3.19c.26-.46.52-.89.64-1.08A1.015,1.015,0,0,1,44.92,2a9.528,9.528,0,0,1,4.23,1.7,34.817,34.817,0,0,1,6.15,5A32.624,32.624,0,0,1,60.97,16c1.1,2.07,1.15,3.26.92,3.61-.18.12-.6.36-1.03.61a111.677,111.677,0,0,0-12.52,8.43,1,1,0,1,0,1.22,1.58,108.863,108.863,0,0,1,12.31-8.28c.75-.44,1.09-.64,1.29-.79.04-.03.07-.06.11-.09C64.06,20.28,64.6,18.59,62.73,15.06ZM5.8,45.24a32.481,32.481,0,0,1,7.3,5.66,32.481,32.481,0,0,1,5.66,7.3c1.16,2.18,1.17,3.38.89,3.65s-1.47.27-3.65-.89A32.26,32.26,0,0,1,8.7,55.3,32.26,32.26,0,0,1,3.04,48c-1.16-2.18-1.17-3.38-.89-3.65a.8.8,0,0,1,.56-.15A7.345,7.345,0,0,1,5.8,45.24Zm44.09-2.85a3.229,3.229,0,0,0,.72-1.58,3.172,3.172,0,0,0,.02-.53H56.7l1.58,2.11Zm-.3-5.63a3.328,3.328,0,0,0,.22-.6h8.47L56.7,38.28H49.87a1.431,1.431,0,0,0-.11-.15A1.186,1.186,0,0,1,49.59,36.76ZM38.28,56.7l-2.12,1.58V49.81a3.731,3.731,0,0,0,.61-.22,1.173,1.173,0,0,1,1.36.17l.03.03.12.09Zm4.11,1.58L40.28,56.7V50.64c.01,0,.02.01.03.01a4.21,4.21,0,0,0,.5-.04,3.229,3.229,0,0,0,1.58-.72ZM33.77,32.33h.04a3.3,3.3,0,0,0,3.27-1.73,1.3,1.3,0,0,1,.96-.68,1.158,1.158,0,0,1,.99.3,3.18,3.18,0,0,0,3.66.53,1.209,1.209,0,0,1,1.11-.01,1.072,1.072,0,0,1,.58.82,3.119,3.119,0,0,0,2.61,2.61,1.094,1.094,0,0,1,.83.58,1.209,1.209,0,0,1-.02,1.11,3.2,3.2,0,0,0,.53,3.67,1.139,1.139,0,0,1,.3.98,1.3,1.3,0,0,1-.66.95c-.01,0-.02.01-.03.01a3.3,3.3,0,0,0-1.4,1.49.355.355,0,0,0-.04.09,3.3,3.3,0,0,0-.28,1.73,1.308,1.308,0,0,1-1.45,1.44,3.319,3.319,0,0,0-1.73.28.689.689,0,0,1-.08.03,3.4,3.4,0,0,0-1.49,1.42,1.3,1.3,0,0,1-.96.68,1.109,1.109,0,0,1-.98-.3l-.03-.03a3.208,3.208,0,0,0-3.64-.5,1.189,1.189,0,0,1-1.1.02,1.078,1.078,0,0,1-.59-.83,3.119,3.119,0,0,0-2.61-2.61,1.072,1.072,0,0,1-.82-.58,1.18,1.18,0,0,1,.01-1.11,3.2,3.2,0,0,0-.53-3.67,1.139,1.139,0,0,1-.3-.98,1.29,1.29,0,0,1,.69-.96,3.352,3.352,0,0,0,1.72-3.31,1.319,1.319,0,0,1,1.44-1.44Zm-.48-1.99a3.3,3.3,0,0,0-2.95,2.95l-5.71-5.71c.5-.49,1-.96,1.5-1.45s.98-1,1.46-1.5Z" fill="#ff6602" data-original="#000000" class=""/>
    </g>
  </g>
</svg>
