<?xml version="1.0" encoding="UTF-8"?>
<svg xmlns="http://www.w3.org/2000/svg" xmlns:xlink="http://www.w3.org/1999/xlink" xmlns:svgjs="http://svgjs.com/svgjs" version="1.1" width="512" height="512" x="0" y="0" viewBox="0 0 64 64" style="enable-background:new 0 0 512 512" xml:space="preserve" class="">
  <g transform="matrix(1.25,0,0,1.25,-7.749999999999986,-8)">
    <path xmlns="http://www.w3.org/2000/svg" d="m52 56v-48a1 1 0 0 0 -1-1h-36a5 5 0 0 0 -5 5v40a5 5 0 0 0 5 5h36a1 1 0 0 0 1-1zm-39.13-46.12a3 3 0 0 1 2.13-.88h1v38h-1a4.92 4.92 0 0 0 -3 1v-36a3 3 0 0 1 .87-2.12zm37.13 45.12h-35a3 3 0 0 1 0-6h35zm0-8h-32v-38h32z" fill="#ff6602" data-original="#000000" class=""/>
    <path xmlns="http://www.w3.org/2000/svg" d="m14 52a1 1 0 0 0 1 1h32a1 1 0 0 0 0-2h-32a1 1 0 0 0 -1 1z" fill="#ff6602" data-original="#000000" class=""/>
    <path xmlns="http://www.w3.org/2000/svg" d="m21.65 19.39 3.35 1.27v5.34a1 1 0 0 0 .65.94l8 3a1.05 1.05 0 0 0 .7 0l8-3a1 1 0 0 0 .65-.94v-5.34l3.35-1.27a1 1 0 0 0 .65-.9 1 1 0 0 0 -.59-.95l-12-5.45a1 1 0 0 0 -.82 0l-12 5.45a1 1 0 0 0 -.59.95 1 1 0 0 0 .65.9zm19.35 5.92-7 2.62-7-2.62v-3.89l6.65 2.52a1.05 1.05 0 0 0 .7 0l6.65-2.52zm-7-11.21 9.4 4.27-9.4 3.56-9.4-3.56z" fill="#ff6602" data-original="#000000" class=""/>
    <path xmlns="http://www.w3.org/2000/svg" d="m26 33a1 1 0 0 0 0 2h16a1 1 0 0 0 0-2z" fill="#ff6602" data-original="#000000" class=""/>
    <path xmlns="http://www.w3.org/2000/svg" d="m21 40h26a1 1 0 0 0 0-2h-26a1 1 0 0 0 0 2z" fill="#ff6602" data-original="#000000" class=""/>
    <path xmlns="http://www.w3.org/2000/svg" d="m47 43h-26a1 1 0 0 0 0 2h26a1 1 0 0 0 0-2z" fill="#ff6602" data-original="#000000" class=""/>
  </g>
</svg>
