<?xml version="1.0" encoding="UTF-8"?>
<svg xmlns="http://www.w3.org/2000/svg" xmlns:xlink="http://www.w3.org/1999/xlink" xmlns:svgjs="http://svgjs.com/svgjs" version="1.1" width="512" height="512" x="0" y="0" viewBox="0 0 512 512" style="enable-background:new 0 0 512 512" xml:space="preserve" class="">
  <g>
    <path xmlns="http://www.w3.org/2000/svg" d="m472 276h-50v-221c0-30.327-24.673-55-55-55h-312c-30.327 0-55 24.673-55 55v105c0 5.522 4.477 10 10 10h80v287c0 30.327 24.673 55 55 55h126c5.523 0 10-4.478 10-10s-4.477-10-10-10h-83.605c7.87-9.516 12.605-21.715 12.605-35v-35h262v35c0 19.299-15.701 35-35 35h-66c-5.523 0-10 4.478-10 10s4.477 10 10 10h66c30.327 0 55-24.673 55-55v-45c0-5.522-4.477-10-10-10h-50v-46h50c22.056 0 40-17.944 40-40s-17.944-40-40-40zm-202 60v-40h162v40zm-57.639-20 37.639-18.82v37.639zm-192.361-261c0-19.299 15.701-35 35-35s35 15.701 35 35v95h-70zm382 347h-212c-5.523 0-10 4.478-10 10v45c0 19.299-15.701 35-35 35s-35-15.701-35-35c0-22.189 0-380.934 0-402 0-13.285-4.735-25.484-12.605-35h269.605c19.299 0 35 15.701 35 35v221h-152c-1.552 0-3.083.361-4.472 1.056l-60 30c-3.388 1.694-5.528 5.156-5.528 8.944s2.14 7.25 5.528 8.944l60 30c1.389.694 2.92 1.056 4.472 1.056h152zm70-66h-20v-40h20c11.028 0 20 8.972 20 20s-8.972 20-20 20z" fill="#ff6602" data-original="#000000" class=""/>
    <path xmlns="http://www.w3.org/2000/svg" d="m160 150h192c5.523 0 10-4.478 10-10s-4.477-10-10-10h-192c-5.523 0-10 4.478-10 10s4.477 10 10 10z" fill="#ff6602" data-original="#000000" class=""/>
    <path xmlns="http://www.w3.org/2000/svg" d="m160 110h192c5.523 0 10-4.478 10-10s-4.477-10-10-10h-192c-5.523 0-10 4.478-10 10s4.477 10 10 10z" fill="#ff6602" data-original="#000000" class=""/>
    <path xmlns="http://www.w3.org/2000/svg" d="m160 190h192c5.523 0 10-4.478 10-10s-4.477-10-10-10h-192c-5.523 0-10 4.478-10 10s4.477 10 10 10z" fill="#ff6602" data-original="#000000" class=""/>
    <path xmlns="http://www.w3.org/2000/svg" d="m362 220c0-5.522-4.477-10-10-10h-192c-5.523 0-10 4.478-10 10s4.477 10 10 10h192c5.523 0 10-4.478 10-10z" fill="#ff6602" data-original="#000000" class=""/>
    <circle xmlns="http://www.w3.org/2000/svg" cx="316" cy="502" r="10" fill="#ff6602" data-original="#000000" class=""/>
  </g>
</svg>
