<svg id="SvgjsSvg1001" width="288" height="288" xmlns="http://www.w3.org/2000/svg" version="1.1" xmlns:xlink="http://www.w3.org/1999/xlink" xmlns:svgjs="http://svgjs.com/svgjs"><defs id="SvgjsDefs1002"></defs><g id="SvgjsG1008"><svg xmlns="http://www.w3.org/2000/svg" enable-background="new 0 0 280 280" viewBox="0 0 280 280" width="288" height="288"><path d="M189,47V16h-25.514C159.951,6,150.92,0,140.333,0s-19.618,6-23.153,16H90v31H189z" fill="#ffffff" class="color000 svgShape"></path><path d="m206,16v31.055 14.189 2.756h-132v-0.818-16.127-31.055h-33v264h198v-264h-33zm-66,229h-66v-16h66v16zm0-66h-66v-16h66v16zm0-66h-66v-16h66v16zm38.582,146.313l-16.657-16.656 11.314-11.314 5.343,5.344 16.343-16.344 11.314,11.314-27.657,27.656zm0-66l-16.657-16.656 11.314-11.314 5.343,5.344 16.343-16.344 11.314,11.314-27.657,27.656zm0-66l-16.657-16.656 11.314-11.314 5.343,5.344 16.343-16.344 11.314,11.314-27.657,27.656z" fill="#ffffff" class="color000 svgShape"></path></svg></g></svg>