<?xml version="1.0" encoding="utf-8"?>
<!-- Generator: Adobe Illustrator 21.0.0, SVG Export Plug-In . SVG Version: 6.00 Build 0)  -->
<svg version="1.1" id="Ebene_1" xmlns="http://www.w3.org/2000/svg" xmlns:xlink="http://www.w3.org/1999/xlink" x="0px" y="0px"
	 viewBox="0 0 120 120" style="enable-background:new 0 0 120 120;" xml:space="preserve">
<style type="text/css">
	.st0{fill:#FF6602;}
</style>
<path class="st0" d="M-9.7-118.3L-20-128.6c-1.5-1.5-3.6-2.4-5.7-2.4c-2.2,0-4.2,0.8-5.7,2.4l-13.3,13.3l-48.7,48.7
	c-0.2,0.2-0.3,0.4-0.4,0.7l-8.1,27.6c-0.2,0.6,0,1.2,0.4,1.6c0.3,0.3,0.7,0.5,1.1,0.5c0.2,0,0.3,0,0.5-0.1l27.6-8.1
	c0.3-0.1,0.5-0.2,0.7-0.4L-23-93.6l13.3-13.3C-6.5-110-6.5-115.2-9.7-118.3z M-43.6-111.9l7.4,7.4l-42.2,42.2h-9.8l-2-3L-43.6-111.9
	z M-98-40.4l2.4-8.3l5.9,5.9L-98-40.4z M-86.1-43.8l-8.4-8.4l2.8-9.5l1.3,2c0.3,0.5,0.8,0.7,1.4,0.7h9.7v9.7c0,0.5,0.3,1,0.7,1.4
	l2,1.3L-86.1-43.8z M-73-48.2l-3-2V-60l42.2-42.2l7.4,7.4L-73-48.2z M-24.1-97l-17.2-17.2l4.2-4.2l17.2,17.2L-24.1-97z M-12-109.2
	l-5.6,5.6l-17.2-17.2l5.6-5.6c1.8-1.8,5.1-1.8,6.9,0L-12-116C-10.1-114.1-10.1-111.1-12-109.2z"/>
<g>
	<path class="st0" d="M166.6-147.2l-8.8-8.8c-0.3-0.3-0.6-0.4-1-0.4h-32.3c-0.8,0-1.5,0.7-1.5,1.5v35.2c0,0.8,0.7,1.5,1.5,1.5h41.1
		c0.8,0,1.5-0.7,1.5-1.5v-26.4C167.1-146.6,166.9-147,166.6-147.2z M164.1-121.3H126v-32.3h30.2l7.9,7.9V-121.3z"/>
	<path class="st0" d="M86.4-188.7c-0.8,0-1.5,0.7-1.5,1.5v58.7c0,0.8,0.7,1.5,1.5,1.5h26.4c0.8,0,1.5-0.7,1.5-1.5
		c0-0.8-0.7-1.5-1.5-1.5H87.9v-55.7h5.9v1.5c0,0.8,0.7,1.5,1.5,1.5h29.3c0.8,0,1.5-0.7,1.5-1.5v-1.5h5.9v19.1c0,0.8,0.7,1.5,1.5,1.5
		c0.8,0,1.5-0.7,1.5-1.5v-20.5c0-0.8-0.7-1.5-1.5-1.5H126v-2.9h11.7v24.9c0,0.8,0.7,1.5,1.5,1.5s1.5-0.7,1.5-1.5v-26.4
		c0-0.8-0.7-1.5-1.5-1.5H126v-1.5c0-0.8-0.7-1.5-1.5-1.5H120c-0.7-5.8-5.5-8.8-10.2-8.8s-9.5,3-10.2,8.8h-4.5
		c-0.8,0-1.5,0.7-1.5,1.5v1.5H80.5c-0.8,0-1.5,0.7-1.5,1.5v73.3c0,0.8,0.7,1.5,1.5,1.5h32.3c0.8,0,1.5-0.7,1.5-1.5
		c0-0.8-0.7-1.5-1.5-1.5H82v-70.4h11.7v2.9H86.4z M96.7-194.6h4.4c0.8,0,1.5-0.7,1.5-1.5c0-5,3.8-7.3,7.3-7.3s7.3,2.3,7.3,7.3
		c0,0.8,0.7,1.5,1.5,1.5h4.4v8.8H96.7V-194.6z"/>
	<path class="st0" d="M156.8-130.1h-23.5c-0.8,0-1.5,0.7-1.5,1.5c0,0.8,0.7,1.5,1.5,1.5h23.5c0.8,0,1.5-0.7,1.5-1.5
		C158.3-129.4,157.6-130.1,156.8-130.1z"/>
	<path class="st0" d="M156.8-135.9h-23.5c-0.8,0-1.5,0.7-1.5,1.5c0,0.8,0.7,1.5,1.5,1.5h23.5c0.8,0,1.5-0.7,1.5-1.5
		C158.3-135.3,157.6-135.9,156.8-135.9z"/>
	<path class="st0" d="M131.9-140.3c0,0.8,0.7,1.5,1.5,1.5h23.5c0.8,0,1.5-0.7,1.5-1.5c0-0.8-0.7-1.5-1.5-1.5h-23.5
		C132.5-141.8,131.9-141.1,131.9-140.3z"/>
	<path class="st0" d="M133.3-144.7h17.6c0.8,0,1.5-0.7,1.5-1.5c0-0.8-0.7-1.5-1.5-1.5h-17.6c-0.8,0-1.5,0.7-1.5,1.5
		C131.9-145.4,132.5-144.7,133.3-144.7z"/>
</g>
<g>
	<path class="st0" d="M224.5-37.9c2.7,2.7,7.7,4.8,11.5,4.8h9.2c3.8,0,8.8-2.1,11.5-4.8L276.8-58c0,0,0,0,0,0c0,0,0,0,0,0l20.1-20.1
		c1.4-1.4,2.2-3.4,2.2-5.4c0-2-0.8-4-2.2-5.4L275-110.8c-1.4-1.4-3.4-2.2-5.4-2.2c-2,0-4,0.8-5.4,2.2l-50.9,50.9
		c-1.4,1.4-2.2,3.4-2.2,5.4c0,2,0.8,4,2.2,5.4L224.5-37.9z M266.4-108.6c0.9-0.9,2-1.3,3.2-1.3c1.2,0,2.4,0.5,3.2,1.3l21.9,21.9
		c0.9,0.9,1.3,2,1.3,3.2c0,1.2-0.5,2.4-1.3,3.2l-19,19l-28.4-28.4L266.4-108.6z M215.5-57.7l29.7-29.7l28.4,28.4l-19,19
		c-2.1,2.1-6.4,3.9-9.3,3.9H236c-3,0-7.2-1.8-9.3-3.9l-11.2-11.2c-0.9-0.9-1.3-2-1.3-3.2C214.1-55.7,214.6-56.9,215.5-57.7z"/>
	<path class="st0" d="M298.6-30.1h-88.5c-0.8,0-1.5,0.7-1.5,1.5s0.7,1.5,1.5,1.5h88.5c0.8,0,1.5-0.7,1.5-1.5S299.4-30.1,298.6-30.1z
		"/>
</g>
<g>
	<path class="st0" d="M69.1,95.1H22.3c-0.7,0-1.3,0.6-1.3,1.3c0,0.7,0.6,1.3,1.3,1.3h46.8c0.7,0,1.3-0.6,1.3-1.3
		C70.4,95.6,69.8,95.1,69.1,95.1z"/>
	<path class="st0" d="M22.3,24.9h46.8c0.7,0,1.3-0.6,1.3-1.3c0-0.7-0.6-1.3-1.3-1.3H22.3c-0.7,0-1.3,0.6-1.3,1.3
		C21,24.4,21.6,24.9,22.3,24.9z"/>
	<path class="st0" d="M22.3,35.3h46.8c0.7,0,1.3-0.6,1.3-1.3c0-0.7-0.6-1.3-1.3-1.3H22.3c-0.7,0-1.3,0.6-1.3,1.3
		C21,34.7,21.6,35.3,22.3,35.3z"/>
	<path class="st0" d="M22.3,45.7h26c0.7,0,1.3-0.6,1.3-1.3c0-0.7-0.6-1.3-1.3-1.3h-26c-0.7,0-1.3,0.6-1.3,1.3
		C21,45.1,21.6,45.7,22.3,45.7z"/>
	<path class="st0" d="M22.3,56.1h26c0.7,0,1.3-0.6,1.3-1.3c0-0.7-0.6-1.3-1.3-1.3h-26c-0.7,0-1.3,0.6-1.3,1.3
		C21,55.5,21.6,56.1,22.3,56.1z"/>
	<path class="st0" d="M22.3,66.5h26c0.7,0,1.3-0.6,1.3-1.3c0-0.7-0.6-1.3-1.3-1.3h-26c-0.7,0-1.3,0.6-1.3,1.3
		C21,65.9,21.6,66.5,22.3,66.5z"/>
	<path class="st0" d="M22.3,76.9h26c0.7,0,1.3-0.6,1.3-1.3c0-0.7-0.6-1.3-1.3-1.3h-26c-0.7,0-1.3,0.6-1.3,1.3
		C21,76.3,21.6,76.9,22.3,76.9z"/>
	<path class="st0" d="M69.1,84.7H22.3c-0.7,0-1.3,0.6-1.3,1.3s0.6,1.3,1.3,1.3h46.8c0.7,0,1.3-0.6,1.3-1.3S69.8,84.7,69.1,84.7z"/>
	<path class="st0" d="M98.6,59.1L80.4,40.9c-0.4-0.4-0.9-0.5-1.4-0.3c-0.5,0.2-0.8,0.7-0.8,1.2v9.1H61.3c-0.7,0-1.3,0.6-1.3,1.3
		v15.6c0,0.7,0.6,1.3,1.3,1.3h16.9v9.1c0,0.5,0.3,1,0.8,1.2c0.2,0.1,0.3,0.1,0.5,0.1c0.3,0,0.7-0.1,0.9-0.4l18.2-18.2
		C99.1,60.4,99.1,59.6,98.6,59.1z M80.8,75v-7.3c0-0.7-0.6-1.3-1.3-1.3H62.6v-13h16.9c0.7,0,1.3-0.6,1.3-1.3V45l15,15L80.8,75z"/>
</g>
</svg>
