<?xml version="1.0" encoding="utf-8"?>
<!-- Generator: Adobe Illustrator 21.0.0, SVG Export Plug-In . SVG Version: 6.00 Build 0)  -->
<svg version="1.1" id="Ebene_1" xmlns="http://www.w3.org/2000/svg" xmlns:xlink="http://www.w3.org/1999/xlink" x="0px" y="0px"
	 viewBox="0 0 120 120" style="enable-background:new 0 0 120 120;" xml:space="preserve">
<style type="text/css">
	.st0{fill:#FF6602;}
</style>
<path class="st0" d="M105,25.3L94.7,15c-1.5-1.5-3.6-2.4-5.7-2.4c-2.2,0-4.2,0.8-5.7,2.4L69.9,28.3L21.3,77
	c-0.2,0.2-0.3,0.4-0.4,0.7l-8.1,27.6c-0.2,0.6,0,1.2,0.4,1.6c0.3,0.3,0.7,0.5,1.1,0.5c0.2,0,0.3,0,0.5-0.1l27.6-8.1
	c0.3-0.1,0.5-0.2,0.7-0.4l48.7-48.7L105,36.8C108.1,33.6,108.1,28.5,105,25.3z M71.1,31.7l7.4,7.4L36.3,81.4h-9.8l-2-3L71.1,31.7z
	 M16.7,103.3l2.4-8.3l5.9,5.9L16.7,103.3z M28.5,99.8l-8.4-8.4l2.8-9.5l1.3,2c0.3,0.5,0.8,0.7,1.4,0.7h9.7v9.7c0,0.5,0.3,1,0.7,1.4
	l2,1.3L28.5,99.8z M41.7,95.5l-3-2v-9.8l42.2-42.2l7.4,7.4L41.7,95.5z M90.6,46.6L73.4,29.4l4.2-4.2l17.2,17.2L90.6,46.6z
	 M102.7,34.5L97,40.1L79.9,23l5.6-5.6c1.8-1.8,5.1-1.8,6.9,0l10.3,10.3C104.6,29.5,104.6,32.6,102.7,34.5z"/>
<g>
	<path d="M324.8-81.7l-6-6c-0.2-0.2-0.4-0.3-0.7-0.3h-22c-0.6,0-1,0.4-1,1v24c0,0.6,0.4,1,1,1h28c0.6,0,1-0.4,1-1v-18
		C325.1-81.3,325-81.5,324.8-81.7z M323.1-64h-26v-22h20.6l5.4,5.4V-64z"/>
	<path d="M270.1-110c-0.6,0-1,0.4-1,1v40c0,0.6,0.4,1,1,1h18c0.6,0,1-0.4,1-1c0-0.6-0.4-1-1-1h-17v-38h4v1c0,0.6,0.4,1,1,1h20
		c0.6,0,1-0.4,1-1v-1h4v13c0,0.6,0.4,1,1,1s1-0.4,1-1v-14c0-0.6-0.4-1-1-1h-5v-2h8v17c0,0.6,0.4,1,1,1s1-0.4,1-1v-18
		c0-0.6-0.4-1-1-1h-9v-1c0-0.6-0.4-1-1-1h-3.1c-0.5-3.9-3.7-6-6.9-6s-6.5,2.1-6.9,6h-3.1c-0.6,0-1,0.4-1,1v1h-9c-0.6,0-1,0.4-1,1v50
		c0,0.6,0.4,1,1,1h22c0.6,0,1-0.4,1-1c0-0.6-0.4-1-1-1h-21v-48h8v2H270.1z M277.1-114h3c0.6,0,1-0.4,1-1c0-3.4,2.6-5,5-5s5,1.6,5,5
		c0,0.6,0.4,1,1,1h3v6h-18V-114z"/>
	<path d="M318.1-70h-16c-0.6,0-1,0.4-1,1c0,0.6,0.4,1,1,1h16c0.6,0,1-0.4,1-1C319.1-69.6,318.7-70,318.1-70z"/>
	<path d="M318.1-74h-16c-0.6,0-1,0.4-1,1c0,0.6,0.4,1,1,1h16c0.6,0,1-0.4,1-1C319.1-73.6,318.7-74,318.1-74z"/>
	<path d="M301.1-77c0,0.6,0.4,1,1,1h16c0.6,0,1-0.4,1-1c0-0.6-0.4-1-1-1h-16C301.6-78,301.1-77.6,301.1-77z"/>
	<path d="M302.1-80h12c0.6,0,1-0.4,1-1c0-0.6-0.4-1-1-1h-12c-0.6,0-1,0.4-1,1C301.1-80.4,301.6-80,302.1-80z"/>
</g>
<g>
	<path d="M391.2-67c1.8,1.8,5.1,3.1,7.5,3.1h6c2.5,0,5.8-1.4,7.5-3.1l13.2-13.2c0,0,0,0,0,0c0,0,0,0,0,0l13.2-13.2
		c0.9-0.9,1.5-2.2,1.5-3.5c0-1.3-0.5-2.6-1.5-3.5l-14.3-14.3c-0.9-0.9-2.2-1.5-3.5-1.5c-1.3,0-2.6,0.5-3.5,1.5l-33.3,33.3
		c-0.9,0.9-1.5,2.2-1.5,3.5c0,1.3,0.5,2.6,1.5,3.5L391.2-67z M418.7-113.3c0.6-0.6,1.3-0.9,2.1-0.9c0.8,0,1.6,0.3,2.1,0.9L437.2-99
		c0.6,0.6,0.9,1.3,0.9,2.1c0,0.8-0.3,1.6-0.9,2.1l-12.5,12.5l-18.6-18.6L418.7-113.3z M385.3-80l19.5-19.5l18.6,18.6l-12.5,12.5
		c-1.4,1.4-4.2,2.5-6.1,2.5h-6c-1.9,0-4.7-1.2-6.1-2.5l-7.3-7.3c-0.6-0.6-0.9-1.3-0.9-2.1C384.4-78.6,384.8-79.4,385.3-80z"/>
	<path d="M439.8-61.8h-58c-0.6,0-1,0.4-1,1s0.4,1,1,1h58c0.6,0,1-0.4,1-1S440.3-61.8,439.8-61.8z"/>
</g>
<g>
	<path d="M524.8-55h-36c-0.6,0-1,0.4-1,1s0.4,1,1,1h36c0.6,0,1-0.4,1-1S525.3-55,524.8-55z"/>
	<path d="M488.8-109h36c0.6,0,1-0.4,1-1c0-0.6-0.4-1-1-1h-36c-0.6,0-1,0.4-1,1C487.8-109.4,488.2-109,488.8-109z"/>
	<path d="M488.8-101h36c0.6,0,1-0.4,1-1c0-0.6-0.4-1-1-1h-36c-0.6,0-1,0.4-1,1C487.8-101.4,488.2-101,488.8-101z"/>
	<path d="M488.8-93h20c0.6,0,1-0.4,1-1c0-0.6-0.4-1-1-1h-20c-0.6,0-1,0.4-1,1C487.8-93.4,488.2-93,488.8-93z"/>
	<path d="M488.8-85h20c0.6,0,1-0.4,1-1c0-0.6-0.4-1-1-1h-20c-0.6,0-1,0.4-1,1C487.8-85.4,488.2-85,488.8-85z"/>
	<path d="M488.8-77h20c0.6,0,1-0.4,1-1c0-0.6-0.4-1-1-1h-20c-0.6,0-1,0.4-1,1C487.8-77.4,488.2-77,488.8-77z"/>
	<path d="M488.8-69h20c0.6,0,1-0.4,1-1c0-0.6-0.4-1-1-1h-20c-0.6,0-1,0.4-1,1C487.8-69.4,488.2-69,488.8-69z"/>
	<path d="M524.8-63h-36c-0.6,0-1,0.4-1,1s0.4,1,1,1h36c0.6,0,1-0.4,1-1S525.3-63,524.8-63z"/>
	<path d="M547.5-82.7l-14-14c-0.3-0.3-0.7-0.4-1.1-0.2c-0.4,0.2-0.6,0.5-0.6,0.9v7h-13c-0.6,0-1,0.4-1,1v12c0,0.6,0.4,1,1,1h13v7
		c0,0.4,0.2,0.8,0.6,0.9c0.1,0.1,0.3,0.1,0.4,0.1c0.3,0,0.5-0.1,0.7-0.3l14-14C547.9-81.7,547.9-82.3,547.5-82.7z M533.8-70.4V-76
		c0-0.6-0.4-1-1-1h-13v-10h13c0.6,0,1-0.4,1-1v-5.6L545.4-82L533.8-70.4z"/>
</g>
</svg>
