<?xml version="1.0" encoding="utf-8"?>
<!-- Generator: Adobe Illustrator 21.0.0, SVG Export Plug-In . SVG Version: 6.00 Build 0)  -->
<svg version="1.1" id="Ebene_1" xmlns="http://www.w3.org/2000/svg" xmlns:xlink="http://www.w3.org/1999/xlink" x="0px" y="0px"
	 viewBox="0 0 120 120" style="enable-background:new 0 0 120 120;" xml:space="preserve">
<style type="text/css">
	.st0{fill:#FF6602;}
</style>
<path class="st0" d="M-9.7-118.3L-20-128.6c-1.5-1.5-3.6-2.4-5.7-2.4c-2.2,0-4.2,0.8-5.7,2.4l-13.3,13.3l-48.7,48.7
	c-0.2,0.2-0.3,0.4-0.4,0.7l-8.1,27.6c-0.2,0.6,0,1.2,0.4,1.6c0.3,0.3,0.7,0.5,1.1,0.5c0.2,0,0.3,0,0.5-0.1l27.6-8.1
	c0.3-0.1,0.5-0.2,0.7-0.4L-23-93.6l13.3-13.3C-6.5-110-6.5-115.2-9.7-118.3z M-43.6-111.9l7.4,7.4l-42.2,42.2h-9.8l-2-3L-43.6-111.9
	z M-98-40.4l2.4-8.3l5.9,5.9L-98-40.4z M-86.1-43.8l-8.4-8.4l2.8-9.5l1.3,2c0.3,0.5,0.8,0.7,1.4,0.7h9.7v9.7c0,0.5,0.3,1,0.7,1.4
	l2,1.3L-86.1-43.8z M-73-48.2l-3-2V-60l42.2-42.2l7.4,7.4L-73-48.2z M-24.1-97l-17.2-17.2l4.2-4.2l17.2,17.2L-24.1-97z M-12-109.2
	l-5.6,5.6l-17.2-17.2l5.6-5.6c1.8-1.8,5.1-1.8,6.9,0L-12-116C-10.1-114.1-10.1-111.1-12-109.2z"/>
<g>
	<path class="st0" d="M121.2-107.2l-9.2-9.2c-0.3-0.3-0.7-0.4-1.1-0.4H77.2c-0.8,0-1.5,0.7-1.5,1.5v36.8c0,0.8,0.7,1.5,1.5,1.5h42.9
		c0.8,0,1.5-0.7,1.5-1.5v-27.6C121.7-106.5,121.5-106.9,121.2-107.2z M118.6-80.1H78.7v-33.7h31.6l8.3,8.3V-80.1z"/>
	<path class="st0" d="M37.3-150.6c-0.8,0-1.5,0.7-1.5,1.5v61.3c0,0.8,0.7,1.5,1.5,1.5h27.6c0.8,0,1.5-0.7,1.5-1.5
		c0-0.8-0.7-1.5-1.5-1.5H38.9v-58.3H45v1.5c0,0.8,0.7,1.5,1.5,1.5h30.7c0.8,0,1.5-0.7,1.5-1.5v-1.5h6.1v19.9c0,0.8,0.7,1.5,1.5,1.5
		s1.5-0.7,1.5-1.5v-21.5c0-0.8-0.7-1.5-1.5-1.5h-7.7v-3.1H91v26.1c0,0.8,0.7,1.5,1.5,1.5s1.5-0.7,1.5-1.5v-27.6
		c0-0.8-0.7-1.5-1.5-1.5H78.7v-1.5c0-0.8-0.7-1.5-1.5-1.5h-4.7c-0.7-6-5.7-9.2-10.6-9.2s-9.9,3.2-10.6,9.2h-4.7
		c-0.8,0-1.5,0.7-1.5,1.5v1.5H31.2c-0.8,0-1.5,0.7-1.5,1.5v76.7c0,0.8,0.7,1.5,1.5,1.5h33.7c0.8,0,1.5-0.7,1.5-1.5
		c0-0.8-0.7-1.5-1.5-1.5H32.7v-73.6H45v3.1H37.3z M48.1-156.7h4.6c0.8,0,1.5-0.7,1.5-1.5c0-5.3,4-7.7,7.7-7.7c3.7,0,7.7,2.4,7.7,7.7
		c0,0.8,0.7,1.5,1.5,1.5h4.6v9.2H48.1V-156.7z"/>
	<path class="st0" d="M110.9-89.3H86.4c-0.8,0-1.5,0.7-1.5,1.5c0,0.8,0.7,1.5,1.5,1.5h24.5c0.8,0,1.5-0.7,1.5-1.5
		C112.5-88.6,111.8-89.3,110.9-89.3z"/>
	<path class="st0" d="M110.9-95.4H86.4c-0.8,0-1.5,0.7-1.5,1.5c0,0.8,0.7,1.5,1.5,1.5h24.5c0.8,0,1.5-0.7,1.5-1.5
		C112.5-94.7,111.8-95.4,110.9-95.4z"/>
	<path class="st0" d="M84.9-100c0,0.8,0.7,1.5,1.5,1.5h24.5c0.8,0,1.5-0.7,1.5-1.5c0-0.8-0.7-1.5-1.5-1.5H86.4
		C85.6-101.5,84.9-100.8,84.9-100z"/>
	<path class="st0" d="M86.4-104.6h18.4c0.8,0,1.5-0.7,1.5-1.5c0-0.8-0.7-1.5-1.5-1.5H86.4c-0.8,0-1.5,0.7-1.5,1.5
		C84.9-105.3,85.6-104.6,86.4-104.6z"/>
</g>
<g>
	<path class="st0" d="M30.2,92.1c2.7,2.7,7.7,4.8,11.5,4.8h9.2c3.8,0,8.8-2.1,11.5-4.8L82.4,72c0,0,0,0,0,0c0,0,0,0,0,0l20.1-20.1
		c1.4-1.4,2.2-3.4,2.2-5.4c0-2-0.8-4-2.2-5.4L80.7,19.2c-1.4-1.4-3.4-2.2-5.4-2.2c-2,0-4,0.8-5.4,2.2L19,70.1
		c-1.4,1.4-2.2,3.4-2.2,5.4c0,2,0.8,4,2.2,5.4L30.2,92.1z M72,21.4c0.9-0.9,2-1.3,3.2-1.3c1.2,0,2.4,0.5,3.2,1.3l21.9,21.9
		c0.9,0.9,1.3,2,1.3,3.2c0,1.2-0.5,2.4-1.3,3.2l-19,19L53,40.4L72,21.4z M21.1,72.3l29.7-29.7l28.4,28.4l-19,19
		c-2.1,2.1-6.4,3.9-9.3,3.9h-9.2c-3,0-7.2-1.8-9.3-3.9L21.1,78.8c-0.9-0.9-1.3-2-1.3-3.2C19.8,74.3,20.3,73.1,21.1,72.3z"/>
	<path class="st0" d="M104.3,99.9H15.7c-0.8,0-1.5,0.7-1.5,1.5c0,0.8,0.7,1.5,1.5,1.5h88.5c0.8,0,1.5-0.7,1.5-1.5
		C105.8,100.6,105.1,99.9,104.3,99.9z"/>
</g>
<g>
	<path d="M524.8-55h-36c-0.6,0-1,0.4-1,1s0.4,1,1,1h36c0.6,0,1-0.4,1-1S525.3-55,524.8-55z"/>
	<path d="M488.8-109h36c0.6,0,1-0.4,1-1c0-0.6-0.4-1-1-1h-36c-0.6,0-1,0.4-1,1C487.8-109.4,488.2-109,488.8-109z"/>
	<path d="M488.8-101h36c0.6,0,1-0.4,1-1c0-0.6-0.4-1-1-1h-36c-0.6,0-1,0.4-1,1C487.8-101.4,488.2-101,488.8-101z"/>
	<path d="M488.8-93h20c0.6,0,1-0.4,1-1c0-0.6-0.4-1-1-1h-20c-0.6,0-1,0.4-1,1C487.8-93.4,488.2-93,488.8-93z"/>
	<path d="M488.8-85h20c0.6,0,1-0.4,1-1c0-0.6-0.4-1-1-1h-20c-0.6,0-1,0.4-1,1C487.8-85.4,488.2-85,488.8-85z"/>
	<path d="M488.8-77h20c0.6,0,1-0.4,1-1c0-0.6-0.4-1-1-1h-20c-0.6,0-1,0.4-1,1C487.8-77.4,488.2-77,488.8-77z"/>
	<path d="M488.8-69h20c0.6,0,1-0.4,1-1c0-0.6-0.4-1-1-1h-20c-0.6,0-1,0.4-1,1C487.8-69.4,488.2-69,488.8-69z"/>
	<path d="M524.8-63h-36c-0.6,0-1,0.4-1,1s0.4,1,1,1h36c0.6,0,1-0.4,1-1S525.3-63,524.8-63z"/>
	<path d="M547.5-82.7l-14-14c-0.3-0.3-0.7-0.4-1.1-0.2c-0.4,0.2-0.6,0.5-0.6,0.9v7h-13c-0.6,0-1,0.4-1,1v12c0,0.6,0.4,1,1,1h13v7
		c0,0.4,0.2,0.8,0.6,0.9c0.1,0.1,0.3,0.1,0.4,0.1c0.3,0,0.5-0.1,0.7-0.3l14-14C547.9-81.7,547.9-82.3,547.5-82.7z M533.8-70.4V-76
		c0-0.6-0.4-1-1-1h-13v-10h13c0.6,0,1-0.4,1-1v-5.6L545.4-82L533.8-70.4z"/>
</g>
</svg>
