<svg id="SvgjsSvg1001" width="288" height="288" xmlns="http://www.w3.org/2000/svg" version="1.1" xmlns:xlink="http://www.w3.org/1999/xlink" xmlns:svgjs="http://svgjs.com/svgjs"><defs id="SvgjsDefs1002"></defs><g id="SvgjsG1008"><svg xmlns="http://www.w3.org/2000/svg" enable-background="new 0 0 86.8 75.5" viewBox="0 0 86.8 75.5" width="288" height="288"><g transform="translate(-109.054 -396.437)" fill="#ffffff" class="color000 svgShape"><path fill="#ffffff" d="M122.1,464.5c-0.4,0-0.7-0.1-1.1-0.3l-6.1-4.3c-0.5-0.3-0.8-0.9-0.8-1.5v-35.8l-4.1-2.4c-0.6-0.3-1-1-0.9-1.7			s0.4-1.3,1-1.6l42.3-20.3c0.5-0.2,1.1-0.2,1.6,0l40.9,20.3c0.6,0.3,1,0.9,1,1.6s-0.3,1.3-0.8,1.7l-40.9,26.5c-0.6,0.4-1.4,0.4-2,0
			l-28.2-18v34c0,0.7-0.4,1.3-1,1.6C122.7,464.5,122.4,464.5,122.1,464.5z M117.8,457.5l2.4,1.7v-33.8c0-0.7,0.4-1.3,1-1.6
			c0.6-0.3,1.3-0.3,1.9,0.1l30.1,19.2l37.2-24.1l-37.2-18.5l-38.4,18.3l2,1.2c0.6,0.3,0.9,0.9,0.9,1.6v35.9H117.8z" class="colorff6602 svgShape"></path><path fill="#ffffff" d="M153.1,472c-0.5,0-1.1-0.2-1.4-0.7c-7.2-8.6-24.8-18.9-25-19c-0.6-0.4-1-1.1-0.9-1.8l1.7-14
			c0.1-0.6,0.5-1.2,1.1-1.5s1.3-0.2,1.8,0.1c0.8,0.5,17.7,11.6,22.8,15c4.8-3.1,22.4-14.9,22.6-15c0.5-0.4,1.2-0.4,1.8-0.1
			s1,0.8,1.1,1.5l1.5,14.2c0.1,0.7-0.3,1.4-0.8,1.8c-0.4,0.2-0.9,0.6-1.6,1c-4.8,3-17.7,10.8-23.1,17.8
			C154.3,471.7,153.7,472,153.1,472C153.2,472,153.1,472,153.1,472z M129.7,449.7c3.7,2.2,16.4,10.1,23.4,17.6
			c6.4-7,18-14.2,22.6-17c0.2-0.1,0.4-0.3,0.6-0.4l-1.1-10c-5.8,3.8-19.5,13-21.1,14c-0.6,0.4-1.4,0.4-2,0
			c-2.5-1.7-15.7-10.3-21.3-14L129.7,449.7z" class="colorff6602 svgShape"></path></g></svg></g></svg>