<svg id="Layer_1" data-name="Layer 1" xmlns="http://www.w3.org/2000/svg" viewBox="0 0 128 128"><defs><style>.cls-1{fill:#ff6602;}</style></defs><title>Zeichenfläche 1</title><path class="cls-1" d="M35.49,98.94A21.49,21.49,0,1,1,57,77.45,21.51,21.51,0,0,1,35.49,98.94Zm0-39A17.49,17.49,0,1,0,53,77.45,17.5,17.5,0,0,0,35.49,60Z"/><path class="cls-1" d="M92.35,98.94a21.49,21.49,0,1,1,21.48-21.49A21.51,21.51,0,0,1,92.35,98.94Zm0-39a17.49,17.49,0,1,0,17.48,17.48A17.51,17.51,0,0,0,92.35,60Z"/><path class="cls-1" d="M18,70.57a2.11,2.11,0,0,1-.65-.11,2,2,0,0,1-1.25-2.54l11-32.19c1.24-4.93,7.28-7.73,13.51-6.25a2,2,0,1,1-.92,3.89c-4.07-1-8.06.58-8.73,3.38l-.05.18-11,32.28A2,2,0,0,1,18,70.57Z"/><path class="cls-1" d="M109.71,70.57a2,2,0,0,1-1.89-1.36l-11-32.46a4.56,4.56,0,0,0-2.81-3A9.51,9.51,0,0,0,88,33.37a2,2,0,0,1-.92-3.89,13.46,13.46,0,0,1,8.44.61,8.44,8.44,0,0,1,5.08,5.64l11,32.19a2,2,0,0,1-1.25,2.54A2.06,2.06,0,0,1,109.71,70.57Z"/><path class="cls-1" d="M72.86,79.45a2.12,2.12,0,0,1-.91-.21,20,20,0,0,0-8.24-1.66A17.13,17.13,0,0,0,56,79.19a2,2,0,1,1-2-3.47,20.68,20.68,0,0,1,9.73-2.14,23.9,23.9,0,0,1,10.06,2.09,2,2,0,0,1-.91,3.78Z"/></svg>