<?xml version="1.0" encoding="UTF-8"?>
<svg xmlns="http://www.w3.org/2000/svg" xmlns:xlink="http://www.w3.org/1999/xlink" xmlns:svgjs="http://svgjs.com/svgjs" version="1.1" width="512" height="512" x="0" y="0" viewBox="0 0 64 64" style="enable-background:new 0 0 512 512" xml:space="preserve" class="">
  <g>
    <g xmlns="http://www.w3.org/2000/svg" id="Diploma">
      <path d="m35.29 51.95a4.32 4.32 0 0 1 -1.13-.14v8.47a1 1 0 0 0 .55.9 1.019 1.019 0 0 0 1.05-.1l2.52-1.88v-6.98a4.755 4.755 0 0 1 -1.09-.63 5.426 5.426 0 0 1 -1.9.36z" fill="#ff6602" data-original="#000000" class=""/>
      <path d="m41.11 52.59a5.287 5.287 0 0 1 -.8.06h-.03v6.55l2.51 1.88a1.029 1.029 0 0 0 .6.2 1.018 1.018 0 0 0 .45-.1 1 1 0 0 0 .55-.9v-9.55a5.3 5.3 0 0 1 -3.28 1.86z" fill="#ff6602" data-original="#000000" class=""/>
      <path d="m59.2 40.28h-6.55a5.793 5.793 0 0 1 -.06.83 5.3 5.3 0 0 1 -1.86 3.28h9.55a1 1 0 0 0 .8-1.6z" fill="#ff6602" data-original="#000000" class=""/>
      <path d="m60.28 34.16h-8.46a5.168 5.168 0 0 1 -.23 3.03 5.194 5.194 0 0 1 .64 1.09h6.97l1.88-2.52a1 1 0 0 0 -.8-1.6z" fill="#ff6602" data-original="#000000" class=""/>
      <path d="m49.588 36.765a3.185 3.185 0 0 0 .008-2.923 3.081 3.081 0 0 0 -2.3-1.651 1.1 1.1 0 0 1 -.936-.937 3.082 3.082 0 0 0 -1.65-2.3 3.181 3.181 0 0 0 -2.924.009 1.19 1.19 0 0 1 -1.371-.179 3.127 3.127 0 0 0 -2.674-.842 3.309 3.309 0 0 0 -2.422 1.711 1.312 1.312 0 0 1 -1.3.689h-.041a3.315 3.315 0 0 0 -3.639 3.684 1.315 1.315 0 0 1 -.693 1.3 3.3 3.3 0 0 0 -1.707 2.418 3.129 3.129 0 0 0 .845 2.678 1.188 1.188 0 0 1 .175 1.368 3.186 3.186 0 0 0 -.007 2.925 3.079 3.079 0 0 0 2.3 1.649 1.1 1.1 0 0 1 .936.937 3.081 3.081 0 0 0 1.65 2.3 3.181 3.181 0 0 0 2.924-.008 1.193 1.193 0 0 1 1.368.176l.03.026a3.1 3.1 0 0 0 2.151.856 3.183 3.183 0 0 0 .495-.038 3.3 3.3 0 0 0 2.426-1.713 1.32 1.32 0 0 1 1.3-.688 3.316 3.316 0 0 0 3.674-3.682 1.312 1.312 0 0 1 .668-1.284l.026-.014a3.3 3.3 0 0 0 1.706-2.419 3.126 3.126 0 0 0 -.844-2.676 1.19 1.19 0 0 1 -.174-1.372zm-5.967 6.856a6.144 6.144 0 1 1 1.8-4.345 6.105 6.105 0 0 1 -1.8 4.345z" fill="#ff6602" data-original="#000000" class=""/>
      <path d="m39.276 35.133a4.141 4.141 0 1 0 2.931 1.212 4.133 4.133 0 0 0 -2.931-1.212z" fill="#ff6602" data-original="#000000" class=""/>
      <path d="m14.517 49.483a34.554 34.554 0 0 0 -7.78-6.012c-3.534-1.871-5.216-1.325-6-.536s-1.335 2.469.536 6a34.539 34.539 0 0 0 6.013 7.78 34.532 34.532 0 0 0 7.78 6.012 8.944 8.944 0 0 0 4.021 1.273 2.673 2.673 0 0 0 1.978-.729c.789-.788 1.335-2.47-.535-6a34.568 34.568 0 0 0 -6.013-7.788z" fill="#ff6602" data-original="#000000" class=""/>
      <path d="m27.18 45.63a5.14 5.14 0 0 1 -.21-4.27 5.058 5.058 0 0 1 -1-3.92 5.239 5.239 0 0 1 2.17-3.52l-6.38-6.38a108.537 108.537 0 0 1 -17.05 12.96 13.829 13.829 0 0 1 2.96 1.2 36.672 36.672 0 0 1 8.26 6.37 36.672 36.672 0 0 1 6.37 8.26 14.243 14.243 0 0 1 1.2 2.96 111.922 111.922 0 0 1 7.15-10.26 4.475 4.475 0 0 1 -.31-.82 5.055 5.055 0 0 1 -3.16-2.58z" fill="#ff6602" data-original="#000000" class=""/>
      <path d="m29.88 29.88a5.283 5.283 0 0 1 1.77-1.18l-5.48-5.48c-.48.5-.96.99-1.46 1.49s-1 .99-1.5 1.45l5.49 5.49a5.437 5.437 0 0 1 1.18-1.77z" fill="#ff6602" data-original="#000000" class=""/>
      <path d="m62.73 15.06a34.761 34.761 0 0 0 -6.01-7.78c-4.42-4.42-9.05-7.28-11.8-7.28a2.729 2.729 0 0 0 -1.99.73c-.03.04-.06.07-.09.11-.15.2-.36.56-.82 1.33a109.206 109.206 0 0 1 -14.47 19.6l6.37 6.37a5.261 5.261 0 0 1 3.52-2.17 5.386 5.386 0 0 1 .8-.06 5.07 5.07 0 0 1 3.12 1.06 5.233 5.233 0 0 1 1.91-.37 5.172 5.172 0 0 1 4.94 3.74 4.667 4.667 0 0 1 .81.31 107.8 107.8 0 0 1 12.81-8.67c.77-.46 1.13-.67 1.33-.82.04-.03.07-.06.11-.09.79-.79 1.33-2.48-.54-6.01z" fill="#ff6602" data-original="#000000" class=""/>
    </g>
  </g>
</svg>
