<?xml version="1.0" encoding="UTF-8"?>
<svg xmlns="http://www.w3.org/2000/svg" xmlns:xlink="http://www.w3.org/1999/xlink" xmlns:svgjs="http://svgjs.com/svgjs" version="1.1" width="512" height="512" x="0" y="0" viewBox="0 0 512 512" style="enable-background:new 0 0 512 512" xml:space="preserve">
  <g>
    <g xmlns="http://www.w3.org/2000/svg">
      <path d="m391.99 512h-317c-12.407 0-22.5-10.093-22.5-22.5v-7.5h-7.5c-12.407 0-22.5-10.093-22.5-22.5v-225c0-4.142 3.358-7.5 7.5-7.5s7.5 3.358 7.5 7.5v225c0 4.136 3.365 7.5 7.5 7.5h317c4.136 0 7.5-3.364 7.5-7.5v-168.665l-25.797-74.098c-1.088-3.125-1.64-6.387-1.64-9.694v-56.083c0-6.077 3.708-11.295 9.448-13.293 5.738-2 11.886-.212 15.662 4.552l2.327 2.937v-122.656c0-4.136-3.364-7.5-7.5-7.5h-317c-4.135 0-7.5 3.364-7.5 7.5v182c0 4.142-3.358 7.5-7.5 7.5s-7.5-3.358-7.5-7.5v-182c0-12.407 10.093-22.5 22.5-22.5h317c12.407 0 22.5 10.093 22.5 22.5v7.5h7.5c12.407 0 22.5 10.093 22.5 22.5v106.841c0 4.142-3.358 7.5-7.5 7.5s-7.5-3.358-7.5-7.5v-106.841c0-4.136-3.364-7.5-7.5-7.5h-7.5v119.087l17.501 22.089c2.055 2.594 3.648 5.493 4.735 8.616l81.859 235.13c4.186 12.023-6.207 25.808-24.174 32.063s-34.672 1.905-38.859-10.119l-11.062-31.775v69.409c0 12.407-10.093 22.5-22.5 22.5zm-324.5-30v7.5c0 4.136 3.365 7.5 7.5 7.5h317c4.136 0 7.5-3.364 7.5-7.5v-112.494l-15-43.085v125.579c0 12.407-10.093 22.5-22.5 22.5zm292.869-263.016 79.36 227.951c.7 2.009 8.49 4.808 19.762.884 11.271-3.924 15.64-10.956 14.94-12.966l-79.36-227.951zm-3.305-29.502v14.77l31.448-10.948-9.172-11.576zm0-35.869v19.987l12.412-4.321zm-40.064 268.387h-227c-4.142 0-7.5-3.358-7.5-7.5s3.358-7.5 7.5-7.5h227c4.142 0 7.5 3.358 7.5 7.5s-3.358 7.5-7.5 7.5zm0-45h-227c-4.142 0-7.5-3.358-7.5-7.5s3.358-7.5 7.5-7.5h227c4.142 0 7.5 3.358 7.5 7.5s-3.358 7.5-7.5 7.5zm0-45h-227c-4.142 0-7.5-3.358-7.5-7.5s3.358-7.5 7.5-7.5h227c4.142 0 7.5 3.358 7.5 7.5s-3.358 7.5-7.5 7.5zm-20-45h-207c-4.142 0-7.5-3.358-7.5-7.5s3.358-7.5 7.5-7.5h207c4.142 0 7.5 3.358 7.5 7.5s-3.358 7.5-7.5 7.5zm20-45h-227c-4.142 0-7.5-3.358-7.5-7.5s3.358-7.5 7.5-7.5h227c4.142 0 7.5 3.358 7.5 7.5s-3.358 7.5-7.5 7.5zm0-45h-227c-4.142 0-7.5-3.358-7.5-7.5s3.358-7.5 7.5-7.5h227c4.142 0 7.5 3.358 7.5 7.5s-3.358 7.5-7.5 7.5zm-227-45c-4.131 0-7.486-3.341-7.5-7.475-.014-4.142 3.333-7.511 7.475-7.525l149-.5c4.172-.018 7.511 3.333 7.525 7.475s-3.333 7.511-7.475 7.525l-149 .5c-.008 0-.017 0-.025 0zm187.475-75h-147.95c-4.142 0-7.5-3.358-7.5-7.5s3.358-7.5 7.5-7.5h147.95c4.142 0 7.5 3.358 7.5 7.5s-3.358 7.5-7.5 7.5z" fill="#ff6602" data-original="#000000"/>
    </g>
  </g>
</svg>
