<?xml version="1.0" encoding="UTF-8" standalone="no"?>
<svg xmlns:dc="http://purl.org/dc/elements/1.1/" xmlns:cc="http://creativecommons.org/ns#" xmlns:rdf="http://www.w3.org/1999/02/22-rdf-syntax-ns#" xmlns:svg="http://www.w3.org/2000/svg" xmlns="http://www.w3.org/2000/svg" xmlns:sodipodi="http://sodipodi.sourceforge.net/DTD/sodipodi-0.dtd" xmlns:inkscape="http://www.inkscape.org/namespaces/inkscape" version="1.1" id="svg2" xml:space="preserve" width="496" height="85.333336" viewBox="0 0 496 85.333336" sodipodi:docname="logo_bundesanzeiger_de.eps"><metadata id="metadata8"><rdf:RDF><cc:Work rdf:about=""><dc:format>image/svg+xml</dc:format><dc:type rdf:resource="http://purl.org/dc/dcmitype/StillImage"/></cc:Work></rdf:RDF></metadata><defs id="defs6"/><sodipodi:namedview pagecolor="#ffffff" bordercolor="#666666" borderopacity="1" objecttolerance="10" gridtolerance="10" guidetolerance="10" inkscape:pageopacity="0" inkscape:pageshadow="2" inkscape:window-width="640" inkscape:window-height="480" id="namedview4"/><g id="g10" inkscape:groupmode="layer" inkscape:label="ink_ext_XXXXXX" transform="matrix(1.3333333,0,0,-1.3333333,0,85.333333)"><g id="g12" transform="scale(0.1)"><path d="m 819.492,30 c 9.063,0 16.074,2.1875 21.035,6.5625 4.961,4.375 7.442,10.3906 7.442,18.0469 0,5 -1.34,9.3086 -4.016,12.9179 -2.676,3.6133 -6.316,6.0665 -10.926,7.3555 3.907,1.6797 6.993,4.0508 9.258,7.1211 2.266,3.0625 3.399,6.5899 3.399,10.5742 0,7.4999 -2.336,13.1639 -7,16.9919 -4.672,3.828 -11.633,5.743 -20.891,5.743 H 789.902 V 30 Z m 0.41,39.9023 c 11.172,0 16.758,-5.1367 16.758,-15.4101 0,-4.7656 -1.515,-8.5078 -4.543,-11.2227 -3.027,-2.7148 -7.156,-4.0703 -12.39,-4.0703 h -18.575 v 30.7031 z m -18.75,36.2107 h 16.641 c 5.586,0 9.746,-1.066 12.48,-3.199 2.735,-2.137 4.102,-5.5507 4.102,-10.246 0,-4.2305 -1.477,-7.5782 -4.426,-10.043 C 827,80.1563 823.066,78.9258 818.145,78.9258 H 801.152 Z M 902.395,30 h 10.312 v 63.3984 h -10.84 V 47.2852 c -2.734,-6.1719 -8.246,-9.2579 -16.523,-9.2579 -7.817,0 -11.719,4.8047 -11.719,14.4141 v 40.957 h -10.84 v -41.25 c 0.035,-7.6953 1.824,-13.5039 5.36,-17.4296 3.535,-3.9258 8.679,-5.8907 15.441,-5.8907 8.16,0 14.355,2.4805 18.574,7.4414 z m 26.8,63.3984 V 30 h 10.84 v 45.1758 c 1.485,3.0469 3.555,5.5078 6.211,7.3828 2.656,1.875 5.742,2.8125 9.258,2.8125 4.336,0 7.527,-1.0938 9.578,-3.2813 2.051,-2.1875 3.098,-5.5664 3.137,-10.1367 V 30 h 10.84 v 41.8945 c -0.118,15.1172 -6.875,22.6758 -20.274,22.6758 -7.812,0 -14.14,-3.0469 -18.984,-9.1406 l -0.352,7.9687 z m 63.418,-31.9921 c 0,-9.6875 2.313,-17.5391 6.942,-23.5547 4.625,-6.0157 10.615,-9.0235 17.965,-9.0235 7.73,0 13.76,2.6563 18.1,7.9688 L 1036.15,30 h 9.96 v 90 h -10.84 V 86.9531 c -4.34,5.0782 -10.22,7.6172 -17.64,7.6172 -7.46,0 -13.49,-2.9609 -18.103,-8.8789 -4.609,-5.918 -6.914,-13.7383 -6.914,-23.4648 z m 15.297,17.8125 c 2.96,4.1015 7.1,6.1523 12.42,6.1523 6.72,0 11.7,-2.9883 14.94,-8.9648 V 47.2852 c -3.17,-6.1719 -8.18,-9.2579 -15.06,-9.2579 -5.23,0 -9.34,2.0313 -12.3,6.0938 -2.97,4.0625 -4.46,9.6875 -4.46,16.875 0,8.0469 1.49,14.1211 4.46,18.2227 z m 105.13,-38.1446 -6.62,5.1563 c -1.99,-2.5782 -4.31,-4.6485 -6.97,-6.211 -2.66,-1.5625 -5.9,-2.3437 -9.73,-2.3437 -5.39,0 -9.83,1.9219 -13.33,5.7695 -3.49,3.8477 -5.32,8.8985 -5.47,15.1485 h 42.94 v 4.5117 c 0,10.1172 -2.28,17.8906 -6.85,23.3203 -4.57,5.4297 -10.98,8.1445 -19.22,8.1445 -5.04,0 -9.72,-1.3984 -14.03,-4.1875 -4.32,-2.793 -7.68,-6.664 -10.08,-11.6055 -2.4,-4.9414 -3.6,-10.5546 -3.6,-16.8437 v -1.9922 c 0,-9.4531 2.69,-17.0039 8.08,-22.6445 5.39,-5.6485 12.38,-8.4688 20.98,-8.4688 10.62,0 18.59,4.0821 23.9,12.2461 z m -14.47,40.0469 c 2.66,-3.0273 4.14,-7.293 4.45,-12.8008 V 67.5 h -31.75 c 0.7,5.7422 2.54,10.2031 5.5,13.3906 2.97,3.1797 6.64,4.7735 11.02,4.7735 4.53,0 8.12,-1.5157 10.78,-4.543 z m 60.57,-40.9531 c -2.48,-1.6641 -5.77,-2.4922 -9.87,-2.4922 -4.46,0 -8.04,1.0625 -10.75,3.1914 -2.72,2.1289 -4.17,5.0117 -4.37,8.6445 h -10.84 c 0,-3.75 1.1,-7.2383 3.31,-10.457 2.21,-3.2266 5.26,-5.7344 9.17,-7.5313 3.91,-1.7968 8.4,-2.6953 13.48,-2.6953 7.22,0 13.1,1.7071 17.63,5.125 4.54,3.418 6.8,7.961 6.8,13.625 0,3.3985 -0.81,6.2774 -2.43,8.6446 -1.62,2.3632 -4.11,4.3828 -7.47,6.0625 -3.36,1.6796 -7.75,3.125 -13.16,4.3359 -5.41,1.2109 -9.15,2.4805 -11.22,3.8086 -2.07,1.3281 -3.1,3.3008 -3.1,5.918 0,2.7734 1.11,5.0195 3.34,6.7382 2.22,1.7188 5.31,2.5782 9.26,2.5782 3.82,0 7,-1.0743 9.52,-3.2227 2.52,-2.1484 3.78,-4.707 3.78,-7.6758 h 10.9 c 0,5.7813 -2.24,10.5274 -6.71,14.2383 -4.48,3.7109 -10.31,5.5664 -17.49,5.5664 -6.84,0 -12.46,-1.7969 -16.85,-5.3906 -4.39,-3.5938 -6.59,-7.9883 -6.59,-13.1836 0,-3.125 0.77,-5.8203 2.31,-8.0859 1.55,-2.2657 3.93,-4.2188 7.15,-5.8594 3.22,-1.6406 7.58,-3.0469 13.07,-4.2188 5.49,-1.1718 9.33,-2.5703 11.54,-4.1875 2.21,-1.625 3.31,-3.8984 3.31,-6.8281 0,-2.7734 -1.24,-4.9922 -3.72,-6.6484 z m 28.54,53.2304 V 30 h 10.84 v 46.2891 c 2.62,6.0547 7.48,9.082 14.59,9.082 9.02,0 13.53,-4.6094 13.53,-13.8281 V 30 h 10.9 v 42.0703 c 0.43,4.0625 1.98,7.293 4.63,9.6992 2.66,2.4024 6,3.6016 10.02,3.6016 4.88,0 8.36,-1.125 10.43,-3.3672 2.07,-2.25 3.11,-5.6367 3.11,-10.168 V 30 h 10.84 v 42.4805 c -0.24,14.7265 -7.31,22.0898 -21.21,22.0898 -4.61,0 -8.61,-0.9375 -11.99,-2.8125 -3.38,-1.875 -6.12,-4.3359 -8.23,-7.3828 -3.2,6.7969 -9.24,10.1953 -18.1,10.1953 -7.9,0 -14.17,-2.7344 -18.81,-8.2031 l -0.3,7.0312 z m 116.36,0 H 1293.2 V 30 h 10.84 z m -10.1,12.4216 c 1.07,-1.172 2.66,-1.757 4.77,-1.757 2.11,0 3.71,0.585 4.81,1.757 1.09,1.172 1.64,2.637 1.64,4.395 0,1.758 -0.55,3.242 -1.64,4.453 -1.1,1.211 -2.7,1.816 -4.81,1.816 -2.11,0 -3.7,-0.605 -4.77,-1.816 -1.08,-1.211 -1.62,-2.695 -1.62,-4.453 0,-1.758 0.54,-3.223 1.62,-4.395 z m 27.09,-12.4216 V 30 h 10.84 v 45.1758 c 1.48,3.0469 3.55,5.5078 6.21,7.3828 2.65,1.875 5.74,2.8125 9.26,2.8125 4.33,0 7.53,-1.0938 9.58,-3.2813 2.05,-2.1875 3.09,-5.5664 3.13,-10.1367 V 30 h 10.84 v 41.8945 c -0.12,15.1172 -6.88,22.6758 -20.27,22.6758 -7.82,0 -14.14,-3.0469 -18.99,-9.1406 l -0.35,7.9687 z m 77.33,0 h -10.84 V 30 h 10.84 z m -10.11,12.4216 c 1.07,-1.172 2.66,-1.757 4.77,-1.757 2.11,0 3.71,0.585 4.81,1.757 1.09,1.172 1.64,2.637 1.64,4.395 0,1.758 -0.55,3.242 -1.64,4.453 -1.1,1.211 -2.7,1.816 -4.81,1.816 -2.11,0 -3.7,-0.605 -4.77,-1.816 -1.08,-1.211 -1.61,-2.695 -1.61,-4.453 0,-1.758 0.53,-3.223 1.61,-4.395 z m 59.68,-65.652 c -2.48,-1.6641 -5.77,-2.4922 -9.87,-2.4922 -4.45,0 -8.04,1.0625 -10.75,3.1914 -2.72,2.1289 -4.17,5.0117 -4.37,8.6445 h -10.84 c 0,-3.75 1.11,-7.2383 3.31,-10.457 2.21,-3.2266 5.27,-5.7344 9.17,-7.5313 3.91,-1.7968 8.4,-2.6953 13.48,-2.6953 7.23,0 13.1,1.7071 17.64,5.125 4.53,3.418 6.79,7.961 6.79,13.625 0,3.3985 -0.81,6.2774 -2.43,8.6446 -1.62,2.3632 -4.11,4.3828 -7.47,6.0625 -3.36,1.6796 -7.74,3.125 -13.15,4.3359 -5.41,1.2109 -9.15,2.4805 -11.22,3.8086 -2.07,1.3281 -3.11,3.3008 -3.11,5.918 0,2.7734 1.11,5.0195 3.34,6.7382 2.23,1.7188 5.31,2.5782 9.26,2.5782 3.83,0 7,-1.0743 9.52,-3.2227 2.52,-2.1484 3.78,-4.707 3.78,-7.6758 h 10.9 c 0,5.7813 -2.24,10.5274 -6.71,14.2383 -4.47,3.7109 -10.3,5.5664 -17.49,5.5664 -6.84,0 -12.45,-1.7969 -16.85,-5.3906 -4.39,-3.5938 -6.59,-7.9883 -6.59,-13.1836 0,-3.125 0.77,-5.8203 2.32,-8.0859 1.54,-2.2657 3.92,-4.2188 7.14,-5.8594 3.23,-1.6406 7.58,-3.0469 13.07,-4.2188 5.49,-1.1718 9.34,-2.5703 11.54,-4.1875 2.21,-1.625 3.31,-3.8984 3.31,-6.8281 0,-2.7734 -1.24,-4.9922 -3.72,-6.6484 z m 33.49,68.582 V 93.3984 h -11.55 v -8.3789 h 11.55 V 45.7031 c 0,-5.3906 1.23,-9.5508 3.69,-12.4804 2.46,-2.9297 6.11,-4.3946 10.96,-4.3946 2.69,0 5.46,0.3867 8.32,1.1641 v 8.7383 c -2.19,-0.4688 -3.91,-0.7032 -5.16,-0.7032 -2.54,0 -4.34,0.6368 -5.39,1.9063 -1.06,1.2695 -1.58,3.1758 -1.58,5.7187 v 39.3672 h 11.83 v 8.3789 h -11.83 V 108.75 Z m 83.42,-67.6758 -6.62,5.1563 c -1.99,-2.5782 -4.32,-4.6485 -6.97,-6.211 -2.66,-1.5625 -5.9,-2.3437 -9.73,-2.3437 -5.39,0 -9.83,1.9219 -13.33,5.7695 -3.5,3.8477 -5.32,8.8985 -5.48,15.1485 h 42.95 v 4.5117 c 0,10.1172 -2.28,17.8906 -6.85,23.3203 -4.58,5.4297 -10.98,8.1445 -19.22,8.1445 -5.04,0 -9.72,-1.3984 -14.04,-4.1875 -4.31,-2.793 -7.67,-6.664 -10.07,-11.6055 -2.41,-4.9414 -3.61,-10.5546 -3.61,-16.8437 v -1.9922 c 0,-9.4531 2.7,-17.0039 8.09,-22.6445 5.39,-5.6485 12.38,-8.4688 20.97,-8.4688 10.63,0 18.6,4.0821 23.91,12.2461 z m -14.47,40.0469 c 2.65,-3.0273 4.14,-7.293 4.45,-12.8008 V 67.5 h -31.76 c 0.71,5.7422 2.54,10.2031 5.51,13.3906 2.97,3.1797 6.64,4.7735 11.02,4.7735 4.53,0 8.12,-1.5157 10.78,-4.543 z m 59.11,12.6289 c -1.09,0.5469 -2.7,0.8203 -4.8,0.8203 -6.53,0 -11.57,-2.832 -15.12,-8.4961 l -0.18,7.3242 h -10.54 V 30 h 10.84 v 45 c 2.53,6.0547 7.36,9.082 14.47,9.082 1.91,0 3.69,-0.1367 5.33,-0.4101 z m 21.62,-0.3516 h -10.84 V 30 h 10.84 z m -10.11,12.4216 c 1.07,-1.172 2.67,-1.757 4.78,-1.757 2.11,0 3.71,0.585 4.8,1.757 1.09,1.172 1.64,2.637 1.64,4.395 0,1.758 -0.55,3.242 -1.64,4.453 -1.09,1.211 -2.69,1.816 -4.8,1.816 -2.11,0 -3.71,-0.605 -4.78,-1.816 -1.07,-1.211 -1.61,-2.695 -1.61,-4.453 0,-1.758 0.54,-3.223 1.61,-4.395 z M 1687.19,30 h 10.32 v 63.3984 h -10.84 V 47.2852 c -2.74,-6.1719 -8.25,-9.2579 -16.53,-9.2579 -7.81,0 -11.72,4.8047 -11.72,14.4141 v 40.957 h -10.84 v -41.25 c 0.04,-7.6953 1.83,-13.5039 5.37,-17.4296 3.53,-3.9258 8.68,-5.8907 15.43,-5.8907 8.17,0 14.36,2.4805 18.58,7.4414 z M 1714,93.3984 V 30 h 10.84 v 46.2891 c 2.61,6.0547 7.48,9.082 14.59,9.082 9.02,0 13.53,-4.6094 13.53,-13.8281 V 30 h 10.9 v 42.0703 c 0.43,4.0625 1.97,7.293 4.63,9.6992 2.65,2.4024 5.99,3.6016 10.02,3.6016 4.88,0 8.36,-1.125 10.43,-3.3672 2.07,-2.25 3.1,-5.6367 3.1,-10.168 V 30 h 10.84 v 42.4805 c -0.23,14.7265 -7.3,22.0898 -21.21,22.0898 -4.61,0 -8.6,-0.9375 -11.98,-2.8125 -3.38,-1.875 -6.12,-4.3359 -8.23,-7.3828 -3.21,6.7969 -9.24,10.1953 -18.11,10.1953 -7.89,0 -14.16,-2.7344 -18.81,-8.2031 l -0.29,7.0312 z m 132.3,-31.9921 c 0,-9.6875 2.32,-17.5391 6.94,-23.5547 4.63,-6.0157 10.62,-9.0235 17.96,-9.0235 7.74,0 13.77,2.6563 18.11,7.9688 L 1889.84,30 h 9.96 v 90 h -10.84 V 86.9531 c -4.34,5.0782 -10.22,7.6172 -17.64,7.6172 -7.46,0 -13.5,-2.9609 -18.11,-8.8789 -4.6,-5.918 -6.91,-13.7383 -6.91,-23.4648 z m 15.29,17.8125 c 2.97,4.1015 7.11,6.1523 12.43,6.1523 6.71,0 11.69,-2.9883 14.94,-8.9648 V 47.2852 c -3.17,-6.1719 -8.19,-9.2579 -15.06,-9.2579 -5.24,0 -9.34,2.0313 -12.31,6.0938 -2.97,4.0625 -4.45,9.6875 -4.45,16.875 0,8.0469 1.48,14.1211 4.45,18.2227 z m 105.14,-38.1446 -6.62,5.1563 c -1.99,-2.5782 -4.32,-4.6485 -6.97,-6.211 -2.66,-1.5625 -5.9,-2.3437 -9.73,-2.3437 -5.39,0 -9.83,1.9219 -13.33,5.7695 -3.49,3.8477 -5.32,8.8985 -5.48,15.1485 h 42.95 v 4.5117 c 0,10.1172 -2.28,17.8906 -6.85,23.3203 -4.57,5.4297 -10.98,8.1445 -19.22,8.1445 -5.04,0 -9.72,-1.3984 -14.04,-4.1875 -4.31,-2.793 -7.67,-6.664 -10.07,-11.6055 -2.41,-4.9414 -3.61,-10.5546 -3.61,-16.8437 v -1.9922 c 0,-9.4531 2.7,-17.0039 8.09,-22.6445 5.39,-5.6485 12.38,-8.4688 20.98,-8.4688 10.62,0 18.59,4.0821 23.9,12.2461 z m -14.47,40.0469 c 2.66,-3.0273 4.14,-7.293 4.45,-12.8008 V 67.5 h -31.76 c 0.71,5.7422 2.54,10.2031 5.51,13.3906 2.97,3.1797 6.64,4.7735 11.02,4.7735 4.53,0 8.12,-1.5157 10.78,-4.543 z m 59.11,12.6289 c -1.09,0.5469 -2.69,0.8203 -4.8,0.8203 -6.53,0 -11.57,-2.832 -15.12,-8.4961 l -0.18,7.3242 h -10.54 V 30 h 10.84 v 45 c 2.54,6.0547 7.36,9.082 14.47,9.082 1.91,0 3.69,-0.1367 5.33,-0.4101 z m 77.11,-39.0234 c -0.04,-5.2735 -1.49,-9.375 -4.36,-12.3047 -2.87,-2.9297 -6.63,-4.3946 -11.28,-4.3946 -5.08,0 -8.96,1.3672 -11.63,4.1016 -2.68,2.7344 -4.02,6.543 -4.02,11.4258 h -11.25 c 0,-7.8125 2.37,-13.8867 7.09,-18.2227 4.73,-4.3359 11.33,-6.5039 19.81,-6.5039 8.16,0 14.69,2.3047 19.6,6.9141 4.9,4.6094 7.35,10.9961 7.35,19.1601 v 60.4107 h -11.31 z M 2156.9,30 h 10.31 v 63.3984 h -10.84 V 47.2852 c -2.73,-6.1719 -8.24,-9.2579 -16.52,-9.2579 -7.81,0 -11.72,4.8047 -11.72,14.4141 v 40.957 h -10.84 v -41.25 c 0.04,-7.6953 1.83,-13.5039 5.36,-17.4296 3.54,-3.9258 8.68,-5.8907 15.44,-5.8907 8.17,0 14.36,2.4805 18.58,7.4414 z m 59.37,10.168 c -2.48,-1.6641 -5.77,-2.4922 -9.87,-2.4922 -4.45,0 -8.04,1.0625 -10.75,3.1914 -2.72,2.1289 -4.17,5.0117 -4.37,8.6445 h -10.84 c 0,-3.75 1.11,-7.2383 3.31,-10.457 2.21,-3.2266 5.27,-5.7344 9.17,-7.5313 3.91,-1.7968 8.4,-2.6953 13.48,-2.6953 7.23,0 13.1,1.7071 17.64,5.125 4.53,3.418 6.79,7.961 6.79,13.625 0,3.3985 -0.81,6.2774 -2.43,8.6446 -1.62,2.3632 -4.11,4.3828 -7.47,6.0625 -3.36,1.6796 -7.74,3.125 -13.15,4.3359 -5.41,1.2109 -9.15,2.4805 -11.22,3.8086 -2.08,1.3281 -3.11,3.3008 -3.11,5.918 0,2.7734 1.11,5.0195 3.34,6.7382 2.23,1.7188 5.31,2.5782 9.26,2.5782 3.83,0 7,-1.0743 9.52,-3.2227 2.52,-2.1484 3.78,-4.707 3.78,-7.6758 h 10.9 c 0,5.7813 -2.24,10.5274 -6.71,14.2383 -4.48,3.7109 -10.31,5.5664 -17.49,5.5664 -6.84,0 -12.45,-1.7969 -16.85,-5.3906 -4.39,-3.5938 -6.59,-7.9883 -6.59,-13.1836 0,-3.125 0.77,-5.8203 2.31,-8.0859 1.55,-2.2657 3.93,-4.2188 7.15,-5.8594 3.23,-1.6406 7.58,-3.0469 13.07,-4.2188 5.49,-1.1718 9.34,-2.5703 11.54,-4.1875 2.21,-1.625 3.31,-3.8984 3.31,-6.8281 0,-2.7734 -1.24,-4.9922 -3.72,-6.6484 z m 33.49,68.582 V 93.3984 h -11.55 v -8.3789 h 11.55 V 45.7031 c 0,-5.3906 1.23,-9.5508 3.69,-12.4804 2.46,-2.9297 6.11,-4.3946 10.96,-4.3946 2.69,0 5.46,0.3867 8.32,1.1641 v 8.7383 c -2.19,-0.4688 -3.91,-0.7032 -5.16,-0.7032 -2.54,0 -4.34,0.6368 -5.39,1.9063 -1.06,1.2695 -1.58,3.1758 -1.58,5.7187 v 39.3672 h 11.83 v 8.3789 H 2260.6 V 108.75 Z m 45.76,-15.3516 h -10.84 V 30 h 10.84 z m -10.1,12.4216 c 1.07,-1.172 2.66,-1.757 4.77,-1.757 2.11,0 3.71,0.585 4.81,1.757 1.09,1.172 1.64,2.637 1.64,4.395 0,1.758 -0.55,3.242 -1.64,4.453 -1.1,1.211 -2.7,1.816 -4.81,1.816 -2.11,0 -3.7,-0.605 -4.77,-1.816 -1.08,-1.211 -1.62,-2.695 -1.62,-4.453 0,-1.758 0.54,-3.223 1.62,-4.395 z m 71.21,-20.0973 v 7.6757 h -48.05 v -8.9648 h 34.46 L 2308.06,37.9688 V 30 h 50.33 v 8.8477 h -37.09 l 35.33,46.875" style="fill:#cce0e4;fill-opacity:1;fill-rule:nonzero;stroke:none" id="path14"/><path d="M 855.469,255.313 H 844.16 v -36.68 h -43.008 v 36.68 h -11.25 V 170 h 11.25 v 39.434 H 844.16 V 170 h 11.309 z m 68.543,-74.239 -6.621,5.156 c -1.993,-2.578 -4.317,-4.648 -6.973,-6.21 -2.656,-1.563 -5.898,-2.344 -9.727,-2.344 -5.39,0 -9.832,1.922 -13.328,5.769 -3.496,3.848 -5.324,8.899 -5.48,15.149 h 42.949 v 4.511 c 0,10.118 -2.285,17.891 -6.855,23.321 -4.571,5.429 -10.977,8.144 -19.219,8.144 -5.039,0 -9.715,-1.398 -14.031,-4.187 -4.317,-2.793 -7.676,-6.664 -10.079,-11.606 -2.402,-4.941 -3.605,-10.554 -3.605,-16.843 v -1.993 c 0,-9.453 2.695,-17.003 8.086,-22.644 5.391,-5.649 12.383,-8.469 20.976,-8.469 10.625,0 18.594,4.082 23.907,12.246 z m -14.473,40.047 c 2.656,-3.027 4.141,-7.293 4.453,-12.801 v -0.82 h -31.758 c 0.704,5.742 2.539,10.203 5.508,13.391 2.969,3.179 6.641,4.773 11.016,4.773 4.531,0 8.125,-1.516 10.781,-4.543 z m 59.113,12.629 c -1.093,0.547 -2.695,0.82 -4.804,0.82 -6.524,0 -11.563,-2.832 -15.118,-8.496 l -0.175,7.324 H 938.008 V 170 h 10.84 v 45 c 2.539,6.055 7.363,9.082 14.472,9.082 1.914,0 3.692,-0.137 5.332,-0.41 z M 1029.12,170 v 0.938 c -1.48,3.437 -2.23,8.066 -2.23,13.886 v 29.18 c -0.15,6.406 -2.3,11.434 -6.44,15.09 -4.14,3.648 -9.86,5.476 -17.17,5.476 -4.608,0 -8.839,-0.859 -12.682,-2.578 -3.852,-1.719 -6.899,-4.054 -9.145,-7.004 -2.242,-2.949 -3.367,-6.004 -3.367,-9.168 h 10.898 c 0,2.774 1.309,5.137 3.926,7.09 2.617,1.953 5.86,2.93 9.73,2.93 4.41,0 7.75,-1.125 10.02,-3.367 2.26,-2.25 3.4,-5.266 3.4,-9.055 v -4.98 h -10.55 c -9.104,0 -16.166,-1.829 -21.182,-5.477 -5.019,-3.656 -7.531,-8.781 -7.531,-15.383 0,-5.43 2.004,-9.91 6.008,-13.445 4.004,-3.539 9.129,-5.305 15.379,-5.305 6.996,0 13.006,2.617 18.046,7.852 0.39,-3.203 0.9,-5.43 1.52,-6.68 z m -38.085,11.133 c -2.265,1.914 -3.398,4.57 -3.398,7.969 0,7.773 6.64,11.66 19.923,11.66 h 8.5 v -13.008 c -1.37,-2.813 -3.58,-5.098 -6.63,-6.856 -3.04,-1.757 -6.27,-2.636 -9.664,-2.636 -3.555,0 -6.465,0.957 -8.731,2.871 z M 1082.54,170 h 10.31 v 63.398 h -10.84 v -46.113 c -2.73,-6.172 -8.24,-9.258 -16.52,-9.258 -7.81,0 -11.72,4.805 -11.72,14.414 v 40.957 h -10.84 v -41.25 c 0.04,-7.695 1.83,-13.503 5.36,-17.429 3.54,-3.926 8.69,-5.891 15.44,-5.891 8.17,0 14.36,2.481 18.58,7.442 z m 59.37,10.168 c -2.48,-1.664 -5.77,-2.492 -9.87,-2.492 -4.45,0 -8.04,1.062 -10.75,3.191 -2.72,2.129 -4.17,5.012 -4.37,8.645 h -10.84 c 0,-3.75 1.11,-7.239 3.31,-10.457 2.21,-3.227 5.27,-5.735 9.17,-7.532 3.91,-1.796 8.4,-2.695 13.48,-2.695 7.23,0 13.1,1.707 17.64,5.125 4.53,3.418 6.79,7.961 6.79,13.625 0,3.399 -0.81,6.277 -2.43,8.645 -1.62,2.363 -4.11,4.382 -7.47,6.062 -3.36,1.68 -7.74,3.125 -13.15,4.336 -5.41,1.211 -9.15,2.481 -11.22,3.809 -2.07,1.328 -3.11,3.3 -3.11,5.918 0,2.773 1.11,5.019 3.34,6.738 2.23,1.719 5.31,2.578 9.26,2.578 3.83,0 7,-1.074 9.52,-3.223 2.52,-2.148 3.78,-4.707 3.78,-7.675 h 10.9 c 0,5.781 -2.24,10.527 -6.71,14.238 -4.47,3.711 -10.3,5.566 -17.49,5.566 -6.84,0 -12.45,-1.797 -16.85,-5.39 -4.39,-3.594 -6.59,-7.989 -6.59,-13.184 0,-3.125 0.77,-5.82 2.32,-8.086 1.54,-2.265 3.92,-4.219 7.14,-5.859 3.23,-1.641 7.58,-3.047 13.07,-4.219 5.49,-1.172 9.34,-2.57 11.54,-4.187 2.21,-1.625 3.31,-3.899 3.31,-6.829 0,-2.773 -1.24,-4.992 -3.72,-6.648 z m 32.33,-2.375 c 4.59,-5.977 10.6,-8.965 18.02,-8.965 7.5,0 13.42,2.5 17.75,7.5 v -5.449 c 0,-5.391 -1.47,-9.57 -4.42,-12.539 -2.95,-2.969 -7.06,-4.453 -12.34,-4.453 -6.71,0 -12.4,2.871 -17.05,8.613 l -5.62,-6.504 c 2.3,-3.398 5.64,-6.074 10.02,-8.027 4.37,-1.953 8.85,-2.93 13.42,-2.93 8.2,0 14.73,2.363 19.6,7.09 4.86,4.726 7.29,11.191 7.29,19.394 v 61.875 h -9.9 l -0.53,-7.031 c -4.33,5.469 -10.37,8.203 -18.1,8.203 -7.54,0 -13.6,-2.922 -18.17,-8.757 -4.57,-5.844 -6.85,-13.704 -6.85,-23.586 0,-10.313 2.29,-18.457 6.88,-24.434 z m 8.47,41.426 c 2.97,4.101 7.09,6.152 12.36,6.152 6.64,0 11.62,-3.027 14.94,-9.082 v -28.945 c -3.2,-6.211 -8.22,-9.317 -15.06,-9.317 -5.27,0 -9.37,2.039 -12.3,6.121 -2.93,4.082 -4.4,9.7 -4.4,16.848 0,8.047 1.49,14.121 4.46,18.223 z m 104.9,-38.145 -6.63,5.156 c -1.99,-2.578 -4.31,-4.648 -6.97,-6.21 -2.66,-1.563 -5.9,-2.344 -9.72,-2.344 -5.4,0 -9.84,1.922 -13.33,5.769 -3.5,3.848 -5.33,8.899 -5.48,15.149 h 42.95 v 4.511 c 0,10.118 -2.29,17.891 -6.86,23.321 -4.57,5.429 -10.98,8.144 -19.22,8.144 -5.04,0 -9.72,-1.398 -14.03,-4.187 -4.32,-2.793 -7.68,-6.664 -10.08,-11.606 -2.4,-4.941 -3.6,-10.554 -3.6,-16.843 v -1.993 c 0,-9.453 2.69,-17.003 8.08,-22.644 5.39,-5.649 12.39,-8.469 20.98,-8.469 10.62,0 18.59,4.082 23.91,12.246 z m -14.48,40.047 c 2.66,-3.027 4.14,-7.293 4.46,-12.801 v -0.82 h -31.76 c 0.7,5.742 2.54,10.203 5.51,13.391 2.96,3.179 6.64,4.773 11.01,4.773 4.53,0 8.13,-1.516 10.78,-4.543 z m 32.54,-43.328 c 4.59,-5.977 10.59,-8.965 18.01,-8.965 7.5,0 13.42,2.5 17.76,7.5 v -5.449 c 0,-5.391 -1.48,-9.57 -4.42,-12.539 -2.95,-2.969 -7.07,-4.453 -12.34,-4.453 -6.72,0 -12.4,2.871 -17.05,8.613 l -5.62,-6.504 c 2.3,-3.398 5.64,-6.074 10.01,-8.027 4.38,-1.953 8.85,-2.93 13.42,-2.93 8.21,0 14.74,2.363 19.6,7.09 4.87,4.726 7.3,11.191 7.3,19.394 v 61.875 h -9.91 l -0.52,-7.031 c -4.34,5.469 -10.37,8.203 -18.11,8.203 -7.54,0 -13.59,-2.922 -18.16,-8.757 -4.57,-5.844 -6.86,-13.704 -6.86,-23.586 0,-10.313 2.3,-18.457 6.89,-24.434 z m 8.46,41.426 c 2.97,4.101 7.09,6.152 12.37,6.152 6.64,0 11.62,-3.027 14.94,-9.082 v -28.945 c -3.2,-6.211 -8.22,-9.317 -15.06,-9.317 -5.27,0 -9.37,2.039 -12.3,6.121 -2.93,4.082 -4.4,9.7 -4.4,16.848 0,8.047 1.49,14.121 4.45,18.223 z m 104.9,-38.145 -6.62,5.156 c -1.99,-2.578 -4.32,-4.648 -6.97,-6.21 -2.66,-1.563 -5.9,-2.344 -9.73,-2.344 -5.39,0 -9.83,1.922 -13.33,5.769 -3.49,3.848 -5.32,8.899 -5.48,15.149 h 42.95 v 4.511 c 0,10.118 -2.28,17.891 -6.85,23.321 -4.57,5.429 -10.98,8.144 -19.22,8.144 -5.04,0 -9.72,-1.398 -14.04,-4.187 -4.31,-2.793 -7.67,-6.664 -10.07,-11.606 -2.41,-4.941 -3.61,-10.554 -3.61,-16.843 v -1.993 c 0,-9.453 2.7,-17.003 8.09,-22.644 5.39,-5.649 12.38,-8.469 20.98,-8.469 10.62,0 18.59,4.082 23.9,12.246 z m -14.47,40.047 c 2.66,-3.027 4.14,-7.293 4.45,-12.801 v -0.82 h -31.76 c 0.71,5.742 2.54,10.203 5.51,13.391 2.97,3.179 6.64,4.773 11.02,4.773 4.53,0 8.12,-1.516 10.78,-4.543 z m 82.14,-19.187 c 0,10.117 -2.2,18.086 -6.59,23.906 -4.4,5.82 -10.44,8.73 -18.14,8.73 -7.69,0 -13.73,-2.715 -18.1,-8.144 V 260 h -10.84 v -90 h 9.96 l 0.53,7.324 c 4.37,-5.664 10.56,-8.496 18.57,-8.496 7.5,0 13.48,2.938 17.93,8.817 4.45,5.878 6.68,13.664 6.68,23.351 z m -15.18,-17.871 c -2.89,-4.024 -6.93,-6.036 -12.13,-6.036 -7.03,0 -12.2,3.321 -15.52,9.961 v 27.422 c 3.12,6.641 8.26,9.961 15.41,9.961 5.35,0 9.45,-2.012 12.3,-6.035 2.85,-4.023 4.28,-9.727 4.28,-17.109 0,-8.086 -1.45,-14.141 -4.34,-18.164 z m 79.2,-2.989 -6.62,5.156 c -1.99,-2.578 -4.32,-4.648 -6.97,-6.21 -2.66,-1.563 -5.9,-2.344 -9.73,-2.344 -5.39,0 -9.83,1.922 -13.33,5.769 -3.49,3.848 -5.32,8.899 -5.48,15.149 h 42.95 v 4.511 c 0,10.118 -2.28,17.891 -6.85,23.321 -4.57,5.429 -10.98,8.144 -19.22,8.144 -5.04,0 -9.72,-1.398 -14.03,-4.187 -4.32,-2.793 -7.68,-6.664 -10.08,-11.606 -2.41,-4.941 -3.61,-10.554 -3.61,-16.843 v -1.993 c 0,-9.453 2.7,-17.003 8.09,-22.644 5.39,-5.649 12.38,-8.469 20.98,-8.469 10.62,0 18.59,4.082 23.9,12.246 z m -14.47,40.047 c 2.66,-3.027 4.14,-7.293 4.45,-12.801 v -0.82 h -31.75 c 0.7,5.742 2.53,10.203 5.5,13.391 2.97,3.179 6.64,4.773 11.02,4.773 4.53,0 8.12,-1.516 10.78,-4.543 z m 28.47,12.277 V 170 h 10.84 v 45.176 c 1.48,3.047 3.55,5.508 6.21,7.383 2.65,1.875 5.74,2.812 9.26,2.812 4.33,0 7.53,-1.094 9.58,-3.281 2.05,-2.188 3.09,-5.567 3.13,-10.137 V 170 h 10.84 v 41.895 c -0.12,15.117 -6.87,22.675 -20.27,22.675 -7.82,0 -14.14,-3.047 -18.99,-9.14 l -0.35,7.968 z m 100.72,0 h -11.07 L 1677.33,170 h 8.27 l 22.73,63.398 h -11.07 l -15.71,-48.691 z m 48.17,-31.875 c 0,-9.843 2.67,-17.753 8,-23.73 5.33,-5.977 12.29,-8.965 20.89,-8.965 5.7,0 10.75,1.367 15.14,4.102 4.4,2.734 7.78,6.55 10.14,11.457 2.36,4.898 3.54,10.437 3.54,16.609 v 0.762 c 0,9.922 -2.66,17.871 -7.99,23.847 -5.34,5.977 -12.32,8.965 -20.95,8.965 -5.59,0 -10.56,-1.347 -14.91,-4.043 -4.36,-2.695 -7.76,-6.523 -10.2,-11.484 -2.44,-4.961 -3.66,-10.547 -3.66,-16.758 z m 15.82,17.754 c 3.28,4.258 7.6,6.387 12.95,6.387 5.47,0 9.85,-2.16 13.15,-6.476 3.3,-4.317 4.95,-9.95 4.95,-16.903 0,-7.773 -1.62,-13.82 -4.86,-18.137 -3.24,-4.312 -7.62,-6.472 -13.12,-6.472 -5.47,0 -9.84,2.129 -13.1,6.387 -3.26,4.257 -4.89,9.902 -4.89,16.933 0,7.93 1.64,14.024 4.92,18.281 z m 55.42,14.121 V 170 h 10.84 v 46.289 c 2.61,6.055 7.48,9.082 14.59,9.082 9.02,0 13.53,-4.609 13.53,-13.828 V 170 h 10.9 v 42.07 c 0.43,4.063 1.97,7.293 4.63,9.7 2.66,2.402 6,3.601 10.02,3.601 4.88,0 8.36,-1.125 10.43,-3.367 2.07,-2.25 3.1,-5.637 3.1,-10.168 V 170 h 10.84 v 42.48 c -0.23,14.727 -7.3,22.09 -21.21,22.09 -4.61,0 -8.6,-0.937 -11.98,-2.812 -3.38,-1.875 -6.12,-4.336 -8.23,-7.383 -3.2,6.797 -9.24,10.195 -18.11,10.195 -7.89,0 -14.16,-2.734 -18.81,-8.203 l -0.29,7.031 h -10.25" style="fill:#cce0e4;fill-opacity:1;fill-rule:nonzero;stroke:none" id="path16"/><path d="m 888.945,347.5 c 28.254,0.227 50.016,6.492 65.285,18.801 15.266,12.304 22.899,30.418 22.899,54.344 0,14.011 -3.676,25.863 -11.024,35.546 -7.347,9.684 -17.406,16.122 -30.164,19.313 11.164,4.328 19.883,11.133 26.149,20.422 6.265,9.285 9.398,20.019 9.398,32.215 0,22.328 -7.804,39.277 -23.414,50.839 -15.609,11.563 -38.508,17.348 -68.699,17.348 H 792.219 V 347.5 Z m 1.539,108.352 c 23.582,-0.344 35.375,-11.911 35.375,-34.696 0,-10.14 -3.39,-18.086 -10.168,-23.84 -6.781,-5.753 -16.211,-8.628 -28.285,-8.628 h -43.922 v 67.164 z m -47,98.949 h 35.891 c 14.125,0 24.465,-2.481 31.02,-7.434 6.546,-4.957 9.824,-13.074 9.824,-24.355 0,-20.164 -12.93,-30.477 -38.793,-30.934 H 843.484 Z M 1139.21,347.5 h 46.49 v 184.91 h -49.56 V 401.355 c -6.27,-11.636 -17.78,-17.453 -34.52,-17.453 -17.55,0 -26.32,9.637 -26.32,28.914 V 532.41 h -49.39 V 411.246 c 0.22,-21.992 5.55,-38.683 15.98,-50.074 10.42,-11.395 25.55,-17.09 45.37,-17.09 21.53,0 38.39,7.406 50.59,22.219 z m 98.68,184.91 V 347.5 h 49.39 v 130.395 c 6.95,11.847 17.37,17.773 31.27,17.773 10.6,0 18.17,-2.363 22.73,-7.09 4.56,-4.73 6.84,-12.336 6.84,-22.816 V 347.5 h 49.39 v 119.457 c -0.23,22.902 -5.13,40.102 -14.7,51.613 -9.57,11.504 -24.16,17.258 -43.75,17.258 -22.22,0 -39.93,-8.262 -53.15,-24.777 l -1.54,21.359 z m 224.32,-162.609 c 13.16,-17.149 30.61,-25.719 52.38,-25.719 19.37,0 35.2,7.691 47.51,23.07 l 2.39,-19.652 h 44.6 V 610 h -49.56 v -94.336 c -11.73,13.441 -26.6,20.164 -44.6,20.164 -22.45,0 -40.13,-8.543 -53.06,-25.633 -12.94,-17.09 -19.4,-40.05 -19.4,-68.871 0,-30.535 6.58,-54.375 19.74,-71.523 z m 65.37,125.867 c 15.15,0 25.8,-6.449 31.95,-19.34 v -73.086 c -6.26,-12.894 -17.03,-19.34 -32.3,-19.34 -11.5,0 -20.28,4.618 -26.31,13.864 -6.04,9.242 -9.06,22.535 -9.06,39.879 0,38.683 11.9,58.023 35.72,58.023 z m 261.19,-142.785 c 12.65,5.867 22.67,14.043 30.08,24.523 l -24.27,27.172 c -10.71,-13.785 -25.58,-20.676 -44.6,-20.676 -12.31,0 -22.48,3.645 -30.51,10.938 -8.03,7.289 -12.85,16.973 -14.44,29.051 h 117.75 v 20.168 c 0,29.277 -7.27,51.894 -21.79,67.843 -14.53,15.953 -34.44,23.926 -59.73,23.926 -16.86,0 -31.87,-3.957 -45.03,-11.875 -13.16,-7.922 -23.33,-19.199 -30.51,-33.84 -7.18,-14.64 -10.76,-31.246 -10.76,-49.816 v -4.785 c 0,-27.684 8.51,-49.844 25.55,-66.481 17.03,-16.633 39.1,-24.949 66.22,-24.949 15.38,0 29.39,2.934 42.04,8.801 z M 1765.36,487 c 5.69,-6.012 8.65,-14.508 8.88,-25.492 v -3.949 h -68.7 c 1.71,12.359 5.61,21.855 11.71,28.496 6.09,6.636 14.04,9.957 23.84,9.957 10.48,0 18.57,-3.004 24.27,-9.012 z m 192.01,-102.5 c -4.84,-3.59 -11.99,-5.383 -21.44,-5.383 -10.15,0 -18.23,2.332 -24.27,7.004 -6.04,4.672 -9.29,11.395 -9.74,20.168 h -46.83 c 0,-11.168 3.42,-21.562 10.25,-31.187 6.84,-9.629 16.27,-17.207 28.29,-22.731 12.02,-5.523 25.77,-8.289 41.27,-8.289 22.9,0 41.58,5.211 56.06,15.637 14.46,10.426 21.7,24.066 21.7,40.929 0,23.586 -13.05,40.165 -39.14,49.735 -8.43,3.074 -18.8,5.836 -31.1,8.285 -12.3,2.449 -21.05,5.355 -26.23,8.719 -5.19,3.355 -7.78,7.773 -7.78,13.242 0,5.812 2.28,10.598 6.84,14.355 4.55,3.762 10.99,5.641 19.31,5.641 9.68,0 16.8,-2.309 21.36,-6.922 4.56,-4.613 6.84,-10.453 6.84,-17.515 h 49.39 c 0,17.656 -7.04,32.011 -21.11,43.066 -14.07,11.051 -32.84,16.574 -56.31,16.574 -21.99,0 -39.79,-5.496 -53.41,-16.488 -13.61,-10.996 -20.42,-24.695 -20.42,-41.102 0,-28.144 21.99,-46.828 65.97,-56.054 13.21,-2.735 22.81,-5.84 28.79,-9.317 5.99,-3.476 8.98,-8.23 8.98,-14.269 0,-5.809 -2.43,-10.508 -7.27,-14.098 z m 258.13,-37 v 2.906 c -4.78,8.996 -7.23,22.274 -7.35,39.821 v 80.148 c 0,20.734 -6.69,36.828 -20.08,48.281 -13.39,11.449 -31.47,17.172 -54.26,17.172 -15.04,0 -28.6,-2.59 -40.67,-7.773 -12.08,-5.188 -21.42,-12.336 -28.03,-21.45 -6.61,-9.117 -9.91,-19.027 -9.91,-29.734 h 49.39 c 0,6.945 2.36,12.414 7.09,16.406 4.73,3.985 11.25,5.981 19.57,5.981 9.45,0 16.38,-2.563 20.76,-7.692 4.39,-5.125 6.58,-11.961 6.58,-20.507 v -10.594 h -22.73 c -27.46,-0.117 -48.45,-5.414 -62.97,-15.895 -14.53,-10.484 -21.79,-25.523 -21.79,-45.117 0,-15.953 5.95,-29.168 17.86,-39.648 11.9,-10.485 26.91,-15.723 45.03,-15.723 19.14,0 34.69,6.664 46.65,19.996 1.03,-6.609 2.68,-12.137 4.96,-16.578 z m -108.52,40.332 c -4.33,3.988 -6.49,9.059 -6.49,15.211 l 0.17,2.902 c 1.59,17.09 14.75,25.637 39.48,25.637 h 18.45 v -31.785 c -2.96,-5.473 -7.52,-9.828 -13.67,-13.074 -6.15,-3.25 -12.88,-4.871 -20.16,-4.871 -7.52,0 -13.45,1.992 -17.78,5.98 z M 2260.29,532.41 V 347.5 h 49.39 v 130.395 c 6.95,11.847 17.38,17.773 31.28,17.773 10.59,0 18.17,-2.363 22.73,-7.09 4.55,-4.73 6.83,-12.336 6.83,-22.816 V 347.5 h 49.39 v 119.457 c -0.23,22.902 -5.13,40.102 -14.7,51.613 -9.57,11.504 -24.15,17.258 -43.75,17.258 -22.21,0 -39.93,-8.262 -53.14,-24.777 l -1.54,21.359 z m 352.8,-29.097 v 29.097 h -148.17 v -39.816 h 84.42 L 2462.36,377.578 V 347.5 h 153.46 v 39.82 h -90.4 z m 169.77,-150.43 c 12.65,5.867 22.67,14.043 30.08,24.523 l -24.27,27.172 c -10.71,-13.785 -25.58,-20.676 -44.6,-20.676 -12.31,0 -22.47,3.645 -30.51,10.938 -8.03,7.289 -12.84,16.973 -14.44,29.051 h 117.75 v 20.168 c 0,29.277 -7.26,51.894 -21.79,67.843 -14.52,15.953 -34.43,23.926 -59.73,23.926 -16.86,0 -31.87,-3.957 -45.03,-11.875 -13.16,-7.922 -23.33,-19.199 -30.5,-33.84 -7.18,-14.64 -10.77,-31.246 -10.77,-49.816 v -4.785 c 0,-27.684 8.52,-49.844 25.55,-66.481 17.03,-16.633 39.11,-24.949 66.22,-24.949 15.38,0 29.4,2.934 42.04,8.801 z M 2759.45,487 c 5.7,-6.012 8.66,-14.508 8.89,-25.492 v -3.949 h -68.7 c 1.7,12.359 5.61,21.855 11.7,28.496 6.1,6.636 14.04,9.957 23.84,9.957 10.48,0 18.57,-3.004 24.27,-9.012 z m 152.03,45.41 h -49.56 V 347.5 h 49.56 z m -44.86,29.395 c 5.07,-4.782 11.76,-7.176 20.08,-7.176 8.31,0 15.01,2.394 20.08,7.176 5.07,4.789 7.6,10.937 7.6,18.461 0,7.402 -2.5,13.5 -7.52,18.285 -5.01,4.785 -11.73,7.176 -20.16,7.176 -8.55,0 -15.3,-2.391 -20.25,-7.176 -4.96,-4.785 -7.44,-10.883 -7.44,-18.285 0,-7.524 2.54,-13.672 7.61,-18.461 z m 91.41,-122.532 c 0,-28.71 6.86,-51.757 20.59,-69.128 13.73,-17.375 31.7,-26.063 53.92,-26.063 18.57,0 33.55,6.434 44.95,19.313 v -9.915 c 0,-12.871 -3.65,-22.812 -10.94,-29.82 -7.29,-7.008 -17.49,-10.512 -30.59,-10.512 -17.55,0 -32.47,6.895 -44.78,20.68 l -21.87,-30.078 c 6.6,-8.547 16.35,-15.523 29.22,-20.934 12.88,-5.41 26.09,-8.121 39.65,-8.121 17.89,0 33.5,3.137 46.83,9.403 13.33,6.265 23.67,15.379 31.01,27.343 7.35,11.961 11.03,26.036 11.03,42.211 V 532.41 h -44.78 l -2.05,-17.43 c -11.28,13.899 -27.06,20.848 -47.34,20.848 -22.9,0 -41.1,-8.656 -54.6,-25.973 -13.5,-17.32 -20.25,-40.164 -20.25,-68.531 z m 59.56,41.844 c 6.77,9.699 16.09,14.551 27.94,14.551 14.7,0 25.35,-5.648 31.96,-16.945 v -77.875 c -6.5,-11.297 -17.26,-16.946 -32.3,-16.946 -11.74,0 -20.97,4.762 -27.69,14.289 -6.72,9.528 -10.08,22.68 -10.08,39.454 0,19.285 3.39,33.777 10.17,43.472 z m 288.9,-128.234 c 12.64,5.867 22.67,14.043 30.07,24.523 l -24.26,27.172 c -10.71,-13.785 -25.58,-20.676 -44.61,-20.676 -12.3,0 -22.47,3.645 -30.5,10.938 -8.04,7.289 -12.85,16.973 -14.44,29.051 h 117.74 v 20.168 c 0,29.277 -7.26,51.894 -21.78,67.843 -14.53,15.953 -34.44,23.926 -59.73,23.926 -16.87,0 -31.88,-3.957 -45.04,-11.875 -13.15,-7.922 -23.32,-19.199 -30.5,-33.84 -7.18,-14.64 -10.77,-31.246 -10.77,-49.816 v -4.785 c 0,-27.684 8.52,-49.844 25.55,-66.481 17.03,-16.633 39.11,-24.949 66.22,-24.949 15.39,0 29.4,2.934 42.05,8.801 z M 3283.07,487 c 5.7,-6.012 8.66,-14.508 8.89,-25.492 v -3.949 h -68.7 c 1.71,12.359 5.61,21.855 11.7,28.496 6.1,6.636 14.05,9.957 23.85,9.957 10.48,0 18.56,-3.004 24.26,-9.012 z m 206.63,46.609 c -4.78,1.481 -9.91,2.219 -15.38,2.219 -17.55,0 -31.27,-8.488 -41.19,-25.461 l -1.36,22.043 h -46.66 V 347.5 h 49.39 v 120.996 c 5.81,12.649 18.06,18.969 36.74,18.969 5.13,0 11.05,-0.457 17.78,-1.367 l 0.68,47.511" style="fill:#ffffff;fill-opacity:1;fill-rule:nonzero;stroke:none" id="path18"/><path d="m 232.836,233.176 c 7.902,6.437 20.723,19.183 25.637,24.101 14.582,14.578 33.402,39.055 34.851,51.578 1.692,13.661 -4.375,43.977 -21.187,37.84 -13.746,-4.984 -20.196,-28.246 -30.313,-45.449 -19.504,-33.293 -38.703,-62.172 -57.582,-93.949 -12.5,-21.031 -24.937,-58.492 -51.508,-62.094 -11.82,-1.601 -20.097,2.531 -21.183,6.059 -2.528,7.828 16.887,18.129 19.664,21.191 10.59,11.906 17.336,29.469 25.789,43.977 24.797,42.383 51.969,82.754 74.223,130.265 -12.813,-5.379 -18.188,-22.578 -27.25,-36.386 -16.887,-25.641 -32.918,-54.106 -49.969,-83.286 -10.903,-18.578 -21.184,-45.437 -42.457,-46.968 -7.969,-0.625 -19.2658,4.519 -19.7112,9.054 -0.8554,8.368 15.1912,11.973 18.1802,15.207 8.593,9.289 14.503,26.848 22.714,40.914 18.743,31.684 37.938,65.766 59.121,99.922 3.75,6.149 3.907,4.075 6.055,9.153 6.758,15.718 -6.055,7.968 -13.668,-4.539 -19.344,-32.317 -37.765,-64.258 -56.019,-95.493 -7.149,-12.203 -13.754,-30.691 -22.735,-36.375 -8.3591,-5.312 -29.9216,-6.605 -31.8474,3.075 -1.3086,7.054 15.5782,15.808 19.7305,21.183 16.3479,21.176 27.6289,47.434 40.9019,69.684 14.438,24.344 28.715,47.219 37.84,72.777 -16.492,-12.965 -26.258,-37.16 -39.379,-59.109 -12.265,-20.578 -22.632,-45.352 -36.3746,-62.176 -6.4453,-7.894 -19.0313,-15.723 -28.7852,-15.125 -3.5937,0.246 -14.8086,5.981 -15.1133,7.609 -0.9961,5.067 14.6524,12.434 18.1836,16.653 19.6602,23.41 39.4575,70.844 59.1095,104.539 4.059,7 20.336,29.633 16.656,33.32 -4.535,4.52 -14.199,-13.515 -12.597,-11.359 C 118.766,374.93 101.895,341.711 87.3008,317.91 82.082,309.387 74.3281,292.359 67.5742,287.594 c -9.9687,-7.071 -34.6953,-4.996 -34.8515,4.527 -0.0664,5.59 12.6054,8.055 15.1992,10.668 13.3554,13.129 25.5664,44.281 40.9101,71.141 6.9961,12.363 30.637,45.215 36.316,60.656 0.997,2.617 2.68,9.055 0,10.586 -4.921,2.848 -10.832,-12.957 -12.058,-15.117 C 96.4414,401.891 81.3164,374.246 64.5898,346.695 53.1523,327.805 36.875,306.852 10,326.957 c 0,1.086 0,2.074 0,3.09 28.0977,15.723 40.6094,50.652 59.1094,81.812 7.6758,12.899 16.8906,28.563 25.7929,43.918 8.6017,14.797 22.2537,31.383 25.7187,43.985 1.457,4.972 -0.617,11.957 0,16.644 4.836,34.774 26.551,56.727 54.57,71.153 2.219,4.531 -10.902,15.207 -4.519,19.734 1.519,1.062 14.883,-5.613 19.644,-6.059 11.051,-1.171 21.723,3.602 36.383,1.532 16.274,-2.395 40.375,-16.118 39.379,-22.735 -0.387,-2.832 -16.738,-11.355 -19.652,-13.656 -7.215,-5.445 -13.899,-11.137 -19.727,-12.121 -5.527,-0.934 -23.332,4.902 -25.797,4.535 -11.425,-1.769 -28.242,-25.117 -24.175,-56.051 4.062,-31.086 36.082,-60.398 71.156,-68.152 6.976,-1.523 19.414,-3.398 22.722,-1.523 4.137,2.281 2.688,13.796 6.059,19.707 2.457,4.3 10.215,5.593 15.211,12.128 8.355,10.989 12.273,30.012 19.637,40.93 1.914,2.738 20.113,14.953 16.66,24.176 -1.469,4.207 -18.949,7.355 -24.176,10.66 -9.066,5.684 -14.129,11.426 -16.742,19.656 9.211,-3.465 20.043,-5.234 33.398,-4.535 1.067,5.145 -22.632,9.781 -29.785,14.07 -7.14,4.317 -18.789,10.426 -14.738,12.438 1.949,0.984 8.859,-3.02 18.219,-4.902 8.14,-1.645 21.777,-4.957 21.777,-4.957 4.602,0.238 8.508,-3.606 12.047,0 -1.617,7.992 -17.5,21.043 -25.719,19.718 -7.832,-1.293 -4.066,-8.422 -12.125,-10.578 -0.926,13.196 -6.601,24.168 -1.535,33.309 7.301,13.039 27.559,-0.692 31.859,15.117 1.461,0 2.993,0 4.524,0 19.578,-9.656 57.722,-13.187 77.289,-1.531 2.234,-13.508 -13.813,-14.133 -15.184,-21.176 -0.609,-3.383 8.215,-16.73 9.121,-25.719 2.922,-29.484 -15.507,-66.39 -18.187,-101.558 -1.762,-22.407 4.683,-13.129 13.578,-30.309 4.465,-8.445 0.941,-18.121 6.082,-21.184 3.988,-2.386 28.238,2.75 34.844,4.54 29.621,8.113 57.875,35.531 62.172,66.699 2.449,18.023 -3.918,44.965 -13.661,48.422 -7.378,2.613 -16.421,-4.149 -25.796,-2.993 -9.817,1.157 -43.528,28.707 -42.379,34.84 0.242,1.457 26.566,17.742 28.804,18.192 22.332,4.39 46.657,-11.653 63.629,0 1.383,-7.055 -9.14,-8.125 -7.609,-15.184 0.691,-3.144 16.207,-9.457 22.73,-15.141 14.657,-12.66 30.239,-40.218 30.317,-66.699 0.078,-21.097 8.84,-31.625 21.183,-52.961 16.348,-28.308 30.024,-51.425 46.977,-80.355 12.129,-20.582 18.266,-40.926 40.914,-46.91 -15.203,-21.328 -44.516,-5.672 -56.043,9.074 -23.555,30.086 -41.758,85.574 -65.16,106.078 6.902,-22.656 20.652,-45.148 34.844,-68.242 13.207,-21.422 24.488,-45.977 39.379,-66.637 3.074,-4.289 19.882,-15.348 19.726,-18.18 -0.613,-10.511 -25.023,-7.058 -30.32,-4.543 -19.488,9.293 -34.238,44.071 -48.52,69.704 -6.363,11.433 -17.258,36.308 -27.238,48.441 -15.969,19.504 -0.848,-12.051 0,-13.598 6.758,-12.351 19.336,-35.836 27.238,-50.047 16.278,-28.851 28.489,-57.554 48.52,-74.21 2,-1.688 10.746,-6.223 10.594,-9.071 -0.547,-10.437 -26.711,-8.363 -34.844,-4.512 -16.125,7.426 -22.34,28.395 -31.785,45.422 -14.578,26.172 -35.313,61.039 -51.5,84.817 5.613,-24.168 22.871,-49.563 37.847,-75.739 15.5,-27.027 25.016,-56.515 43.973,-72.707 3.453,-2.984 16.809,-6.437 16.66,-12.121 -0.535,-15.582 -35.391,-5.98 -40.914,-1.539 -15.352,12.203 -29.168,51.285 -40.902,71.242 -14.754,24.942 -25.418,52.872 -40.918,71.223 12.051,-36.769 39.371,-81.894 60.562,-121.273 7.129,-13.129 13.59,-30.09 22.707,-37.844 2.547,-2.16 15.586,-4.539 16.746,-9.074 5.223,-21.25 -36.242,-8.594 -42.461,-3.063 -18.109,16.141 -32.222,57.496 -45.421,81.836 -15.891,29.078 -32.168,56.492 -48.52,78.742 15.965,-44.437 47.434,-88.418 71.238,-134.785 7.516,-14.73 14.352,-34.242 24.246,-45.508 1.625,-1.839 20.414,-9.293 21.192,-13.597 2.215,-12.199 -20.27,-13.344 -30.317,-9.117 -22.113,9.425 -30.937,39.98 -45.453,65.152 -19.265,33.48 -34.769,60.117 -56.027,98.496 -6.524,11.723 -19.266,46.191 -36.375,39.359 -3.922,-1.515 -13.055,-24.871 -12.129,-36.297 1.063,-12.824 13.652,-24.789 19.719,-33.386 7.531,-10.668 15.039,-22.117 22.711,-30.239 10.371,-11.07 26.566,-17.136 30.328,-30.328 -8.215,-3.086 -15.121,0 -24.254,0 6.453,-17.132 14.738,-30.867 24.254,-45.445 6.609,-10.203 20.258,-38.453 28.793,-40.918 14.043,-4.051 29.699,8.531 43.898,4.543 20.813,-5.836 12.117,-35.2265 -2.996,-46.9882 -1.84,3.7578 -2.226,8.9101 -3.07,13.6679 -12.82,-1.6914 -15.434,6.7613 -24.25,9.0623 0.609,-12.3552 19.953,-16.6599 21.254,-30.3201 1.238,-13.7383 -13.883,-21.0391 -18.188,-34.8359 -6.597,3.9023 0.614,9.5 -1.535,15.1836 -1.531,3.9882 -7.836,3.6836 -10.586,7.5156 -5.914,8.3008 -0.383,19.4375 -9.133,24.2656 7.977,-28.4765 -11.375,-48.5117 -31.785,-51.5156 -3.613,6.6133 4.758,9.5312 4.52,16.6601 -0.149,4.4454 -4.907,6.918 -4.52,12.1368 0.992,14.2695 23.262,37.3709 13.66,46.9569 -5.761,5.774 -51.73,6.992 -46.98,-12.113 -1.301,4.683 -19.567,23.265 -19.711,28.793 -0.149,7.429 11.504,17.562 18.18,18.187 12.902,1.145 23.027,-14.586 33.316,-15.125 -1,10.282 -7.445,17.188 -15.121,27.242 -3.836,4.985 -16.734,23.028 -22.727,22.719 -9.89,-0.539 -7.289,-16.957 -15.183,-15.117 -5.852,1.313 -6.684,59.184 -19.672,53.039 -6.039,-2.91 -1.981,-33.625 -1.524,-43.973 2.77,-58.718 -0.609,-129.1792 60.559,-127.2808 C 411.906,36.5117 404.082,28.75 387.281,28.543 374.992,28.3047 361.629,42.8867 352.43,42.1875 342.367,41.3555 341.063,28.4531 332.777,25.4492 c -1,0 -2.078,0 -3.078,0 -6.746,1.6992 -13.66,17.4375 -19.644,18.2188 -11.367,1.5937 -20.653,-17.9727 -42.45,-13.6016 -10.812,2.1484 -23.632,15.6641 -21.179,21.1758 1.527,3.5508 20.414,5.9141 25.711,9.0625 39.527,24.0273 31.48,102.4763 33.312,166.7183 -17.504,-7.746 -16.34,-34.156 -19.644,-56.101 -13.512,-1.379 -8.215,16.269 -15.2,18.187 -12.132,3.465 -34.312,-40.371 -39.378,-46.964 11.05,-1.856 20.57,12.968 31.839,12.128 6.161,-0.472 20.809,-12.675 21.207,-16.664 0.457,-4.461 -8.839,-11.82 -12.136,-16.671 -4.532,-6.661 -5.606,-14.415 -12.133,-16.645 -1.141,13.129 -3.828,16.434 -21.191,18.184 -48.727,4.929 -13.805,-23.0278 -12.114,-48.5122 0.387,-5.6796 -4.219,-7.0507 -4.535,-10.5781 -0.754,-8.4531 9.133,-8.9023 4.535,-16.6562 -17.277,10.0429 -41.144,14.332 -31.855,46.9726 -7.36,-5.2226 -4.453,-14.8086 -10.602,-21.2695 -7.363,-7.668 -12.422,-6.6836 -10.59,-22.7305 -5.222,10.9961 -20.414,21.7305 -19.644,33.4024 0.687,11.7539 16.195,13.8086 19.644,25.7185 -6.828,4.684 -11.742,-9.9763 -21.175,-2.996 -3.387,-2.23 -1.239,-9.9022 -4.536,-12.1249 -6.984,7.5819 -20.113,25.7109 -10.679,37.8479 9.91,12.648 40.625,-0.395 57.582,4.512 15.886,4.613 38.918,54.578 46.98,69.699 12.899,24.343 -13.054,1.918 -21.191,16.734 -2.457,4.305 12.203,10.895 12.203,10.68" style="fill:#ffffff;fill-opacity:1;fill-rule:nonzero;stroke:none" id="path20"/></g></g></svg>