<?xml version="1.0" encoding="UTF-8"?>
<svg id="Ebene_1" data-name="Ebene 1" xmlns="http://www.w3.org/2000/svg" viewBox="0 0 281.53 46.68">
  <defs>
    <style>
      .cls-1 {
        fill: #fff;
      }

      .cls-2 {
        fill: #b1c800;
      }
    </style>
  </defs>
  <rect class="cls-2" x="182.19" y="14.45" width="1.54" height="32.23"/>
  <polygon class="cls-1" points="37.33 14.6 47.88 14.6 47.88 11.31 37.33 11.31 37.33 14.6 37.33 14.6"/>
  <polygon class="cls-1" points="39.5 4.66 45.71 4.66 45.71 6.2 39.5 6.2 39.5 4.66 39.5 4.66"/>
  <polygon class="cls-1" points="41.88 3.29 43.34 3.29 43.34 0 41.88 0 41.88 3.29 41.88 3.29"/>
  <polygon class="cls-1" points="52.96 17.76 85.21 17.76 85.21 21.04 52.96 21.04 52.96 17.76 52.96 17.76"/>
  <polygon class="cls-1" points="0 21.04 32.25 21.04 32.25 17.76 0 17.76 0 21.04 0 21.04"/>
  <polygon class="cls-1" points="85.21 28.47 0 28.47 0 26.93 85.21 26.93 85.21 28.47 85.21 28.47"/>
  <polygon class="cls-1" points="85.21 40.58 0 40.58 0 43.87 85.21 43.87 85.21 40.58 85.21 40.58"/>
  <path class="cls-1" d="m102.67,43.87l-.47-6.34c-.04-.65-.07-1.46-.07-1.77-.07.34-.21.99-.4,1.64l-1.86,6.47h-1.45l-1.7-6.19c-.19-.68-.38-1.6-.44-1.94,0,.34-.06,1.31-.1,1.95l-.44,6.18h-1.67l.93-10.22h2.26l1.57,5.79c.24.86.33,1.43.38,1.74.04-.31.18-1,.37-1.71l1.61-5.82h2.26l.9,10.22h-1.67Z"/>
  <path class="cls-1" d="m112.74,43.34s-.46-.37-.46-1.49v-5.63l-1.57.3v5.35c-.25.53-.92.98-1.46.98-.96,0-1.09-.68-1.09-1.61v-5.01l-1.6.3v5.07c0,.93.12,1.42.41,1.77.37.44,1.02.74,1.86.74s1.58-.3,2.13-.92c.13.43.33.69.65.93l1.12-.77h0Z"/>
  <path class="cls-1" d="m118.84,43.87v-4.96c0-1.02-.24-1.3-.86-1.3-.47,0-1.15.35-1.64.84v5.42h-1.6v-5.5c0-.78-.07-1.24-.28-1.77l1.48-.41c.18.34.27.66.27,1.06.8-.68,1.49-1.03,2.29-1.03,1.15,0,1.95.69,1.95,2.07v5.58h-1.61Z"/>
  <path class="cls-1" d="m128.19,41.53c0-.87-.4-1.7-1.91-2.08l-.93-.24c-.75-.19-1-.43-1-.89,0-.58.44-.96,1.14-.96.59,0,1.14.18,1.83.55l.53-1.12c-.64-.34-1.45-.65-2.47-.65-1.65,0-2.78.98-2.78,2.38,0,1.05.66,1.82,1.79,2.05l.9.19c.84.18,1.21.47,1.21,1.05,0,.62-.5,1.05-1.21,1.05-.84,0-1.76-.4-2.42-.78l-.58,1.17c.96.53,1.95.83,2.87.83,1.8,0,3.03-1.03,3.03-2.54h0Z"/>
  <path class="cls-1" d="m132.19,44.06c-1.45,0-1.95-.86-1.95-1.92v-4.62h-.83v-1.12h.83c0-.64,0-1.29.07-1.85l1.67-.4c-.07.61-.13,1.51-.13,2.25h1.79l-.43,1.12h-1.37v4.2c0,.93.21,1.2.92,1.2.22,0,.41-.04.69-.15l.21.98c-.49.22-.96.33-1.46.33h0Z"/>
  <path class="cls-1" d="m140.93,40.58v-.34c0-1.74-.33-2.67-.98-3.26-.62-.57-1.3-.77-2.04-.77-.95,0-1.69.31-2.3,1.01-.65.74-.94,1.62-.94,2.92,0,2.4,1.33,3.91,3.45,3.91,1.01,0,1.91-.31,2.69-.98l-.64-.99c-.57.48-1.16.74-1.86.74-1.46,0-1.86-1.09-1.86-2.13v-.11h4.47Zm-3.02-3.13c.81,0,1.33.72,1.33,1.93h-2.75c0-1.21.5-1.93,1.42-1.93Z"/>
  <path class="cls-1" d="m146.43,37.81c-.16-.06-.28-.1-.46-.1-.68,0-1.26.5-1.4,1.11v5.05h-1.62v-5.27c0-.95-.1-1.55-.27-2.01l1.49-.38c.18.34.28.77.28,1.18.59-.81,1.18-1.2,1.91-1.2.24,0,.38.03.58.12l-.5,1.51h0Z"/>
  <path class="cls-1" d="m108.88,34.47c0-.58-.44-1.03-.99-1.03s-.99.46-.99,1.03.44,1.03.99,1.03.99-.47.99-1.03h0Z"/>
  <path class="cls-1" d="m110.98,35.51c-.55,0-.99-.47-.99-1.03s.44-1.03.99-1.03.99.46.99,1.03-.44,1.03-.99,1.03h0Z"/>
  <path class="cls-1" d="m101.35,25.11v-7.36h-1.7v6.87c0,1.36-.61,2.08-1.85,2.08s-1.82-.52-1.82-2.08v-6.87h-1.71v7.37c0,1.64.84,3.03,3.53,3.03,2.25,0,3.55-1.17,3.55-3.04h0Z"/>
  <path class="cls-1" d="m107.93,27.97v-4.96c0-1.02-.24-1.3-.86-1.3-.47,0-1.15.35-1.64.84v5.42h-1.6v-5.5c0-.78-.07-1.24-.28-1.77l1.48-.41c.18.34.27.66.27,1.06.8-.68,1.49-1.03,2.29-1.03,1.15,0,1.95.69,1.95,2.07v5.58h-1.61Z"/>
  <polygon class="cls-1" points="113.62 27.97 113.62 20.32 111.98 20.62 111.98 27.97 113.62 27.97 113.62 27.97"/>
  <path class="cls-1" d="m112.79,19.39c-.59,0-1.05-.49-1.05-1.08s.47-1.09,1.08-1.09,1.06.47,1.06,1.09-.49,1.08-1.09,1.08h0Z"/>
  <path class="cls-1" d="m122,20.5h-1.7l-1.24,3.8c-.28.84-.44,1.73-.44,1.73h-.03s-.21-.89-.46-1.67l-1.3-4.03-1.67.24,2.69,7.45h1.43l2.72-7.51h0Z"/>
  <path class="cls-1" d="m129.15,24.68v-.34c0-1.74-.33-2.67-.98-3.25-.64-.58-1.32-.77-2.06-.77-.94,0-1.67.3-2.28.99-.65.75-.94,1.62-.94,2.94,0,2.38,1.33,3.91,3.45,3.91,1.01,0,1.9-.33,2.69-.99l-.64-.99c-.57.5-1.18.74-1.86.74-1.47,0-1.86-1.09-1.86-2.13v-.11h4.47Zm-3.03-3.13c.82,0,1.35.72,1.35,1.94h-2.77c0-1.22.51-1.94,1.42-1.94Z"/>
  <path class="cls-1" d="m135.14,20.41c-.19-.09-.34-.12-.58-.12-.72,0-1.31.38-1.91,1.2,0-.41-.1-.84-.28-1.18l-1.49.38c.16.46.27,1.06.27,2.01v5.27h1.62v-5.05c.15-.61.72-1.11,1.4-1.11.18,0,.3.04.46.1l.5-1.51h0Z"/>
  <path class="cls-1" d="m138.71,28.18c-.92,0-1.91-.3-2.87-.83l.58-1.17c.66.38,1.58.78,2.42.78.71,0,1.21-.43,1.21-1.05,0-.58-.37-.87-1.21-1.05l-.9-.19c-1.12-.24-1.79-1-1.79-2.05,0-1.4,1.12-2.38,2.78-2.38,1.02,0,1.83.31,2.47.65l-.53,1.12c-.69-.37-1.24-.55-1.83-.55-.69,0-1.14.38-1.14.96,0,.46.25.69,1,.89l.93.24c1.51.38,1.91,1.21,1.91,2.08,0,1.51-1.23,2.54-3.03,2.54h0Z"/>
  <polygon class="cls-1" points="145.27 27.97 145.27 20.32 143.63 20.62 143.63 27.97 145.27 27.97 145.27 27.97"/>
  <path class="cls-1" d="m144.45,19.39c-.59,0-1.05-.49-1.05-1.08s.47-1.09,1.08-1.09,1.06.47,1.06,1.09-.49,1.08-1.09,1.08h0Z"/>
  <path class="cls-1" d="m151.22,27.84l-.21-.98c-.28.1-.47.15-.7.15-.71,0-.92-.27-.92-1.2v-4.2h1.37l.43-1.12h-1.79c0-.74.06-1.64.13-2.25l-1.67.4c-.07.56-.07,1.21-.07,1.85h-.83v1.12h.83v4.62c0,1.06.5,1.92,1.95,1.92.5,0,.97-.1,1.46-.32h0Z"/>
  <path class="cls-1" d="m158.26,25.52l.04-2.14c.01-1.11.01-1.5-.13-1.83-.33-.81-1.11-1.23-2.27-1.23s-2.06.3-3.18,1.01l.72,1.18s1.15-.87,2.23-.87c.89,0,1.04.47,1.04,1.32v.4h-.5c-2.4,0-3.7.88-3.7,2.6,0,1.3.77,2.25,2.48,2.25.79,0,1.45-.24,2.06-.92.18.48.57.84,1.02,1.01l.84-1.04c-.57-.4-.67-.72-.65-1.73Zm-1.6.71c-.33.48-.82.78-1.35.78-.65,0-1.04-.44-1.04-1.15,0-.94.5-1.42,2.11-1.42.11,0,.3.01.3.01l-.03,1.77Z"/>
  <path class="cls-1" d="m155.11,18.58c0-.58-.44-1.03-.99-1.03s-.99.46-.99,1.03.44,1.03.99,1.03.99-.47.99-1.03h0Z"/>
  <path class="cls-1" d="m157.2,19.61c-.55,0-.99-.47-.99-1.03s.44-1.03.99-1.03.99.46.99,1.03-.44,1.03-.99,1.03h0Z"/>
  <path class="cls-1" d="m164.19,27.84l-.21-.98c-.28.1-.47.15-.69.15-.71,0-.92-.27-.92-1.2v-4.2h1.37l.43-1.12h-1.79c0-.74.06-1.64.13-2.25l-1.67.4c-.07.56-.07,1.21-.07,1.85h-.83v1.12h.83v4.62c0,1.06.5,1.92,1.95,1.92.5,0,.97-.1,1.46-.32h0Z"/>
  <path class="cls-1" d="m205.01,24.04h-1.73v3.91h-1.69v-10.25h2.73c1.5,0,2.04.15,2.61.49.9.53,1.41,1.45,1.41,2.58,0,2.02-1.47,3.27-3.32,3.27Zm1.02-4.46c-.31-.33-.76-.5-1.42-.5h-1.33v3.6h1.33c1.26,0,1.84-.59,1.84-1.81,0-.56-.13-.99-.42-1.29Z"/>
  <path class="cls-1" d="m213.69,21.88c-.16-.06-.28-.1-.46-.1-.68,0-1.26.5-1.41,1.11v5.07h-1.63v-5.29c0-.95-.1-1.56-.27-2.02l1.5-.39c.18.34.28.77.28,1.19.59-.82,1.19-1.2,1.91-1.2.24,0,.39.03.58.12l-.5,1.51Z"/>
  <path class="cls-1" d="m218.24,28.15c-2.03,0-3.3-1.53-3.3-3.93s1.29-3.94,3.27-3.94c2.13,0,3.35,1.59,3.35,3.96s-1.29,3.91-3.32,3.91Zm-.01-6.64c-1.04,0-1.48.79-1.48,2.61,0,2.18.55,2.82,1.53,2.82s1.5-.79,1.5-2.67c0-2.12-.59-2.76-1.54-2.76Z"/>
  <path class="cls-1" d="m227.04,18.53c-.37-.18-.59-.27-.9-.27-.56,0-.92.39-.92,1.05v1.14h1.96l-.42,1.13h-1.53v6.37h-1.61v-6.37h-.7v-1.13h.73s-.04-.42-.04-1.11c0-1.56.95-2.28,2.28-2.28.64,0,1.17.13,1.69.43l-.53,1.04Z"/>
  <path class="cls-1" d="m229.71,24.65v.12c0,1.04.39,2.13,1.85,2.13.7,0,1.3-.25,1.87-.74l.64.99c-.79.67-1.69.99-2.7.99-2.12,0-3.45-1.53-3.45-3.93,0-1.32.28-2.19.93-2.93.61-.7,1.35-1.01,2.3-1.01.74,0,1.42.19,2.06.77.65.59.98,1.51.98,3.26v.34h-4.48Zm1.44-3.14c-.92,0-1.42.73-1.42,1.94h2.77c0-1.21-.53-1.94-1.35-1.94Z"/>
  <path class="cls-1" d="m238.51,28.16c-.92,0-1.91-.3-2.87-.83l.58-1.17c.67.39,1.59.79,2.43.79.71,0,1.22-.43,1.22-1.05,0-.58-.37-.87-1.22-1.05l-.9-.19c-1.13-.24-1.79-1.01-1.79-2.06,0-1.41,1.13-2.39,2.79-2.39,1.02,0,1.84.31,2.47.65l-.53,1.13c-.7-.37-1.24-.55-1.84-.55-.7,0-1.14.39-1.14.96,0,.46.25.7,1.01.89l.93.24c1.51.39,1.91,1.21,1.91,2.09,0,1.51-1.23,2.55-3.04,2.55Z"/>
  <path class="cls-1" d="m245.72,28.16c-.92,0-1.91-.3-2.87-.83l.58-1.17c.67.39,1.59.79,2.43.79.71,0,1.22-.43,1.22-1.05,0-.58-.37-.87-1.22-1.05l-.9-.19c-1.13-.24-1.79-1.01-1.79-2.06,0-1.41,1.13-2.39,2.79-2.39,1.02,0,1.84.31,2.47.65l-.53,1.13c-.7-.37-1.24-.55-1.84-.55-.7,0-1.14.39-1.14.96,0,.46.25.7,1.01.89l.93.24c1.51.39,1.91,1.21,1.91,2.09,0,1.51-1.23,2.55-3.04,2.55Z"/>
  <path class="cls-1" d="m251.47,19.34c-.59,0-1.05-.49-1.05-1.08s.47-1.1,1.08-1.1,1.07.47,1.07,1.1-.49,1.08-1.1,1.08Zm-.81,8.61v-7.38l1.64-.3v7.68h-1.64Z"/>
  <path class="cls-1" d="m257.61,28.15c-2.03,0-3.3-1.53-3.3-3.93s1.29-3.94,3.27-3.94c2.13,0,3.35,1.59,3.35,3.96s-1.29,3.91-3.32,3.91Zm-.01-6.64c-1.04,0-1.48.79-1.48,2.61,0,2.18.55,2.82,1.53,2.82s1.5-.79,1.5-2.67c0-2.12-.59-2.76-1.54-2.76Z"/>
  <path class="cls-1" d="m267.05,27.95v-4.98c0-1.02-.24-1.3-.86-1.3-.47,0-1.16.36-1.64.84v5.44h-1.6v-5.51c0-.79-.07-1.24-.28-1.78l1.48-.41c.18.34.27.67.27,1.07.8-.68,1.5-1.04,2.3-1.04,1.16,0,1.96.7,1.96,2.07v5.6h-1.62Z"/>
  <path class="cls-1" d="m276.23,28.27c-.46-.18-.84-.53-1.02-1.01-.61.68-1.26.92-2.06.92-1.72,0-2.49-.95-2.49-2.25,0-1.73,1.3-2.61,3.7-2.61h.5v-.4c0-.86-.15-1.32-1.04-1.32-1.08,0-2.24.86-2.24.86l-.73-1.17c1.13-.71,2.06-1.02,3.19-1.02s1.96.43,2.28,1.24c.13.33.13.73.12,1.84l-.03,2.15c-.01,1.01.07,1.33.65,1.73l-.84,1.04Zm-1.69-3.85c-1.63,0-2.12.47-2.12,1.42,0,.71.39,1.16,1.04,1.16.52,0,1.02-.31,1.35-.79l.03-1.78s-.18-.01-.3-.01Z"/>
  <path class="cls-1" d="m280.55,28.12c-1.64,0-1.64-1.48-1.64-2.12v-6.39c0-1.02-.04-1.57-.15-2.19l1.67-.37c.12.46.13,1.08.13,2.06v6.36c0,1.01.04,1.17.16,1.35.09.13.34.21.53.12l.27,1.01c-.3.12-.61.18-.98.18Z"/>
  <path class="cls-1" d="m204.43,44.05c-1.17,0-2.36-.31-3.36-.92l.65-1.3c.92.53,1.73.84,2.77.84,1.26,0,2.02-.61,2.02-1.63,0-.76-.47-1.23-1.53-1.53l-1.1-.31c-.93-.27-1.6-.65-1.99-1.23-.28-.41-.43-.9-.43-1.5,0-1.81,1.42-3.04,3.48-3.04,1.17,0,2.34.34,3.24.98l-.77,1.2c-.95-.56-1.6-.79-2.42-.79-1.01,0-1.67.55-1.67,1.39,0,.64.36.96,1.36,1.26l1.21.36c1.48.43,2.52,1.38,2.52,2.92,0,1.7-1.38,3.29-4,3.29Z"/>
  <path class="cls-1" d="m213.31,44.05c-2.04,0-3.19-1.44-3.19-3.85,0-2.73,1.63-4.03,3.3-4.03.82,0,1.41.19,2.07.82l-.82,1.08c-.44-.4-.83-.58-1.26-.58-.52,0-.95.27-1.19.76-.22.46-.31,1.16-.31,2.09,0,1.02.16,1.67.5,2.05.24.27.59.43.99.43.52,0,1.02-.25,1.51-.74l.77.99c-.68.68-1.39.99-2.4.99Z"/>
  <path class="cls-1" d="m221.88,43.85v-5.1c0-.93-.33-1.2-.95-1.2-.58,0-1.27.37-1.81.92v5.38h-1.64v-8.92c0-.67-.06-1.24-.15-1.63l1.64-.36c.1.43.15,1.04.15,1.76v1.6c0,.47-.03.84-.03.84.74-.67,1.5-.98,2.3-.98.89,0,1.57.43,1.82.92.19.37.25.71.25,1.47v5.29h-1.59Z"/>
  <path class="cls-1" d="m228.78,44.05c-2.03,0-3.3-1.53-3.3-3.93s1.29-3.94,3.27-3.94c2.13,0,3.35,1.59,3.35,3.96s-1.29,3.91-3.32,3.91Zm-.01-6.64c-1.04,0-1.48.79-1.48,2.61,0,2.18.55,2.82,1.53,2.82s1.5-.79,1.5-2.67c0-2.12-.59-2.76-1.54-2.76Z"/>
  <path class="cls-1" d="m237.03,44.05c-2.03,0-3.3-1.53-3.3-3.93s1.29-3.94,3.27-3.94c2.13,0,3.35,1.59,3.35,3.96s-1.29,3.91-3.32,3.91Zm-.01-6.64c-1.04,0-1.48.79-1.48,2.61,0,2.18.55,2.82,1.53,2.82s1.5-.79,1.5-2.67c0-2.12-.59-2.76-1.54-2.76Z"/>
  <path class="cls-1" d="m243.98,44.02c-1.64,0-1.64-1.48-1.64-2.12v-6.39c0-1.02-.04-1.57-.15-2.19l1.67-.37c.12.46.13,1.08.13,2.06v6.36c0,1.01.04,1.17.16,1.35.09.13.34.21.53.12l.27,1.01c-.3.12-.61.18-.98.18Z"/>
</svg>