<?xml version="1.0" encoding="utf-8"?>
<!-- Generator: Adobe Illustrator 22.0.1, SVG Export Plug-In . SVG Version: 6.00 Build 0)  -->
<svg version="1.1"
	 id="svg53947" inkscape:version="0.47 r22583" sodipodi:docname="Neues Dokument 27" xmlns:cc="http://creativecommons.org/ns#" xmlns:dc="http://purl.org/dc/elements/1.1/" xmlns:inkscape="http://www.inkscape.org/namespaces/inkscape" xmlns:rdf="http://www.w3.org/1999/02/22-rdf-syntax-ns#" xmlns:sodipodi="http://sodipodi.sourceforge.net/DTD/sodipodi-0.dtd" xmlns:svg="http://www.w3.org/2000/svg"
	 xmlns="http://www.w3.org/2000/svg" xmlns:xlink="http://www.w3.org/1999/xlink" x="0px" y="0px" viewBox="0 0 32.8 32.8"
	 style="enable-background:new 0 0 32.8 32.8;" xml:space="preserve">
<style type="text/css">
	.st0{clip-path:url(#SVGID_2_);}
	.st1{fill:#41799E;}
</style>
<defs>
	
	
		<inkscape:perspective  id="perspective53955" inkscape:persp3d-origin="0.5 : 0.33333333 : 1" inkscape:vp_x="0 : 0.5 : 1" inkscape:vp_y="0 : 1000 : 0" inkscape:vp_z="1 : 0.5 : 1" sodipodi:type="inkscape:persp3d">
		</inkscape:perspective>
	
		<inkscape:perspective  id="perspective54201" inkscape:persp3d-origin="0.5 : 0.33333333 : 1" inkscape:vp_x="0 : 0.5 : 1" inkscape:vp_y="0 : 1000 : 0" inkscape:vp_z="1 : 0.5 : 1" sodipodi:type="inkscape:persp3d">
		</inkscape:perspective>
</defs>
<sodipodi:namedview  bordercolor="#666666" borderlayer="true" borderopacity="1" gridtolerance="10" guidetolerance="10" id="namedview53949" inkscape:current-layer="g53957" inkscape:cx="27.125" inkscape:cy="27.125" inkscape:pageopacity="0" inkscape:pageshadow="2" inkscape:showpageshadow="false" inkscape:window-height="988" inkscape:window-maximized="1" inkscape:window-width="1680" inkscape:window-x="-8" inkscape:window-y="-8" inkscape:zoom="13.953917" objecttolerance="10" pagecolor="#ffffff" showgrid="false">
	</sodipodi:namedview>
<g id="g53957" transform="matrix(1.25,0,0,-1.25,0,54.250029)" inkscape:groupmode="layer" inkscape:label="Projektblatt_Summerschool">
	<g>
		<defs>
			<rect id="SVGID_1_" x="-114" y="-115.8" width="744.1" height="1052.4"/>
		</defs>
		<clipPath id="SVGID_2_">
			<use xlink:href="#SVGID_1_"  style="overflow:visible;"/>
		</clipPath>
		<g id="g54025" class="st0">
			<g id="g54031" transform="translate(82.9134,32.2441)">
				<path id="path54033" class="st1" d="M-56.9-1.9c0,7.2-5.8,13-13,13c-7.2,0-13-5.8-13-13s5.8-13,13-13
					C-62.7-14.9-56.9-9.1-56.9-1.9 M-57-1.9c0-7.1-5.7-12.8-12.8-12.8S-82.7-9-82.7-1.9s5.7,12.8,12.8,12.8S-57,5.2-57-1.9
					 M-57.3-1.9c0,6.9-5.6,12.6-12.6,12.6S-82.4,5-82.4-1.9c0-6.7,5.3-12.2,11.9-12.6c-0.1,0.1-0.3,0.1-0.4,0.2
					c-6.3,0.5-11.3,5.8-11.3,12.3c0,6.8,5.5,12.4,12.4,12.4c6.8,0,12.4-5.5,12.4-12.4c0-6.5-5-11.8-11.3-12.3
					c-0.1-0.1-0.3-0.2-0.4-0.2C-62.6-14.2-57.3-8.7-57.3-1.9 M-74.9-12.3c0,0.1,0.1,0.2,0.2,0.4c0.1,0.1,0.1,0.3,0.2,0.4
					c0,0,0.1,0,0.1,0c0,0,0,0.1,0,0.1c0,0-0.3,0.3-0.4,0.4l-0.3-0.1l0.4-0.4c0-0.1-0.1-0.1-0.1-0.2h-0.6c-0.1-0.1-0.1-0.1-0.1-0.2
					l0-0.5c0,0,0-0.1,0.1-0.1l0.4,0.1C-74.9-12.3-75-12.3-74.9-12.3C-74.9-12.3-74.9-12.3-74.9-12.3 M-74.9-11.8l-0.2-0.5
					c0,0-0.1,0-0.1,0c0,0.1,0,0.2,0.1,0.3c0,0,0,0.2,0.1,0.2C-75.2-11.8-74.9-11.8-74.9-11.8z M-74.6-12.9l0.6,0.2c0,0,0,0,0,0
					c0.1,0.3,0.2,0.6,0.4,0.8c0,0,0.1,0.1,0.1,0.1l-0.5,0.3l-0.4-0.1c0.1-0.1,0.4-0.2,0.4-0.2s0-0.1,0-0.1l-0.3-0.7
					c0,0.1-0.1,0.2-0.1,0.3l-0.4-0.1c0-0.1,0-0.1,0.1-0.2C-74.7-12.7-74.7-12.8-74.6-12.9 M-72.5-12.9l-0.4-0.2
					c0.1-0.1,0.1-0.3,0.2-0.4c0.1,0.1,0.3,0.1,0.4,0.2L-72.5-12.9z M-72.9-12c0,0.1,0.2,0.1,0.3,0.1c0,0,0,0.1-0.1,0.1l-0.4-0.2
					h-0.1l-0.5-1.3c0,0.1-0.1,0.2-0.1,0.3c-0.1,0-0.2,0-0.3,0c0-0.1,0-0.3,0.1-0.4c0.1,0,0.2-0.1,0.2-0.1s0.1,0,0.2,0
					c0.1,0,0.1,0,0.2,0c0,0,0.1,0,0.1,0C-73.3-12.9-73.1-12.4-72.9-12 M-75.6-10.9l-0.1,0.4l-0.4-0.1v0L-76-11h0.1
					C-76-11-75.6-10.9-75.6-10.9z M-77.5,6.9h-0.4V6.5h0.2c0.2-0.2,0.4-0.4,0.6-0.6c0,0,0-0.1,0-0.2h0c0.1,0,0.2,0.1,0.3,0.1
					c0,0,0,0,0,0.1c0,0,0,0.3,0,0.3c0,0,0,0,0,0c-0.1,0-0.2-0.1-0.2-0.1c0,0-0.2,0.2-0.4,0.4C-77.3,6.5-77.5,6.8-77.5,6.9L-77.5,6.9
					z M-79.9,4.6l0.1-0.4c0,0,0-0.1,0-0.1c0,0,0,0,0,0c0.2-0.1,0.3-0.2,0.5-0.2c0.1,0,0.2-0.1,0.3-0.1c0,0,0-0.1,0-0.1
					c0,0,0.1,0,0.1-0.1l0.4,0.4l-0.1,0.4l-0.3-0.3c0,0-0.1,0.1-0.1,0.1v0.5c0,0-0.1,0.1-0.1,0.1l-0.6,0C-79.8,4.7-79.8,4.7-79.9,4.6
					C-79.9,4.6-79.9,4.6-79.9,4.6 M-79.7,4.4c0.2,0,0.4-0.1,0.5-0.1c0,0,0,0,0-0.1c0,0,0-0.1,0-0.2c-0.2,0.1-0.4,0.2-0.5,0.2
					C-79.7,4.3-79.7,4.3-79.7,4.4L-79.7,4.4z M-80,3.8l-0.3-0.1c0-0.1,0.1-0.2,0.1-0.3c0.1,0,0.1,0.1,0.2,0.1c0,0,0.4-0.2,0.7-0.3
					c0.1,0,0.1-0.1,0.1-0.2l0.3,0.2c0,0.1-0.1,0.2-0.1,0.4c-0.1,0-0.1-0.1-0.2-0.1c0,0-0.1,0-0.1,0.1C-79.5,3.5-79.7,3.6-80,3.8
					C-79.9,3.7-79.9,3.8-80,3.8 M-80.8,1.8c-0.1-0.1-0.3-0.2-0.4-0.3l0.3-0.6c0.1,0,0.3,0,0.3,0c0,0,0.3-0.1,0.5-0.1
					c0.1,0,0.1-0.1,0.1-0.2l0.3,0.4l-0.2,0.5c0,0-0.1,0-0.1,0c0,0-0.1,0-0.2,0.1c-0.2,0.1-0.4,0-0.6,0.2
					C-80.8,1.9-80.8,1.9-80.8,1.8 M-81,1.3l0.3,0.2l0.8-0.2c0-0.1-0.1-0.2-0.2-0.2l-0.7,0.2C-80.8,1.3-81,1.3-81,1.3z M-80.3,0.5
					l-1.4,0.3v0c0,0,0-0.2,0.1-0.3c0.4-0.1,0.8-0.2,1.1-0.3c0,0,0.1,0,0.1,0c0-0.1,0.1-0.1,0.1-0.2l0.2,0.4
					c-0.1,0.1-0.1,0.2-0.2,0.3C-80.2,0.6-80.2,0.5-80.3,0.5 M-81.6-0.4l0.4-0.5c0.1,0,0.3,0.1,0.3,0.1l0.3,0c0,0,0.1,0,0.2,0
					c0.1,0,0.1-0.1,0.2-0.1l0.2,0.5L-80.4,0c-0.1,0-0.1,0-0.1,0c0,0-0.2,0-0.3,0c-0.1,0-0.2,0-0.3,0c-0.1,0-0.1,0.1-0.2,0.1V0
					C-81.3-0.1-81.6-0.3-81.6-0.4 M-81.4-0.5c0,0,0.2,0.3,0.3,0.3l0.8-0.1c0-0.1-0.1-0.2-0.1-0.2l-0.8,0.1
					C-81.3-0.5-81.3-0.5-81.4-0.5 M-81.8-1.4c0.1-0.1,0.3-0.3,0.4-0.5l0.9,0c0,0,0.1-0.1,0.2-0.1c0,0.2,0.1,0.4,0.1,0.6l-0.3,0.3
					c0,0,0-0.1,0-0.1c0,0,0-0.2,0-0.3c0,0-0.1-0.1-0.1-0.1h-0.7c0.1,0.1,0.2,0.1,0.3,0.2c-0.1,0.1-0.2,0.2-0.2,0.3
					C-81.4-1.1-81.8-1.4-81.8-1.4z M-81.7-2.8l0.3-0.2l0.2,0.3l-0.3,0.2L-81.7-2.8z M-80.4-2.9l0.2,0.3l-0.3,0.2l-0.2-0.3
					c0,0,0,0,0,0S-80.4-2.9-80.4-2.9z M-81.6-4.1l0.5-0.4c0.2,0.1,0.4,0.1,0.6,0.2c0,0,0,0.1,0,0.1c0,0.1,0,0.2,0,0.2c0,0,0,0,0,0
					c-0.1,0-0.2,0.1-0.2,0.1c0,0,0,0.1,0.1,0.1c0.1,0,0.3,0.1,0.3,0.1c0,0,0,0,0,0l-0.1-0.5c0,0,0.1-0.1,0.1-0.1
					c0,0,0.1-0.1,0.2-0.1c0,0,0.1,0,0.1,0.1c0,0-0.1,0.1-0.1,0.1l0.1,0.6c0,0.1-0.1,0.1-0.2,0.2c-0.1,0.1-0.1,0.2-0.2,0.2
					c0,0-0.4-0.1-0.6-0.1c0-0.1-0.1-0.2-0.1-0.3c0.1,0,0.2-0.1,0.2-0.1c0,0,0-0.1,0-0.2c-0.1,0-0.3-0.1-0.4-0.1c0,0-0.1,0.1-0.1,0.1
					c0,0,0.1,0.2,0.1,0.2c0.1,0,0.1,0,0.1,0l-0.5,0.4c0-0.1,0-0.2,0-0.2S-81.5-4-81.6-4.1 M-79.8-5c0,0.1,0,0.2,0,0.3l-0.3,0.2
					c0-0.1,0-0.1,0-0.2c-0.3-0.1-0.8-0.2-0.8-0.2c0,0-0.1,0-0.1,0l-0.2-0.3l0.3-0.2c0,0,0.1,0.1,0.1,0.1c0,0,0,0,0,0
					c0.2,0.1,0.7,0.2,0.7,0.2C-80-4.9-79.9-5-79.8-5C-79.8-5-79.9-5-79.8-5 M-80.7-6.1L-80.7-6.1c0.1,0,0.2,0,0.3,0c0,0,0,0.1,0,0.1
					l0.6,0.3l0.2-0.1c0,0,0,0,0,0l0,0.5c0,0,0,0,0,0c-0.1,0-0.2,0.1-0.3,0.1c0-0.1,0-0.2-0.1-0.3c0,0,0,0,0,0
					c-0.2-0.1-0.4-0.1-0.6-0.2c0,0.1-0.1,0.2-0.1,0.3c-0.1,0-0.2,0-0.3,0c0,0,0,0,0,0l0.1-0.4v0l-0.5-0.2c0.1-0.1,0.2-0.1,0.3-0.2
					L-80.7-6.1C-80.7-6-80.7-6.1-80.7-6.1 M-80.7-7c0.2,0,0.4-0.1,0.6-0.2c0,0-0.1,0.1-0.1,0.2c0,0,0,0.2,0,0.2c0,0,0,0.1,0,0.2
					c0.2,0.1,0.5,0.2,0.7,0.2l0.1-0.2L-80.1-7l0.3-0.1l0.5,0.3c0.1,0,0.2,0,0.3,0l0,0.4c0,0,0,0.1,0,0.1c-0.1,0-0.2,0.1-0.3,0.1
					l0.1,0.3c0,0,0,0,0,0c-0.1,0-0.3,0.1-0.4,0.1c0-0.1,0-0.1,0-0.3c-0.3-0.1-0.5-0.2-0.8-0.3c0-0.1-0.1-0.2-0.1-0.3
					C-80.5-6.8-80.6-6.9-80.7-7 M-79.7-8.1c0.1,0,0.2,0,0.3,0.1c0,0,0,0.1,0,0.1l0.6,0.3c0.1,0,0.2,0,0.3-0.1l-0.1,0.5L-79-7
					c0,0,0-0.2,0-0.2c0,0,0,0,0,0c-0.2-0.1-0.4-0.2-0.5-0.3c-0.1,0.1-0.1,0.2-0.2,0.3c-0.1,0-0.2,0-0.3-0.1v0l0.2-0.4L-80.3-8
					c0,0,0,0,0,0c0.1,0,0.2,0,0.3-0.1c0,0,0.1,0,0.1,0C-79.9-8.1-79.8-8.1-79.7-8.1C-79.7-8-79.7-8.1-79.7-8.1 M-79.1-8.6
					c0.2,0.2,0.4,0.3,0.6,0.4c0.1,0,0.1,0,0.2,0c0,0.1,0,0.2-0.1,0.3c-0.1,0-0.2,0.1-0.4,0.1c0,0,0,0,0,0c0,0,0-0.1,0-0.2l-0.7-0.5
					c0,0,0,0-0.1,0c0,0,0,0,0,0c0-0.1,0-0.2,0-0.3c0.1,0,0.2,0,0.4-0.1C-79.1-8.7-79.1-8.6-79.1-8.6 M-76.2-11.3l-0.4-0.1l0.1-0.4h0
					l0.4,0.1v0C-76.2-11.7-76.2-11.3-76.2-11.3z M-77.2-10.8c0.2,0.2,0.4,0.5,0.6,0.7c0,0,0.1,0,0.1,0l-0.4,0.5l-0.4-0.1l0.3-0.3
					c0,0,0-0.1,0-0.1c-0.1-0.2-0.3-0.4-0.5-0.5v0.3c-0.2,0-0.3,0-0.4,0v-0.5L-77.2-10.8C-77.2-10.8-77.2-10.8-77.2-10.8 M-78.4-9.9
					c0-0.1,0-0.3,0-0.3c0,0,0,0,0,0h0.4v0.2c0,0,0,0,0,0c0.2,0.2,0.4,0.4,0.6,0.6c0.1,0,0.1,0,0.2,0.1c0,0.1-0.1,0.2-0.1,0.3l-0.4,0
					c0-0.1,0-0.1,0.1-0.2c-0.2-0.2-0.5-0.4-0.7-0.6C-78.3-9.9-78.3-9.9-78.4-9.9 M-78.7-9.2V-9l0.6,0.5c0,0,0,0,0,0l0.1-0.3
					c-0.1-0.1-0.2-0.2-0.2-0.2c-0.1-0.1-0.2-0.2-0.4-0.3c0,0-0.1,0-0.1,0v-0.4h0l0.3,0.1c0,0.1,0,0.1,0,0.1c0,0,0.3,0.3,0.4,0.3
					c0,0,0.1,0,0.1,0.1c0.1,0.1,0.1,0.1,0.3,0.1c0,0,0,0,0,0c-0.1,0.2-0.1,0.4-0.2,0.6c-0.2,0-0.5,0.1-0.5,0.1
					c-0.1,0-0.5-0.4-0.6-0.4c0,0-0.1,0-0.1,0h0v-0.6L-78.7-9.2C-78.7-9.2-78.7-9.2-78.7-9.2 M-80.6,3l0.1-0.3
					c-0.1-0.1-0.3-0.2-0.3-0.2c0,0,0.1-0.3,0.1-0.4c0.1,0,0.2,0.1,0.2,0.1c0,0,0.4-0.2,0.6-0.3c0,0,0.1-0.1,0.1-0.1l0.3,0.2
					c-0.1,0.1-0.1,0.2-0.2,0.3c-0.1,0-0.1-0.1-0.1-0.1c0,0-0.4,0.1-0.6,0.3c-0.1,0,0,0.1-0.1,0.2c0,0,0,0,0,0v0l0.2,0.1
					c0,0,0-0.1,0-0.1c0.2-0.1,0.4-0.1,0.6-0.3c0,0,0-0.1,0.1-0.1l0.3,0.2l-0.1,0.3l-0.2-0.1c-0.1,0-0.2,0.1-0.3,0.1
					c-0.1,0-0.1,0-0.2,0.1c-0.1,0.1-0.1,0.1-0.1,0.2h0C-80.2,3.2-80.6,3-80.6,3z M-79.1,5.6c0,0,0-0.2,0-0.2c0,0,0,0,0,0
					c-0.1,0-0.2-0.1-0.3-0.1c0,0,0,0,0,0c0-0.1,0.1-0.2,0.1-0.4c0,0,0,0,0,0c0,0,0.1,0.1,0.1,0.1c0,0,0.4-0.2,0.6-0.4
					c0.1-0.1,0-0.2,0.1-0.2l0.3,0.2v0l-0.1,0.3c-0.1,0-0.1,0-0.1,0c0,0,0,0-0.1,0c-0.1,0.1-0.6,0.4-0.6,0.4c0,0,0,0.1,0,0.1
					c0,0,0,0,0,0c0.1,0.1,0.2,0.2,0.2,0.2c0,0,0-0.1,0.1-0.1c0.2-0.1,0.4-0.2,0.5-0.4c0.1,0,0-0.1,0.1-0.2l0.4,0.2l0,0.3
					c-0.1,0-0.2-0.1-0.2-0.1c0,0-0.4,0.2-0.6,0.4c-0.1,0.1,0,0.2-0.1,0.2c-0.1-0.1-0.3-0.2-0.4-0.2C-79,5.7-79.1,5.6-79.1,5.6
					 M-77.2,5.4l-1.2,1c0.2,0,0.2,0,0.3,0c0,0,0,0,0,0v0.4h0c0,0-0.2,0-0.2,0c-0.2-0.1-0.2-0.2-0.2-0.3c0,0,0-0.3,0-0.3c0,0,0,0,0,0
					c0.1-0.1,0.2-0.2,0.3-0.3c0.3-0.3,0.6-0.6,1-0.8c0,0,0,0,0,0V5.4z M-76.9,7.3c0,0,0,0.1,0,0.1c0,0,0,0,0.3,0
					c0,0,0.1-0.1,0.1-0.1l0.1,0.6c-0.1,0-0.2-0.1-0.2-0.1H-77l-0.2-0.6l0.4-0.4c0.1,0,0.2,0.1,0.4,0.1c0,0.1,0,0.2,0,0.2
					c0,0,0.1,0,0.1,0c0,0,0.1-0.2,0.2-0.2l0,0c-0.1,0-0.2-0.1-0.3-0.1c-0.1,0-0.3-0.1-0.3-0.1c0,0,0-0.2-0.1-0.3c0,0,0.1,0,0.1-0.1
					c0,0,0,0.1,0,0.1c0.1,0.1,0.3,0.1,0.4,0.1c0.1,0,0.1,0,0.2,0.1c0.1,0.1,0.2,0.4,0.2,0.4c0,0-0.4,0.5-0.4,0.5c0,0-0.2,0-0.4-0.1
					c0,0,0-0.1,0-0.1c0,0,0-0.1,0-0.2c0,0-0.1-0.1-0.2-0.1c0,0-0.1,0.1-0.1,0.1C-76.8,7.2-76.9,7.3-76.9,7.3 M-74.8,7.8
					c0.2,0,0.4,0.1,0.4,0.4c0,0.2-0.1,0.4-0.4,0.4c-0.2,0-0.3-0.2-0.3-0.4c0,0,0-0.1,0-0.1C-75.1,7.9-75,7.8-74.8,7.8 M-73.5,8.5
					c0.2,0,0.3,0.2,0.3,0.4c0,0.2-0.1,0.4-0.4,0.4c-0.2,0-0.3-0.2-0.3-0.4C-73.9,8.7-73.7,8.5-73.5,8.5 M-68.2,9.5
					c0-0.1-0.1-0.1-0.1-0.2c0,0,0-0.2,0.1-0.2c0.1-0.1,0.2-0.2,0.3-0.2c0.2,0,0.4,0.2,0.4,0.4c0,0.2-0.1,0.4-0.4,0.4
					C-68,9.7-68.2,9.6-68.2,9.5 M-70.3,9.6c0,0,0-0.1,0-0.1c0,0,0-0.1,0-0.1c0.1-0.2,0.2-0.3,0.3-0.3c0.2,0,0.4,0.2,0.4,0.4
					c0,0.2-0.1,0.4-0.4,0.4C-70.1,9.9-70.2,9.8-70.3,9.6 M-70.4,7.8c-0.1-0.1-0.3-0.5-0.3-0.5c0,0,0-0.1,0-0.1c0,0,0.7,0.5,0.7,0.5
					c0.2-0.2,0.7-0.5,0.7-0.5c0,0,0,0,0,0.1c0,0-0.1,0.2-0.2,0.4c-0.2,0.4-0.4,0.7-0.6,1.1c0,0,0,0,0,0c0,0,0,0,0,0
					C-70.1,8.4-70.3,8.1-70.4,7.8 M-72.1,8.9c0.2,0,0.4,0.2,0.4,0.4c0,0.2-0.1,0.4-0.4,0.4c-0.1,0-0.3-0.1-0.3-0.2c0,0,0-0.1,0-0.1
					c0,0,0-0.1,0-0.1C-72.4,9-72.3,8.9-72.1,8.9 M-70.9,9V8.9h-1V5.6l0.4,0.8v0.3c0,0,0,0.1,0,0.2c0,0,0,0,0,0c0-0.1,0-0.1,0-0.1
					c0,0,0-0.1-0.1-0.1c-0.1,0-0.1,0.1-0.1,0.2c0,0.1,0,0.2,0.1,0.2c-0.1,0-0.2,0.2-0.2,0.3c0,0,0,0.1,0,0.1c0,0,0,0.1,0.1,0.1
					c0,0,0,0,0.1,0c0.1,0,0.1-0.1,0.2-0.2c0,0.1,0,0.2,0.1,0.2c0.1,0,0.1-0.1,0.1-0.2c0-0.1-0.1-0.2-0.2-0.3c0,0,0,0,0,0
					c0,0,0.1-0.1,0.1-0.1c0-0.1,0-0.1,0-0.2c0.1,0.2,0.2,0.4,0.3,0.7c0,0,0,0,0,0c0,0.1,0,0.1,0,0.1c0,0.1,0,0.2-0.1,0.3
					c0,0,0,0,0,0c0,0,0-0.3-0.1-0.3c-0.1,0-0.1,0.1-0.1,0.2c0,0.1,0,0.2,0.1,0.2c-0.1,0.1-0.2,0.2-0.2,0.3c0,0.1,0,0.2,0.1,0.2
					c0.1,0,0.2-0.1,0.2-0.2c0,0.1,0,0.2,0.1,0.2c0.1,0,0.1-0.1,0.1-0.1c0-0.2-0.2-0.3-0.2-0.3c0,0,0.1-0.1,0.1-0.1
					c0-0.1,0-0.1,0-0.2l0.3,0.6v0.3c0,0,0,0.1,0,0.2c0,0,0,0,0,0c0,0,0-0.3-0.1-0.3c-0.1,0-0.1,0.1-0.1,0.2c0,0.1,0,0.2,0.1,0.2
					c-0.1,0-0.1,0.1-0.1,0.2c0,0,0,0,0,0h0.5v0c0-0.1-0.1-0.2-0.1-0.2c0,0,0-0.1,0.1-0.1c0-0.1,0-0.2,0.1-0.2c0,0,0,0,0,0l0.3,0.5
					c-0.2,0-0.2,0-0.3,0c0,0.1,0,0.2-0.1,0.2c-0.1,0-0.1,0-0.1-0.1c0,0.1-0.1,0.1-0.1,0.1C-70.8,9.1-70.9,9.1-70.9,9 M-69.4,8.9
					C-69.4,8.9-69.4,8.9-69.4,8.9l-0.3,0c0.1-0.2,0.2-0.4,0.3-0.5c0,0,0,0,0,0c0,0.1,0,0.2,0.1,0.3c0,0,0.1,0.1,0.1,0.1
					c0,0-0.1,0.1-0.1,0.1C-69.4,8.8-69.4,8.9-69.4,8.9l0.5-0.1c0-0.1-0.1-0.2-0.1-0.2c0.1,0,0.1-0.1,0.1-0.2c0,0,0-0.2-0.1-0.2
					c-0.1,0-0.1,0.2-0.2,0.3c0,0,0,0,0-0.1c0-0.1,0-0.2,0-0.2c0,0,0,0,0-0.1c0,0,0-0.1,0-0.1c0.1-0.2,0.2-0.4,0.3-0.6c0,0,0,0,0,0
					c0,0.1,0,0.2,0.1,0.3c0,0,0,0.1,0,0.1c0,0-0.2,0.2-0.2,0.3c0,0,0,0.1,0.1,0.1c0.1,0,0.1-0.1,0.1-0.2c0,0.1,0,0.2,0.2,0.2
					c0.1,0,0.1-0.1,0.1-0.2c0-0.1,0-0.2-0.2-0.3c0.1,0,0.1-0.1,0.1-0.2c0,0,0-0.2-0.1-0.2c-0.1,0-0.1,0.2-0.1,0.3c0,0,0,0,0,0
					c0-0.1-0.1-0.2-0.1-0.3c0,0,0-0.2,0-0.2c0.1-0.2,0.2-0.4,0.3-0.6h0c0,0.1,0,0.1,0,0.2c0,0,0.1,0.1,0.1,0.1c0,0-0.1,0.1-0.1,0.1
					c0,0.1-0.1,0.1-0.1,0.2c0,0,0,0.1,0.1,0.1c0.1,0,0.1-0.2,0.1-0.2c0,0.1,0,0.2,0.2,0.2c0.1,0,0.1-0.1,0.1-0.2
					c0-0.1,0-0.2-0.2-0.3c0.1,0,0.1-0.1,0.1-0.2c0,0,0-0.2-0.1-0.2c-0.1,0-0.1,0.2-0.1,0.3c0,0,0,0,0,0c0,0-0.1-0.1-0.1-0.2V6.4
					c0.1-0.1,0.1-0.3,0.2-0.4c0-0.1,0.1-0.3,0.2-0.3c0,0,0,0,0,0v3.3H-69c0,0.1,0,0.2-0.1,0.2c-0.1,0-0.1-0.1-0.1-0.1
					c0,0.1-0.1,0.1-0.1,0.1C-69.4,9.1-69.4,9-69.4,8.9 M-66.4,8.5c0.2,0,0.4,0.2,0.4,0.4c0,0.2-0.1,0.4-0.4,0.4c0,0-0.1,0-0.1,0
					c-0.1,0-0.2-0.2-0.2-0.3C-66.7,8.7-66.6,8.5-66.4,8.5 M-65,7.8c0.2,0,0.4,0.2,0.4,0.4c0,0.2-0.1,0.4-0.4,0.4
					c-0.1,0-0.3-0.1-0.3-0.2c0,0,0-0.1,0-0.1s0-0.1,0-0.1C-65.3,7.9-65.2,7.8-65,7.8 M-64.1,6.8c0-0.1,0-0.2,0-0.3
					c0.1,0,0.2,0,0.4,0.1v0c0,0,0,0.2-0.1,0.3h-0.1c0,0,0,0-0.1,0C-64,6.9-64.1,6.9-64.1,6.8L-64.1,6.8C-64.2,6.8-64.1,6.8-64.1,6.8
					 M-65.8-12.1l0.1,0.4l-0.4,0.1l-0.1-0.4L-65.8-12.1z M-65.4-12.9l0.1,0.4l-0.4,0.1l-0.1-0.4C-65.8-12.7-65.4-12.9-65.4-12.9z
					 M-60.9-9.8L-60.9-9.8L-60.9-9.8c0,0.1,0,0.1,0,0.1c0,0.1,0,0.2,0,0.2c0,0-0.1,0.1-0.1,0.1c0,0,0,0,0,0c0,0-0.2,0.2-0.2,0.2
					c0,0-0.1-0.1-0.1-0.1c0,0-0.3,0.3-0.5,0.4c0,0.1,0,0.2,0,0.2h0c-0.1-0.1-0.4-0.2-0.4-0.2c0,0,0-0.2,0-0.3c0,0,0,0,0,0
					C-62.2-9-62-9-62-9l0.5-0.4c-0.1-0.1-0.2-0.2-0.2-0.2c0,0,0.1-0.2,0.2-0.2c0,0,0.2,0.2,0.3,0.3L-60.9-9.8z M-60.7-7.4
					c0,0.1,0,0.2-0.1,0.2l-0.4-0.1v0c0,0,0-0.1,0-0.1c0-0.1,0-0.1,0.1-0.2c0.1,0,0.3,0.1,0.4,0.1v0C-60.6-7.5-60.6-7.4-60.7-7.4
					C-60.6-7.4-60.7-7.4-60.7-7.4 M-59.1-5.8c0.1,0,0.2,0.1,0.3,0.1v0c0,0-0.1,0.1-0.1,0.1c0,0,0,0.1-0.1,0.2h0
					c-0.1,0-0.1,0-0.2-0.1l-0.5,0.2c0,0-0.1,0-0.1,0C-59.8-5.1-59.8-5-59.9-5h0l-0.3-0.4c0-0.1,0.1-0.2,0.1-0.3c0,0,0,0,0,0l0.2,0.2
					l0.5-0.2c0,0,0,0,0,0C-59.3-5.7-59.2-5.7-59.1-5.8C-59.1-5.8-59.1-5.8-59.1-5.8 M-58.6-4.8c0.1,0,0.2-0.1,0.4-0.1v0
					c-0.1,0.1-0.1,0.2-0.2,0.3c0,0-0.1,0-0.2,0c0,0,0,0.1,0,0.1s0,0,0,0c-0.1,0-0.3,0.1-0.3,0.1c0,0,0,0,0,0c0,0,0,0,0-0.1
					c0,0,0,0,0,0c0,0-0.1,0-0.2,0c-0.1,0-0.3,0.1-0.4,0.1c0,0.1-0.1,0.1-0.1,0.2h0L-60-4.6c0-0.1,0.1-0.2,0.2-0.2h0
					c0.1,0.1,0.1,0.2,0.2,0.3c0.2,0,0.4-0.1,0.5-0.1c0,0,0,0,0,0c0-0.1-0.1-0.3-0.1-0.3c0,0,0.3-0.2,0.3-0.2h0c0,0,0,0.1,0,0.1
					c0,0.1,0,0.1,0.1,0.2C-58.7-4.9-58.7-4.8-58.6-4.8C-58.7-4.8-58.6-4.8-58.6-4.8 M-58.2-3.7c0,0,0.1,0,0.1,0v0
					c-0.2,0.1-0.2,0.2-0.3,0.4c0,0,0,0,0,0c0-0.1,0-0.1,0-0.2c-0.1-0.1-0.2-0.2-0.3-0.3l-0.7,0.1v0c0,0.1,0,0.2,0.1,0.2h0.7
					c0,0,0,0,0,0c0,0,0,0,0,0v0c0,0.1-0.1,0.2-0.1,0.2c0,0,0,0,0,0.1l-0.5,0c0,0-0.1,0-0.1,0c0,0-0.1,0.1-0.2,0.1
					c0,0-0.1-0.2-0.1-0.2c0-0.1-0.1-0.2-0.1-0.2l0.2-0.2l-0.3-0.3c0.1-0.1,0.2-0.2,0.3-0.3c0,0.1,0.1,0.1,0.1,0.2c0,0,0,0,0.1,0.1
					l0.7-0.2c0,0,0.1,0.1,0.1,0.1C-58.4-3.9-58.3-3.8-58.2-3.7 M-58.4-2.5h0.5l-0.2,0.3c-0.1,0-0.2,0-0.2,0c0,0,0,0,0,0
					c-0.1,0-0.2,0-0.3,0.1c0,0,0-0.1,0-0.1h-0.6l-0.2,0.2h0l-0.2-0.4c0.1-0.1,0.2-0.2,0.2-0.2h0c0,0.1,0.1,0.1,0.2,0.2h0.6l0,0
					c0,0,0-0.1,0-0.2c0,0,0-0.1,0-0.1c0,0,0.1,0,0.1,0c0,0,0.1-0.1,0.2-0.1c0,0,0,0,0,0c0,0,0,0,0,0C-58.4-2.8-58.4-2.7-58.4-2.5
					C-58.4-2.6-58.4-2.5-58.4-2.5 M-59.6-1.5l-0.1-0.3l0.2-0.3h0c0,0.1,0.1,0.1,0.1,0.2c0,0,0.1,0,0.1,0c0,0,0.1,0,0.2,0
					c0,0,0,0,0,0h0.6c0,0,0.1-0.1,0.1-0.1c0,0,0.2,0.2,0.2,0.3c-0.1,0.1-0.2,0.2-0.2,0.2c0,0,0,0,0,0c0,0-0.1-0.1-0.2-0.1l-0.6,0
					c0,0-0.1,0-0.1,0c0,0,0,0-0.1,0C-59.4-1.5-59.5-1.5-59.6-1.5 M-58.8,1c-0.1,0.1-0.1,0.2-0.2,0.2c0,0-0.1,0-0.1,0l-0.7-0.2
					c0,0-0.1,0.1-0.1,0.1c0,0-0.1-0.1-0.1-0.1c0,0,0-0.3,0-0.6c0,0,0,0,0,0c0,0,0.2-0.1,0.3-0.2h0v0.5c0,0,0,0,0,0c0,0,0.1,0,0.2,0
					c0,0,0.4-0.4,0.4-0.4c0.1,0,0.1,0,0.1,0c0,0,0,0,0,0c0,0,0.3,0.2,0.3,0.2c0,0,0.2,0.1,0.2,0.2c0,0,0,0,0,0
					C-58.5,0.9-58.8,1-58.8,1 M-58.8,0.9C-58.8,0.9-58.8,0.9-58.8,0.9C-58.8,0.9-58.8,0.9-58.8,0.9C-58.8,0.9-58.7,0.9-58.8,0.9
					C-58.7,0.9-58.8,0.8-58.8,0.9C-58.8,0.8-58.8,0.8-58.8,0.9c0-0.1,0-0.1,0-0.1c0,0,0,0,0,0c0,0,0,0,0,0c-0.1-0.1-0.3-0.2-0.3-0.2
					c0,0,0,0,0,0c0,0-0.1,0.1-0.1,0.1c0,0,0,0,0,0c0,0,0.1,0,0.1,0c0,0,0,0,0,0c0,0,0,0,0,0c0,0,0.2,0.1,0.2,0.1c0,0,0,0,0,0
					c0,0,0,0,0.1,0c0,0,0,0,0,0C-58.9,0.9-58.8,0.9-58.8,0.9 M-59.5,3c0-0.1,0-0.1-0.1-0.2l-0.7-0.3c0,0,0,0-0.2,0V2.2l0.3-0.2
					c0,0,0,0,0,0v0.2l0.8,0.4c0,0,0.1,0,0.1,0c0,0.1,0.1,0.3,0.1,0.3v0C-59.3,2.9-59.4,2.9-59.5,3 M-62.1,5.3
					C-62.1,5.3-62.1,5.4-62.1,5.3c0,0.1,0,0.1,0,0.1h-0.1c0,0,0,0,0,0c-0.1,0-0.2,0-0.3,0c0-0.1,0-0.1,0-0.1c0-0.1,0-0.1,0-0.2
					c0,0,0,0,0,0c0,0,0-0.1,0-0.1c0,0,0.1,0,0.1,0c0,0,0.1,0,0.1,0c0,0,0.1,0,0.1,0c0,0,0,0,0,0v0.1C-62,5.2-62.1,5.2-62.1,5.3
					C-62.1,5.3-62.1,5.3-62.1,5.3 M-63.2,7.3c0,0.1,0,0.1,0,0.1c0,0,0,0,0,0c0,0,0,0,0,0.1c0,0,0,0.1,0,0.1h0c0,0-0.2,0-0.3-0.1
					l0.1-0.3h0.1C-63.5,7.3-63.3,7.3-63.2,7.3 M-62.8,6.3c0,0,0-0.1,0-0.1c0,0-0.2-0.1-0.2-0.2c-0.1,0.2-0.1,0.3-0.2,0.5
					c-0.1,0-0.1,0-0.2,0c0,0-0.1,0-0.1,0c0,0-0.1-0.1-0.1-0.1v0c0,0,0,0,0,0c0,0,0.1,0,0.1,0c0.1-0.2,0.2-0.3,0.2-0.5
					c0.2,0,0.4-0.1,0.4-0.1c0,0,0.2,0.2,0.3,0.2c0,0,0.1,0.1,0.1,0.1c0,0,0,0,0,0l-0.1,0.3h-0.1c0,0,0,0,0,0c0,0-0.1,0-0.1,0
					c0,0-0.1,0.1-0.1,0.1c0,0,0.2,0.3,0.3,0.3c0,0,0.1,0,0.1,0c0-0.1,0-0.2,0-0.2c0,0-0.1-0.1-0.1-0.1v0c0.1,0,0.1,0,0.2,0
					c0.1,0,0.3,0,0.4-0.1c0,0.1-0.2,0.2-0.2,0.2v0.1c0,0,0,0,0,0c0,0,0,0.2,0,0.2L-62.7,7l-0.4-0.4c0-0.1,0.1-0.2,0.2-0.3
					c0,0,0.1,0,0.1,0C-62.8,6.3-62.8,6.3-62.8,6.3 M-61.7,5.7l0.3,0c0,0,0,0,0,0c0,0,0,0.1,0,0.1c0,0,0,0,0,0c0,0.1,0,0.2,0,0.2
					c-0.1,0-0.2,0-0.3,0c0,0,0,0,0,0c0,0,0-0.2,0-0.2C-61.7,5.8-61.7,5.8-61.7,5.7C-61.7,5.7-61.7,5.7-61.7,5.7 M-60.7,4.7
					C-60.7,4.7-60.7,4.7-60.7,4.7C-60.7,4.7-60.7,4.7-60.7,4.7c-0.2-0.3-0.4-0.4-0.6-0.6c-0.1,0.1-0.2,0.1-0.2,0.1c0,0,0,0.1,0,0.1
					l0.7,0.5c0,0,0,0,0,0h0c0,0.1,0,0.2,0,0.2c0,0,0,0,0,0c0,0,0,0.1,0,0.1c-0.1,0-0.2,0-0.4,0c0,0,0-0.1,0-0.1s0-0.1,0-0.1
					c-0.2-0.2-0.5-0.4-0.7-0.5c0,0-0.1,0-0.1,0H-62v0l0.2-0.4c0,0,0,0,0-0.1c0,0,0,0,0.1,0c0,0,0,0,0,0c0,0,0.1,0,0.2,0c0,0,0,0,0,0
					c0,0,0,0,0,0c0-0.1,0-0.2,0-0.3c0,0,0,0,0,0c0.1,0,0.2,0,0.3-0.1v0c0,0,0,0,0,0.1c0,0,0,0.1,0,0.1l0.5,0.4
					c0.1,0,0.3,0.2,0.3,0.2c0,0,0,0,0,0c0,0,0,0,0,0c0,0.1,0,0.2,0,0.3c-0.1,0-0.3,0-0.3,0S-60.6,4.9-60.7,4.7
					C-60.6,4.8-60.7,4.8-60.7,4.7 M-60,3.9C-60,3.9-60,3.9-60,3.9c0,0.1,0,0.3,0,0.3c0,0,0,0.1,0,0.1l-0.3,0c0-0.1,0-0.1,0-0.1
					c0,0,0-0.1,0-0.1c0,0-0.1,0-0.1-0.1L-61,3.6c0,0-0.1,0-0.1,0c0,0-0.1,0-0.1,0V3.6c0,0,0-0.1,0-0.2c0,0,0,0,0,0c0,0,0,0,0-0.1
					c0.1,0,0.3-0.1,0.3-0.1h0v0c0,0,0,0,0,0.1c0,0,0,0.1,0,0.1c0.2,0.1,0.3,0.2,0.5,0.3c0.1,0,0.1,0.1,0.2,0.1c0,0,0.2,0,0.2-0.1
					c0,0,0,0,0,0c0,0,0-0.1,0-0.2c0,0,0-0.1,0-0.1c0,0-0.1,0-0.1,0c-0.1,0-0.1-0.1-0.2-0.1C-60.4,3.2-60.7,3-60.7,3c0,0-0.1,0-0.1,0
					c0,0,0,0,0,0c0,0,0,0,0,0V3c0,0,0-0.1,0-0.1c0-0.1,0-0.1,0-0.2c0.1-0.1,0.2-0.1,0.3-0.2h0c0,0.1,0,0.2,0,0.3
					c0.1,0,0.1,0.1,0.2,0.1c0.1,0,0.2,0.1,0.2,0.1c0.1,0,0.1,0.1,0.2,0.1c0.1,0,0.2,0,0.2,0c0,0,0,0.1,0,0.1c0,0.2,0.1,0.3,0.1,0.5
					c0,0-0.1,0-0.1,0c-0.1,0-0.1,0-0.2,0C-59.9,3.8-60,3.8-60,3.9 M-59.2,1.9C-59.2,1.9-59.2,1.8-59.2,1.9c0-0.1,0-0.2,0-0.2
					c0,0-0.1,0-0.1-0.1l-0.6-0.2c0,0,0,0-0.1,0v0.3c0.1,0,0.1,0.1,0.2,0.1L-59.2,1.9C-59.2,2-59.2,2-59.2,1.9
					c0.1,0.1,0.1,0.1,0.1,0.1c0,0.1,0.1,0.2,0.1,0.2c0,0,0,0,0,0c0,0,0,0,0,0v0c-0.1,0-0.2,0-0.3,0c0-0.1,0-0.1,0-0.2l-0.7-0.3
					c0,0-0.1,0-0.1,0c0,0,0,0,0,0V1.4c0.1,0,0.1-0.1,0.2-0.1c0.1,0,0.3-0.1,0.3-0.1c0,0,0.1,0,0.1,0l0.6,0.2c0,0,0.1-0.1,0.1-0.1
					c0,0,0,0,0,0l0.2,0.5c-0.1,0-0.2,0-0.2,0C-59.1,1.9-59.2,1.9-59.2,1.9C-59.2,1.9-59.2,1.9-59.2,1.9z M-58.3-0.4
					c-0.1,0-0.1,0.1-0.2,0.1c0,0.1,0.1,0.2,0.2,0.3l-0.3,0.2h0c0-0.1,0-0.1-0.1-0.2c-0.2,0-0.5-0.1-0.7-0.1c0,0-0.1,0.1-0.2,0.1h0
					l-0.1-0.5c0-0.1,0.1-0.1,0.2-0.1c0,0,0.1-0.1,0.1-0.1c0,0,0,0,0,0c0,0,0,0.1,0,0.1c0,0,0,0,0,0c0,0.1,0,0.1,0,0.2
					c0.1,0,0.2,0,0.3,0c0.1,0,0.2,0,0.3,0c0.1,0,0.1-0.1,0.1-0.1c-0.1-0.1-0.2-0.2-0.2-0.2c0,0,0.1-0.2,0.2-0.2l0.4,0.3
					C-58.3-0.5-58.3-0.4-58.3-0.4z M-58.1-1L-58.1-1c-0.1,0-0.1,0.1-0.2,0.1c-0.1,0.1-0.2,0.2-0.2,0.2c0,0-0.1-0.1-0.2-0.1
					c0,0-0.1,0-0.1,0c-0.1,0-0.3,0-0.5,0c-0.2,0-0.3,0-0.5,0c0,0,0,0,0,0c0,0-0.1,0.1-0.1,0.1h0c0.1-0.1,0.1-0.2,0.2-0.3l0.5,0
					c0,0,0.1,0,0.1,0c0,0,0.1,0,0.1,0c0,0,0,0,0,0c0,0,0,0,0,0c0,0,0.1,0,0.1,0c0,0,0,0,0,0c0,0,0.1,0,0.2,0c0.1,0,0.3,0.1,0.3,0.1
					c0,0,0.1-0.1,0.1-0.1c0-0.1-0.1-0.1-0.1-0.1c0,0,0,0,0,0c0.1-0.1,0.3-0.2,0.3-0.2c0,0,0.2,0.2,0.2,0.2v0
					C-57.8-1.3-58.1-1-58.1-1z M-59.9-7.6c-0.1,0-0.3-0.1-0.4-0.1v0c0,0,0,0,0-0.1c0-0.1,0-0.2,0.1-0.3c0,0,0,0,0,0
					c0.1,0,0.2,0,0.2,0.1c0,0,0.1,0,0.1,0c0,0,0,0,0,0c0,0,0,0,0.1,0v0l0,0C-59.9-7.8-59.9-7.7-59.9-7.6 M-60.7-6.7l0.5-0.3
					c0.1,0,0.2,0.1,0.3,0.2v0c0,0-0.1,0.2-0.1,0.2c0,0,0.1,0.1,0.1,0.1c0,0,0.3-0.1,0.3-0.1v-0.1c-0.1,0-0.2-0.1-0.2-0.1
					c0,0-0.1,0.1-0.2,0.1l0.1-0.6c0.1,0.1,0.1,0.2,0.2,0.2c0.1,0,0.1,0,0.2,0.1c0,0,0.1,0,0.1,0.1c0,0,0,0,0,0.1c0,0,0,0.1,0,0.1
					c0,0,0,0,0,0c0,0,0,0.1,0,0.2c0,0.1,0,0.1,0,0.2c-0.2,0.1-0.5,0.2-0.5,0.2c0,0-0.3-0.2-0.3-0.3l0.1-0.2c0,0-0.1-0.1-0.1-0.1
					l-0.2,0.1c0.1,0.1,0.4,0.3,0.4,0.3c0,0,0,0.2-0.1,0.3c0,0-0.1,0-0.1,0v-0.1c0,0,0,0,0-0.1c-0.1-0.1-0.3-0.2-0.4-0.4
					C-60.7-6.2-60.7-6.7-60.7-6.7z M-61.8-8.2l1.2-0.8c0,0,0,0,0,0c-0.1,0-0.2,0-0.2,0l0-0.2c0,0,0-0.1,0-0.1l0.4,0.1v0.1
					c0,0,0,0.1,0,0.1c0,0,0,0,0,0.1c0,0,0,0.1,0,0.1c0,0,0,0.1,0,0.2c-0.2,0.2-0.5,0.3-0.7,0.5c-0.1,0.1-0.3,0.2-0.4,0.3
					c0,0-0.1,0-0.1,0.1c0,0,0,0.1,0,0.1c0,0,0,0,0,0.1c0,0,0,0,0,0h0c0,0,0,0-0.1-0.1C-61.8-7.8-61.8-8.2-61.8-8.2z M-62.4-10.3
					c-0.2,0.2-0.3,0.3-0.5,0.5c0,0,0,0.1,0,0.1c0,0,0,0.1,0,0.1c0.1,0,0.2,0.1,0.2,0.1c0,0,0.3-0.3,0.4-0.3c0.1-0.1,0.2-0.2,0.2-0.2
					c0,0,0,0,0,0c0,0,0,0,0,0h0.4c0,0.1,0,0.2,0,0.4c0,0,0,0,0,0c0,0,0,0-0.1,0c-0.1,0-0.1,0.1-0.2,0.2c-0.1,0.1-0.3,0.2-0.4,0.4
					c0,0.1,0,0.1,0,0.2c-0.2-0.1-0.3-0.2-0.5-0.3c0-0.1,0-0.2,0-0.2c0,0,0,0,0,0c-0.1,0-0.2,0-0.2-0.1c0-0.1,0-0.2,0-0.4
					c0.1,0,0.2,0,0.2,0c0,0,0,0,0,0c0.2-0.2,0.4-0.3,0.5-0.5c0,0,0-0.1,0-0.1c0.2,0,0.3,0,0.3,0c0,0.1,0,0.3,0,0.4
					C-62.2-10.3-62.3-10.3-62.4-10.3C-62.3-10.3-62.3-10.3-62.4-10.3 M-62.9-11.6C-62.8-11.6-62.8-11.6-62.9-11.6
					C-62.8-11.6-62.8-11.7-62.9-11.6l0-0.1c0,0,0,0,0,0c0,0,0.1,0,0.1,0.1c0,0.1,0,0.2,0,0.2c0,0.1-0.1,0.1-0.2,0.1
					c-0.1,0-0.2,0-0.2,0.1c-0.1,0-0.3,0-0.3,0.1l-0.4,0.5c0,0,0.1,0,0.1,0c0.1,0,0.1,0,0.2,0.1c0,0,0,0,0,0c0,0,0,0,0,0l0.5-0.6h0.1
					v-0.2c0,0.1,0.1,0.2,0.1,0.2c0,0,0.1,0.1,0.1,0.1c0,0-0.5,0.6-0.5,0.7c0,0.1,0,0.1,0,0.2c0,0,0,0,0,0l-0.6-0.2c0,0,0,0,0,0v-0.2
					c0,0-0.2-0.4-0.2-0.4c0,0,0.3-0.4,0.5-0.6c0,0,0-0.1,0.1-0.1c0,0,0.1,0,0.1,0C-63.5-11.6-62.9-11.6-62.9-11.6z M-64.6-11.2
					l0.4-0.7l0-0.1l0.3-0.1l0.1,0.3l-0.2,0l-0.4,0.6l0,0.2l-0.3,0l-0.1-0.3C-64.8-11.2-64.6-11.2-64.6-11.2z M-65.2-11.6l0.4-0.7
					l0-0.1l0.3-0.1l0.1,0.3l-0.2,0l-0.4,0.6l0,0.2l-0.3,0l-0.1-0.3C-65.4-11.6-65.2-11.6-65.2-11.6z M-69.8-14.5
					c0.7,0,2.4,1.2,2.4,2.6v0.4c4.3,1.1,7.5,5,7.5,9.6c0,3.7-2,6.9-5,8.6V5c0.1-0.1,0.1-0.1,0.1-0.2c0-0.1-0.1-0.3-0.2-0.3
					c-0.1,0-0.2,0.1-0.2,0.3c0,0.1,0,0.2,0.1,0.2v2.1C-65.6,7.5-66,8-66.4,8.4c0,0,0,0,0,0L-67.7,7V5.6c0.1,0.1,0.1,0.2,0.1,0.2
					c0,0.1,0.2,0.3,0.2,0.3c0,0,0,0.1,0,0.2c0-0.1-0.1-0.2-0.1-0.2c-0.1,0-0.1,0.1-0.1,0.1c0,0.1,0,0.2,0.1,0.3
					c-0.1,0.1-0.2,0.1-0.2,0.2c0,0.1,0,0.2,0.1,0.2c0.1,0,0.1,0,0.1-0.1c0,0,0,0,0-0.1c0,0,0.1,0.1,0.1,0.1c0.1,0,0.1,0,0.1-0.1
					c0-0.1,0-0.2-0.2-0.2V6.4c0,0,0-0.1,0-0.2c0.1,0.2,0.4,0.3,0.4,0.5c0,0,0,0.1,0,0.1c0,0-0.1-0.1-0.1-0.1c-0.1,0-0.1,0.1-0.1,0.2
					c0,0.1,0,0.1,0.1,0.2c-0.1,0.1-0.1,0.1-0.1,0.2c0,0.1,0,0.2,0.1,0.2c0.1,0,0.1,0,0.1-0.1c0-0.1,0-0.1,0-0.1c0,0.1,0.1,0,0.1,0
					c0.1,0,0.1,0,0.1-0.1c0-0.1,0-0.1-0.1-0.2c0,0,0,0,0,0c0-0.1,0-0.1,0-0.2c0.1,0.1,0.2,0.1,0.3,0.1c0,0.1,0,0.2,0,0.2v0.2
					c0,0,0,0,0,0c0,0,0,0-0.1,0c-0.1,0-0.1,0.1-0.1,0.2c0,0.1,0,0.2,0.2,0.2c0,0.1-0.1,0.2-0.1,0.2c0,0.1,0,0.2,0.2,0.2
					c0.2,0,0.2-0.1,0.2-0.2c0-0.1,0-0.1-0.1-0.2c0.1,0,0.2-0.1,0.2-0.2c0-0.1,0-0.2-0.1-0.2c0,0,0,0-0.1,0l0-0.2c0,0,0-0.1,0-0.1
					c0.1-0.1,0.2-0.1,0.2-0.1c0,0.1,0.1,0.2,0.1,0.2c-0.1,0-0.1,0.1-0.1,0.2c0,0,0,0.1,0,0.1c0,0,0,0.1,0.1,0.1s0,0,0.1,0
					c0,0,0,0,0,0c0,0,0,0,0.1,0c0,0,0,0,0,0.1c0,0.1,0,0.1,0.1,0.1c0.1,0,0.1-0.1,0.1-0.2c0-0.1,0-0.1-0.1-0.2
					c0.1,0,0.1-0.1,0.1-0.2c0-0.1,0-0.1-0.1-0.1c0,0-0.1,0.1-0.1,0.1c0-0.1-0.1-0.2-0.1-0.2c0,0,0,0,0-0.1c0.1-0.1,0.2-0.2,0.3-0.3
					c0,0,0,0,0,0v0.1c-0.1,0.1-0.1,0.1-0.1,0.2c0,0,0,0.1,0.1,0.1c0,0,0.1,0,0.1-0.1c0,0.1,0,0.2,0.1,0.2c0.1,0,0.2-0.1,0.2-0.2
					c0-0.1-0.1-0.2-0.2-0.2c0.1-0.1,0.1-0.1,0.1-0.2c0-0.1,0-0.1-0.1-0.1c-0.1,0-0.1,0.1-0.2,0.1c0-0.1,0-0.1,0-0.1c0,0,0,0,0-0.1
					c0.1-0.2,0.2-0.3,0.3-0.4c0-0.1,0-0.1,0.1-0.2c0,0,0,0,0-0.1c0,0,0,0,0,0c-0.2,0.4-0.5,0.9-0.9,1.2c-0.1,0-0.2,0.1-0.2,0.1
					c-0.2,0-0.5-0.4-0.6-0.5c0,0,0-0.1-0.1-0.1c-0.1-0.2-0.3-0.5-0.4-0.8c0-0.1-0.1-0.2-0.1-0.2c0,0,0,0,0,0c0,0,0,0,0,0
					c0,0,0.1-0.1,0.1-0.2c0-0.1-0.1-0.3-0.3-0.3c-0.1,0-0.2,0.1-0.2,0.3c0,0,0,0,0,0.1c0,0,0,0.1,0,0.1c0,0-0.1,0.3-0.2,0.4
					c-0.1,0.2-0.2,0.5-0.4,0.7c-0.1,0.2-0.3,0.4-0.4,0.6c-0.1,0.1-0.3,0.3-0.4,0.4c-0.1,0.1-0.4,0.3-0.5,0.3c-0.1,0-0.2-0.1-0.2-0.1
					c-0.2-0.1-0.5-0.4-0.7-0.6c-0.1-0.1-0.2-0.2-0.3-0.3c-0.1-0.1-0.1-0.2-0.1-0.2c0-0.1-0.1-0.1-0.1-0.2c-0.1-0.1-0.2-0.3-0.2-0.5
					c-0.1-0.1-0.2-0.4-0.2-0.5c0,0,0-0.1,0-0.1c0-0.1-0.1-0.3-0.2-0.3c-0.1,0-0.2,0.1-0.2,0.3c0,0.1,0,0.2,0.1,0.2v2l-1.3,1.4
					c-0.1,0-0.2-0.2-0.3-0.3c-0.3-0.3-0.9-1-0.9-1V5.5c0,0.1,0.1,0.3,0.2,0.4c0,0,0,0,0.1,0.1c0,0.1,0.1,0.1,0.1,0.1
					c0,0,0,0.1,0,0.2c0-0.1-0.1-0.2-0.1-0.2c-0.1,0-0.1,0.1-0.1,0.1c0,0.1,0,0.2,0.1,0.3c-0.1,0.1-0.2,0.1-0.2,0.2
					c0,0.1,0,0.2,0.1,0.2c0.1,0,0.1-0.1,0.1-0.1c0,0,0,0,0-0.1c0.1,0.1,0.1,0.1,0.1,0.1c0.1,0,0.1,0,0.1-0.1c0-0.1,0-0.2-0.2-0.2
					V6.4c0,0,0-0.1,0-0.2c0.1,0.1,0.3,0.3,0.3,0.4c0,0,0,0.1,0,0.1s0,0.1,0,0.1c0,0-0.1-0.1-0.1-0.1c-0.1,0-0.1,0.1-0.1,0.1
					c0,0.1,0,0.1,0.1,0.2c-0.1,0.1-0.1,0.1-0.1,0.2c0,0.1,0,0.2,0.1,0.2c0.1,0,0.1,0,0.1-0.1c0-0.1,0-0.1,0-0.1c0,0,0,0,0.1,0
					c0.1,0,0.2,0,0.2-0.1c0-0.1,0-0.1-0.1-0.2c0,0,0,0,0,0c0-0.1,0-0.1,0-0.2c0.1,0.1,0.2,0.1,0.3,0.1c0,0.1,0,0.2,0,0.2v0.2
					c0,0,0,0,0,0c0,0,0,0-0.1,0c-0.1,0-0.1,0.1-0.1,0.2c0,0.1,0,0.2,0.2,0.2c0,0.1-0.1,0.1-0.1,0.2c0,0.1,0,0.2,0.2,0.2
					c0.2,0,0.2-0.1,0.2-0.2c0,0,0-0.1,0-0.1c0,0,0-0.1,0-0.1c0.1,0,0.2-0.1,0.2-0.2c0-0.1,0-0.2-0.1-0.2c0,0,0,0-0.1,0l0-0.2
					c0,0,0-0.1,0-0.1c0.1,0,0.2-0.1,0.2-0.1c0,0.1,0.1,0.2,0.1,0.2c-0.1,0.1-0.1,0.1-0.1,0.2c0,0.1,0,0.1,0.1,0.1c0,0,0,0,0,0
					c0,0,0,0,0.1,0c0,0,0,0,0,0.1c0,0.1,0.1,0.1,0.1,0.1c0.1,0,0.1-0.1,0.1-0.2c0,0,0-0.1,0-0.1c0,0-0.1-0.1-0.1-0.1
					c0.1,0,0.1-0.1,0.1-0.2c0-0.1,0-0.1-0.1-0.1c0,0-0.1,0.1-0.1,0.1c0-0.1-0.1-0.2-0.1-0.2c0,0,0,0,0-0.1c0.1-0.1,0.2-0.2,0.3-0.3
					c0,0,0,0,0,0v0.1c-0.1,0.1-0.1,0.1-0.1,0.2c0,0,0,0.1,0.1,0.1c0,0,0.1,0,0.1-0.1v0.1c0,0.1,0.1,0.1,0.1,0.1
					c0.1,0,0.2-0.1,0.2-0.2c0-0.1-0.1-0.2-0.2-0.2c0.1-0.1,0.1-0.1,0.1-0.2c0-0.1,0-0.1-0.1-0.1c-0.1,0-0.1,0.1-0.2,0.1
					c0-0.1,0-0.1,0-0.1c0,0,0,0,0-0.1c0.1-0.1,0.2-0.3,0.3-0.4c0-0.1,0-0.1,0.1-0.2c0,0,0,0,0-0.1c0,0,0,0,0,0
					c0,0.1-0.1,0.2-0.1,0.3c-0.1,0.1-0.2,0.2-0.2,0.3c-0.1,0.1-0.6,0.7-0.8,0.7c-0.2,0-0.7-0.7-0.8-0.7c-0.1-0.2-0.3-0.5-0.4-0.8
					c0,0,0-0.1,0-0.1c0,0,0.1-0.1,0.1-0.2c0-0.1-0.1-0.3-0.2-0.3c-0.1,0-0.2,0.1-0.2,0.3C-75.1,4.8-75,5-75,5v1.6
					c-2.8-1.7-4.7-4.9-4.7-8.5c0-4.7,3.2-8.6,7.5-9.6v-0.4C-72.2-13.3-70.5-14.5-69.8-14.5 M-76.8-8.1h4v-2.6
					C-74.3-10.3-75.7-9.3-76.8-8.1 M-76.4-6.3c0-0.1,0,0,0-0.2L-77-6.4c0,0,0,0,0,0.1c0,0,0,0.1,0,0.1c0,0,0.1,0,0.1,0h0.1
					c0,0,0.1,0,0.1,0c0,0,0.1,0,0.1,0C-76.5-6.3-76.4-6.3-76.4-6.3 M-76.5-6.2c-0.1,0-0.1,0.1-0.1,0.1c0,0,0,0.1,0.1,0.2
					C-76.5-6-76.4-6.1-76.5-6.2C-76.4-6.2-76.5-6.2-76.5-6.2 M-77.6-7.2c0,0.1,0,0.1,0.1,0.2c0.1,0.2,0.1,0.4,0.1,0.6
					c0,0.1,0,0.2,0,0.2c0,0,0,0,0,0v0.2c0,0,0,0,0,0.1c0,0.1,0,0.3-0.1,0.4c0,0.1,0,0.1,0,0.1c0,0.1,0.1,0.4,0.2,0.5
					c0.1,0.1,0.1,0.2,0.2,0.4c0,0,0,0.1,0,0.2c0,0.1,0,0.1,0,0.1c0,0.1,0,0.2-0.1,0.3c-0.1,0.3-0.1,1-0.1,1v0.1c0,0,0,0.2,0,0.2
					c0,0.1,0,0.1,0,0.1c0.1,0,0.1,0,0.2,0c0,0,0,0,0,0c0,0,0.3-0.2,0.4-0.3c0,0,0.1,0,0.1,0c0.2,0,0.4,0.1,0.6,0.2c0,0,0,0,0-0.1
					c0.1-0.2,0.2-0.5,0.3-0.7c0-0.1,0-0.2,0-0.2c0-0.2,0.1-0.3,0.1-0.5c0,0,0-0.1,0-0.1c0-0.1-0.1-0.2-0.1-0.3
					c0-0.1-0.1-0.3-0.1-0.4l-0.2-1c0-0.1,0-0.4,0-0.6c0,0,0-0.1,0-0.1v-0.1c0-0.2,0.4-0.4,0.5-0.5c0,0,0,0,0,0
					c0.1-0.1,0.2-0.1,0.3-0.1c0.1,0,0.1,0,0.2-0.1c0,0-0.1,0-0.2,0l-0.7,0.1c-0.1,0-0.2,0-0.2-0.1c0,0-0.2-0.1-0.2-0.1
					c0,0,0,0-0.1,0c-0.1,0-0.1,0.2-0.1,0.2c0,0,0,0.1,0,0.2c0,0.1,0.1,0.4,0.1,0.4v0.3c0,0,0,0.3-0.1,0.4c0,0.1-0.1,0.2-0.1,0.2
					c0,0.1,0,0.1,0,0.2c0,0.1,0,0.1,0,0.2c0,0.3,0.1,0.6,0.2,0.9c0,0.1,0,0.1,0,0.2c0,0,0,0.1,0,0.1s0,0,0,0.1
					c0,0.1-0.1,0.2-0.1,0.3c-0.1,0.2-0.3,0.3-0.4,0.4C-76.9-3.4-77-3.3-77-3.1c0,0,0,0.1,0,0.2c0,0,0,0.1-0.1,0.1c0,0,0,0,0,0
					c0,0,0,0,0,0c0-0.1,0-0.2,0-0.3c0.1-0.2,0.4-0.5,0.6-0.8c0,0,0.1-0.2,0.1-0.3c0,0,0-0.1,0-0.2c-0.1-0.2-0.2-0.3-0.2-0.5
					c-0.1-0.1-0.1-0.3-0.2-0.4C-76.9-5.6-77-5.8-77-6c0-0.1,0-0.2,0-0.3c0-0.2-0.1-0.5-0.1-0.5c0,0,0-0.1,0-0.1C-77-6.9-77-7-76.9-7
					c0.1-0.1,0.2-0.2,0.2-0.2c0.1,0,0.2,0,0.2-0.1c0,0,0-0.1,0-0.1c0,0-0.1,0-0.1,0c-0.1,0-0.2,0.1-0.3,0.1c-0.1,0-0.2,0.1-0.3,0.1
					c0,0-0.1,0-0.1,0h-0.2C-77.4-7.3-77.6-7.3-77.6-7.2C-77.6-7.3-77.6-7.2-77.6-7.2 M-75.5-5.4c0-0.1,0.1-0.2,0.1-0.3
					c0,0,0,0,0-0.1c0,0-0.1-0.1-0.1-0.1c0,0-0.1,0.1-0.1,0.1v0.1C-75.6-5.6-75.5-5.4-75.5-5.4 M-76.2,1.9v0.3c0,0.1,0.1,0.2,0.1,0.2
					c0.2,0.2,0.2,0.2,0.4,0.2c0.1,0,0.1,0,0.2,0c0.1,0,0.1,0,0.2-0.1c0,0,0,0,0-0.1c0,0-0.1-0.1-0.1-0.2c0,0,0,0,0,0h0
					c0,0-0.1,0-0.1,0c0,0-0.1,0-0.1-0.1c0,0,0,0,0.1,0c0-0.1,0-0.1,0.1-0.1V1.9c0,0,0-0.1,0-0.1c0,0-0.1-0.1-0.1-0.1
					c0,0-0.1-0.1-0.1-0.1c0,0-0.1-0.1-0.1-0.1c0,0,0,0,0,0C-76,1.5-76.1,1.6-76.2,1.9C-76.1,1.8-76.1,1.8-76.2,1.9
					c0-0.1,0-0.1,0-0.1c0,0,0,0,0-0.1c0,0,0-0.1,0.1-0.1c0,0,0.1-0.2,0.2-0.2h0.1v0c0,0,0-0.1,0-0.1c0,0-0.1,0-0.2,0
					c-0.2,0-0.2,0.1-0.4,0.1c-0.1,0-0.1,0.1-0.1,0.1c0,0.1,0,0,0.1,0.1C-76.2,1.6-76.2,1.8-76.2,1.9 M-76.4,1.3c0,0,0.3-0.2,0.3-0.2
					h0.1c0.1,0,0.2,0.1,0.2,0.1c0.1,0,0.1-0.1,0.1-0.1c0,0-0.1,0-0.1-0.1c0,0-0.1,0-0.1,0c0,0-0.1,0-0.2,0c-0.1,0-0.3,0.1-0.4,0.1
					c-0.1,0-0.2,0.1-0.3,0.2c0,0,0,0-0.1,0l0.1,0c0,0,0-0.1,0.1-0.1C-76.5,1.4-76.5,1.4-76.4,1.3 M-75.3,0.8
					C-75.3,0.8-75.3,0.7-75.3,0.8l0-0.5l0-0.2V0l0-0.3v-0.1c0,0,0-0.1,0-0.2c-0.1,0-0.3,0.2-0.3,0.3c0,0.2,0.1,0.1,0.1,0.4
					c0,0.1-0.1,0.5-0.1,0.5c0,0,0,0,0,0c0,0,0,0,0-0.1c0-0.2,0-0.1,0-0.3c0-0.2,0-0.3-0.1-0.4c0,0-0.1,0-0.1,0.1
					c-0.1,0.2-0.2,0.3-0.4,0.5c0,0-0.1,0.1-0.1,0.1c-0.1,0.2-0.3,0.4-0.4,0.6c0.2-0.1,0.4-0.2,0.6-0.2c0.1,0,0.2,0,0.2,0.1
					C-75.5,1-75.4,0.9-75.3,0.8 M-75.1-0.7C-75.1-0.7-75.2-0.7-75.1-0.7c-0.1,0-0.2,0-0.2,0.1c-0.3,0.3-0.6,0.6-0.7,0.9
					c-0.1,0.1-0.2,0.3-0.2,0.4c0.1-0.1,0.1-0.2,0.2-0.3c0.1-0.2,0.2-0.3,0.4-0.5c0.1-0.1,0.3-0.3,0.4-0.4
					C-75.2-0.6-75.2-0.6-75.1-0.7 M-75.4-0.7c0,0-0.1-0.1-0.1-0.1c0,0-0.1-0.1-0.1-0.2c-0.1,0-0.1,0.1-0.1,0.2c0,0.1,0,0.3,0.1,0.3
					C-75.5-0.6-75.4-0.6-75.4-0.7 M-76.6-1.1c0-0.1,0.1-0.1,0.1-0.1l0.4,0c0.1,0,0.1,0,0.2-0.1c0.1,0,0.1-0.1,0.1-0.2
					c0,0,0.2-0.5,0.2-0.6v0c0,0-0.1,0-0.1,0l-0.3,0c-0.2,0-0.3,0.2-0.5,0.2c-0.2,0-0.4-0.1-0.5-0.1c0,0,0,0-0.1,0
					c0,0.2-0.3,0.2-0.4,0.3c0,0.2,0.1,0.4,0.3,0.5c0,0,0,0.1,0.1,0.1c0,0.1,0.1,0.1,0.1,0.2c0,0.1-0.1,0.1-0.1,0.2
					c0,0,0.1,0.1,0.1,0.1c-0.1-0.2,0.5-0.2,0.6-0.2c0.2,0,0.5,0,0.6,0.1c0,0,0,0,0,0v-0.1C-75.8-1-75.9-1-76-1L-76.6-1.1
					C-76.6-1-76.6-1.1-76.6-1.1 M-77.4-1c0-0.1,0.1-0.2,0.1-0.2c0-0.1-0.1-0.2-0.1-0.2c-0.1,0-0.1,0.1-0.1,0.1
					C-77.5-1.2-77.4-1.1-77.4-1 M-77.6-0.6c0,0-0.1,0.1-0.1,0.1c0,0.1,0.1,0.2,0.1,0.2c0-0.1,0.1-0.1,0.1-0.2
					C-77.5-0.5-77.5-0.6-77.6-0.6 M-76.8-2.1C-76.6-2-76.7-2-76.6-2c0.1,0,0.2,0,0.2-0.1c0,0,0.1,0,0.2,0c0,0,0.1,0,0.1,0
					c0,0,0.1,0,0.1,0c0,0,0.2,0,0.2,0c0,0,0.1,0,0.1-0.1c0,0-0.1-0.1-0.1-0.1c-0.2-0.1-0.3-0.2-0.5-0.3c-0.1,0-0.1-0.1-0.2-0.1
					c0,0-0.1,0-0.1,0c0,0,0,0-0.1,0c-0.3,0.1-0.6,0.4-0.7,0.6c0,0,0,0,0,0v0h0.1c0,0,0.2-0.1,0.2-0.1C-77-2.2-76.9-2.1-76.8-2.1
					 M-77.6-4c0,0,0.1,0.1,0.1,0.2c0,0,0,0.1,0,0.1c0,0,0-0.1,0-0.1c0-0.1,0-0.2,0-0.2c0-0.1,0-0.1-0.1-0.1c0,0,0,0,0,0
					C-77.5-4.1-77.5-4.1-77.6-4C-77.6-4.1-77.6-4-77.6-4 M-77.5-5.8c0-0.1,0-0.1,0-0.2c0,0,0,0-0.1,0c-0.1,0-0.1,0.1-0.1,0.1
					c0,0.1,0.1,0.3,0.1,0.4C-77.6-5.6-77.5-5.7-77.5-5.8 M-74.7,3C-74.7,3-74.7,3-74.7,3c-0.2-0.1-0.4-0.2-0.4-0.4
					c0,0,0-0.1-0.1-0.1c0,0,0,0,0,0.1c-0.2,0.1-0.3,0.2-0.6,0.2c-0.1,0-0.3-0.1-0.4-0.2c-0.1-0.1-0.1-0.2-0.2-0.3c0,0,0-0.1,0-0.1
					c0,0,0,0,0,0V2c0-0.1-0.6-0.2-0.6-0.4c0-0.1,0.2-0.1,0.3-0.1c0,0,0,0,0,0c0.1-0.1,0.2-0.3,0.3-0.4c0,0,0,0,0,0
					c0.1-0.3,0.3-0.6,0.5-0.8c0-0.1,0.1-0.1,0.1-0.2c0.1-0.1,0.3-0.4,0.3-0.4c0,0,0-0.1,0-0.1c0-0.1,0-0.2-0.1-0.2c0,0-0.1,0-0.1,0
					c-0.1,0-0.2,0-0.3-0.1l-0.3,0c-0.1,0-0.3,0-0.4,0.1c0,0,0,0.1,0,0.1c0,0.1,0,0.2-0.1,0.2c0,0.1-0.1,0.2-0.1,0.2
					c0,0-0.1,0.1-0.1,0.1c0,0,0,0.1,0.1,0.1c0.1,0.1,0.1,0.2,0.2,0.2c0,0,0,0,0.1,0c0,0,0,0,0,0c0,0,0,0,0,0c0,0,0,0,0,0
					c0,0,0,0-0.1,0c-0.1,0-0.3-0.3-0.4-0.3c-0.2-0.2-0.4-0.4-0.6-0.6c0,0,0,0,0-0.1c0,0,0,0,0,0c0-0.1,0.1-0.5,0.1-0.5
					c0-0.1,0-0.1,0-0.2c0-0.1,0-0.2,0-0.3c0-0.1,0.1-0.2,0.1-0.2c0,0,0,0-0.1-0.1c0,0-0.1-0.1-0.1-0.1l0,0c0,0,0.1,0,0.1,0
					c0,0,0.2,0,0.2,0c0,0,0.1,0,0.1,0c0.1,0,0.1,0,0.2-0.1v0h-0.1c0,0-0.1,0-0.1,0c0,0-0.1,0-0.1-0.1c0-0.1,0.3-0.4,0.3-0.4
					c0,0,0,0-0.1,0s-0.1,0-0.2,0c-0.1,0.1-0.2,0.2-0.2,0.2c-0.1,0.1-0.1,0.1-0.2,0.1C-77.9-2-77.9-2-78-1.9
					c-0.1,0.2-0.2,0.5-0.3,0.7c0,0,0,0,0,0.1c0,0,0,0.1,0,0.1c0,0.1-0.1,0.4-0.1,0.4v0.2c0,0,0,0,0,0v0.2c0,0,0,0,0,0
					c0,0.1,0.1,0.2,0.2,0.3c0.2,0.2,0.3,0.4,0.5,0.5c0.1,0.1,0.3,0.2,0.5,0.3C-77.1,0.9-77,1-76.9,1c0,0,0.1,0,0.1,0
					c0,0,0.1,0,0.1,0c0,0.1-0.1,0.1-0.2,0.1c0,0-0.1,0-0.1,0C-77,1.1-77.1,1-77.2,1c0,0-0.1-0.1-0.1-0.1c-0.4-0.2-0.7-0.6-1.1-1
					c0,0,0,0,0-0.1c0,0,0-0.2,0-0.2v-0.1c0-0.1,0.1-0.3,0.1-0.4c0-0.2,0-0.4,0.1-0.5c0-0.1,0.1-0.2,0.1-0.3c0-0.1,0-0.2,0.1-0.2
					c0-0.1,0.1-0.3,0.2-0.4c0,0,0-0.1,0-0.1c0-0.1-0.1-0.2-0.2-0.3c0,0-0.1,0-0.1,0c-0.1,0-0.1-0.1-0.2-0.1
					c-0.1-0.1-0.1-0.2-0.1-0.3c0,0,0-0.1,0-0.2c0-0.1,0.1-0.2,0.2-0.3c0,0,0,0,0.1,0c0,0,0.1-0.1,0.1-0.1c0.1,0,0.3,0,0.4-0.1
					c0.1,0,0.1-0.1,0.1-0.2c0-0.2-0.3-0.5-0.3-0.6c-0.1-0.1-0.3-0.2-0.3-0.3c-0.1-0.1-0.1-0.3-0.1-0.4c0-0.1,0-0.2,0.1-0.3
					c0,0,0-0.1,0.1-0.1c0.1-0.1,0.2-0.2,0.3-0.3c0.1,0,0.3-0.1,0.3-0.1h0.1c0,0,0,0,0,0c0,0,0-0.1,0-0.1c0,0,0,0-0.1,0
					c-0.2,0-0.8,0.2-0.8,0.4c0,0-0.1,0.1-0.1,0.1c0,0.1-0.1,0.3-0.1,0.4c0,0,0,0.1,0,0.2c0,0.1,0,0.2,0.1,0.4c0,0,0,0.1,0,0.1
					c0,0,0.1,0.3,0.1,0.4c0,0,0,0.2,0,0.3c0,0,0.1,0,0.1,0c0.2,0,0.2-0.1,0.2-0.2c0-0.2-0.1-0.3-0.2-0.5c0.1,0.1,0.3,0.4,0.3,0.5
					c0,0,0,0,0,0.1c0,0.1-0.2,0.2-0.3,0.2c-0.1,0-0.2,0-0.3-0.1c0,0,0,0-0.1,0c0,0-0.1,0-0.1,0c0,0,0,0-0.1,0c0,0-0.1,0.1-0.1,0.2
					c0,0.2,0.1,0.4,0.1,0.6c0,0.1,0.1,0.3,0.1,0.4c0,0.1,0,0.3,0,0.3c0,0.3,0,0,0,0.6l0,1.5c0,0,0,0.2,0.1,0.3
					c0,0.1,0.1,0.2,0.2,0.2c0.1,0,0.2,0.1,0.2,0.1c0.1,0.1,0.1,0.2,0.2,0.3c0,0.1,0.1,0.3,0.2,0.4c0.1,0.1,0.2,0.2,0.3,0.2
					c0.1,0.1,0.2,0.2,0.4,0.2c0,0,0,0,0,0.1c0,0,0,0.1,0,0.1c0,0.1,0,0.1,0.1,0.2c0,0,0,0.1,0,0.1c0,0.1,0.1,0.2,0.3,0.3
					c0,0,0.3,0.1,0.3,0.2v0.1c0,0,0,0,0,0c0,0.2,0.2,0.5,0.4,0.5c0,0,0,0,0,0v0.1c0,0,0,0.2-0.1,0.3c0,0.1-0.1,0.2-0.1,0.3h0.1
					c0.1,0,0.2-0.2,0.2-0.2c0,0,0.1-0.1,0.1-0.1c0,0-0.1-0.1-0.1-0.2c0,0,0-0.1,0.1-0.1c0,0,0.1,0,0.1,0c0.1,0,0.2,0.1,0.2,0.2
					c0,0-0.1,0.2-0.1,0.2c0,0,0.2,0.2,0.2,0.3c0,0,0,0,0,0c0,0,0,0,0,0c0,0,0-0.1,0.1-0.2c0-0.1,0.1-0.2,0.1-0.2
					c0,0-0.2-0.1-0.2-0.2c0-0.1,0-0.2,0.1-0.2c0.1,0,0.1,0,0.2,0.1c0,0.1,0,0.1,0.1,0.2c0.1,0,0.2,0,0.2,0C-75,3-74.7,3-74.7,3
					C-74.7,3-74.7,3-74.7,3 M-77.8-5.1C-77.8-5.1-77.9-5-77.8-5.1C-77.9-5-77.9-5-77.9-4.9c0,0.1,0,0.1,0.1,0.2c0,0,0,0.1,0.1,0.1
					c0-0.1,0.1-0.2,0.1-0.3c0-0.1,0-0.1,0-0.1C-77.7-5-77.8-5.1-77.8-5.1 M-78.1-5.7c-0.1,0-0.1,0.1-0.1,0.1c0,0.1,0.1,0.2,0.1,0.3
					c0.1,0,0.1-0.2,0.1-0.3C-78-5.6-78-5.7-78.1-5.7 M-77.9-3.5c-0.1,0-0.1,0.1-0.1,0.1c0,0,0,0.1,0,0.1c0,0,0,0.1,0,0.1
					c0,0,0,0.1,0,0.1c0-0.1,0.1-0.3,0.1-0.4C-77.8-3.4-77.8-3.5-77.9-3.5 M-74.2-0.8c0-0.2-0.4-0.2-0.4-0.2l-0.5,0l0.1-0.5v-0.1
					c0,0,0-0.2,0-0.2v-0.1l0.1-1.3l0-0.7c0,0,0,0,0,0v-0.9c0,0,0,0,0,0v-0.7c0-0.1-0.1-0.3-0.1-0.3c0,0,0-0.1-0.1-0.1
					c-0.1-0.2-0.3-0.4-0.5-0.4c0,0,0,0-0.1,0c-0.1,0-0.2,0-0.2,0h0c0,0.1,0,0.1,0,0.2c0,0,0.1,0,0.1,0c0.2,0,0.7,0.5,0.7,0.7
					c0,0.1,0,0.3-0.2,0.4c-0.2,0.2-0.3,0.3-0.3,0.5c0,0.1,0,0.1,0.2,0.2C-75.1-4.3-75-4.2-75-4c0,0,0,0,0,0.1c0,0.2-0.3,0.3-0.4,0.3
					c0,0-0.1,0.1-0.1,0.1c0,0,0.1,0.1,0.1,0.2c0,0.2,0.1,0.2,0.1,0.3c0,0,0,0.2,0,0.2v0.6l0,0.6L-75.5-1c0,0.1,0,0.1,0.1,0.2
					c0.1,0,0.2,0,0.2,0c0.1,0,0.3,0.2,0.3,0.3v0.5c0,0.1-0.1,0.1-0.1,0.2c0,0,0,0,0,0c0,0,0,0,0,0c0,0,0,0,0,0c0,0,0,0,0,0
					c0,0,0,0,0,0c0,0,0,0,0,0v0.6c0,0,0,0,0,0h0c0,0,0,0,0,0V0.3c0,0-0.1-0.1-0.1-0.1c0,0,0,0-0.1,0h0V1c0,0,0,0.2,0.1,0.2
					c0,0,0,0,0.1,0c0,0,0.1,0,0.1,0c0.1,0,0.1,0,0.1,0c0,0,0.2,0,0.2,0.1c0,0,0,0,0,0c0,0-0.1,0-0.1,0c0,0-0.2,0-0.2,0.1
					c0,0,0.1,0.1,0.1,0.3c0,0,0,0.1,0,0.1c0,0,0,0,0,0c0,0,0-0.1-0.1-0.2c0,0-0.1-0.1-0.1-0.1c0,0,0,0,0,0v0
					c0.1,0.1,0.1,0.2,0.2,0.2v0.2c0,0,0,0,0,0C-75,1.8-75,1.9-75,1.9c0,0.1,0.1,0.2,0.2,0.2c0,0,0.1,0,0.1,0c0,0,0,0-0.1,0
					C-74.8,2.2-75,2.1-75,2c0-0.1,0.1-0.1,0.2-0.1c0,0,0.1,0,0.1,0.1c0,0-0.1,0-0.1,0.1c0,0.1,0.1,0.1,0.1,0.1
					c0.1,0,0.1-0.1,0.1-0.1c0-0.1-0.1-0.1-0.1-0.2c0,0,0-0.1,0-0.1c0,0,0-0.1,0-0.1c0-0.1,0.1-0.2,0.1-0.3c0,0,0.1-0.1,0.1-0.1
					c0,0,0.1-0.1,0.1-0.1v-1c0,0,0,0,0,0c-0.1,0-0.1,0.1-0.1,0.1c0,0.4,0,0.4,0,0.4c0,0,0,0,0,0c0,0,0,0,0,0.1c0,0,0,0.1,0,0.1
					c0,0,0,0.1-0.1,0.1c0,0-0.1,0-0.1-0.1c0,0,0-0.1,0-0.1V0.1c0-0.1-0.1-0.1-0.1-0.2v-0.4c0-0.1,0-0.1,0.1-0.2c0,0-0.1,0.1-0.1,0.1
					l0-0.1c0-0.1,0.1-0.2,0.2-0.3c0,0,0,0,0,0c0,0,0,0,0.1,0C-74.4-0.9-74.3-0.9-74.2-0.8c-0.1,0-0.1,0.1-0.2,0.1c0,0,0,0,0,0
					c0,0,0,0,0,0c-0.1,0-0.1,0.1-0.2,0.1c0-0.1,0.1-0.1,0.2-0.1c0,0,0,0,0,0C-74.4-0.8-74.2-0.8-74.2-0.8 M-72.9,0.9
					C-72.8,1-72.7,1-72.5,1c0,0,0.1,0.1,0.2,0.1s0.1,0,0.1-0.1C-72.2,1-72.1,1-72,1c0.2,0,0.4,0.2,0.6,0.2c0,0,0,0,0,0v0
					c0,0,0,0,0-0.1c-0.1-0.1-0.2-0.2-0.4-0.2c0,0-0.2,0-0.2,0.1c0,0,0,0.1-0.1,0.1c0,0-0.1,0-0.1-0.1c0-0.1,0.1-0.1,0.1-0.1
					c0,0,0,0,0.1,0c0,0,0.1,0,0.1,0c0.2,0,0.6,0.2,0.6,0.4c0,0.1,0,0.1-0.1,0.1c-0.1,0-0.5-0.2-0.6-0.2c0,0,0,0-0.1,0
					c-0.1,0-0.2,0.1-0.2,0.2c0,0,0,0.1,0.1,0.1c0,0,0.2-0.1,0.2-0.1c0.1,0,0.1,0,0.2,0c0,0,0.1,0,0.2,0c0,0,0,0,0.1,0
					c0.1,0.1,0.2,0.1,0.2,0.1c0,0,0.1,0,0.1,0c0,0,0.1-0.1,0.2-0.2c0,0,0.1,0,0.2,0c0,0,0.1,0,0.2,0c0,0,0.1,0.1,0.1,0.1
					c0,0,0-0.1,0-0.1c0,0,0,0,0-0.1c0-0.1-0.1-0.2-0.2-0.3c0,0,0,0,0,0c0,0,0.2,0.1,0.2,0.1c0,0.1,0.1,0.1,0.1,0.2
					c0,0-0.1,0.1-0.1,0.2c0,0,0,0,0,0.1c0,0.1,0.1,0.2,0.2,0.2c0.1,0.1,0.1,0.1,0.2,0.2c0,0,0.1,0,0.1,0c0-0.1-0.1-0.3-0.1-0.3
					c0,0,0-0.1,0-0.3l0-0.8c0-0.2,0-0.3-0.1-0.5c0-0.1,0-0.2-0.1-0.2c0,0,0-0.1,0-0.1c-0.1-0.2-0.3-0.3-0.4-0.3
					c0.2,0.2,0.3,0.4,0.3,0.6h0c0,0,0,0,0,0s0,0,0,0c-0.1,0-0.1-0.3-0.1-0.3c0-0.1-0.1-0.2-0.2-0.2c0,0,0,0,0,0h0c0,0.1,0,0.2,0,0.2
					c0,0.3,0,0.4,0,0.4c0,0,0,0,0,0c0,0-0.1-0.2-0.1-0.2c0-0.1,0-0.2,0-0.3c0-0.3,0.2-0.5,0.3-0.8c0-0.1,0.2-0.5,0.2-0.7
					c0,0,0-0.1,0-0.1c0,0,0-0.1,0-0.2c0,0,0-0.1,0-0.1l0.1-1.3l0.1-0.7V-5c0,0,0-0.1,0-0.2c0,0,0,0,0-0.3l0-0.4c-0.1,0-0.2,0-0.2,0
					c0,0-0.1,0-0.1,0c0,0-0.1-0.1-0.1-0.1c0,0,0-0.1,0-0.1c-0.1,0-0.1,0-0.2,0c-0.1,0-0.2-0.1-0.2-0.3c0-0.1-0.1-0.2-0.2-0.2
					c0,0-0.1,0.1-0.2,0.1c-0.1,0-0.2-0.1-0.2-0.1c0,0,0,0,0,0l0.1,0.6c0,0.2,0,0.4,0,0.4v0.7c0,0.1,0,0.3,0,0.4c0,0,0,0,0,0.1
					c0,0.3-0.1,0.7-0.2,1c0,0,0,0,0,0c0,0,0,0,0,0c0-0.2,0.1-0.4,0.1-0.6v-0.1l0-0.4v-1l0-0.6c0,0,0-0.1,0-0.2
					c0-0.1-0.1-0.2-0.1-0.4c0,0-0.1,0-0.1-0.1c0,0-0.2-0.1-0.2-0.1c0,0-0.1,0-0.1,0.1c0,0,0,0,0,0c0,0,0,0,0,0c0,0.1,0,0.2,0.1,0.3
					l0.1,0.7v1.1l-0.2,1.7c0,0.1,0,0.2,0,0.2c0,0,0,0.1,0,0.1c0,0,0,0,0,0h0c0-0.4,0-0.4,0-0.4c0.1-0.5,0-0.3,0.1-1.1l0-0.2l0-0.5
					v-0.7l0-0.7c0,0,0,0,0,0v-0.2c0-0.1,0-0.3,0-0.4c0,0,0-0.1,0-0.1s-0.1,0-0.1,0c0,0-0.1,0-0.1,0c0-0.1-0.1-0.1-0.1-0.2
					c0,0,0-0.2,0-0.3c0,0,0-0.1-0.1-0.1H-73c0,0-0.1,0-0.1,0c0,0-0.1,0-0.1,0c0,0-0.1,0-0.1-0.1c-0.1-0.1-0.3-0.3-0.3-0.3H-74
					c0,0-0.1,0-0.1,0c0,0,0,0.1,0,0.1c0.2,0.1,0.4,0.1,0.6,0.3c0.1,0.1,0.2,0.3,0.4,0.4c0,0,0,0,0,0s0,0.2,0,0.2c0,0-0.1,0-0.1,0
					c0,0-0.1,0-0.1,0c0,0-0.1,0-0.1,0.1c0,0,0,0.3,0.1,0.4c0,0,0,0.1,0,0.1c0,0,0,0,0,0.1c0,0,0,0,0,0.1c0,0,0,0.1,0,0.1
					c0,0.1,0,0.1,0,0.2l0,1.3l0,0.4c0,0,0,0.1,0,0.1c0,0.1,0.1,0.2,0.1,0.2c0,0.1,0,0.1,0.1,0.2c0,0.1,0.1,0.4,0.1,0.4
					c0,0,0.1,0.2,0.1,0.2c0,0.2,0.1,0.3,0.1,0.5c0,0,0.1,0,0.1,0c0,0,0.1,0.1,0.1,0.1c0,0.1-0.1,0.1-0.1,0.1c0,0,0,0.1,0,0.1
					c0,0.1,0,0.2,0,0.3c0,0.1,0,0.1,0,0.2v0.2c0,0,0,0,0,0c0,0,0,0,0,0v0.1c0,0.1,0,0.2,0,0.3c0,0,0.1,0,0.1,0.1c0,0,0,0,0,0
					c0,0-0.1,0.1-0.2,0.3c0,0.1,0,0.1,0,0.1s0,0.1,0,0.1c0.1,0,0.2,0.1,0.2,0.2c0,0.1-0.1,0.2-0.2,0.2c-0.1,0-0.2,0-0.2-0.2
					c0-0.1,0.1-0.2,0.1-0.2c0,0,0-0.1,0-0.1c-0.1-0.3-0.3-0.3-0.3-0.4c0,0,0.1-0.1,0.1-0.2c0,0,0-0.1,0-0.1c0,0,0-0.2,0-0.3
					c-0.1,0-0.3-0.1-0.3-0.2c0-0.1,0-0.1,0.1-0.2c0,0,0.1,0,0.1-0.1c0,0,0-0.1,0-0.2c0,0-0.1-0.1-0.1-0.1c0,0-0.1-0.1-0.1-0.1
					c0,0,0-0.1,0.1-0.1c0,0,0.2-0.1,0.2-0.1c0,0,0.1,0,0.2,0c0,0-0.1-0.1-0.1-0.1c0,0,0,0,0,0c0,0,0.1,0,0.1,0c0,0,0.1,0,0.1,0h0.1
					l0,0c0,0,0,0,0,0c-0.1,0-0.2-0.1-0.3-0.1c0,0-0.1-0.1-0.2-0.1c0,0,0,0-0.1,0c-0.1,0-0.1,0-0.2,0c0,0,0,0-0.1,0
					c0,0,0,0.1-0.1,0.1c0,0.1-0.1,0.1-0.1,0.2c0,0.1-0.1,0.1-0.1,0.1c0.1,0.1,0.1,0.2,0.1,0.3l0,0.4c0,0.1,0,0.1,0.1,0.2
					c0,0,0,0,0,0c0,0.1,0.1,0.2,0.1,0.3c0.1,0.2,0.2,0.4,0.3,0.6c0,0,0,0,0,0c0,0,0.1,0.1,0.1,0.1C-73.1,0.6-73.1,0.8-72.9,0.9
					C-73,0.9-72.9,0.9-72.9,0.9 M-72.6,0.4L-72.6,0.4C-72.6,0.4-72.7,0.3-72.6,0.4C-72.6,0.4-72.6,0.4-72.6,0.4L-72.6,0.4L-72.6,0.4
					C-72.6,0.4-72.7,0.4-72.6,0.4c-0.1,0-0.1,0-0.1,0.1c0,0,0,0,0.1,0.1c0,0,0,0,0,0h0.1c0,0,0.1,0,0.1-0.1
					C-72.6,0.5-72.6,0.5-72.6,0.4C-72.6,0.4-72.6,0.4-72.6,0.4 M-72.6-0.3c-0.1,0-0.1-0.1-0.2-0.2c0,0-0.1-0.1-0.1-0.1
					c0-0.1-0.1-0.2-0.1-0.2v-0.1c0.1,0,0.1-0.1,0.1-0.1c0,0,0,0,0,0c0,0,0-0.1-0.1-0.1c0,0,0,0,0,0c0,0-0.1,0-0.1,0c0,0,0,0,0-0.1
					c0-0.1,0-0.2,0-0.2c0-0.1,0-0.1,0.1-0.2c-0.1,0-0.3,0-0.3,0c0,0-0.2,0-0.2,0.1c0.1,0,0.1,0.1,0.2,0.1c0,0,0,0.1,0,0.1
					c0,0.1,0,0.2,0,0.2c0,0-0.1,0.1-0.1,0.1c0,0,0,0.1,0,0.1c0,0,0,0.1,0,0.1c0,0,0.1,0,0.1,0c0,0,0,0,0.1,0c0,0.1,0.1,0.2,0.1,0.4
					c0,0,0,0.1,0,0.1c0,0,0,0,0,0c0,0,0,0.1-0.1,0.2c0,0,0.1,0.1,0.1,0.1c0,0,0.1,0.1,0.1,0.1c0,0.1,0.1,0.2,0.1,0.2h0
					c0,0,0,0,0-0.2C-72.8-0.1-72.7-0.2-72.6-0.3 M-72.7-1.1c0-0.1,0-0.2-0.1-0.3c0-0.1,0-0.2-0.1-0.3c0,0,0,0,0,0
					c0,0-0.1,0.1-0.1,0.2c0,0,0,0.1,0,0.2c0,0,0.1,0,0.1,0c0.1,0.1,0.2,0.1,0.2,0.2c0,0.1,0,0.2-0.1,0.2v0.1c0,0,0,0,0,0
					c0,0.1,0.1,0.2,0.1,0.3C-72.7-0.5-72.7-0.6-72.7-1.1 M-69.1,2.8c0,0,0,0.2,0,0.2c0,0,0,0.1,0.1,0.1c0,0,0-0.1,0-0.1
					C-69,3-69,2.9-69.1,2.8c0.1,0.1,0.2-0.1,0.2-0.1c0,0,0-0.1,0-0.1c0-0.1,0-0.2,0-0.2C-69,2.2-69.1,2.1-69.3,2
					c-0.1,0.1-0.1,0.2-0.1,0.2c0,0,0.1,0.2,0.1,0.3c0,0.1,0,0.1-0.1,0.2c0,0,0,0,0,0c0.1,0,0.1-0.1,0.2-0.1c0,0,0,0,0,0
					c0,0,0,0.1,0,0.1c0,0,0,0,0,0.1L-69.1,2.8C-69.1,2.8-69.1,2.8-69.1,2.8 M-69.1,1.8C-69.1,1.8-69.1,1.8-69.1,1.8
					c0-0.1-0.1-0.1-0.1-0.1c-0.2-0.1-0.5-0.3-0.5-0.5c0-0.1-0.2-0.1-0.2-0.2c0-0.1,0-0.2,0-0.3l0-0.7c0-0.1,0-0.3-0.1-0.4
					c-0.1-0.3-0.4-0.6-0.7-0.6c-0.1,0-0.2,0-0.2,0.1c0.1,0,0.1,0,0.2,0.1c0,0,0.1,0,0.1,0.1c0.1,0.1,0.2,0.2,0.2,0.2
					c0,0,0,0.1,0,0.1c0.1,0.1,0.1,0.2,0.1,0.4c0,0.1,0,0.4,0,0.4v1.2c0,0.1,0.1,0.4,0.1,0.5c0,0,0.1,0.1,0.1,0.1
					c0.1,0.1,0.3,0.2,0.4,0.2c0-0.1,0-0.4,0.2-0.4C-69.1,1.8-69.1,1.8-69.1,1.8c0,0.1-0.1,0.2-0.1,0.2c0,0,0,0,0,0c0,0,0-0.1,0-0.1
					C-69.1,2-69.1,1.8-69.1,1.8z M-69.4-6.1c0,0,0.1-0.1,0.2-0.2c0-0.1,0.1-0.1,0.1-0.2c0.1-0.1,0.1-0.3,0.1-0.4
					c0-0.1,0.1-0.2,0.2-0.3C-68.9-7-69-7-69.2-7c-0.1,0-0.2,0-0.2,0c-0.2,0-0.4,0-0.6-0.1c-0.1,0-0.3-0.1-0.5-0.1
					c-0.1,0-0.2,0.1-0.2,0.2c0,0,0,0.1,0,0.1c0.1-0.1,0.1-0.2,0.2-0.2c0.1,0,0.1,0.1,0.1,0.2c0,0,0,0,0,0.1c0,0.1,0,0.1,0,0.2
					c0,0,0,0.1-0.1,0.1c0,0,0,0-0.1,0.1c-0.1,0.1-0.1,0.2-0.2,0.4l0.5,0c0.1,0,0.4,0.1,0.4,0.1C-69.7-6-69.5-6-69.4-6.1 M-70.7-6.8
					c-0.1,0-0.1-0.1-0.1-0.1c-0.1,0-0.2-0.2-0.3-0.2c0,0,0-0.1-0.1-0.1c0,0-0.1-0.1-0.2-0.1c-0.1,0-0.3-0.1-0.3-0.1c0,0-0.1,0-0.1,0
					c0,0,0,0,0,0.1h0.1c0,0,0.1,0,0.1,0c0,0,0.1,0.1,0.1,0.1c0,0,0,0,0.1,0c0,0,0.1,0,0.1,0.1c0.1,0.1,0.1,0.2,0.2,0.3
					c0,0.1,0.1,0.1,0.2,0.2c0,0.1,0,0.2,0.1,0.2c0.1,0,0.2-0.1,0.3-0.1c0,0,0.1,0,0.1,0c0-0.1,0.1-0.3,0.1-0.4c0,0,0-0.1,0-0.1
					c0,0-0.1,0.1-0.2,0.1C-70.6-6.7-70.6-6.7-70.7-6.8 M-71.1,3.4c-0.1-0.1-0.3-0.4-0.3-0.5c0,0,0,0,0-0.1c0,0,0,0,0,0
					c0,0-0.2,0-0.3,0c-0.2,0-0.5-0.1-0.7-0.2c-0.1,0.2-0.3,0.4-0.5,0.5c0,0,0.1,0,0.1,0c0.1,0,0.2-0.2,0.3-0.2c0,0,0.1,0,0.1,0
					c0,0,0,0,0,0c0,0-0.1-0.1-0.1-0.1c0-0.1,0.1-0.1,0.1-0.1c0.1,0,0.2,0.1,0.2,0.2c0,0.1,0,0.2-0.2,0.3c0,0.1,0.1,0.1,0.1,0.1
					c0,0.1,0,0.2,0.1,0.3c0,0,0,0,0,0c0,0,0,0,0,0c0,0,0.1-0.2,0.1-0.2c0,0,0-0.1,0-0.1c0-0.1,0.1,0,0.2-0.1c0,0-0.1-0.1-0.1-0.1
					c0-0.1-0.1-0.1-0.1-0.2c0-0.1,0.1-0.2,0.1-0.2c0.1,0,0.2,0.2,0.2,0.3c0,0,0,0.1,0,0.1C-71.4,3.4-71.2,3.4-71.1,3.4
					C-71.2,3.4-71.2,3.4-71.1,3.4 M-71.1,2.1C-71,2-71,2-70.9,1.9V1.8c0,0-0.2-0.2-0.2-0.2c0,0,0,0,0,0c0,0,0,0,0,0
					c0,0-0.1,0.1-0.1,0.1s0,0-0.1,0c-0.1,0-0.1,0.2-0.2,0.2c0,0,0-0.1-0.1-0.2c-0.1-0.1-0.1-0.1-0.1-0.1c0-0.1,0-0.1,0-0.1
					c0,0-0.2-0.1-0.3-0.1c-0.1,0-0.2,0-0.3,0.1c0,0.1,0,0.1,0,0.1c0,0,0,0.1,0,0.1c0,0,0,0-0.1,0c0,0-0.3,0.1-0.3,0.2
					c0,0,0.1,0.2,0.1,0.3c0,0.1-0.1,0.3-0.1,0.4c0,0,0,0.1,0,0.1c0,0,0.1,0,0.1,0c0.1,0.1,0.4,0.1,0.6,0.1c0,0,0.2,0,0.3,0
					c0.2-0.1,0.2-0.3,0.2-0.5C-71.1,2.2-71.1,2.1-71.1,2.1 M-69.3,4.9C-69.3,4.9-69.3,4.9-69.3,4.9c0.2-0.2,0.4-0.4,0.6-0.6l-0.8,0
					c0,0,0,0,0,0c-0.1-0.2-0.3-0.5-0.4-0.7c-0.1,0.2-0.2,0.4-0.3,0.7c0,0,0,0,0,0L-71,4.2c0,0,0,0,0,0l0.3,0.7l-0.5,0.6c0,0,0,0,0,0
					l0.7-0.1c0,0,0,0,0,0c0.1,0.2,0.2,0.5,0.2,0.6s0,0,0,0c0,0.1,0.1,0.1,0.1,0.2c0,0,0,0,0,0c0.1-0.2,0.2-0.5,0.3-0.7
					c0,0,0,0,0-0.1l0.7,0.1C-68.9,5.6-69.3,4.9-69.3,4.9z M-67.4,0.3c-0.1,0-0.2,0.1-0.2,0.2c0,0,0,0,0,0s0,0,0,0
					C-67.5,0.5-67.4,0.3-67.4,0.3 M-67-0.3C-67-0.3-67.1-0.3-67-0.3c-0.1-0.1-0.1-0.1-0.1-0.1c-0.1,0,0-0.1,0-0.1c0,0,0,0,0-0.1
					c-0.1,0-0.1,0-0.2,0c0,0-0.1,0-0.1,0c0,0-0.1,0-0.1,0.1c0,0,0,0,0,0.1c0,0,0,0.1,0,0.2c0,0,0,0.1-0.1,0.1c-0.1,0-0.1,0-0.2-0.1
					c-0.1,0.1,0,0.2-0.1,0.2c0,0,0,0,0,0c0,0,0-0.1,0-0.1c0-0.1,0-0.2,0.1-0.2c0,0,0.1,0.1,0.2,0.1h0c0-0.1,0-0.2,0-0.3
					c-0.1,0-0.2,0.1-0.3,0.1c0,0-0.1,0.1-0.1,0.1c0,0,0,0,0-0.1c0,0,0,0,0.1-0.1c0,0,0,0,0,0c0,0,0.1-0.1,0.1-0.1
					c0.2-0.2,0.3-0.4,0.3-0.6c0,0,0,0,0-0.2c0-0.1,0-0.2-0.1-0.3c-0.1,0.1-0.1,0.2-0.1,0.3c0,0.1-0.1,0.1-0.1,0.2
					c0,0.1-0.1,0.1-0.1,0.2c0,0.1-0.1,0.2-0.1,0.2c0,0-0.1,0.2-0.2,0.2c0,0,0,0,0,0c0.2-0.2,0.3-0.5,0.4-0.8c0-0.1,0.1-0.3,0.1-0.4
					c0,0-0.1-0.1-0.1-0.2c0,0,0,0,0,0c0.1,0,0.1,0.1,0.1,0.1c0,0,0.1-0.1,0.1-0.1c0.1,0,0.2-0.1,0.2-0.2c0.1,0,0.2-0.1,0.2-0.1
					c0.1,0,0.1,0,0.2,0c0,0-0.1-0.1-0.1-0.1c0,0-0.1-0.3-0.1-0.4v-0.2c0,0,0,0,0,0c0,0,0.1-0.2,0.1-0.2c0.1,0,0.2,0.1,0.2,0.2
					c0,0,0,0,0,0.1c0,0,0,0,0,0h0.1c0,0,0,0,0,0v-0.1c0-0.1-0.2-0.2-0.2-0.2c-0.1,0-0.2,0.1-0.2,0.2c0,0.1-0.2,0.2-0.3,0.3
					c-0.1,0.1-0.2,0.1-0.3,0.2c-0.1,0.1-0.3,0.1-0.5,0.2c0,0-0.1,0.1-0.1,0.1c0,0.1,0,0.1,0,0.2c-0.1,0.3-0.2,0.6-0.4,0.8l0,0
					c0-0.1,0.1-0.2,0.1-0.3c0.1-0.1,0.1-0.3,0.2-0.4c0-0.1,0.1-0.3,0.2-0.4c-0.1-0.1-0.2-0.2-0.3-0.2c-0.1,0-0.1,0-0.2,0.2
					c0,0,0,0,0,0c0,0-0.1,0-0.1-0.1c0,0,0.1-0.1,0.1-0.1c0,0,0,0,0-0.1c0.1-0.1,0.1-0.1,0.2-0.1c0,0,0.1,0,0.1,0
					c0.1,0,0.2,0.2,0.2,0.2c0,0,0.1,0,0.1-0.1c-0.2-0.3-0.4-0.4-0.6-0.4c-0.2,0-0.3,0.1-0.3,0.3c0,0,0,0.2,0,0.2
					c0,0.1,0.1,0.2,0.1,0.2c0,0-0.1,0.3-0.1,0.3c0,0.1,0,0.2-0.1,0.3V-1c0,0.1,0,0.1,0.1,0.2c0,0,0.1,0.1,0.2,0.2c0,0,0,0,0.1,0
					c0,0,0.5,0.2,0.5,0.3c0,0-0.1,0-0.1,0.1c0,0,0,0,0,0c0.1,0,0.1,0.1,0.1,0.1c0,0,0,0.1,0,0.1c-0.1,0.1-0.1,0.1-0.2,0.2
					c-0.1,0.1-0.2,0.2-0.2,0.2c0,0.1,0.1,0.2,0.1,0.3c0.2,0.3,0.4,0.4,0.7,0.4c0,0,0.2,0,0.2-0.1c0-0.1-0.2-0.1-0.2-0.1c0,0,0,0,0,0
					c0,0,0,0,0,0h0.1c0,0,0.1,0,0.1,0c0.1,0,0.1,0.1,0.2,0.2c0,0,0,0,0,0c0,0,0.1-0.1,0.1-0.1c0,0,0-0.1,0-0.1c0,0-0.1,0-0.1-0.1
					c0,0,0.2-0.2,0.2-0.2c0,0,0,0,0,0c0,0,0,0-0.1,0c0,0-0.1-0.1-0.1-0.1c0-0.2,0.3-0.2,0.3-0.3c0,0-0.1-0.1-0.1-0.1c0,0,0,0,0,0
					c0,0,0.1,0.1,0.1,0.1c0.1,0,0.1-0.1,0.1-0.2c0,0,0-0.1,0.1-0.1C-67.1-0.2-67-0.3-67-0.3 M-67.6-1.5v0.3c0,0.2-0.2,0.4-0.3,0.6h0
					c0,0,0.1,0,0.1,0c0.1,0,0.2-0.2,0.3-0.3c0-0.1,0.1-0.2,0.1-0.3v-0.3l0-0.2c0-0.1,0-0.2,0-0.2c-0.1,0.1-0.2,0.1-0.3,0.2
					c0,0,0,0,0,0c0,0,0,0.1,0.1,0.1C-67.6-1.6-67.6-1.5-67.6-1.5 M-66.2-1.4c0-0.1-0.3-0.1-0.3-0.1h-0.2c0,0,0,0,0,0
					c0-0.1,0.1,0,0.1,0c0.1,0,0.2,0,0.4,0.1C-66.3-1.6-66.2-1.6-66.2-1.4c0-0.2-0.1-0.3-0.2-0.4c0,0-0.1,0-0.1-0.1c0,0,0-0.1,0-0.1
					v-0.1c0,0,0,0,0-0.1c-0.1-0.1-0.1-0.1-0.2-0.1c0,0-0.1,0-0.1,0c0,0,0.1-0.1,0.1-0.1c0.1,0,0.2,0.1,0.2,0.2h0c0,0,0,0,0-0.1
					c0-0.1-0.1-0.1-0.1-0.2c0,0,0,0,0,0c0,0,0.1,0,0.1,0c0,0,0.3,0.1,0.3,0.1c0,0-0.1,0.1-0.1,0.1c0,0,0,0.1,0.1,0.1
					c0.1,0,0,0,0.1-0.1c0,0,0.1,0,0.2,0c0.1,0,0.1,0,0.2,0.1c0,0,0,0,0,0.1c0,0,0,0.2,0,0.2c0,0,0,0.2,0,0.2c0,0.1-0.1,0.1-0.1,0.2
					c0,0.1,0.1,0.2,0.2,0.3c0,0,0.1,0.1,0.1,0.1c0-0.1,0.1-0.2,0.1-0.2c0,0-0.1-0.1-0.1-0.1c0,0-0.1-0.1-0.1-0.2c0,0,0,0,0,0
					c0,0,0.1-0.2,0.1-0.3c0,0,0-0.2,0-0.2c0,0,0-0.3,0-0.3c0-0.1,0-0.1-0.1-0.1c-0.1,0-0.1,0-0.1,0c0,0-0.1,0-0.1,0c0,0-0.1,0-0.1,0
					c0,0-0.1,0-0.1,0c0,0,0,0,0,0c0-0.1-0.1-0.2-0.2-0.2c0,0-0.1,0-0.1,0l-0.5,0v0c0,0.1,0.1,0.3,0.1,0.3c0.1,0,0.1,0.1,0.2,0.1
					c0,0,0,0.1,0,0.1c0,0,0,0.1,0,0.1c0,0,0,0.1,0,0.1c0,0.1-0.1,0.1-0.2,0.1c0,0-0.1,0.1-0.1,0.2c0,0,0,0.1,0,0.1c0,0,0,0.1,0,0.1
					c0,0,0.1,0.1,0.1,0.1c0.1,0,0.2,0,0.3,0C-66.6-1.3-66.2-1.3-66.2-1.4 M-65.3-2.5c0,0,0-0.1,0-0.1c0-0.1,0-0.2-0.1-0.2
					c-0.1,0-0.3,0.2-0.4,0.2c0,0-0.1,0-0.1,0c0,0-0.1,0-0.1,0.1c0,0,0.1,0.1,0.1,0.1c0,0,0,0,0.1,0c0,0,0.1,0,0.1,0h0.1
					c0,0,0.1,0,0.1,0c0,0,0.1,0.1,0.1,0.1c0,0.1,0,0.2,0,0.3l0,0.3c0,0.1-0.1,0.1-0.1,0.2c0,0,0.1,0.2,0.2,0.2c0,0,0.1-0.1,0.1-0.1
					c0.1,0,0.1,0,0.2,0l0.2,0c-0.1-0.2-0.2-0.2-0.2-0.3c0,0,0.1-0.2,0.1-0.2C-65.2-2.2-65.3-2.4-65.3-2.5 M-65.1-1.2
					C-65.1-1.2-65.2-1.1-65.1-1.2c-0.1,0.1-0.1,0.2-0.2,0.2c0,0,0,0,0,0C-65.2-1-65.2-1.1-65.1-1.2c0.1,0,0.2,0.1,0.3,0
					c0.1,0,0.1-0.1,0.2-0.1c0,0,0,0,0,0c-0.1-0.1-0.3-0.2-0.4-0.2c0,0-0.1,0-0.1,0c-0.2,0-0.4,0.4-0.4,0.5c0,0,0,0,0,0
					c0.1,0,0.1-0.2,0.3-0.3C-65.2-1.3-65.2-1.3-65.1-1.2C-65.2-1.3-65.1-1.3-65.1-1.2 M-65.5,2.3c0,0,0.1,0,0.2,0
					c0.1,0,0.1-0.1,0.2-0.1c0,0,0.2-0.1,0.2-0.1c0,0-0.2-0.3-0.2-0.3c-0.1,0.1-0.2,0.1-0.3,0.1c-0.1,0-0.1,0-0.1,0
					c-0.1,0-0.2,0-0.3-0.1l-0.2,0.3C-65.9,2.3-65.7,2.3-65.5,2.3 M-62.9,2.9c0,0,0,0,0-0.1c0,0,0-0.1,0-0.2c0,0,0-0.1-0.1-0.1
					c0,0,0-0.1-0.1-0.1c0,0-0.1,0-0.1,0.1c0,0-0.1,0.1-0.1,0.1c0,0-0.2,0.2-0.2,0.3c0,0,0,0.1,0,0.1c0,0.1,0,0.2,0,0.2c0,0,0,0,0,0
					c0,0,0,0.1,0.1,0.1c0,0,0,0,0.1,0.1c0,0,0,0.1,0,0.1c0,0,0,0,0,0.1h-0.1c0,0-0.2-0.1-0.2-0.1c0,0,0,0,0,0c0,0,0.1,0,0.1,0.1
					c0,0-0.1-0.1-0.1-0.1c0-0.1-0.1-0.2-0.1-0.3c0-0.1-0.1-0.1-0.2-0.1c-0.1,0-0.1,0-0.3,0c-0.1,0-0.1,0-0.2,0c-0.1,0-0.2,0-0.3-0.1
					c-0.1,0-0.1,0-0.2,0c-0.1,0-0.2,0.1-0.4,0.2c-0.1,0-0.2,0.1-0.2,0.1c0,0,0,0,0,0c0,0,0.1,0,0.1,0c0.2,0,0.1-0.1,0.2-0.1
					c0.1,0,0.1,0.1,0.1,0.1h0c0,0,0,0,0,0c0-0.1,0.2,0,0.2-0.1c0,0,0,0,0,0c0,0-0.1,0-0.1,0.1h0c0,0,0-0.1,0-0.1c0,0,0-0.1,0.1-0.1
					c0,0,0,0,0.1,0c0.1,0,0.2,0.1,0.2,0.1c0,0,0,0.1,0,0.1c0,0-0.1,0.2-0.1,0.2c0,0-0.1,0-0.1,0c0,0-0.1,0-0.1,0.1
					c0,0.1,0.1,0.1,0.1,0.1c0,0,0,0.1,0,0.1c0,0,0,0.3,0.1,0.3c0,0,0.1,0,0.1,0c0,0,0,0,0,0c0,0.1-0.1,0.1-0.2,0.1
					c0,0-0.1-0.1-0.1-0.1c0-0.1-0.1-0.1-0.1-0.2V3.4c0,0,0-0.1,0-0.1c0,0,0,0,0,0c0,0,0,0,0-0.1c0,0-0.1-0.1-0.2-0.1
					c-0.1,0-0.1,0.1-0.2,0.1c0,0-0.4,0-0.4-0.1c0,0,0.1-0.1,0.1-0.1c0.1,0,0.1,0,0.2-0.1c0.1-0.1,0.2-0.2,0.3-0.3
					c0.1-0.1,0.1-0.3,0.2-0.4c0,0,0,0,0,0c0,0,0,0.1,0,0.1c0,0.1,0.1,0.2,0.1,0.2c0,0,0,0,0.1,0c0,0,0,0,0.1,0
					c0.1,0,0.3-0.1,0.3-0.2c0,0,0,0,0-0.1c0-0.1,0.1-0.1,0.1-0.2c0-0.1,0.1-0.1,0.1-0.1c0-0.1,0-0.1-0.1-0.2c0,0,0,0,0,0
					c-0.1-0.1-0.1-0.2-0.2-0.3c0,0-0.1,0-0.1,0c-0.1,0-0.1,0.1-0.2,0.2c0,0.1-0.1,0.1-0.1,0.2c0,0.1,0,0.2-0.1,0.2c0,0,0,0,0,0
					c0,0,0,0-0.1,0.1c0,0-0.1,0-0.1,0h0c0,0,0,0,0,0c0,0,0.1-0.2,0.1-0.2v0c-0.1,0-0.3-0.1-0.4-0.1c0,0,0,0,0,0c0,0,0.2-0.3,0.2-0.3
					c0,0,0-0.1,0-0.1C-65,1.1-65,1-65,0.9c0,0-0.1-0.1-0.1-0.1c0,0,0,0,0,0c0,0,0,0-0.1,0s0,0,0,0c0,0,0.1-0.1,0.1-0.1
					c0,0,0,0,0.1,0c0,0,0-0.1,0-0.1c0,0,0.1,0,0.1,0c0,0,0.1-0.1,0.1-0.1c0,0,0.1,0,0.1-0.1c0.1-0.1,0.2-0.3,0.2-0.4c0,0,0,0,0-0.1
					c0,0,0-0.1,0-0.2c0,0,0-0.1,0-0.2c0-0.1,0.1-0.2,0.1-0.3c0,0,0.1-0.2,0.1-0.2c0,0,0-0.2-0.1-0.2c0,0,0-0.1-0.1-0.1
					c0,0-0.1-0.1-0.1-0.1c0,0-0.2,0.1-0.2,0.1H-65c-0.1,0-0.1,0.2-0.2,0.2c-0.1,0-0.1,0-0.1-0.1c0-0.1,0-0.1,0.1-0.2
					c-0.1,0.1-0.1,0.3-0.3,0.3c0,0,0,0-0.1,0c0.1,0.2,0.3,0.3,0.4,0.4c0,0,0,0.1,0.1,0.2c0,0.1,0.1,0.1,0.1,0.2
					c0,0.1,0.1,0.2,0.1,0.2c0,0,0,0,0,0c0,0,0,0,0,0c-0.1,0-0.1-0.2-0.1-0.2c0,0-0.1-0.1-0.1-0.1c0,0,0-0.1-0.1-0.2
					c-0.1-0.1-0.4-0.1-0.4-0.3c0,0,0-0.1,0-0.1C-65.8-1-65.9-1-66-1c0,0,0,0,0,0c0,0-0.1,0.1-0.1,0.1c0,0.1,0,0.1,0.1,0.1
					c0,0,0,0,0,0.1c0,0,0,0,0,0h0.1c0,0,0,0,0,0c0.1,0,0.1,0.1,0.2,0.2c0,0.1,0.2,0.2,0.2,0.3c0,0,0,0.1,0,0.1
					c0,0.1,0.1,0.1,0.1,0.3c0,0,0,0,0,0c-0.1,0-0.2-0.2-0.2-0.2c0-0.1,0-0.1,0-0.2c0-0.1-0.1-0.2-0.2-0.2c-0.1-0.1-0.1-0.2-0.1-0.2
					c0,0-0.1,0-0.1,0H-66c0,0-0.1-0.1-0.1-0.1c0,0,0,0,0-0.1c0,0-0.1-0.1-0.1-0.1c0,0,0,0,0,0c0,0-0.1,0-0.1,0.1
					c0,0.1,0,0.1,0.1,0.1c0,0,0,0,0,0c0,0-0.1,0-0.1,0.1c0,0.1,0.1,0.1,0.1,0.1c0,0,0.1,0,0.1,0c0.1,0,0.1,0.1,0.1,0.1
					c0,0,0,0.1,0,0.1c0.1,0.1,0.2,0.1,0.2,0.2c0,0.1,0,0.1,0,0.2c0,0.1,0,0.2,0.1,0.3c0,0,0.1,0,0.1,0c0.1,0,0.2,0.2,0.2,0.3
					c0,0,0,0.1,0,0.1c0,0,0,0,0,0c0-0.1-0.1-0.2-0.2-0.2c0,0-0.1,0-0.1,0c-0.1,0-0.2,0.1-0.2,0.2c0,0,0,0.1,0,0.1c0,0,0,0,0,0
					c0-0.1,0-0.1-0.1-0.1c-0.3,0-0.4,0.5-0.4,0.6c0,0.1,0,0.2,0.1,0.3c0,0,0.1,0,0.1-0.1c0.1,0,0.1-0.1,0.2-0.1
					c0-0.1-0.1-0.2-0.1-0.3c0-0.1,0-0.2,0.2-0.2c0.1,0,0.1,0,0.1,0.1c0,0,0,0.1,0.1,0.1c0,0,0,0,0.1,0c0,0,0,0,0,0
					c-0.1,0-0.2-0.1-0.2-0.1C-66,1.2-66,1.3-66,1.3c0,0.1,0.1,0.2,0.1,0.3c-0.1,0.1-0.3,0.1-0.4,0.2c0,0.1,0.1,0.2,0.2,0.3
					c0.1-0.1,0.2-0.3,0.3-0.4c0.1,0.1,0.2,0.1,0.2,0.1c0.1,0,0.1,0,0.1,0c0.1,0,0.2,0,0.2,0c0,0,0.1-0.1,0.1-0.1c0,0,0.1,0,0.1,0.1
					c0,0,0.2,0.3,0.2,0.4c0,0.1-0.1,0.1-0.1,0.1c0,0-0.1,0-0.1,0.1c-0.1,0-0.2,0.1-0.3,0.1c0,0,0,0,0,0.1c0,0-0.1,0.2-0.1,0.3
					c0,0,0,0.1,0,0.1c0,0.1,0.1,0.4,0.1,0.4c0.1,0.2,0.2,0.3,0.4,0.5c0.2,0.2,0.4,0.3,0.6,0.3c0,0,0.1,0,0.1,0c0,0,0.1,0,0.1,0
					c0,0,0.1,0,0.1,0c0.1,0,0.3-0.1,0.4-0.1c0.1,0,0.3-0.1,0.4-0.2c0.2-0.1,0.3-0.3,0.4-0.5C-63,3.2-62.9,3-62.9,2.9 M-64.8,1.3
					c0,0.1,0,0.2-0.1,0.3c0.1,0.1,0.2,0.1,0.3,0.1c0,0,0.1-0.2,0.1-0.3c0,0,0-0.1,0-0.2c0,0-0.2-0.5-0.4-0.5c0,0-0.1,0-0.1,0
					c0,0,0.1,0.2,0.1,0.2C-64.9,1.1-64.8,1.2-64.8,1.3 M-62.8,1C-62.8,1-62.9,1-62.8,1c-0.1,0-0.3,0-0.4,0.1
					c-0.1,0.1-0.1,0.2-0.1,0.3c0,0,0,0,0,0.1c0,0,0,0.1,0,0.1c0,0.1-0.1,0.2-0.1,0.3c0,0.1-0.1,0.1-0.2,0.2
					c-0.1,0.1-0.2,0.2-0.3,0.3c0,0.1-0.1,0.3-0.2,0.3c-0.1,0-0.2,0.1-0.3,0.1c0,0-0.1,0-0.1,0c0,0-0.1,0-0.1-0.1c0,0,0,0,0,0
					c0,0,0,0,0,0c0.1,0,0.1,0.1,0.2,0.1c0,0,0.1,0,0.1,0c0.1,0,0.3,0.1,0.4,0.1c0.3,0,0.4-0.1,0.7-0.5c0,0,0.1-0.1,0.1-0.1
					C-63,2.1-63,2.1-63,2c0,0,0-0.2,0-0.2c0-0.2,0.1-0.2,0.2-0.4c0,0,0-0.1,0-0.1C-62.8,1.3-62.8,1-62.8,1z M-61.6-5.5H-65
					c-0.1,0-0.1,0.1-0.1,0.1c0,0,0,0.1,0.1,0.1h3.4c0,0,0,0,0,0c0,0,0-0.1,0-0.1C-61.6-5.4-61.6-5.5-61.6-5.5 M-64.8-5.1l0,1.2h3
					c0,0,0,0,0,0v-1.2H-64.8z M-62.4-7.3h-0.2c0,0,0,0-0.1,0H-65l0,1.7h3.1v-0.9c0,0-0.2-0.4-0.3-0.5c0-0.1-0.1-0.1-0.1-0.2
					C-62.3-7.3-62.4-7.3-62.4-7.3 M-62.5-7.7H-65l-0.3,0.5c0,0,0,0.1,0.1,0.1l0.2-0.5c0,0,0,0,0,0h2.6C-62.4-7.5-62.5-7.6-62.5-7.7
					 M-66.9-8.1h4c-1.1-1.2-2.5-2.1-4-2.6V-8.1z M-67.2-6.7c0,0.1,0.1,0.3,0.1,0.5c0,0,0,0.1,0,0.2c0.1,0,0.1,0,0.1-0.1
					c0-0.1,0.1-0.2,0.1-0.2c0-0.1,0.1-0.1,0.1-0.2c0,0-0.2-0.1-0.2-0.2c0-0.1,0.1-0.2,0.2-0.2c0.2,0,0.2,0.2,0.2,0.3
					c0,0,0,0.1,0,0.2c0,0,0,0,0,0.1c0,0,0.1,0,0.1,0c0,0,0.1,0,0.1,0c0,0,0.1,0.1,0.1,0.2c0.1,0,0.2,0.1,0.3,0.1v0c0,0,0,0,0-0.1
					c0,0,0,0,0.1,0C-66-6.1-66-6-66-6c0,0.1-0.1,0.1-0.1,0.1c-0.1,0-0.3-0.1-0.3-0.1c0,0,0,0.1,0,0.1l0,0.6l0.1,0.6
					c0,0.1,0,0.1,0,0.1c0,0.1-0.1,0.3-0.1,0.4c0,0.3,0.3,0.5,0.4,0.8c0,0,0,0.1,0,0.1c0,0,0,0,0,0c0,0-0.1-0.1-0.1-0.2
					c-0.1,0.1-0.1,0.2-0.1,0.3c0,0,0,0.1,0.1,0.2c0,0.1,0.2,0.3,0.3,0.3c0,0,0.1,0,0.2-0.1c-0.2-0.1-0.2-0.3-0.2-0.4
					c0-0.1,0-0.3,0-0.3v-0.6l0-0.5l0-0.3c0,0,0,0,0,0c0,0,0-0.1,0-0.1c0-0.1,0-0.2,0-0.2c0,0,0-0.2,0-0.2v-0.1c0,0,0,0,0,0
					c0,0,0,0.1,0,0.1c0,0.1,0,0.1,0,0.2c0,0,0,0.1,0,0.1c0,0.1,0,0.2,0,0.3c0,0.2,0,0.3,0,0.3c0,0,0,0,0,0l0,0.2v0.9
					c0,0.1,0.1,0.4,0.1,0.4c0,0,0,0,0,0.1c0,0,0.1,0.1,0.1,0.1c0,0,0.1,0,0.1,0c0.1,0,0.2,0.1,0.2,0.2v0.1c0.2,0.1,0.4,0.1,0.6,0.2
					c0.1,0,0.3,0.1,0.4,0.1c0,0-0.1,0-0.1,0c0,0-0.1,0-0.2,0c-0.1,0-0.2,0-0.3-0.1c-0.1,0-0.3,0-0.4-0.1c0,0,0,0.1,0.1,0.1
					c0.1,0,0.1,0.1,0.2,0.1c0.1,0.1,0.2,0.1,0.3,0.2c0,0,0,0,0,0c0,0,0.1,0,0.1,0c0.1,0,0.5-0.4,0.6-0.4c0,0,0.1-0.1,0.1-0.1
					c0,0,0,0,0,0c0,0.1-0.1,0.1-0.1,0.1c0,0,0,0.1-0.1,0.1c-0.1,0.1-0.2,0.2-0.3,0.3c0,0,0,0,0.1,0c0.2,0,0.3,0,0.3,0c0,0,0,0,0.1,0
					c0,0,0.1,0,0.2,0c0.5,0.2,0.9,0.8,0.9,1.3c0,0,0,0,0,0.1c0,0,0,0.1,0,0.1c0,0-0.1,0-0.1-0.1v-0.1c0,0-0.1-0.3-0.1-0.4
					c0-0.1-0.1-0.2-0.2-0.3c-0.1-0.1-0.2-0.1-0.3-0.2c0,0-0.1-0.1-0.1-0.1c-0.1-0.1-0.3-0.1-0.4-0.1c0,0,0,0-0.1,0h-0.1
					c0,0,0,0-0.1,0c0,0-0.1,0-0.1,0c0.1,0.1,0.3,0.2,0.4,0.3c0,0,0,0,0,0.1c0.1,0.1,0.1,0.2,0.1,0.3c0,0.1,0.1,0.3,0.1,0.4l0,0.5
					c0,0.1,0,0.2,0,0.3c0,0.1,0.1,0.3,0.1,0.3v0.1l0,0c-0.1-0.1-0.1-0.2-0.1-0.2c0-0.1-0.1-0.5-0.1-0.5v-0.2c0,0,0-0.2,0-0.3
					c0-0.2-0.1-0.4-0.2-0.6c-0.1-0.2-0.3-0.3-0.5-0.4c0,0-0.1,0-0.1,0c-0.1,0-0.2,0-0.3,0.1c0.2,0.1,0.3,0.4,0.3,0.5
					c0,0,0,0.1,0,0.1h0.1c0.1,0,0.2,0.1,0.3,0.1c0,0,0,0,0.1,0c0,0,0.1,0,0.1,0.1c0,0,0.1,0.1,0.1,0.1c0,0,0,0,0,0
					c0,0-0.1-0.1-0.1-0.1c0,0.1-0.1,0.1-0.1,0.2c0,0.1-0.1,0.1-0.1,0.2c0,0.1-0.1,0.4-0.1,0.6c0,0.2,0.2,0.4,0.3,0.7
					c0,0,0,0.1,0,0.1c0,0,0,0,0,0c0,0,0.1,0,0.1,0c0.1,0,0.3,0.1,0.4,0.2c0,0,0.1,0.1,0.1,0.1c0,0,0,0-0.1,0c0,0-0.1,0-0.1-0.1
					C-63.6,1.1-63.8,1-63.9,1c0,0-0.1,0-0.1,0v0.1c0,0.1,0.1,0.1,0.1,0.2v0c0,0-0.1-0.1-0.1-0.1c0,0,0-0.1,0.1-0.1
					c0,0,0.1,0,0.1,0.1c0,0,0.1,0,0.1,0.1c0.1,0.1,0.1,0.1,0.1,0.2c0,0,0,0.1-0.1,0.1c-0.1,0-0.1-0.1-0.1-0.2c0,0-0.1-0.1-0.2-0.1
					c0,0.1-0.1,0.2-0.1,0.2c0,0.1,0.1,0.1,0.1,0.2c0,0.1,0.1,0.1,0.1,0.2c0,0,0,0,0,0.1c0.2-0.1,0.3-0.4,0.3-0.5c0,0,0-0.1,0-0.1
					c0-0.1,0.1-0.2,0.2-0.3c0.1,0,0.1,0,0.2-0.1c0,0,0,0,0-0.1c0.1-0.1,0.2-0.2,0.2-0.3c0-0.1,0.1-0.2,0.1-0.3c0,0,0-0.1,0-0.1
					c0,0,0-0.1,0-0.2l0-0.3v-0.1c0,0,0-0.2,0-0.4c0-0.1,0-0.3,0-0.3v-0.3c0-0.2,0.1-0.2,0.1-0.3c0-0.1-0.1-0.2-0.1-0.2
					c0,0,0.1-0.2,0.1-0.3c0-0.1,0-0.2,0-0.3c0-0.1,0-0.2,0-0.3c0-0.1,0-0.1,0-0.2c0-0.1,0-0.1-0.1-0.2c-0.1-0.3-0.4-0.3-0.6-0.3
					c0,0-0.1,0-0.2,0c0,0-0.1,0-0.1,0c0,0-0.1,0-0.1,0.1c0,0,0,0-0.1,0c0,0-0.1-0.1-0.2-0.1c-0.1,0-0.2,0-0.3,0l-0.3,0
					c0,0-0.1,0-0.1,0c0,0,0,0.2-0.1,0.2h0c0,0,0,0,0,0c0,0,0.1,0,0.1-0.1c0,0,0-0.1,0-0.1c0-0.1,0.1,0,0.1-0.1l1.3,0
					c0.2,0,0.5,0,0.6,0.3c0.1,0.1,0.1,0.1,0.2,0.2c0.1,0.1,0.1,0.3,0.1,0.4c0,0,0,0,0,0v0.1c0,0,0,0.1,0,0.2l0,0.6v1.1l0,0.5V0
					c0,0,0,0.1,0,0.2c0,0,0,0,0,0c0,0.2-0.1,0.5-0.1,0.5c0,0,0,0.1,0,0.2c0,0,0,0.1,0.1,0.1c0,0,0.1,0,0.1,0.1
					c0,0.1-0.2,0.1-0.2,0.2c0,0.2,0.2,0.1,0.2,0.4v0.1c0,0,0,0.1,0,0.1v1c0,0,0,0.1,0,0.1c0,0.1-0.1,0.1-0.2,0.1c0,0,0,0.1,0,0.1
					c0,0.1,0,0.1,0.1,0.1c0,0,0.1,0,0.1,0c0,0,0,0,0,0c0,0-0.1,0.1-0.1,0.2c0,0,0,0.2,0.1,0.2c0.1,0,0.1-0.1,0.1-0.2
					c0,0,0-0.1,0-0.1c0,0,0,0,0,0c0,0,0.1,0,0.1,0c0.1,0,0.1-0.1,0.1-0.1c0-0.1-0.2-0.1-0.2-0.3V2.2c0-0.1,0.1-0.5,0.1-0.5
					c0,0,0.1-0.1,0.1-0.1c0,0,0.1-0.1,0.1-0.1V1.3c0,0-0.1-0.1-0.1-0.1c0,0-0.1,0-0.1,0c0,0,0,0,0,0c0,0,0,0,0,0c0,0,0,0,0,0
					c0,0,0.1,0,0.1-0.1c0.1-0.1,0.1-0.1,0.1-0.2c0,0,0-0.2,0-0.4C-61.8,0-61.8-0.4-61.9-1l0-0.8v-0.5c0,0,0-0.1,0-0.1
					c0-0.3,0.1-0.6,0.1-0.9c0.1,0,0.1-0.1,0.1-0.2c0-0.1,0-0.2-0.1-0.2l-2,0l-1,0c-0.1,0-0.2,0.1-0.2,0.2c0,0.1,0,0.2,0.2,0.2
					c0,0,0,0,0,0c0,0.1-0.1,0.1-0.1,0.1c-0.1,0-0.2-0.2-0.2-0.3c0,0,0,0,0-0.1c0-0.1,0.1-0.2,0.2-0.3l0-1.3c0,0,0,0,0,0
					c-0.1,0-0.2-0.2-0.2-0.2c0-0.1,0-0.2,0.2-0.2c0,0,0,0,0-0.1c0-0.2-0.1-0.5-0.1-0.7c0-0.2-0.1-0.5-0.2-0.7c0,0-0.1,0-0.1,0
					c0,0-0.2,0.1-0.2,0.1c0,0,0,0.1,0,0.1c0,0.1,0,0.1,0,0.2c0,0,0.1,0,0.1,0.1c0,0,0,0,0,0.1c0,0,0,0.1,0,0.1
					c0,0.4,0.1,1.1,0.1,1.1v0.1l0,0.4l0,1.1c0,0,0,0.1,0,0.1c0,0,0,0,0,0.1c0,0,0,0,0,0c0-0.1,0-0.1,0-0.2c0,0,0-0.1,0-0.1
					c0-0.1,0-0.2,0-0.3c0,0,0-0.1,0-0.1v-0.4c0,0,0-0.1,0-0.1c0-0.3-0.1-0.8-0.1-1.1c0,0,0,0,0-0.1c0-0.1,0-0.3-0.1-0.4
					c0,0-0.1-0.1-0.1-0.1s0,0,0,0c0.1,0,0.1,0,0.1,0c0,0,0,0,0,0c-0.1-0.1-0.3-0.1-0.4-0.2c-0.3-0.1-0.3-0.4-0.5-0.4
					c-0.1,0-0.1,0-0.1,0.1c0,0,0,0,0,0C-66.9-7.1-67.2-6.9-67.2-6.7 M-67.4-6.8C-67.3-6.8-67.3-6.8-67.4-6.8
					c-0.1-0.1-0.2-0.2-0.3-0.3c0,0-0.1,0-0.1,0c0,0-0.2,0.1-0.2,0.1c0.1,0.1,0.1,0.2,0.2,0.3c0,0.1,0.1,0.1,0.1,0.2
					c0,0.1,0,0.1,0.1,0.2c0,0.1,0.1,0.2,0.1,0.2c0,0.2,0.1,0.5,0.1,0.5v0.5c0,0,0,0.1,0,0.2c0,0,0-0.1,0-0.1l0-0.6
					c0-0.3-0.1-0.6-0.2-0.9C-67.8-6.7-67.9-6.9-68-7c0,0-0.3-0.2-0.4-0.2c0,0-0.1,0-0.2,0.1c0,0-0.1,0.1-0.1,0.1
					c0,0-0.1,0.1-0.1,0.1c-0.1,0.1-0.2,0.3-0.2,0.4c0,0.1-0.1,0.2-0.1,0.3c0,0.1-0.2,0.2-0.3,0.2c0,0,0.1,0.1,0.1,0.1
					c0.4,0,0.5-0.4,0.8-0.4c0,0,0.1,0,0.1,0c0,0,0.1,0,0.1,0c0,0,0,0,0,0c0,0,0,0.1-0.1,0.1c-0.1,0-0.1,0-0.2,0.1c0,0,0,0,0,0
					c0,0-0.1,0-0.1,0.1c-0.1,0.1-0.2,0.2-0.3,0.2c0,0,0,0,0,0.1c0.1,0,0.2,0,0.2,0c0,0,0.1,0,0.1,0c0,0,0,0,0,0.1c0,0,0,0,0,0
					c0,0-0.1,0-0.1,0c0,0-0.1,0-0.1,0c0,0,0,0.1-0.1,0.2c0,0.1-0.1,0.2-0.1,0.3v0.1l0.1,0.4c0,0.1,0,0.2-0.1,0.3
					c-0.1,0.1-0.2,0.3-0.3,0.4c0,0.1,0,0.1-0.1,0.2c0,0.1,0,0.1,0,0.2c0,0.2,0,0.2,0.1,0.5c0,0.1,0,0.2,0,0.2c0,0.1-0.1,0.2-0.1,0.4
					c0,0.1,0,0.1,0,0.2c0-0.1,0-0.1,0.1-0.1c0-0.1,0.2-0.3,0.4-0.3c0.1,0,0.1,0,0.1,0c0.1,0,0.2,0.1,0.3,0.1c0,0,0.1,0.1,0.1,0.1
					c0.1,0.1,0.2,0.2,0.3,0.3c0.1,0,0.2-0.1,0.3-0.2c0,0,0-0.1,0-0.1c0,0,0-0.1,0-0.2c0-0.2-0.1-0.4-0.2-0.6c0-0.1-0.1-0.3-0.2-0.4
					c0,0,0,0,0,0c0,0-0.1-0.1-0.1-0.1c0,0,0,0,0,0c0,0,0,0,0.1,0c0.1,0.1,0.2,0.3,0.2,0.4c0.1,0.1,0.1,0.2,0.2,0.3
					c0-0.1,0-0.3,0-0.3s0-0.1,0-0.2c0-0.1,0-0.1,0-0.2c0,0,0-0.1,0-0.1c0,0,0-0.1,0-0.2c0-0.1-0.1-0.3-0.1-0.3c0,0,0,0,0,0
					c0,0,0,0,0,0c0.1,0.1,0.1,0.2,0.2,0.4c0,0.1,0.1,0.2,0.1,0.3c0.1,0,0.1-0.1,0.2-0.1c0.1,0,0.2,0,0.3-0.1c0.1,0,0.1-0.1,0.1-0.2
					c0,0,0,0,0-0.2c0-0.1,0-0.1,0-0.2c0-0.1-0.1-0.2-0.1-0.2C-66.9-5.3-67-5.5-67-5.7c0,0,0,0,0,0c0,0,0-0.1,0-0.1
					c0,0-0.1,0.1-0.1,0.1c0,0-0.1,0-0.1,0c0,0,0-0.1,0-0.1c0,0,0-0.2,0-0.2c0,0,0,0,0-0.2c0,0,0-0.1,0-0.2
					C-67.3-6.5-67.4-6.7-67.4-6.8 M-72.3-8.1h5v-2.3h-5V-8.1z M-71.3-13.4c0,0-0.1,0.1-0.1,0.1l0.2,0.3l-0.4,0.5l-0.2-0.3
					c0,0.1-0.1,0.2-0.1,0.2l0.2,0.3l-0.3,0.4v0.5l0.3,0.4l-0.3,0.3h0.3l0.1-0.1l0.1,0.1h0.3l-0.2-0.3l0.4-0.5l0.4,0.5l-0.3,0.3h0.3
					l0.1-0.1l0.1,0.1h0.3l-0.2-0.3l0.4-0.5l0.4,0.5l-0.3,0.3h0.3l0.1-0.1l0.1,0.1h0.2l-0.2-0.3l0.4-0.5l0.4,0.5l-0.3,0.3h0.3
					l0.1-0.1l0.1,0.1h0.3l-0.2-0.3l0.4-0.5l0.1,0.1v-0.6l-0.1,0.2l-0.4-0.5l0.3-0.4c0-0.1-0.1-0.1-0.1-0.2l-0.3,0.4l-0.4-0.5
					l0.4-0.4c-0.1-0.1-0.1-0.1-0.2-0.2l-0.3,0.4l-0.4-0.5l0.3-0.3c-0.1-0.1-0.1-0.1-0.2-0.1l-0.2,0.3l-0.4-0.5l0,0c0,0,0,0,0,0
					c-0.1,0-0.1,0-0.2,0.1l-0.4,0.5l-0.2-0.2c0,0-0.1,0.1-0.1,0.1l0.2,0.2l-0.4,0.5C-71-13.1-71.3-13.4-71.3-13.4z M-71.4-12.3
					l0.4-0.5l0.4,0.5l-0.4,0.5L-71.4-12.3z M-70.5-12.5l-0.4-0.5l0.4-0.5l0.4,0.5L-70.5-12.5z M-70-13.1l-0.4-0.5l0.4-0.5l0.4,0.5
					C-69.6-13.7-70-13.1-70-13.1z M-69.8-13l0.4-0.5L-69-13l-0.4,0.5C-69.4-12.5-69.8-13-69.8-13z M-69.3-12.3l0.4-0.5l0.4,0.5
					l-0.4,0.5C-68.9-11.8-69.3-12.3-69.3-12.3z M-68.7-11.6l0.4-0.5l0.4,0.5l-0.4,0.5L-68.7-11.6z M-69.4-12.1l0.4,0.5l-0.4,0.5
					l-0.4-0.5L-69.4-12.1z M-69.6-12.3l-0.4,0.5l-0.4-0.5l0.4-0.5C-69.9-12.8-69.6-12.3-69.6-12.3z M-70.5-12.1l0.4,0.5l-0.4,0.5
					l-0.4-0.5C-70.9-11.6-70.5-12.1-70.5-12.1z M-71.6-12.1l0.4,0.5l-0.4,0.5l-0.4-0.5L-71.6-12.1z M-71.9-9
					c-0.1,0.1-0.2,0.2-0.3,0.3c0.1-0.2,0.2-0.4,0.2-0.6v-0.4c0.1,0.1,0.3,0.1,0.3,0.1h0.2c0.1,0,0.3-0.1,0.3-0.1v0.4c0,0,0,0,0,0.1
					c0,0.1,0.2,0.4,0.2,0.5c-0.1,0-0.1-0.1-0.2-0.1c0-0.1-0.2-0.2-0.2-0.2c0-0.1,0-0.2,0-0.2c0-0.1,0-0.2,0.1-0.3
					c-0.1,0-0.1,0-0.2,0c0,0-0.1,0-0.1,0c0.1,0.1,0.1,0.3,0.2,0.4c-0.2,0.2-0.1,0.4-0.2,0.6c0,0,0,0,0,0c-0.1-0.2,0-0.4-0.2-0.6
					c0.1-0.1,0-0.3,0.2-0.4c-0.1,0-0.1,0-0.2,0c0,0-0.1,0-0.1,0c0,0,0,0,0,0c0,0.2,0.1,0.2,0.1,0.3C-71.8-9.2-71.8-9.1-71.9-9
					C-71.8-9-71.9-9-71.9-9 M-72-9.8c0-0.1,0.3-0.1,0.3-0.1c0.1,0,0.2,0,0.3,0c0.1,0,0.2,0,0.3,0.1c0,0,0.1,0.1,0.1,0.1
					c0,0.1-0.5,0.2-0.5,0.2C-71.5-9.7-72-9.7-72-9.8 M-70.1-9c-0.2,0-0.3,0.3-0.4,0.3c0-0.1,0.1-0.1,0.1-0.1c0,0,0.1-0.3,0.1-0.3
					c0,0,0-0.1,0-0.2v-0.4c0.1,0.1,0.2,0.1,0.3,0.1h0.2c0.1,0,0.3-0.1,0.3-0.1v0.4c0,0.2,0.1,0.5,0.2,0.6C-69.3-8.8-69.4-9-69.6-9
					c0-0.1,0-0.2,0-0.2c0-0.1,0-0.1,0-0.2c0,0,0-0.1,0-0.1c0,0-0.1,0-0.1,0c0,0-0.1,0-0.1,0c0.1,0.1,0.1,0.3,0.2,0.4v0
					c-0.2,0.2-0.1,0.4-0.2,0.6h0C-69.9-8.6-69.8-8.8-70.1-9c0.1-0.1,0.1-0.3,0.2-0.4c-0.1,0-0.2,0-0.3-0.1c0,0,0,0,0,0
					c0,0.1,0.1,0.2,0,0.3C-70.1-9.2-70.1-9-70.1-9z M-70.3-9.8c0-0.1,0.3-0.1,0.3-0.1c0.1,0,0.2,0,0.3,0c0,0,0.3,0,0.3,0.1
					c0,0.1-0.4,0.1-0.5,0.1C-69.9-9.7-70.3-9.7-70.3-9.8 M-68.5-9c-0.1,0-0.2,0.2-0.4,0.3c0.1-0.1,0.2-0.4,0.2-0.6v-0.4
					c0,0.1,0.3,0.1,0.3,0.1h0.2c0.1,0,0.3,0,0.3-0.1v0.4c0,0.2,0.1,0.5,0.2,0.6c-0.1,0-0.1-0.1-0.2-0.1C-67.7-8.9-67.8-9-67.9-9
					c0-0.1,0-0.2,0-0.2c0,0,0-0.1,0-0.2c0,0,0-0.1,0-0.1c0,0,0,0,0,0c-0.1,0-0.2,0-0.3,0.1C-68-9.3-68.1-9.2-68-9
					c-0.2,0.2-0.1,0.4-0.2,0.6c0,0,0,0,0,0c0,0,0-0.1,0-0.1c0,0,0,0,0,0c0,0,0,0,0-0.1c0-0.1,0-0.3-0.2-0.5c0.1-0.1,0.1-0.3,0.2-0.4
					c-0.1,0-0.1,0-0.2,0c0,0-0.1,0-0.1,0c0,0,0,0,0,0c0,0,0.1,0.2,0.1,0.3C-68.5-9.2-68.5-9.1-68.5-9C-68.5-9-68.5-9-68.5-9
					 M-68.7-9.8c0-0.1,0.3-0.1,0.3-0.1c0.1,0,0.2,0,0.3,0c0,0,0.3,0,0.3,0.1c0,0.1-0.4,0.1-0.5,0.1C-68.2-9.7-68.7-9.7-68.7-9.8
					 M-66.5-6.7C-66.5-6.7-66.5-6.7-66.5-6.7c0-0.1,0-0.1,0-0.2c0,0,0,0,0,0c0,0,0.1,0,0.1,0c0.1,0,0.2,0.1,0.2,0.2
					c0.1,0.1,0.2,0.1,0.3,0.1l-0.1,0c0,0,0,0-0.1,0s-0.1,0-0.2,0c0,0-0.1,0-0.1,0c0,0,0-0.1,0-0.1c0,0-0.1,0-0.1,0.1
					c0,0.1,0.1,0.1,0.2,0.1c0,0,0.1,0,0.1,0c0,0,0,0,0,0.1c0,0.1,0,0.2-0.1,0.2c0,0,0,0,0,0v0c0,0,0.1-0.1,0.1-0.1c0,0,0,0,0,0h0
					C-66.3-6.5-66.4-6.5-66.5-6.7 M-66.1-6.2C-66-6.2-66-6.2-66.1-6.2C-66-6.2-66-6.1-66.1-6.2C-66.1-6.1-66.1-6.2-66.1-6.2
					C-66.1-6.2-66.1-6.2-66.1-6.2C-66.1-6.2-66.1-6.2-66.1-6.2z M-63.2-8.3h-3.5v-2.3C-65.4-10.1-64.2-9.3-63.2-8.3 M-63.7-8.5
					c-0.4-0.5-1.3-1.2-1.8-0.8c0-0.6-0.6-1-1.1-1c0,0.5,0.2,1,0.6,1.1c-0.3,0.1-0.7,0.3-0.7,0.8c0.6,0.2,1.1-0.1,1.2-0.5
					C-65.1-8.3-64-8.4-63.7-8.5 M-64-8.6c-0.4,0.1-1.1,0-1.4-0.6C-65-9.5-64.3-9-64-8.6 M-65.7-9.1c-0.1,0.3-0.3,0.7-0.8,0.6
					C-66.4-8.9-65.9-9.1-65.7-9.1 M-65.7-9.3c-0.3,0-0.8-0.2-0.8-0.8C-65.9-9.9-65.7-9.5-65.7-9.3 M-63.6,3.4
					C-63.6,3.4-63.6,3.4-63.6,3.4C-63.6,3.4-63.6,3.4-63.6,3.4c-0.1,0-0.2,0.1-0.2,0.1c0,0-0.1,0-0.1,0c0,0-0.1,0-0.1,0H-64
					c0,0,0,0-0.1,0c0,0,0,0,0,0c0-0.1,0.1,0,0.1-0.1c-0.1-0.1-0.1-0.1-0.1-0.2c0-0.1,0-0.2,0.2-0.2c0.1,0,0.2,0.1,0.2,0.2
					c0,0,0,0.1-0.1,0.1l0,0c0,0,0,0,0.1,0C-63.7,3.3-63.7,3.3-63.6,3.4C-63.6,3.3-63.6,3.3-63.6,3.4 M-63.9,3.1
					C-63.9,3.1-63.9,3-63.9,3.1C-64,3-64,3.1-64,3.1C-64,3.1-64,3.2-63.9,3.1C-63.9,3.2-63.9,3.1-63.9,3.1 M-64.2,3.4
					C-64.1,3.4-64.1,3.4-64.2,3.4c0.1,0.1,0,0.2,0,0.2c0,0,0,0,0,0v0C-64.2,3.5-64.2,3.5-64.2,3.4 M-65.3,0.9
					C-65.2,0.9-65.2,1-65.3,0.9C-65.2,1-65.2,1-65.3,0.9c0,0.1,0,0.1,0,0.1v0.1c0,0-0.1,0.2-0.1,0.2c0,0-0.1,0-0.1,0
					c0,0-0.1,0-0.1-0.1v0c0,0,0.1,0,0.1,0c0,0,0.1-0.1,0.1-0.1V1.1C-65.4,1-65.3,0.9-65.3,0.9 M-65.5,1.1c0,0-0.1-0.1-0.1-0.1
					c0,0,0-0.1,0.1-0.1c0,0,0.1,0,0.1,0C-65.5,1-65.5,1-65.5,1.1C-65.5,1-65.5,1-65.5,1.1L-65.5,1.1C-65.5,1.1-65.5,1.1-65.5,1.1
					 M-65.7,0.7C-65.7,0.7-65.7,0.8-65.7,0.7c0,0.1,0,0.2-0.1,0.2c0,0-0.1,0-0.1,0c0,0,0-0.1,0.1-0.1c0,0,0,0,0,0
					C-65.8,0.8-65.8,0.8-65.7,0.7C-65.8,0.7-65.7,0.7-65.7,0.7 M-65.7,0.6C-65.7,0.6-65.7,0.6-65.7,0.6C-65.7,0.6-65.7,0.6-65.7,0.6
					c0.1-0.1,0.1,0,0.1,0C-65.6,0.7-65.6,0.7-65.7,0.6C-65.7,0.7-65.7,0.6-65.7,0.6 M-65.6,0.6C-65.6,0.6-65.7,0.6-65.6,0.6
					L-65.6,0.6C-65.6,0.5-65.6,0.5-65.6,0.6C-65.6,0.6-65.6,0.6-65.6,0.6 M-64.5,2.1C-64.5,2.1-64.6,2-64.5,2.1
					C-64.5,2-64.5,2-64.5,2.1c0.1-0.1,0.1-0.1,0.1,0C-64.4,2.1-64.4,2-64.5,2.1C-64.5,2-64.5,2.1-64.5,2.1 M-64.4,2.1l0-0.3
					c0,0,0-0.1,0-0.1c0,0,0,0,0,0c0,0,0,0,0.1,0c0,0,0,0,0,0c0,0,0,0,0,0l0,0l0,0c-0.1,0-0.1,0-0.1,0c0,0,0,0,0,0c0,0,0,0.2,0,0.2
					C-64.3,2-64.3,2-64.4,2.1 M-64.3,1.6C-64.3,1.6-64.4,1.6-64.3,1.6C-64.3,1.6-64.3,1.6-64.3,1.6c0-0.1,0.1-0.1,0.1-0.1
					c0,0,0,0,0,0c0,0,0.1,0,0.1,0c0,0-0.1,0-0.1,0C-64.2,1.6-64.3,1.6-64.3,1.6 M-64.2,1.5c0,0-0.1,0-0.1,0
					C-64.3,1.5-64.2,1.5-64.2,1.5C-64.2,1.5-64.1,1.5-64.2,1.5C-64.1,1.5-64.1,1.5-64.2,1.5 M-64,2.2C-64,2.2-64,2.2-64,2.2
					c0,0-0.1-0.1-0.2-0.1c0,0,0,0-0.1,0c0-0.1,0.1-0.1,0.1-0.1C-64.1,2-64,2.1-64,2.2 M-66.8-1.6C-66.8-1.6-66.8-1.6-66.8-1.6
					L-66.8-1.6C-66.8-1.6-66.8-1.6-66.8-1.6C-66.9-1.6-66.9-1.6-66.8-1.6C-66.9-1.6-66.9-1.6-66.8-1.6 M-67.3-0.2
					C-67.3-0.2-67.3-0.1-67.3-0.2c0.1,0.1,0,0.1,0,0.1C-67.3-0.1-67.4-0.2-67.3-0.2L-67.3-0.2C-67.4-0.2-67.3-0.2-67.3-0.2z
					 M-67.4-0.1c0,0,0.1,0,0.1,0.1v0C-67.3,0-67.3,0-67.4-0.1C-67.3,0-67.3,0-67.4-0.1C-67.4,0-67.4,0-67.4-0.1c0,0.1-0.1,0-0.1,0
					C-67.5-0.1-67.5-0.2-67.4-0.1C-67.5-0.2-67.4-0.2-67.4-0.1C-67.4-0.1-67.4-0.1-67.4-0.1 M-67.8,0.4C-67.8,0.4-67.7,0.5-67.8,0.4
					C-67.7,0.5-67.8,0.5-67.8,0.4c0,0.1-0.2,0-0.2-0.1c0,0,0,0,0,0h0c0,0,0.1,0,0.1,0c0,0,0-0.1,0.1-0.1
					C-67.8,0.3-67.7,0.3-67.8,0.4C-67.7,0.4-67.7,0.4-67.8,0.4 M-68.1,0.2c0,0-0.1,0.1-0.1,0.2c0,0,0.1,0.1,0.1,0.1
					c0,0.1,0,0.1,0,0.2c0,0,0,0.2-0.1,0.2c0,0,0,0,0,0c0,0,0-0.1,0-0.1c0,0,0-0.1,0-0.1c-0.1-0.1-0.2-0.1-0.2-0.2
					c0-0.1,0.1-0.2,0.1-0.3c0,0,0,0,0-0.1c0,0,0-0.1,0.1-0.1C-68.1-0.1-68,0-68,0C-68,0-68,0.1-68.1,0.2 M-68.3-0.4
					C-68.3-0.4-68.3-0.4-68.3-0.4c-0.1,0.1-0.1,0-0.1,0S-68.4-0.5-68.3-0.4C-68.3-0.5-68.3-0.5-68.3-0.4 M-69.8,4.9
					C-69.8,4.9-69.8,4.9-69.8,4.9C-69.8,4.9-69.8,4.9-69.8,4.9l0.3,0l0.4,0.5L-69.8,4.9C-69.9,5-69.9,5-69.9,5v0l0.2,0.4l-0.2,0.5V5
					h0c0,0-0.1,0-0.1,0c-0.3,0.1-0.5,0.3-0.8,0.4l0.4-0.5h0.5l-0.8-0.6c0.2,0,0.4,0,0.5,0.1c0.1,0.1,0.2,0.3,0.2,0.4h0v-1
					c0.1,0.2,0.2,0.4,0.3,0.6c0,0,0,0,0,0c0,0,0,0,0,0c0,0,0,0.1,0,0.1c0,0,0,0,0,0l0.6-0.1C-69.2,4.6-69.5,4.7-69.8,4.9 M-71.2,1.7
					C-71.1,1.7-71.1,1.7-71.2,1.7c0,0.2-0.1,0.2-0.1,0.3c0,0.1-0.1,0.3-0.1,0.4V2.3c0-0.1,0.1-0.2,0.1-0.2c0,0,0,0-0.1,0
					c0,0,0,0-0.1,0v0.1c0,0.1-0.1,0.3-0.1,0.4c0,0,0,0,0,0c0,0,0-0.2,0.1-0.2c0,0,0-0.1,0-0.1V2.1c0-0.1,0.1-0.1,0.2-0.1
					C-71.3,2-71.2,1.7-71.2,1.7 M-71.7,2.3C-71.6,2.3-71.6,2.3-71.7,2.3C-71.6,2.4-71.7,2.4-71.7,2.3c0,0.1-0.2,0-0.2,0c0,0,0,0,0,0
					c0,0,0.1,0,0.1,0C-71.8,2.3-71.8,2.3-71.7,2.3C-71.8,2.2-71.8,2.2-71.7,2.3C-71.7,2.2-71.7,2.2-71.7,2.3
					C-71.7,2.3-71.7,2.3-71.7,2.3 M-71.9,2c-0.1,0-0.1,0-0.1,0c0,0,0,0,0,0C-72,1.9-71.9,1.9-71.9,2C-71.9,1.9-71.8,1.9-71.9,2
					C-71.8,2-71.9,2-71.9,2L-71.9,2C-71.9,2-71.9,2-71.9,2 M-72.1,2.3C-72,2.3-72,2.3-72.1,2.3C-72,2.3-72.1,2.3-72.1,2.3
					c0,0.1-0.1,0-0.2,0c0,0,0,0,0-0.1c0,0,0.1,0,0.1,0c0,0,0-0.1,0-0.1C-72.1,2.2-72.1,2.2-72.1,2.3C-72.1,2.3-72.1,2.3-72.1,2.3
					C-72.1,2.3-72.1,2.3-72.1,2.3 M-71.8,1.7C-71.8,1.7-71.9,1.7-71.8,1.7C-71.9,1.6-71.9,1.6-71.8,1.7C-71.9,1.6-71.8,1.6-71.8,1.7
					C-71.8,1.7-71.8,1.7-71.8,1.7C-71.8,1.7-71.8,1.7-71.8,1.7 M-71.9,1.7C-71.9,1.7-71.9,1.7-71.9,1.7c0.1,0,0.2,0,0.2,0.1l0,0
					L-71.9,1.7C-71.9,1.8-71.9,1.8-71.9,1.7C-72,1.8-72,1.8-71.9,1.7C-72,1.7-72,1.7-71.9,1.7 M-72.2,2.1L-72.2,2.1L-72.2,2.1
					c0-0.1,0-0.2,0-0.3c0,0,0-0.1,0-0.1c0,0,0.1-0.1,0.1-0.1c0,0,0-0.1,0.1-0.1c0,0,0.1,0,0.1,0c0,0,0.1,0,0.2,0.1c0,0-0.1,0-0.1,0
					c0,0-0.1,0.1-0.1,0.1c0,0,0,0.1,0,0.1c0,0.1-0.1,0.1-0.1,0.1C-72.1,1.9-72.1,2-72.2,2.1 M-71-1.9C-71-1.9-71.1-1.9-71-1.9
					c0-0.1,0-0.2,0-0.2c0-0.1,0-0.1,0-0.2c0-0.1,0-0.1,0-0.2c0,0,0-0.1,0-0.1c0,0,0-0.1,0-0.2l0-0.8v-0.8c0,0,0-0.2,0-0.2
					c0,0,0-0.2,0-0.3c0,0,0-0.1,0-0.1c0,0,0-0.2,0-0.3c0-0.2,0-0.3,0.2-0.5c0,0,0,0,0.1,0c0,0,0.1,0,0.1,0.1c0,0-0.1,0.1-0.1,0.1
					c0,0.1,0,0.2,0,0.3v0.2l0,0.3c0,0,0,0.1,0,0.1V-4l0,1C-70.8-2.7-70.8-2.2-71-1.9C-71-1.9-71-1.9-71-1.9 M-70.4,0
					C-70.5,0-70.5-0.1-70.4,0c-0.1-0.1-0.1-0.1,0-0.1C-70.4-0.2-70.3-0.1-70.4,0C-70.3-0.1-70.4,0-70.4,0 M-74.6-0.9
					C-74.6-0.9-74.6-0.9-74.6-0.9C-74.6-0.9-74.6-0.9-74.6-0.9L-74.6-0.9C-74.7-0.9-74.6-0.9-74.6-0.9L-75-0.9c-0.1,0-0.1,0-0.2,0v0
					c0,0,0.1-0.1,0.2-0.1L-74.6-0.9C-74.7-1-74.6-0.9-74.6-0.9 M-74.9,0.8C-74.9,0.8-74.9,0.8-74.9,0.8c0.1,0.1,0,0.1,0,0.1
					C-75,0.9-75,0.9-74.9,0.8C-75,0.8-75,0.8-74.9,0.8 M-76.9-1.1C-76.9-1.1-76.8-1-76.9-1.1c0.1,0.1,0,0.1,0,0.1
					C-76.9-0.9-77-1-76.9-1.1C-77-1.1-76.9-1.1-76.9-1.1 M-76,2.3C-76,2.3-76,2.3-76,2.3L-76,2.3C-76,2.2-76,2.2-76,2.3
					c0-0.1,0.1-0.2,0.1-0.2c0,0,0,0,0.1,0c0,0,0,0,0,0c0,0,0,0,0,0l0,0C-75.8,2.3-75.9,2.3-76,2.3 M-75.9,1.8
					C-75.9,1.8-76,1.8-75.9,1.8c0-0.1,0-0.1,0-0.1c0,0,0.1,0,0.1,0c0,0,0.1,0,0.1,0.1C-75.8,1.8-75.9,1.8-75.9,1.8 M-75.9,1.7
					C-75.9,1.7-75.9,1.7-75.9,1.7C-75.9,1.6-75.9,1.6-75.9,1.7C-75.8,1.6-75.8,1.6-75.9,1.7L-75.9,1.7C-75.8,1.7-75.8,1.7-75.9,1.7
					 M-75.8,1.9C-75.8,1.9-75.7,1.9-75.8,1.9L-75.8,1.9c0,0.1-0.1,0.1-0.1,0.1c0,0,0,0,0,0C-75.9,1.9-75.8,1.9-75.8,1.9 M-76.5-8.3
					c1-1,2.2-1.8,3.5-2.3v2.3H-76.5z M-76-8.5c0.3,0.2,1.4,0.3,1.8-0.4c0.1,0.4,0.6,0.7,1.2,0.5c0-0.4-0.4-0.7-0.7-0.8
					c0.4-0.1,0.7-0.5,0.6-1.1c-0.5,0-1.1,0.4-1.1,1C-74.7-9.7-75.6-9.1-76-8.5 M-75.7-8.6c0.3-0.4,1-0.9,1.4-0.6
					C-74.6-8.6-75.3-8.5-75.7-8.6 M-74-9.1c0.2,0,0.7,0.2,0.8,0.6C-73.7-8.5-73.9-8.9-74-9.1 M-74-9.3c0-0.2,0.1-0.6,0.8-0.8
					C-73.2-9.5-73.7-9.4-74-9.3"/>
			</g>
		</g>
	</g>
</g>
</svg>
